<?xml version="1.0" encoding="UTF-8" standalone="no"?>
<!-- Generator: Adobe Illustrator 16.0.0, SVG Export Plug-In . SVG Version: 6.00 Build 0)  -->

<svg
   xmlns:dc="http://purl.org/dc/elements/1.1/"
   xmlns:cc="http://creativecommons.org/ns#"
   xmlns:rdf="http://www.w3.org/1999/02/22-rdf-syntax-ns#"
   xmlns:svg="http://www.w3.org/2000/svg"
   xmlns="http://www.w3.org/2000/svg"
   xmlns:sodipodi="http://sodipodi.sourceforge.net/DTD/sodipodi-0.dtd"
   xmlns:inkscape="http://www.inkscape.org/namespaces/inkscape"
   version="1.1"
   id="svg2"
   inkscape:output_extension="org.inkscape.output.svg.inkscape"
   sodipodi:docname="bear.svg"
   inkscape:version="0.91 r13725"
   sodipodi:version="0.32"
   x="0px"
   y="0px"
   width="580px"
   height="580px"
   viewBox="0 0 580 580"
   enable-background="new 0 0 580 580"
   xml:space="preserve"><metadata
     id="metadata75"><rdf:RDF><cc:Work
         rdf:about=""><dc:format>image/svg+xml</dc:format><dc:type
           rdf:resource="http://purl.org/dc/dcmitype/StillImage" /><dc:title /></cc:Work></rdf:RDF></metadata><sodipodi:namedview
     showgrid="false"
     inkscape:cy="11.789255"
     inkscape:cx="-389.74019"
     inkscape:zoom="0.32586207"
     pagecolor="#ffffff"
     bordercolor="#666666"
     guidetolerance="10.0"
     objecttolerance="10.0"
     gridtolerance="10.0"
     borderopacity="1.0"
     id="base"
     inkscape:current-layer="svg2"
     inkscape:window-y="-8"
     inkscape:window-x="-8"
     inkscape:pageopacity="0.0"
     inkscape:pageshadow="2"
     inkscape:window-height="705"
     inkscape:window-width="1366"
     inkscape:window-maximized="1" /><defs
     id="defs4"><inkscape:perspective
       inkscape:vp_z="580 : 290 : 1"
       inkscape:vp_y="0 : 1000 : 0"
       inkscape:vp_x="0 : 290 : 1"
       sodipodi:type="inkscape:persp3d"
       id="perspective3653"
       inkscape:persp3d-origin="290 : 193.33333 : 1" /><pattern
       y="0"
       x="0"
       height="6"
       width="6"
       patternUnits="userSpaceOnUse"
       id="EMFhbasepattern" /></defs><g
     id="g3393"
     transform="matrix(0.93154875,0,0,0.93154875,77.051802,4.6776356)"><g
       transform="matrix(0.45917568,0.04097388,-0.04075559,0.45672941,103.87893,-26.46259)"
       id="g4158"><ellipse
         style="opacity:1;fill:#000000;fill-opacity:1;stroke:#000000;stroke-width:0;stroke-linecap:butt;stroke-linejoin:round;stroke-miterlimit:4;stroke-dasharray:none;stroke-opacity:1"
         id="path4272-7-5"
         cx="57.584579"
         cy="259.63718"
         rx="53.176498"
         ry="71.81868"
         transform="matrix(0.99990497,0.01378617,0.05724799,0.99835999,0,0)"
         inkscape:transform-center-x="26.088398"
         inkscape:transform-center-y="17.903549" /><path
         style="opacity:1;fill:#000000;fill-rule:evenodd;stroke:#000000;stroke-width:11.42618847px;stroke-linecap:butt;stroke-linejoin:miter;stroke-opacity:1"
         d="m 448.32399,303.1284 c 25.41509,9.57326 47.81457,11.95797 74.78,32.34373 24.90198,18.82579 30.77313,66.89834 32.60248,102.80064 3.04226,59.70645 -31.22958,142.40556 -36.56098,175.5857 -8.74475,54.42322 -22.39056,182.34717 -140.99754,183.32657 C 269.89413,790.36061 250.12979,718.45142 198.36226,665.0525 158.62408,624.06202 120.04245,542.56937 101.26316,523.96442 75.700483,498.63906 64.159027,403.74842 86.077358,370.22467 112.96946,329.09448 147.01383,323.96683 182.00431,309.59507 278.07358,273.5444 328.63297,279.89671 448.32399,303.1284 Z"
         id="path4319"
         inkscape:connector-curvature="0"
         sodipodi:nodetypes="csascasscc" /><path
         style="opacity:1;fill:#000000;fill-rule:evenodd;stroke:#000000;stroke-width:4.44811916px;stroke-linecap:butt;stroke-linejoin:miter;stroke-opacity:1"
         d="m 56.87766,166.25247 c -0.342405,4.92976 21.391362,2.94937 19.105633,-1.85313 0,0 -8.260674,-31.6707 -10.809043,-29.72896 0,0 -7.806293,24.52307 -8.29659,31.58209 z"
         id="path4328"
         inkscape:connector-curvature="0"
         sodipodi:nodetypes="ssss" /><ellipse
         style="opacity:1;fill:#000000;fill-opacity:1;stroke:#000000;stroke-width:0;stroke-linecap:butt;stroke-linejoin:round;stroke-miterlimit:4;stroke-dasharray:none;stroke-opacity:1"
         id="path4272-7-5-4"
         cx="190.81789"
         cy="170.15125"
         rx="53.176498"
         ry="71.81868"
         transform="matrix(0.99173916,0.12827096,-0.05752764,0.99834391,0,0)"
         inkscape:transform-center-x="27.968045"
         inkscape:transform-center-y="14.796267" /><ellipse
         style="opacity:1;fill:#000000;fill-opacity:1;stroke:#000000;stroke-width:0;stroke-linecap:butt;stroke-linejoin:round;stroke-miterlimit:4;stroke-dasharray:none;stroke-opacity:1"
         id="path4272-7-5-4-8"
         cx="315.09586"
         cy="119.20618"
         rx="48.970459"
         ry="67.492981"
         transform="matrix(0.98585348,0.16760942,-0.11232109,0.99367196,0,0)"
         inkscape:transform-center-x="26.571402"
         inkscape:transform-center-y="12.907234" /><ellipse
         style="opacity:1;fill:#000000;fill-opacity:1;stroke:#000000;stroke-width:0;stroke-linecap:butt;stroke-linejoin:round;stroke-miterlimit:4;stroke-dasharray:none;stroke-opacity:1"
         id="path4272-7-5-4-8-9"
         cx="438.0152"
         cy="80.400581"
         rx="47.584747"
         ry="67.382225"
         transform="matrix(0.96891698,0.24738609,-0.17943429,0.98376996,0,0)"
         inkscape:transform-center-x="26.612498"
         inkscape:transform-center-y="10.89021" /><ellipse
         style="opacity:1;fill:#000000;fill-opacity:1;stroke:#000000;stroke-width:0;stroke-linecap:butt;stroke-linejoin:round;stroke-miterlimit:4;stroke-dasharray:none;stroke-opacity:1"
         id="path4272-7-5-4-8-9-3"
         cx="525.41742"
         cy="251.41226"
         rx="43.660904"
         ry="57.06525"
         transform="matrix(0.99950285,-0.03152848,-0.00555573,0.99998457,0,0)"
         inkscape:transform-center-x="22.352404"
         inkscape:transform-center-y="15.249144" /><path
         style="opacity:1;fill:#000000;fill-rule:evenodd;stroke:#000000;stroke-width:4.44811916px;stroke-linecap:butt;stroke-linejoin:miter;stroke-opacity:1"
         d="m 162.17251,99.462862 c -0.27679,4.933888 21.42871,2.664538 19.07927,-2.10712 0,0 -8.68124,-31.558002 -11.20355,-29.582538 0,0 -7.47937,24.624756 -7.87572,31.689658 z"
         id="path4328-7"
         inkscape:connector-curvature="0"
         sodipodi:nodetypes="ssss" /><path
         style="opacity:1;fill:#000000;fill-rule:evenodd;stroke:#000000;stroke-width:4.44811916px;stroke-linecap:butt;stroke-linejoin:miter;stroke-opacity:1"
         d="m 287.39434,83.174266 c -0.66667,4.896451 21.15037,4.353195 19.18621,-0.58954 0,0 -6.15475,-32.146393 -8.82557,-30.37688 0,0 -9.40604,23.955081 -10.36064,30.96642 z"
         id="path4328-7-8"
         inkscape:connector-curvature="0"
         sodipodi:nodetypes="ssss"
         inkscape:transform-center-x="7.4330544"
         inkscape:transform-center-y="-4.0259062" /><path
         style="opacity:1;fill:#000000;fill-rule:evenodd;stroke:#000000;stroke-width:4.44811916px;stroke-linecap:butt;stroke-linejoin:miter;stroke-opacity:1"
         d="m 409.45513,98.432745 c -0.91198,4.856745 20.90478,5.410965 19.1916,0.375732 0,0 -4.53089,-32.415154 -7.28732,-30.782154 0,0 -10.5984,23.451946 -11.90428,30.406422 z"
         id="path4328-7-8-3"
         inkscape:connector-curvature="0"
         sodipodi:nodetypes="ssss"
         inkscape:transform-center-x="7.941105"
         inkscape:transform-center-y="-4.3615226" /><path
         style="opacity:1;fill:#000000;fill-rule:evenodd;stroke:#000000;stroke-width:4.44811916px;stroke-linecap:butt;stroke-linejoin:miter;stroke-opacity:1"
         d="m 523.68371,150.48152 c -0.93105,4.85312 20.88337,5.49301 19.18996,0.45111 0,0 -4.40355,-32.43271 -7.16634,-30.81054 0,0 -10.69044,23.41014 -12.02362,30.35943 z"
         id="path4328-7-8-3-0"
         inkscape:connector-curvature="0"
         sodipodi:nodetypes="ssss"
         inkscape:transform-center-x="4.9111671"
         inkscape:transform-center-y="-4.3855624" /></g><g
       transform="matrix(1.4432436,0.035788,-0.035788,1.4432436,133.35311,-1053.2023)"
       id="g4203"><path
         inkscape:connector-curvature="0"
         id="path4150"
         d="m 37.500254,1058.3071 c 0.740834,12.6365 -6.286415,22.775 -15.663192,22.648 -9.355582,-0.127 -17.5470313,-10.4772 -18.2878592,-23.1349 -0.7196608,-12.6365 6.2864438,-22.775 15.6632212,-22.648 9.376748,0.127 17.568164,10.4772 18.28783,23.1349 z"
         style="fill:#000000;fill-opacity:1;fill-rule:nonzero;stroke:none" /><path
         inkscape:connector-curvature="0"
         id="path4152"
         d="m 37.500254,1058.3071 c 0.740834,12.6365 -6.286415,22.775 -15.663192,22.648 -9.355582,-0.127 -17.5470313,-10.4772 -18.2878592,-23.1349 -0.7196608,-12.6365 6.2864438,-22.775 15.6632212,-22.648 9.376748,0.127 17.568164,10.4772 18.28783,23.1349 z"
         style="fill:none;stroke:none" /><path
         inkscape:connector-curvature="0"
         id="path4154"
         d="m 93.485806,1061.7149 c 22.436384,2.159 31.157054,9.2498 46.354434,14.9648 8.10683,3.0477 15.26117,3.8097 23.876,10.3291 7.9375,6.0113 13.01722,21.6323 10.414,32.808 -2.20133,9.3557 -10.668,18.4574 -20.0025,20.7222 -17.0815,4.191 -28.61705,-1.3547 -58.165434,-3.1115 -25.548167,1.9685 -27.8765,7.5565 -42.163718,7.6835 -9.990667,0.085 -23.600749,1.0795 -29.612026,-4.8472 -8.14911,-8.0856 -6.984972,-31.4534 0,-42.1637 8.593526,-13.1233 19.981192,-13.6737 30.628026,-19.3463 12.445718,-6.6249 19.959884,-14.7106 38.671218,-17.0389 z"
         style="fill:#000000;fill-opacity:1;fill-rule:evenodd;stroke:#000000;stroke-width:3.64063954px;stroke-linecap:butt;stroke-linejoin:miter;stroke-miterlimit:4;stroke-dasharray:none;stroke-opacity:1" /><path
         inkscape:connector-curvature="0"
         id="path4156"
         d="m 17.64609,1025.372 c -0.105833,1.5663 6.815639,0.9313 6.095972,-0.5927 0,0 -2.645833,-10.1176 -3.450138,-9.5038 0,0 -2.497667,7.8317 -2.645834,10.0965 z"
         style="fill:#000000;fill-opacity:1;fill-rule:evenodd;stroke:#000000;stroke-width:1.41815615px;stroke-linecap:butt;stroke-linejoin:miter;stroke-miterlimit:4;stroke-dasharray:none;stroke-opacity:1" /><path
         inkscape:connector-curvature="0"
         id="path4158"
         d="m 73.610306,1036.5057 c -0.719667,12.6362 -8.847667,21.9072 -18.160718,20.7219 -9.292167,-1.2065 -16.234834,-12.4249 -15.515167,-25.0823 0.740833,-12.6365 8.868833,-21.9074 18.161,-20.701 9.291885,1.2065 16.234551,12.4249 15.514885,25.0614 z"
         style="fill:#000000;fill-opacity:1;fill-rule:nonzero;stroke:none" /><path
         inkscape:connector-curvature="0"
         id="path4160"
         d="m 73.610306,1036.5057 c -0.719667,12.6362 -8.847667,21.9072 -18.160718,20.7219 -9.292167,-1.2065 -16.234834,-12.4249 -15.515167,-25.0823 0.740833,-12.6365 8.868833,-21.9074 18.161,-20.701 9.291885,1.2065 16.234551,12.4249 15.514885,25.0614 z"
         style="fill:none;stroke:none" /><path
         inkscape:connector-curvature="0"
         id="path4162"
         d="m 109.78386,1029.5842 c -1.3335,11.8319 -9.31334,20.235 -17.822054,18.7957 -8.509,-1.4605 -14.329834,-12.2129 -12.996334,-24.0451 1.3335,-11.811 9.313334,-20.2352 17.8435,-18.7747 8.508718,1.4394 14.329548,12.1919 12.974888,24.0241 z"
         style="fill:#000000;fill-opacity:1;fill-rule:nonzero;stroke:none" /><path
         inkscape:connector-curvature="0"
         id="path4164"
         d="m 109.78386,1029.5842 c -1.3335,11.8319 -9.31334,20.235 -17.822054,18.7957 -8.509,-1.4605 -14.329834,-12.2129 -12.996334,-24.0451 1.3335,-11.811 9.313334,-20.2352 17.8435,-18.7747 8.508718,1.4394 14.329548,12.1919 12.974888,24.0241 z"
         style="fill:none;stroke:none" /><path
         inkscape:connector-curvature="0"
         id="path4166"
         d="m 145.08957,1035.8918 c -2.13783,11.6838 -10.45605,19.4731 -18.58405,17.3988 -8.128,-2.0744 -12.99633,-13.2292 -10.8585,-24.9129 2.13784,-11.684 10.45634,-19.4944 18.58434,-17.4202 8.12771,2.0955 12.99605,13.2503 10.85821,24.9343 z"
         style="fill:#000000;fill-opacity:1;fill-rule:nonzero;stroke:none" /><path
         inkscape:connector-curvature="0"
         id="path4168"
         d="m 145.08957,1035.8918 c -2.13783,11.6838 -10.45605,19.4731 -18.58405,17.3988 -8.128,-2.0744 -12.99633,-13.2292 -10.8585,-24.9129 2.13784,-11.684 10.45634,-19.4944 18.58434,-17.4202 8.12771,2.0955 12.99605,13.2503 10.85821,24.9343 z"
         style="fill:none;stroke:none" /><path
         inkscape:connector-curvature="0"
         id="path4170"
         d="m 180.62813,1046.8136 c -0.0635,10.0753 -6.34972,18.415 -14.03322,18.669 -7.70467,0.2328 -13.88534,-7.7259 -13.843,-17.78 0.0635,-10.0751 6.35,-18.4148 14.0335,-18.6688 7.70466,-0.2328 13.90622,7.7259 13.84272,17.7798 z"
         style="fill:#000000;fill-opacity:1;fill-rule:nonzero;stroke:none" /><path
         inkscape:connector-curvature="0"
         id="path4172"
         d="m 180.62813,1046.8136 c -0.0635,10.0753 -6.34972,18.415 -14.03322,18.669 -7.70467,0.2328 -13.88534,-7.7259 -13.843,-17.78 0.0635,-10.0751 6.35,-18.4148 14.0335,-18.6688 7.70466,-0.2328 13.90622,7.7259 13.84272,17.7798 z"
         style="fill:none;stroke:none" /><path
         inkscape:connector-curvature="0"
         id="path4174"
         d="m 53.332921,1000.5648 c -0.08467,1.5875 6.836833,0.8679 6.096,-0.65615 0,0 -2.772833,-10.07525 -3.577167,-9.44025 0,0 -2.391833,7.85278 -2.518833,10.0964 z"
         style="fill:#000000;fill-opacity:1;fill-rule:evenodd;stroke:#000000;stroke-width:1.41815615px;stroke-linecap:butt;stroke-linejoin:miter;stroke-miterlimit:4;stroke-dasharray:none;stroke-opacity:1" /><path
         inkscape:connector-curvature="0"
         id="path4176"
         d="m 91.919472,993.30471 c -0.211666,1.54517 6.752167,1.37583 6.138334,-0.1905 0,0 -1.9685,-10.26575 -2.815167,-9.69426 0,0 -3.005667,7.64112 -3.323167,9.88476 z"
         style="fill:#000000;fill-opacity:1;fill-rule:evenodd;stroke:#000000;stroke-width:1.41815615px;stroke-linecap:butt;stroke-linejoin:miter;stroke-miterlimit:4;stroke-dasharray:none;stroke-opacity:1" /><path
         inkscape:connector-curvature="0"
         id="path4178"
         d="m 133.65986,993.32588 c -0.27517,1.54516 6.68838,1.7145 6.13805,0.10583 0,0 -1.4605,-10.35042 -2.32834,-9.82126 0,0 -3.38638,7.49295 -3.80971,9.71543 z"
         style="fill:#000000;fill-opacity:1;fill-rule:evenodd;stroke:#000000;stroke-width:1.41815615px;stroke-linecap:butt;stroke-linejoin:miter;stroke-miterlimit:4;stroke-dasharray:none;stroke-opacity:1" /><path
         inkscape:connector-curvature="0"
         id="path4180"
         d="m 166.67957,1020.3343 c -0.29633,1.5452 6.6675,1.7357 6.11717,0.127 0,0 -1.397,-10.3504 -2.286,-9.8212 0,0 -3.40783,7.4717 -3.83117,9.6942 z"
         style="fill:#000000;fill-opacity:1;fill-rule:evenodd;stroke:#000000;stroke-width:1.41815615px;stroke-linecap:butt;stroke-linejoin:miter;stroke-miterlimit:4;stroke-dasharray:none;stroke-opacity:1" /></g></g></svg>