<?xml version="1.0" encoding="UTF-8" standalone="no"?>
<!-- Generator: Adobe Illustrator 16.0.0, SVG Export Plug-In . SVG Version: 6.00 Build 0)  -->

<svg
   xmlns:dc="http://purl.org/dc/elements/1.1/"
   xmlns:cc="http://creativecommons.org/ns#"
   xmlns:rdf="http://www.w3.org/1999/02/22-rdf-syntax-ns#"
   xmlns:svg="http://www.w3.org/2000/svg"
   xmlns="http://www.w3.org/2000/svg"
   xmlns:sodipodi="http://sodipodi.sourceforge.net/DTD/sodipodi-0.dtd"
   xmlns:inkscape="http://www.inkscape.org/namespaces/inkscape"
   version="1.1"
   id="svg2"
   inkscape:output_extension="org.inkscape.output.svg.inkscape"
   sodipodi:docname="bear_back_paw.svg"
   inkscape:version="0.91 r13725"
   sodipodi:version="0.32"
   x="0px"
   y="0px"
   width="580px"
   height="580px"
   viewBox="0 0 580 580"
   enable-background="new 0 0 580 580"
   xml:space="preserve"><metadata
     id="metadata75"><rdf:RDF><cc:Work
         rdf:about=""><dc:format>image/svg+xml</dc:format><dc:type
           rdf:resource="http://purl.org/dc/dcmitype/StillImage" /><dc:title /></cc:Work></rdf:RDF></metadata><sodipodi:namedview
     showgrid="false"
     inkscape:cy="261.31848"
     inkscape:cx="416.33589"
     inkscape:zoom="0.65172414"
     pagecolor="#ffffff"
     bordercolor="#666666"
     guidetolerance="10.0"
     objecttolerance="10.0"
     gridtolerance="10.0"
     borderopacity="1.0"
     id="base"
     inkscape:current-layer="svg2"
     inkscape:window-y="-8"
     inkscape:window-x="-8"
     inkscape:pageopacity="0.0"
     inkscape:pageshadow="2"
     inkscape:window-height="705"
     inkscape:window-width="1366"
     inkscape:window-maximized="1" /><defs
     id="defs4"><inkscape:perspective
       inkscape:vp_z="580 : 290 : 1"
       inkscape:vp_y="0 : 1000 : 0"
       inkscape:vp_x="0 : 290 : 1"
       sodipodi:type="inkscape:persp3d"
       id="perspective3653"
       inkscape:persp3d-origin="290 : 193.33333 : 1" /><pattern
       y="0"
       x="0"
       height="6"
       width="6"
       patternUnits="userSpaceOnUse"
       id="EMFhbasepattern" /></defs><ellipse
     style="opacity:1;fill:#000000;fill-opacity:1;stroke:none;stroke-width:0;stroke-linecap:butt;stroke-linejoin:round;stroke-miterlimit:4;stroke-dasharray:none;stroke-opacity:1"
     id="path4272-7-5"
     cx="136.8213"
     cy="137.24226"
     rx="39.807621"
     ry="53.477619"
     transform="matrix(0.99483122,0.1015423,-0.03041434,0.99953738,0,0)"
     inkscape:transform-center-x="26.088398"
     inkscape:transform-center-y="17.903549" /><path
     style="opacity:1;fill:#000000;fill-rule:evenodd;stroke:none;stroke-width:8.53077221px;stroke-linecap:butt;stroke-linejoin:miter;stroke-opacity:1"
     d="m 408.97946,206.7717 c 18.43627,8.79753 35.08351,12.0492 53.97096,28.99143 17.44215,15.64579 18.68164,51.78987 17.69023,78.61497 -1.64875,44.61081 -32.80461,103.86179 -38.98884,128.18965 -10.1436,39.90342 -28.80328,134.15384 -117.84753,127.05672 -80.76343,-12.21858 -90.85629,-67.0092 -126.17686,-110.1433 -27.11306,-33.11092 -50.69179,-96.27133 -63.5552,-111.34888 -17.50988,-20.5238 -19.92077,-91.86564 -1.27029,-115.3547 22.88265,-28.81861 48.76057,-30.38637 75.95691,-38.76754 74.4454,-20.47617 111.95716,-12.41539 200.22062,12.76165 z"
     id="path4319"
     inkscape:connector-curvature="0"
     sodipodi:nodetypes="csascasscc" /><ellipse
     style="opacity:1;fill:#000000;fill-opacity:1;stroke:none;stroke-width:0;stroke-linecap:butt;stroke-linejoin:round;stroke-miterlimit:4;stroke-dasharray:none;stroke-opacity:1"
     id="path4272-7-5-4"
     cx="230.20857"
     cy="60.727867"
     rx="39.80418"
     ry="53.477627"
     transform="matrix(0.97677284,0.21427741,-0.1453547,0.98937961,0,0)"
     inkscape:transform-center-x="27.968045"
     inkscape:transform-center-y="14.796267" /><ellipse
     style="opacity:1;fill:#000000;fill-opacity:1;stroke:none;stroke-width:0;stroke-linecap:butt;stroke-linejoin:round;stroke-miterlimit:4;stroke-dasharray:none;stroke-opacity:1"
     id="path4272-7-5-4-8"
     cx="319.68845"
     cy="19.634567"
     rx="36.653568"
     ry="50.25914"
     transform="matrix(0.9675299,0.25275658,-0.19980687,0.9798353,0,0)"
     inkscape:transform-center-x="26.571402"
     inkscape:transform-center-y="12.907234" /><ellipse
     style="opacity:1;fill:#000000;fill-opacity:1;stroke:none;stroke-width:0;stroke-linecap:butt;stroke-linejoin:round;stroke-miterlimit:4;stroke-dasharray:none;stroke-opacity:1"
     id="path4272-7-5-4-8-9"
     cx="407.09433"
     cy="-15.592013"
     rx="35.610119"
     ry="50.181938"
     transform="matrix(0.9438472,0.33038231,-0.26611565,0.96394111,0,0)"
     inkscape:transform-center-x="26.612498"
     inkscape:transform-center-y="10.89021" /><ellipse
     style="opacity:1;fill:#000000;fill-opacity:1;stroke:none;stroke-width:0;stroke-linecap:butt;stroke-linejoin:round;stroke-miterlimit:4;stroke-dasharray:none;stroke-opacity:1"
     id="path4272-7-5-4-8-9-3"
     cx="483.55426"
     cy="135.32153"
     rx="32.684162"
     ry="42.49118"
     transform="matrix(0.99839646,0.05660835,-0.0934534,0.99562365,0,0)"
     inkscape:transform-center-x="22.352404"
     inkscape:transform-center-y="15.249144" /><path
     style="opacity:1;fill:#000000;fill-rule:evenodd;stroke:none;stroke-width:3.3209579px;stroke-linecap:butt;stroke-linejoin:miter;stroke-opacity:1"
     d="m 120.19327,76.865082 c 1.12667,4.051511 16.8059,3.245925 17.34026,-1.131859 0.49398,-4.04704 -6.97785,-25.792381 -9.79761,-25.655688 -2.81976,0.136691 -8.81141,22.225056 -7.54265,26.787547 z"
     id="path4328-3"
     inkscape:connector-curvature="0"
     sodipodi:nodetypes="sszs" /><path
     style="opacity:1;fill:#000000;fill-rule:evenodd;stroke:none;stroke-width:3.3209579px;stroke-linecap:butt;stroke-linejoin:miter;stroke-opacity:1"
     d="m 208.59685,40.978168 c 0.89235,4.10948 16.59198,4.204832 17.37663,-0.135081 0.72537,-4.01203 -5.48649,-26.150252 -8.30945,-26.175571 -2.82295,-0.02532 -10.07207,21.682881 -9.06718,26.310652 z"
     id="path4328-3-4"
     inkscape:connector-curvature="0"
     sodipodi:nodetypes="sszs" /><path
     style="opacity:1;fill:#000000;fill-rule:evenodd;stroke:none;stroke-width:3.3209579px;stroke-linecap:butt;stroke-linejoin:miter;stroke-opacity:1"
     d="m 307.89766,32.284799 c 0.35059,4.190608 15.90462,6.325918 17.24676,2.124823 C 326.38515,30.525921 323.1037,7.7680618 320.30798,7.3760048 317.51227,6.9839495 307.50284,27.565667 307.89766,32.284799 Z"
     id="path4328-3-9"
     inkscape:connector-curvature="0"
     sodipodi:nodetypes="sszs" /><path
     style="opacity:1;fill:#000000;fill-rule:evenodd;stroke:none;stroke-width:3.3209579px;stroke-linecap:butt;stroke-linejoin:miter;stroke-opacity:1"
     d="m 396.96098,52.932912 c -0.11328,4.203723 15.11077,8.039834 16.90762,4.012199 1.6611,-3.723345 0.90718,-26.7042 -1.82831,-27.401911 -2.73549,-0.69771 -14.95174,18.655814 -15.07931,23.389712 z"
     id="path4328-3-99"
     inkscape:connector-curvature="0"
     sodipodi:nodetypes="sszs" /><path
     style="opacity:1;fill:#000000;fill-rule:evenodd;stroke:none;stroke-width:3.3209579px;stroke-linecap:butt;stroke-linejoin:miter;stroke-opacity:1"
     d="m 477.24894,96.52984 c -0.14795,4.20265 15.04393,8.16423 16.87395,4.15154 1.69176,-3.709518 1.12745,-26.695807 -1.6022,-27.416061 -2.72964,-0.720253 -15.10513,18.531832 -15.27175,23.264521 z"
     id="path4328-3-7"
     inkscape:connector-curvature="0"
     sodipodi:nodetypes="sszs" /></svg>