<?xml version="1.0" encoding="UTF-8" standalone="no"?>
<!-- Generator: Adobe Illustrator 16.0.0, SVG Export Plug-In . SVG Version: 6.00 Build 0)  -->

<svg
   xmlns:dc="http://purl.org/dc/elements/1.1/"
   xmlns:cc="http://creativecommons.org/ns#"
   xmlns:rdf="http://www.w3.org/1999/02/22-rdf-syntax-ns#"
   xmlns:svg="http://www.w3.org/2000/svg"
   xmlns="http://www.w3.org/2000/svg"
   xmlns:sodipodi="http://sodipodi.sourceforge.net/DTD/sodipodi-0.dtd"
   xmlns:inkscape="http://www.inkscape.org/namespaces/inkscape"
   version="1.1"
   id="svg2"
   inkscape:output_extension="org.inkscape.output.svg.inkscape"
   sodipodi:docname="bear_back_paw.svg"
   inkscape:version="0.91 r13725"
   sodipodi:version="0.32"
   x="0px"
   y="0px"
   width="580px"
   height="580px"
   viewBox="0 0 580 580"
   enable-background="new 0 0 580 580"
   xml:space="preserve"><metadata
     id="metadata75"><rdf:RDF><cc:Work
         rdf:about=""><dc:format>image/svg+xml</dc:format><dc:type
           rdf:resource="http://purl.org/dc/dcmitype/StillImage" /><dc:title></dc:title></cc:Work></rdf:RDF></metadata><sodipodi:namedview
     showgrid="false"
     inkscape:cy="257.2919"
     inkscape:cx="124.8971"
     inkscape:zoom="0.32586207"
     pagecolor="#ffffff"
     bordercolor="#666666"
     guidetolerance="10.0"
     objecttolerance="10.0"
     gridtolerance="10.0"
     borderopacity="1.0"
     id="base"
     inkscape:current-layer="svg2"
     inkscape:window-y="-8"
     inkscape:window-x="-8"
     inkscape:pageopacity="0.0"
     inkscape:pageshadow="2"
     inkscape:window-height="705"
     inkscape:window-width="1366"
     inkscape:window-maximized="1" /><defs
     id="defs4"><inkscape:perspective
       inkscape:vp_z="580 : 290 : 1"
       inkscape:vp_y="0 : 1000 : 0"
       inkscape:vp_x="0 : 290 : 1"
       sodipodi:type="inkscape:persp3d"
       id="perspective3653"
       inkscape:persp3d-origin="290 : 193.33333 : 1" /></defs><g
     id="g4158"
     transform="matrix(0.74569799,0.06579468,-0.06544416,0.74172527,94.935331,-46.546882)"><ellipse
       inkscape:transform-center-y="17.903549"
       inkscape:transform-center-x="26.088398"
       transform="matrix(0.99990497,0.01378617,0.05724799,0.99835999,0,0)"
       ry="71.81868"
       rx="53.176498"
       cy="259.63718"
       cx="57.584579"
       id="path4272-7-5"
       style="opacity:1;fill:#000000;fill-opacity:1;stroke:#000000;stroke-width:0;stroke-linecap:butt;stroke-linejoin:round;stroke-miterlimit:4;stroke-dasharray:none;stroke-opacity:1" /><path
       sodipodi:nodetypes="csascasscc"
       inkscape:connector-curvature="0"
       id="path4319"
       d="m 448.32399,303.1284 c 25.41509,9.57326 47.81457,11.95797 74.78,32.34373 24.90198,18.82579 30.77313,66.89834 32.60248,102.80064 3.04226,59.70645 -31.22958,142.40556 -36.56098,175.5857 -8.74475,54.42322 -22.39056,182.34717 -140.99754,183.32657 C 269.89413,790.36061 250.12979,718.45142 198.36226,665.0525 158.62408,624.06202 120.04245,542.56937 101.26316,523.96442 75.700483,498.63906 64.159027,403.74842 86.077358,370.22467 112.96946,329.09448 147.01383,323.96683 182.00431,309.59507 278.07358,273.5444 328.63297,279.89671 448.32399,303.1284 Z"
       style="opacity:1;fill:#000000;fill-rule:evenodd;stroke:#000000;stroke-width:11.42618847px;stroke-linecap:butt;stroke-linejoin:miter;stroke-opacity:1" /><path
       sodipodi:nodetypes="ssss"
       inkscape:connector-curvature="0"
       id="path4328"
       d="m 56.87766,166.25247 c -0.342405,4.92976 21.391362,2.94937 19.105633,-1.85313 0,0 -8.260674,-31.6707 -10.809043,-29.72896 0,0 -7.806293,24.52307 -8.29659,31.58209 z"
       style="opacity:1;fill:#000000;fill-rule:evenodd;stroke:#000000;stroke-width:4.44811916px;stroke-linecap:butt;stroke-linejoin:miter;stroke-opacity:1" /><ellipse
       inkscape:transform-center-y="14.796267"
       inkscape:transform-center-x="27.968045"
       transform="matrix(0.99173916,0.12827096,-0.05752764,0.99834391,0,0)"
       ry="71.81868"
       rx="53.176498"
       cy="170.15125"
       cx="190.81789"
       id="path4272-7-5-4"
       style="opacity:1;fill:#000000;fill-opacity:1;stroke:#000000;stroke-width:0;stroke-linecap:butt;stroke-linejoin:round;stroke-miterlimit:4;stroke-dasharray:none;stroke-opacity:1" /><ellipse
       inkscape:transform-center-y="12.907234"
       inkscape:transform-center-x="26.571402"
       transform="matrix(0.98585348,0.16760942,-0.11232109,0.99367196,0,0)"
       ry="67.492981"
       rx="48.970459"
       cy="119.20618"
       cx="315.09586"
       id="path4272-7-5-4-8"
       style="opacity:1;fill:#000000;fill-opacity:1;stroke:#000000;stroke-width:0;stroke-linecap:butt;stroke-linejoin:round;stroke-miterlimit:4;stroke-dasharray:none;stroke-opacity:1" /><ellipse
       inkscape:transform-center-y="10.89021"
       inkscape:transform-center-x="26.612498"
       transform="matrix(0.96891698,0.24738609,-0.17943429,0.98376996,0,0)"
       ry="67.382225"
       rx="47.584747"
       cy="80.400581"
       cx="438.0152"
       id="path4272-7-5-4-8-9"
       style="opacity:1;fill:#000000;fill-opacity:1;stroke:#000000;stroke-width:0;stroke-linecap:butt;stroke-linejoin:round;stroke-miterlimit:4;stroke-dasharray:none;stroke-opacity:1" /><ellipse
       inkscape:transform-center-y="15.249144"
       inkscape:transform-center-x="22.352404"
       transform="matrix(0.99950285,-0.03152848,-0.00555573,0.99998457,0,0)"
       ry="57.06525"
       rx="43.660904"
       cy="251.41226"
       cx="525.41742"
       id="path4272-7-5-4-8-9-3"
       style="opacity:1;fill:#000000;fill-opacity:1;stroke:#000000;stroke-width:0;stroke-linecap:butt;stroke-linejoin:round;stroke-miterlimit:4;stroke-dasharray:none;stroke-opacity:1" /><path
       sodipodi:nodetypes="ssss"
       inkscape:connector-curvature="0"
       id="path4328-7"
       d="m 162.17251,99.462862 c -0.27679,4.933888 21.42871,2.664538 19.07927,-2.10712 0,0 -8.68124,-31.558002 -11.20355,-29.582538 0,0 -7.47937,24.624756 -7.87572,31.689658 z"
       style="opacity:1;fill:#000000;fill-rule:evenodd;stroke:#000000;stroke-width:4.44811916px;stroke-linecap:butt;stroke-linejoin:miter;stroke-opacity:1" /><path
       inkscape:transform-center-y="-4.0259062"
       inkscape:transform-center-x="7.4330544"
       sodipodi:nodetypes="ssss"
       inkscape:connector-curvature="0"
       id="path4328-7-8"
       d="m 287.39434,83.174266 c -0.66667,4.896451 21.15037,4.353195 19.18621,-0.58954 0,0 -6.15475,-32.146393 -8.82557,-30.37688 0,0 -9.40604,23.955081 -10.36064,30.96642 z"
       style="opacity:1;fill:#000000;fill-rule:evenodd;stroke:#000000;stroke-width:4.44811916px;stroke-linecap:butt;stroke-linejoin:miter;stroke-opacity:1" /><path
       inkscape:transform-center-y="-4.3615226"
       inkscape:transform-center-x="7.941105"
       sodipodi:nodetypes="ssss"
       inkscape:connector-curvature="0"
       id="path4328-7-8-3"
       d="m 409.45513,98.432745 c -0.91198,4.856745 20.90478,5.410965 19.1916,0.375732 0,0 -4.53089,-32.415154 -7.28732,-30.782154 0,0 -10.5984,23.451946 -11.90428,30.406422 z"
       style="opacity:1;fill:#000000;fill-rule:evenodd;stroke:#000000;stroke-width:4.44811916px;stroke-linecap:butt;stroke-linejoin:miter;stroke-opacity:1" /><path
       inkscape:transform-center-y="-4.3855624"
       inkscape:transform-center-x="4.9111671"
       sodipodi:nodetypes="ssss"
       inkscape:connector-curvature="0"
       id="path4328-7-8-3-0"
       d="m 523.68371,150.48152 c -0.93105,4.85312 20.88337,5.49301 19.18996,0.45111 0,0 -4.40355,-32.43271 -7.16634,-30.81054 0,0 -10.69044,23.41014 -12.02362,30.35943 z"
       style="opacity:1;fill:#000000;fill-rule:evenodd;stroke:#000000;stroke-width:4.44811916px;stroke-linecap:butt;stroke-linejoin:miter;stroke-opacity:1" /></g></svg>