<?xml version="1.0" encoding="UTF-8" standalone="no"?>
<!-- Generator: Adobe Illustrator 16.0.0, SVG Export Plug-In . SVG Version: 6.00 Build 0)  -->

<svg
   xmlns:dc="http://purl.org/dc/elements/1.1/"
   xmlns:cc="http://creativecommons.org/ns#"
   xmlns:rdf="http://www.w3.org/1999/02/22-rdf-syntax-ns#"
   xmlns:svg="http://www.w3.org/2000/svg"
   xmlns="http://www.w3.org/2000/svg"
   xmlns:sodipodi="http://sodipodi.sourceforge.net/DTD/sodipodi-0.dtd"
   xmlns:inkscape="http://www.inkscape.org/namespaces/inkscape"
   version="1.1"
   id="svg2"
   inkscape:output_extension="org.inkscape.output.svg.inkscape"
   sodipodi:docname="bear_front_paw.svg"
   inkscape:version="0.91 r13725"
   sodipodi:version="0.32"
   x="0px"
   y="0px"
   width="580px"
   height="580px"
   viewBox="0 0 580 580"
   enable-background="new 0 0 580 580"
   xml:space="preserve"><metadata
     id="metadata75"><rdf:RDF><cc:Work
         rdf:about=""><dc:format>image/svg+xml</dc:format><dc:type
           rdf:resource="http://purl.org/dc/dcmitype/StillImage" /><dc:title /></cc:Work></rdf:RDF></metadata><sodipodi:namedview
     showgrid="false"
     inkscape:cy="179.14722"
     inkscape:cx="884.57937"
     inkscape:zoom="0.16293104"
     pagecolor="#ffffff"
     bordercolor="#666666"
     guidetolerance="10.0"
     objecttolerance="10.0"
     gridtolerance="10.0"
     borderopacity="1.0"
     id="base"
     inkscape:current-layer="svg2"
     inkscape:window-y="-8"
     inkscape:window-x="-8"
     inkscape:pageopacity="0.0"
     inkscape:pageshadow="2"
     inkscape:window-height="705"
     inkscape:window-width="1366"
     inkscape:window-maximized="1" /><defs
     id="defs4"><inkscape:perspective
       inkscape:vp_z="580 : 290 : 1"
       inkscape:vp_y="0 : 1000 : 0"
       inkscape:vp_x="0 : 290 : 1"
       sodipodi:type="inkscape:persp3d"
       id="perspective3653"
       inkscape:persp3d-origin="290 : 193.33333 : 1" /></defs><g
     id="g4289"
     transform="matrix(0.9733509,0,0,0.9733509,688.78381,-387.65156)"><ellipse
       inkscape:transform-center-y="17.903549"
       inkscape:transform-center-x="26.088398"
       transform="matrix(0.99990497,0.01378617,0.05724799,0.99835999,0,0)"
       ry="73.784981"
       rx="54.632404"
       cy="684.79254"
       cx="-679.17126"
       id="path4272-7-5"
       style="opacity:1;fill:#000000;fill-opacity:1;stroke:#000000;stroke-width:0;stroke-linecap:butt;stroke-linejoin:round;stroke-miterlimit:4;stroke-dasharray:none;stroke-opacity:1" /><path
       sodipodi:nodetypes="casascassacc"
       inkscape:connector-curvature="0"
       id="path4319"
       d="m -405.12502,686.06284 c 72.20515,6.91279 100.26992,29.73553 149.16425,48.15284 26.11092,9.83536 49.12367,12.28536 76.82738,33.22926 25.58376,19.34121 41.91714,69.65517 33.49509,105.61519 -7.04272,30.07066 -34.31398,59.35909 -64.31439,66.69524 -55.00961,13.45177 -92.11399,-4.38604 -187.21586,-10.06793 -82.23589,6.36493 -89.69583,24.35489 -135.6619,24.76433 -32.19035,0.28672 -76.00537,3.46679 -95.29881,-15.64754 -26.26255,-26.01874 -22.51442,-101.21369 0.004,-135.65527 27.62837,-42.25629 64.2491,-44.02685 98.5533,-62.28956 40.00897,-21.29978 64.19934,-47.33985 124.44647,-54.79656 z"
       style="opacity:1;fill:#000000;fill-rule:evenodd;stroke:#000000;stroke-width:11.73902321px;stroke-linecap:butt;stroke-linejoin:miter;stroke-opacity:1" /><path
       sodipodi:nodetypes="ssss"
       inkscape:connector-curvature="0"
       id="path4328"
       d="m -649.20693,569.06921 c -0.35178,5.06473 21.97703,3.03012 19.62872,-1.90386 0,0 -8.48684,-32.53781 -11.10498,-30.5429 0,0 -8.02002,25.19448 -8.52374,32.44676 z"
       style="opacity:1;fill:#000000;fill-rule:evenodd;stroke:#000000;stroke-width:4.5699029px;stroke-linecap:butt;stroke-linejoin:miter;stroke-opacity:1" /><ellipse
       inkscape:transform-center-y="14.796267"
       inkscape:transform-center-x="27.968045"
       transform="matrix(0.99173916,0.12827096,-0.05752764,0.99834391,0,0)"
       ry="73.784981"
       rx="54.632404"
       cy="661.78381"
       cx="-489.24619"
       id="path4272-7-5-4"
       style="opacity:1;fill:#000000;fill-opacity:1;stroke:#000000;stroke-width:0;stroke-linecap:butt;stroke-linejoin:round;stroke-miterlimit:4;stroke-dasharray:none;stroke-opacity:1" /><ellipse
       inkscape:transform-center-y="12.907234"
       inkscape:transform-center-x="26.571402"
       transform="matrix(0.98585348,0.16760942,-0.11232109,0.99367196,0,0)"
       ry="69.340851"
       rx="50.311207"
       cy="634.50647"
       cx="-335.7356"
       id="path4272-7-5-4-8"
       style="opacity:1;fill:#000000;fill-opacity:1;stroke:#000000;stroke-width:0;stroke-linecap:butt;stroke-linejoin:round;stroke-miterlimit:4;stroke-dasharray:none;stroke-opacity:1" /><ellipse
       inkscape:transform-center-y="10.89021"
       inkscape:transform-center-x="26.612498"
       transform="matrix(0.96891698,0.24738609,-0.17943429,0.98376996,0,0)"
       ry="69.227066"
       rx="48.887558"
       cy="644.90851"
       cx="-176.20171"
       id="path4272-7-5-4-8-9"
       style="opacity:1;fill:#000000;fill-opacity:1;stroke:#000000;stroke-width:0;stroke-linecap:butt;stroke-linejoin:round;stroke-miterlimit:4;stroke-dasharray:none;stroke-opacity:1" /><ellipse
       inkscape:transform-center-y="15.249144"
       inkscape:transform-center-x="22.352404"
       transform="matrix(0.99950285,-0.03152848,-0.00555572,0.99998457,0,0)"
       ry="58.627625"
       rx="44.856285"
       cy="634.3103"
       cx="-166.10103"
       id="path4272-7-5-4-8-9-3"
       style="opacity:1;fill:#000000;fill-opacity:1;stroke:#000000;stroke-width:0;stroke-linecap:butt;stroke-linejoin:round;stroke-miterlimit:4;stroke-dasharray:none;stroke-opacity:1" /><path
       sodipodi:nodetypes="ssss"
       inkscape:connector-curvature="0"
       id="path4328-7"
       d="m -534.34114,489.30415 c -0.28437,5.06897 22.0154,2.73749 19.60164,-2.16481 0,0 -8.91893,-32.42202 -11.51029,-30.39247 0,0 -7.68415,25.29895 -8.09135,32.55728 z"
       style="opacity:1;fill:#000000;fill-rule:evenodd;stroke:#000000;stroke-width:4.5699029px;stroke-linecap:butt;stroke-linejoin:miter;stroke-opacity:1" /><path
       inkscape:transform-center-y="-4.0259062"
       inkscape:transform-center-x="7.4330544"
       sodipodi:nodetypes="ssss"
       inkscape:connector-curvature="0"
       id="path4328-7-8"
       d="m -410.14963,465.88149 c -0.68492,5.03051 21.72944,4.47238 19.71151,-0.60568 0,0 -6.32326,-33.02652 -9.06721,-31.20856 0,0 -9.66356,24.61094 -10.6443,31.81424 z"
       style="opacity:1;fill:#000000;fill-rule:evenodd;stroke:#000000;stroke-width:4.5699029px;stroke-linecap:butt;stroke-linejoin:miter;stroke-opacity:1" /><path
       inkscape:transform-center-y="-4.3615226"
       inkscape:transform-center-x="7.941105"
       sodipodi:nodetypes="ssss"
       inkscape:connector-curvature="0"
       id="path4328-7-8-3"
       d="m -275.8295,465.95215 c -0.93695,4.98972 21.47713,5.55911 19.71704,0.38602 0,0 -4.65494,-33.30264 -7.48683,-31.62493 0,0 -10.88857,24.09403 -12.23021,31.23891 z"
       style="opacity:1;fill:#000000;fill-rule:evenodd;stroke:#000000;stroke-width:4.5699029px;stroke-linecap:butt;stroke-linejoin:miter;stroke-opacity:1" /><path
       inkscape:transform-center-y="-4.3855624"
       inkscape:transform-center-x="4.9111671"
       sodipodi:nodetypes="ssss"
       inkscape:connector-curvature="0"
       id="path4328-7-8-3-0"
       d="m -169.62033,552.86647 c -0.95654,4.986 21.45513,5.64341 19.71536,0.46346 0,0 -4.52412,-33.32067 -7.36255,-31.65409 0,0 -10.98313,24.05108 -12.35281,31.19063 z"
       style="opacity:1;fill:#000000;fill-rule:evenodd;stroke:#000000;stroke-width:4.5699029px;stroke-linecap:butt;stroke-linejoin:miter;stroke-opacity:1" /></g></svg>