<?xml version="1.0" encoding="UTF-8" standalone="no"?>
<!-- Generator: Adobe Illustrator 16.0.0, SVG Export Plug-In . SVG Version: 6.00 Build 0)  -->

<svg
   xmlns:dc="http://purl.org/dc/elements/1.1/"
   xmlns:cc="http://creativecommons.org/ns#"
   xmlns:rdf="http://www.w3.org/1999/02/22-rdf-syntax-ns#"
   xmlns:svg="http://www.w3.org/2000/svg"
   xmlns="http://www.w3.org/2000/svg"
   xmlns:sodipodi="http://sodipodi.sourceforge.net/DTD/sodipodi-0.dtd"
   xmlns:inkscape="http://www.inkscape.org/namespaces/inkscape"
   version="1.1"
   id="svg2"
   inkscape:output_extension="org.inkscape.output.svg.inkscape"
   sodipodi:docname="bear_col.svg"
   inkscape:version="0.91 r13725"
   sodipodi:version="0.32"
   x="0px"
   y="0px"
   width="580px"
   height="580px"
   viewBox="0 0 580 580"
   enable-background="new 0 0 580 580"
   xml:space="preserve"><metadata
     id="metadata75"><rdf:RDF><cc:Work
         rdf:about=""><dc:format>image/svg+xml</dc:format><dc:type
           rdf:resource="http://purl.org/dc/dcmitype/StillImage" /><dc:title></dc:title></cc:Work></rdf:RDF></metadata><sodipodi:namedview
     showgrid="false"
     inkscape:cy="339.60498"
     inkscape:cx="301.68985"
     inkscape:zoom="0.46083856"
     pagecolor="#ffffff"
     bordercolor="#666666"
     guidetolerance="10.0"
     objecttolerance="10.0"
     gridtolerance="10.0"
     borderopacity="1.0"
     id="base"
     inkscape:current-layer="svg2"
     inkscape:window-y="-8"
     inkscape:window-x="-8"
     inkscape:pageopacity="0.0"
     inkscape:pageshadow="2"
     inkscape:window-height="705"
     inkscape:window-width="1366"
     inkscape:window-maximized="1" /><defs
     id="defs4"><inkscape:perspective
       inkscape:vp_z="580 : 290 : 1"
       inkscape:vp_y="0 : 1000 : 0"
       inkscape:vp_x="0 : 290 : 1"
       sodipodi:type="inkscape:persp3d"
       id="perspective3653"
       inkscape:persp3d-origin="290 : 193.33333 : 1" /><pattern
       y="0"
       x="0"
       height="6"
       width="6"
       patternUnits="userSpaceOnUse"
       id="EMFhbasepattern" /></defs><ellipse
     style="opacity:1;fill-opacity:1;stroke:#000000;stroke-width:0;stroke-linecap:butt;stroke-linejoin:round;stroke-miterlimit:4;stroke-dasharray:none;stroke-opacity:1"
     id="path4272-7-5"
     cx="198.27728"
     cy="73.121437"
     rx="22.836313"
     ry="30.678339"
     transform="matrix(0.99472986,0.10253053,-0.03140725,0.99950667,0,0)"
     inkscape:transform-center-x="26.088398"
     inkscape:transform-center-y="17.903549" /><path
     style="opacity:1;fill-rule:evenodd;stroke:#000000;stroke-width:4.89382124px;stroke-linecap:butt;stroke-linejoin:miter;stroke-opacity:1"
     d="m 354.07971,126.10934 c 10.50771,5.04316 19.99842,6.91275 30.75878,16.61544 9.93695,8.96021 10.62318,29.63753 10.04262,44.98255 -0.9655,25.51917 -18.76483,59.39668 -22.30502,73.3102 -5.80674,22.82143 -16.5004,76.72783 -67.27107,72.61741 -46.04588,-7.03552 -51.76988,-38.38481 -71.88582,-63.08014 -15.44155,-18.95682 -28.8507,-55.10177 -36.17709,-63.73433 -9.97279,-11.75078 -11.30699,-52.56402 -0.65878,-65.99062 13.06449,-16.47304 27.82146,-17.35523 43.33408,-22.13437 42.4618,-11.67144 63.84713,-7.03894 114.1623,7.41386 z"
     id="path4319"
     inkscape:connector-curvature="0"
     sodipodi:nodetypes="csascasscc" /><path
     style="opacity:1;fill-rule:evenodd;stroke:#000000;stroke-width:1.90512359px;stroke-linecap:butt;stroke-linejoin:miter;stroke-opacity:1"
     d="m 191.83729,52.932141 c -0.33363,2.084375 9.03806,2.071347 8.24268,-0.0592 0,0 -2.33105,-13.7901 -3.49482,-13.061225 0,0 -4.27014,10.135766 -4.74786,13.120422 z"
     id="path4328"
     inkscape:connector-curvature="0"
     sodipodi:nodetypes="ssss" /><ellipse
     style="opacity:1;fill-opacity:1;stroke:#000000;stroke-width:0;stroke-linecap:butt;stroke-linejoin:round;stroke-miterlimit:4;stroke-dasharray:none;stroke-opacity:1"
     id="path4272-7-5-4"
     cx="251.38037"
     cy="15.622668"
     rx="22.834339"
     ry="30.678345"
     transform="matrix(0.9765595,0.21524765,-0.14633747,0.98923473,0,0)"
     inkscape:transform-center-x="27.968045"
     inkscape:transform-center-y="14.796267" /><ellipse
     style="opacity:1;fill-opacity:1;stroke:#000000;stroke-width:0;stroke-linecap:butt;stroke-linejoin:round;stroke-miterlimit:4;stroke-dasharray:none;stroke-opacity:1"
     id="path4272-7-5-4-8"
     cx="301.81207"
     cy="-12.591937"
     rx="21.026937"
     ry="28.832003"
     transform="matrix(0.96727834,0.2537176,-0.20078013,0.97963633,0,0)"
     inkscape:transform-center-x="26.571402"
     inkscape:transform-center-y="12.907234" /><ellipse
     style="opacity:1;fill-opacity:1;stroke:#000000;stroke-width:0;stroke-linecap:butt;stroke-linejoin:round;stroke-miterlimit:4;stroke-dasharray:none;stroke-opacity:1"
     id="path4272-7-5-4-8-9"
     cx="350.58224"
     cy="-42.259575"
     rx="20.428345"
     ry="28.787716"
     transform="matrix(0.94351853,0.33131977,-0.26707309,0.96367628,0,0)"
     inkscape:transform-center-x="26.612498"
     inkscape:transform-center-y="10.89021" /><ellipse
     style="opacity:1;fill-opacity:1;stroke:#000000;stroke-width:0;stroke-linecap:butt;stroke-linejoin:round;stroke-miterlimit:4;stroke-dasharray:none;stroke-opacity:1"
     id="path4272-7-5-4-8-9-3"
     cx="396.90997"
     cy="77.419426"
     rx="18.749821"
     ry="24.375784"
     transform="matrix(0.99833973,0.05760014,-0.0944424,0.99553033,0,0)"
     inkscape:transform-center-x="22.352404"
     inkscape:transform-center-y="15.249144" /><path
     style="opacity:1;fill-rule:evenodd;stroke:#000000;stroke-width:1.90512359px;stroke-linecap:butt;stroke-linejoin:miter;stroke-opacity:1"
     d="m 239.4123,28.53447 c -0.30571,2.088636 9.06486,1.951586 8.24106,-0.168267 0,0 -2.51523,-13.758204 -3.66914,-13.013986 0,0 -4.13415,10.191508 -4.57192,13.182253 z"
     id="path4328-7"
     inkscape:connector-curvature="0"
     sodipodi:nodetypes="ssss" /><path
     style="opacity:1;fill-rule:evenodd;stroke:#000000;stroke-width:1.90512359px;stroke-linecap:butt;stroke-linejoin:miter;stroke-opacity:1"
     d="m 293.59367,26.383845 c -0.47106,2.057825 8.88168,2.659427 8.22918,0.481492 0,0 -1.4122,-13.912109 -2.62181,-13.261185 0,0 -4.93286,9.833045 -5.60737,12.779693 z"
     id="path4328-7-8"
     inkscape:connector-curvature="0"
     sodipodi:nodetypes="ssss"
     inkscape:transform-center-x="7.4330544"
     inkscape:transform-center-y="-4.0259062" /><path
     style="opacity:1;fill-rule:evenodd;stroke:#000000;stroke-width:1.90512359px;stroke-linecap:butt;stroke-linejoin:miter;stroke-opacity:1"
     d="m 345.2252,37.534763 c -0.57448,2.031569 8.73648,3.100098 8.19484,0.892389 0,0 -0.7074,-13.964477 -1.94844,-13.374902 0,0 -5.42378,9.573466 -6.2464,12.482513 z"
     id="path4328-7-8-3"
     inkscape:connector-curvature="0"
     sodipodi:nodetypes="ssss"
     inkscape:transform-center-x="7.941105"
     inkscape:transform-center-y="-4.3615226" /><path
     style="opacity:1;fill-rule:evenodd;stroke:#000000;stroke-width:1.90512359px;stroke-linecap:butt;stroke-linejoin:miter;stroke-opacity:1"
     d="m 392.10978,64.039742 c -0.58251,2.029299 8.7242,3.134189 8.19127,0.924397 0,0 -0.65226,-13.967086 -1.89561,-13.382362 0,0 -5.46157,9.552167 -6.29566,12.457965 z"
     id="path4328-7-8-3-0"
     inkscape:connector-curvature="0"
     sodipodi:nodetypes="ssss"
     inkscape:transform-center-x="4.9111671"
     inkscape:transform-center-y="-4.3855624" /><path
     inkscape:connector-curvature="0"
     id="path4150"
     d="m 216.41188,447.66143 c 0.57473,17.01386 -9.21106,30.41031 -21.81346,29.92696 -12.57389,-0.48264 -23.24184,-14.67108 -23.81586,-31.71344 -0.54627,-17.01316 9.2111,-30.41031 21.81349,-29.92696 12.60235,0.48335 23.27026,14.67178 23.81583,31.71344 z"
     style="fill-opacity:1;fill-rule:nonzero;stroke:none" /><path
     inkscape:connector-curvature="0"
     id="path4152"
     d="m 216.41188,447.66143 c 0.57473,17.01386 -9.21106,30.41031 -21.81346,29.92696 -12.57389,-0.48264 -23.24184,-14.67108 -23.81586,-31.71344 -0.54627,-17.01316 9.2111,-30.41031 21.81349,-29.92696 12.60235,0.48335 23.27026,14.67178 23.81583,31.71344 z"
     style="fill:none;stroke:none" /><path
     inkscape:connector-curvature="0"
     id="path4154"
     d="m 291.56814,454.10951 c 30.09266,3.65067 41.58079,13.47464 61.8224,21.66483 10.79764,4.36776 20.3909,5.63074 31.75578,14.68296 10.47118,8.34653 16.77984,29.51756 12.90736,44.45596 -3.27149,12.5049 -14.95795,24.45944 -27.58324,27.19315 -23.10497,5.06513 -38.42908,-2.77537 -78.09689,-6.12239 -34.41391,1.79482 -37.73053,9.22999 -56.94324,8.92443 -13.43481,-0.2188 -31.76606,0.66452 -39.65035,-7.50404 -10.68652,-11.14238 -8.34235,-42.52045 1.40567,-56.68707 11.99109,-17.35715 27.31961,-17.71749 41.82288,-24.98908 16.95353,-8.49194 27.32552,-19.11226 52.55963,-21.61875 z"
     style="fill-opacity:1;fill-rule:evenodd;stroke:#000000;stroke-width:4.89616919px;stroke-linecap:butt;stroke-linejoin:miter;stroke-miterlimit:4;stroke-dasharray:none;stroke-opacity:1" /><path
     inkscape:connector-curvature="0"
     id="path4156"
     d="m 190.81691,402.71987 c -0.19451,2.10229 9.13225,1.47931 8.2155,-0.59363 0,0 -3.21989,-13.69083 -4.3217,-12.89242 0,0 -3.61909,10.44608 -3.8938,13.48605 z"
     style="fill-opacity:1;fill-rule:evenodd;stroke:#000000;stroke-width:1.90722871px;stroke-linecap:butt;stroke-linejoin:miter;stroke-miterlimit:4;stroke-dasharray:none;stroke-opacity:1" /><path
     inkscape:connector-curvature="0"
     id="path4158"
     d="m 265.68692,419.55434 c -1.38883,16.96477 -12.62561,29.15821 -25.10704,27.25415 -12.45265,-1.93186 -21.41273,-17.24592 -20.02319,-34.23919 1.41729,-16.96447 12.65407,-29.15777 25.10672,-27.22604 12.45227,1.93186 21.41235,17.24591 20.02351,34.21108 z"
     style="fill-opacity:1;fill-rule:nonzero;stroke:none" /><path
     inkscape:connector-curvature="0"
     id="path4160"
     d="m 265.68692,419.55434 c -1.38883,16.96477 -12.62561,29.15821 -25.10704,27.25415 -12.45265,-1.93186 -21.41273,-17.24592 -20.02319,-34.23919 1.41729,-16.96447 12.65407,-29.15777 25.10672,-27.22604 12.45227,1.93186 21.41235,17.24591 20.02351,34.21108 z"
     style="fill:none;stroke:none" /><path
     inkscape:connector-curvature="0"
     id="path4162"
     d="m 314.55127,411.45468 c -2.18728,15.86297 -13.19593,26.8945 -24.58751,24.67576 -11.39125,-2.24725 -18.85861,-16.89739 -16.67132,-32.76075 2.18659,-15.83487 13.19594,-26.89476 24.61564,-24.64681 11.39158,2.21887 18.85893,16.86914 16.64319,32.7318 z"
     style="fill-opacity:1;fill-rule:nonzero;stroke:none" /><path
     inkscape:connector-curvature="0"
     id="path4164"
     d="m 314.55127,411.45468 c -2.18728,15.86297 -13.19593,26.8945 -24.58751,24.67576 -11.39125,-2.24725 -18.85861,-16.89739 -16.67132,-32.76075 2.18659,-15.83487 13.19594,-26.89476 24.61564,-24.64681 11.39158,2.21887 18.85893,16.86914 16.64319,32.7318 z"
     style="fill:none;stroke:none" /><path
     inkscape:connector-curvature="0"
     id="path4166"
     d="m 361.80781,421.11198 c -3.26372,15.63703 -14.70685,25.83206 -25.5654,22.77229 -10.85855,-3.05991 -17.0319,-18.2193 -13.76818,-33.8562 3.26375,-15.6373 14.70796,-25.86068 25.56651,-22.80105 10.85745,3.08826 17.03082,18.24766 13.76707,33.88496 z"
     style="fill-opacity:1;fill-rule:nonzero;stroke:none" /><path
     inkscape:connector-curvature="0"
     id="path4168"
     d="m 361.80781,421.11198 c -3.26372,15.63703 -14.70685,25.83206 -25.5654,22.77229 -10.85855,-3.05991 -17.0319,-18.2193 -13.76818,-33.8562 3.26375,-15.6373 14.70796,-25.86068 25.56651,-22.80105 10.85745,3.08826 17.03082,18.24766 13.76707,33.88496 z"
     style="fill:none;stroke:none" /><path
     inkscape:connector-curvature="0"
     id="path4170"
     d="m 409.22358,436.98061 c -0.42127,13.54364 -9.15082,24.54639 -19.48938,24.63173 -10.36632,0.0561 -18.4106,-10.85002 -18.01849,-24.36586 0.42126,-13.54337 9.15118,-24.54611 19.48975,-24.63145 10.3663,-0.0561 18.43867,10.85071 18.01812,24.36558 z"
     style="fill-opacity:1;fill-rule:nonzero;stroke:none" /><path
     inkscape:connector-curvature="0"
     id="path4172"
     d="m 409.22358,436.98061 c -0.42127,13.54364 -9.15082,24.54639 -19.48938,24.63173 -10.36632,0.0561 -18.4106,-10.85002 -18.01849,-24.36586 0.42126,-13.54337 9.15118,-24.54611 19.48975,-24.63145 10.3663,-0.0561 18.43867,10.85071 18.01812,24.36558 z"
     style="fill:none;stroke:none" /><path
     inkscape:connector-curvature="0"
     id="path4174"
     d="m 239.62316,370.55752 c -0.16676,2.1315 9.16286,1.39478 8.21766,-0.67893 0,0 -3.39205,-13.63813 -4.49461,-12.81122 0,0 -3.4775,10.47795 -3.72305,13.49015 z"
     style="fill-opacity:1;fill-rule:evenodd;stroke:#000000;stroke-width:1.90722871px;stroke-linecap:butt;stroke-linejoin:miter;stroke-miterlimit:4;stroke-dasharray:none;stroke-opacity:1" /><path
     inkscape:connector-curvature="0"
     id="path4176"
     d="m 291.74296,362.08309 c -0.33609,2.07035 9.03209,2.07484 8.25904,-0.0515 0,0 -2.30431,-13.86743 -3.46166,-13.12731 0,0 -4.29572,10.17291 -4.79738,13.17879 z"
     style="fill-opacity:1;fill-rule:evenodd;stroke:#000000;stroke-width:1.90722871px;stroke-linecap:butt;stroke-linejoin:miter;stroke-miterlimit:4;stroke-dasharray:none;stroke-opacity:1" /><path
     inkscape:connector-curvature="0"
     id="path4178"
     d="m 347.86019,363.50311 c -0.42146,2.06822 8.93505,2.52804 8.24879,0.34691 0,0 -1.61851,-13.96433 -2.80292,-13.28183 0,0 -4.80263,9.96101 -5.44587,12.93492 z"
     style="fill-opacity:1;fill-rule:evenodd;stroke:#000000;stroke-width:1.90722871px;stroke-linecap:butt;stroke-linejoin:miter;stroke-miterlimit:4;stroke-dasharray:none;stroke-opacity:1" /><path
     inkscape:connector-curvature="0"
     id="path4180"
     d="m 391.35319,400.91544 c -0.44992,2.06757 8.90626,2.55585 8.22,0.37469 0,0 -1.53313,-13.96219 -2.74599,-13.28035 0,0 -4.83076,9.93173 -5.47401,12.90566 z"
     style="fill-opacity:1;fill-rule:evenodd;stroke:#000000;stroke-width:1.90722871px;stroke-linecap:butt;stroke-linejoin:miter;stroke-miterlimit:4;stroke-dasharray:none;stroke-opacity:1" /></svg>