<?xml version="1.0" encoding="UTF-8" standalone="no"?>
<!-- Generator: Adobe Illustrator 16.0.0, SVG Export Plug-In . SVG Version: 6.00 Build 0)  -->

<svg
   xmlns:dc="http://purl.org/dc/elements/1.1/"
   xmlns:cc="http://creativecommons.org/ns#"
   xmlns:rdf="http://www.w3.org/1999/02/22-rdf-syntax-ns#"
   xmlns:svg="http://www.w3.org/2000/svg"
   xmlns="http://www.w3.org/2000/svg"
   xmlns:sodipodi="http://sodipodi.sourceforge.net/DTD/sodipodi-0.dtd"
   xmlns:inkscape="http://www.inkscape.org/namespaces/inkscape"
   version="1.1"
   id="svg2"
   inkscape:output_extension="org.inkscape.output.svg.inkscape"
   sodipodi:docname="beaver_tree_cut_small.svg"
   inkscape:version="0.91 r13725"
   sodipodi:version="0.32"
   x="0px"
   y="0px"
   width="580px"
   height="580px"
   viewBox="0 0 580 580"
   enable-background="new 0 0 580 580"
   xml:space="preserve"><metadata
     id="metadata75"><rdf:RDF><cc:Work
         rdf:about=""><dc:format>image/svg+xml</dc:format><dc:type
           rdf:resource="http://purl.org/dc/dcmitype/StillImage" /><dc:title></dc:title></cc:Work></rdf:RDF></metadata><sodipodi:namedview
     showgrid="false"
     inkscape:cy="395.65724"
     inkscape:cx="-2804.4487"
     inkscape:zoom="0.081465518"
     pagecolor="#ffffff"
     bordercolor="#666666"
     guidetolerance="10.0"
     objecttolerance="10.0"
     gridtolerance="10.0"
     borderopacity="1.0"
     id="base"
     inkscape:current-layer="svg2"
     inkscape:window-y="-8"
     inkscape:window-x="-8"
     inkscape:pageopacity="0.0"
     inkscape:pageshadow="2"
     inkscape:window-height="705"
     inkscape:window-width="1366"
     inkscape:window-maximized="1" /><defs
     id="defs4"><inkscape:perspective
       inkscape:vp_z="580 : 290 : 1"
       inkscape:vp_y="0 : 1000 : 0"
       inkscape:vp_x="0 : 290 : 1"
       sodipodi:type="inkscape:persp3d"
       id="perspective3653"
       inkscape:persp3d-origin="290 : 193.33333 : 1" /></defs><g
     id="g5706"
     transform="matrix(0.95948316,0,0,0.95948316,11.749881,25.640802)"><path
       sodipodi:nodetypes="cccccc"
       inkscape:connector-curvature="0"
       id="rect4152"
       d="m 89.89075,218.60948 177.19588,-198.833561 227.1363,197.777721 0,342.66996 -408.445866,0 z"
       style="opacity:1;fill:#000000;fill-opacity:1;stroke:#000000;stroke-width:19.72389984;stroke-linecap:butt;stroke-linejoin:round;stroke-miterlimit:4;stroke-dasharray:none;stroke-opacity:1" /><g
       style="fill:#ffffff;fill-opacity:1"
       inkscape:transform-center-y="39.053177"
       inkscape:transform-center-x="-29.354811"
       transform="matrix(1.1975989,-0.85504517,0.83953236,0.96893478,-96.837164,-285.25288)"
       id="g4154-5-5-2-5-6-8-8-5-5-0-1-8-5-7-3-1-7-1-2-8"><path
         style="fill:#ffffff;fill-opacity:1;fill-rule:evenodd;stroke:#000000;stroke-width:8;stroke-linecap:butt;stroke-linejoin:miter;stroke-miterlimit:4;stroke-dasharray:none;stroke-opacity:1"
         d="m 37.51383,406.61967 c -16.012533,42.51732 -33.6463717,169.9697 3.606314,183.59455 8.844415,2.62268 12.453599,-17.382 21.676992,-17.20544 8.34528,0.15975 8.291781,26.68079 19.003091,16.30661 31.717083,-30.71883 7.588932,-165.3231 -9.789555,-190.5106 -7.40539,-10.73299 -8.079356,10.31363 -13.421829,11.93854 C 51.42571,412.922 43.264372,397.91594 37.51383,406.61967 Z"
         id="path4150-4-2-9-5-8-2-7-0-4-8-5-4-4-6-0-2-7-2-1-6"
         inkscape:connector-curvature="0"
         sodipodi:nodetypes="ccassac" /><path
         style="fill:#ffffff;fill-opacity:1;fill-rule:evenodd;stroke:#000000;stroke-width:8;stroke-linecap:butt;stroke-linejoin:miter;stroke-miterlimit:4;stroke-dasharray:none;stroke-opacity:1"
         d="m 57.539682,410.44974 4.603175,162.6455"
         id="path4152-81-3-53-8-9-0-6-9-7-3-5-0-5-2-9-2-4-3-2-8"
         inkscape:connector-curvature="0" /></g><g
       style="fill:#ffffff;fill-opacity:1"
       inkscape:transform-center-y="33.159321"
       inkscape:transform-center-x="37.237511"
       transform="matrix(0.98200057,1.0959107,-0.87035576,0.94134483,595.12441,-418.0835)"
       id="g4154-5-5-2-5-6-8-8-5-5-0-1-8-5-7-3-1-7-1-2-8-2"><path
         style="fill:#ffffff;fill-opacity:1;fill-rule:evenodd;stroke:#000000;stroke-width:8;stroke-linecap:butt;stroke-linejoin:miter;stroke-miterlimit:4;stroke-dasharray:none;stroke-opacity:1"
         d="m 39.704891,407.32884 c -16.012533,42.51732 -35.8374327,169.26053 1.415253,182.88538 8.844415,2.62268 12.453599,-17.382 21.676992,-17.20544 8.34528,0.15975 8.291781,26.68079 19.003091,16.30661 31.717083,-30.71883 7.588932,-165.3231 -9.789555,-190.5106 -7.40539,-10.73299 -25.376377,-21.74769 -35.137017,-11.68069 -4.710155,4.85799 8.581778,11.50101 2.831236,20.20474 z"
         id="path4150-4-2-9-5-8-2-7-0-4-8-5-4-4-6-0-2-7-2-1-6-8"
         inkscape:connector-curvature="0"
         sodipodi:nodetypes="ccassac" /><path
         sodipodi:nodetypes="cc"
         style="fill:#ffffff;fill-opacity:1;fill-rule:evenodd;stroke:#000000;stroke-width:8;stroke-linecap:butt;stroke-linejoin:miter;stroke-miterlimit:4;stroke-dasharray:none;stroke-opacity:1"
         d="m 57.909087,388.82969 4.23377,184.26555"
         id="path4152-81-3-53-8-9-0-6-9-7-3-5-0-5-2-9-2-4-3-2-8-5"
         inkscape:connector-curvature="0" /></g><g
       style="fill:#ffffff;fill-opacity:1"
       inkscape:transform-center-y="33.159321"
       inkscape:transform-center-x="37.237511"
       transform="matrix(0.98200057,1.0959107,-0.87035576,0.94134483,562.01211,-359.2677)"
       id="g4154-5-5-2-5-6-8-8-5-5-0-1-8-5-7-3-1-7-1-2-8-2-7"><path
         style="fill:#ffffff;fill-opacity:1;fill-rule:evenodd;stroke:#000000;stroke-width:8;stroke-linecap:butt;stroke-linejoin:miter;stroke-miterlimit:4;stroke-dasharray:none;stroke-opacity:1"
         d="m 37.51383,406.61967 c -16.012533,42.51732 -33.6463717,169.9697 3.606314,183.59455 8.844415,2.62268 12.453599,-17.382 21.676992,-17.20544 8.34528,0.15975 8.291781,26.68079 19.003091,16.30661 31.717083,-30.71883 7.588932,-165.3231 -9.789555,-190.5106 -7.40539,-10.73299 -8.079356,10.31363 -13.421829,11.93854 C 51.42571,412.922 43.264372,397.91594 37.51383,406.61967 Z"
         id="path4150-4-2-9-5-8-2-7-0-4-8-5-4-4-6-0-2-7-2-1-6-8-5"
         inkscape:connector-curvature="0"
         sodipodi:nodetypes="ccassac" /><path
         style="fill:#ffffff;fill-opacity:1;fill-rule:evenodd;stroke:#000000;stroke-width:8;stroke-linecap:butt;stroke-linejoin:miter;stroke-miterlimit:4;stroke-dasharray:none;stroke-opacity:1"
         d="m 57.539682,410.44974 4.603175,162.6455"
         id="path4152-81-3-53-8-9-0-6-9-7-3-5-0-5-2-9-2-4-3-2-8-5-9"
         inkscape:connector-curvature="0" /></g><g
       style="fill:#ffffff;fill-opacity:1"
       inkscape:transform-center-y="42.905217"
       inkscape:transform-center-x="-13.688125"
       transform="matrix(1.4431176,-0.28767512,0.36745466,1.2282615,76.673535,-401.89854)"
       id="g4154-5-5-2-5-6-8-8-5-5-0-1-8-5-7-3-1-7-1-2-8-2-7-2"><path
         style="fill:#ffffff;fill-opacity:1;fill-rule:evenodd;stroke:#000000;stroke-width:8;stroke-linecap:butt;stroke-linejoin:miter;stroke-miterlimit:4;stroke-dasharray:none;stroke-opacity:1"
         d="m 37.51383,406.61967 c -16.012533,42.51732 -33.6463717,169.9697 3.606314,183.59455 8.844415,2.62268 12.453599,-17.382 21.676992,-17.20544 8.34528,0.15975 8.291781,26.68079 19.003091,16.30661 31.717083,-30.71883 7.588932,-165.3231 -9.789555,-190.5106 -7.40539,-10.73299 -8.079356,10.31363 -13.421829,11.93854 C 51.42571,412.922 43.264372,397.91594 37.51383,406.61967 Z"
         id="path4150-4-2-9-5-8-2-7-0-4-8-5-4-4-6-0-2-7-2-1-6-8-5-3"
         inkscape:connector-curvature="0"
         sodipodi:nodetypes="ccassac" /><path
         style="fill:#ffffff;fill-opacity:1;fill-rule:evenodd;stroke:#000000;stroke-width:8;stroke-linecap:butt;stroke-linejoin:miter;stroke-miterlimit:4;stroke-dasharray:none;stroke-opacity:1"
         d="m 57.539682,410.44974 4.603175,162.6455"
         id="path4152-81-3-53-8-9-0-6-9-7-3-5-0-5-2-9-2-4-3-2-8-5-9-1"
         inkscape:connector-curvature="0" /></g><g
       style="fill:#ffffff;fill-opacity:1"
       inkscape:transform-center-y="42.690661"
       inkscape:transform-center-x="29.718213"
       transform="matrix(1.2857216,0.7157271,-0.51576387,1.1737278,434.35599,-381.94903)"
       id="g4154-5-5-2-5-6-8-8-5-5-0-1-8-5-7-3-1-7-1-2-8-2-7-2-6"><path
         style="fill:#ffffff;fill-opacity:1;fill-rule:evenodd;stroke:#000000;stroke-width:8;stroke-linecap:butt;stroke-linejoin:miter;stroke-miterlimit:4;stroke-dasharray:none;stroke-opacity:1"
         d="m 37.51383,406.61967 c -16.012533,42.51732 -33.6463717,169.9697 3.606314,183.59455 8.844415,2.62268 12.453599,-17.382 21.676992,-17.20544 8.34528,0.15975 8.291781,26.68079 19.003091,16.30661 31.717083,-30.71883 7.588932,-165.3231 -9.789555,-190.5106 -7.40539,-10.73299 -8.079356,10.31363 -13.421829,11.93854 C 51.42571,412.922 43.264372,397.91594 37.51383,406.61967 Z"
         id="path4150-4-2-9-5-8-2-7-0-4-8-5-4-4-6-0-2-7-2-1-6-8-5-3-6"
         inkscape:connector-curvature="0"
         sodipodi:nodetypes="ccassac" /><path
         style="fill:#ffffff;fill-opacity:1;fill-rule:evenodd;stroke:#000000;stroke-width:8;stroke-linecap:butt;stroke-linejoin:miter;stroke-miterlimit:4;stroke-dasharray:none;stroke-opacity:1"
         d="m 57.539682,410.44974 4.603175,162.6455"
         id="path4152-81-3-53-8-9-0-6-9-7-3-5-0-5-2-9-2-4-3-2-8-5-9-1-4"
         inkscape:connector-curvature="0" /></g></g></svg>