<?xml version="1.0" encoding="UTF-8" standalone="no"?>
<!-- Generator: Adobe Illustrator 16.0.0, SVG Export Plug-In . SVG Version: 6.00 Build 0)  -->

<svg
   xmlns:dc="http://purl.org/dc/elements/1.1/"
   xmlns:cc="http://creativecommons.org/ns#"
   xmlns:rdf="http://www.w3.org/1999/02/22-rdf-syntax-ns#"
   xmlns:svg="http://www.w3.org/2000/svg"
   xmlns="http://www.w3.org/2000/svg"
   xmlns:sodipodi="http://sodipodi.sourceforge.net/DTD/sodipodi-0.dtd"
   xmlns:inkscape="http://www.inkscape.org/namespaces/inkscape"
   version="1.1"
   id="svg2"
   inkscape:output_extension="org.inkscape.output.svg.inkscape"
   sodipodi:docname="beaver_lodge.svg"
   inkscape:version="0.91 r13725"
   sodipodi:version="0.32"
   x="0px"
   y="0px"
   width="580px"
   height="580px"
   viewBox="0 0 580 580"
   enable-background="new 0 0 580 580"
   xml:space="preserve"><metadata
     id="metadata75"><rdf:RDF><cc:Work
         rdf:about=""><dc:format>image/svg+xml</dc:format><dc:type
           rdf:resource="http://purl.org/dc/dcmitype/StillImage" /><dc:title></dc:title></cc:Work></rdf:RDF></metadata><sodipodi:namedview
     showgrid="false"
     inkscape:cy="255.74384"
     inkscape:cx="138.55312"
     inkscape:zoom="0.92167712"
     pagecolor="#ffffff"
     bordercolor="#666666"
     guidetolerance="10.0"
     objecttolerance="10.0"
     gridtolerance="10.0"
     borderopacity="1.0"
     id="base"
     inkscape:current-layer="svg2"
     inkscape:window-y="-8"
     inkscape:window-x="-8"
     inkscape:pageopacity="0.0"
     inkscape:pageshadow="2"
     inkscape:window-height="705"
     inkscape:window-width="1366"
     inkscape:window-maximized="1" /><defs
     id="defs4"><inkscape:perspective
       inkscape:vp_z="580 : 290 : 1"
       inkscape:vp_y="0 : 1000 : 0"
       inkscape:vp_x="0 : 290 : 1"
       sodipodi:type="inkscape:persp3d"
       id="perspective3653"
       inkscape:persp3d-origin="290 : 193.33333 : 1" /></defs><g
     id="g4173"
     transform="matrix(0.92912063,0,0,0.92912063,20.555018,35.420948)"><g
       style="stroke-width:0.1;stroke-miterlimit:4;stroke-dasharray:none"
       transform="translate(0,27.604392)"
       id="g4146"><path
         sodipodi:open="true"
         style="opacity:1;fill:#000000;fill-opacity:1;stroke:#000000;stroke-width:0.1;stroke-linecap:butt;stroke-linejoin:round;stroke-miterlimit:4;stroke-dasharray:none;stroke-opacity:1"
         id="path3342"
         sodipodi:type="arc"
         sodipodi:cx="290.00021"
         sodipodi:cy="-396.9971"
         sodipodi:rx="113.54489"
         sodipodi:ry="141.83661"
         sodipodi:start="0"
         sodipodi:end="3.1402928"
         d="M 403.5451,-396.9971 A 113.54489,141.83661 0 0 1 290.07401,-255.16052 113.54489,141.83661 0 0 1 176.45542,-396.81273"
         transform="scale(1,-1)" /><path
         style="opacity:1;fill:none;fill-opacity:1;stroke:#000000;stroke-width:8;stroke-linecap:butt;stroke-linejoin:round;stroke-miterlimit:4;stroke-dasharray:none;stroke-opacity:1"
         id="path4144"
         sodipodi:type="arc"
         sodipodi:cx="290"
         sodipodi:cy="-400.52359"
         sodipodi:rx="285.4332"
         sodipodi:ry="276.25235"
         sodipodi:start="0"
         sodipodi:end="3.1415927"
         d="m 575.4332,-400.52359 a 285.4332,276.25235 0 0 1 -142.71661,239.24155 285.4332,276.25235 0 0 1 -285.4332,0 A 285.4332,276.25235 0 0 1 4.566803,-400.5236 L 290,-400.52359 Z"
         transform="scale(1,-1)" /></g><g
       transform="translate(-19.421203,-4.796746)"
       id="g4164"><path
         style="opacity:1;fill:#000000;fill-opacity:1;stroke:#ffffff;stroke-width:10.30307293;stroke-linecap:butt;stroke-linejoin:round;stroke-miterlimit:4;stroke-dasharray:none;stroke-opacity:1"
         d="m 499.59786,179.02153 -21.85637,57.51136 C 399.42739,146.38403 253.51805,120.20148 138.89897,211.55053 L 115.1962,169.90237 C 239.48247,48.031012 433.67549,85.028212 499.59786,179.02153 Z"
         id="rect4142-3-7-3-7-7-8-02-2"
         inkscape:connector-curvature="0"
         sodipodi:nodetypes="ccccc" /><path
         style="opacity:1;fill:#000000;fill-opacity:1;stroke:#ffffff;stroke-width:9.7952013;stroke-linecap:butt;stroke-linejoin:round;stroke-miterlimit:4;stroke-dasharray:none;stroke-opacity:1"
         d="m 603.97993,442.67448 -56.18357,16.80836 C 575.34935,347.086 517.14439,220.29706 384.95209,185.91806 l 19.43679,-42.38871 c 160.97114,23.98143 236.77555,193.97998 199.59105,299.14513 z"
         id="rect4142-3-7-3-7-7-8-02"
         inkscape:connector-curvature="0"
         sodipodi:nodetypes="ccccc" /><path
         style="opacity:1;fill:#000000;fill-opacity:1;stroke:#ffffff;stroke-width:9.7952013;stroke-linecap:butt;stroke-linejoin:round;stroke-miterlimit:4;stroke-dasharray:none;stroke-opacity:1"
         d="m 12.755399,437.28637 54.55932,19.49881 C 44.298639,341.30498 105.99946,214.8611 237.02495,185.56039 L 219.4635,141.62149 C 60.555369,159.11623 -19.976931,328.7479 12.755399,437.28637 Z"
         id="rect4142-3-7-3-7-7-8"
         inkscape:connector-curvature="0"
         sodipodi:nodetypes="ccccc" /><path
         style="opacity:1;fill:#000000;fill-opacity:1;stroke:#ffffff;stroke-width:10.65786552;stroke-linecap:butt;stroke-linejoin:round;stroke-miterlimit:4;stroke-dasharray:none;stroke-opacity:1"
         d="m 48.377089,346.32397 41.75802,41.38165 C 127.95354,259.2785 251.92663,152.43764 391.5558,173.05186 l 6.02485,-52.28723 C 237.56255,77.097382 73.376459,221.30234 48.377089,346.32397 Z"
         id="rect4142-3-7-3-7-7-8-0"
         inkscape:connector-curvature="0"
         sodipodi:nodetypes="ccccc" /><path
         style="opacity:1;fill:#000000;fill-opacity:1;stroke:#ffffff;stroke-width:10.65786552;stroke-linecap:butt;stroke-linejoin:round;stroke-miterlimit:4;stroke-dasharray:none;stroke-opacity:1"
         d="m 195.95373,147.90002 -14.68402,57.41672 C 309.3099,176.45558 461.40028,234.96418 512.62034,369.55862 L 560.13317,349.4482 C 518.50898,185.43119 314.77797,109.26424 195.95373,147.90002 Z"
         id="rect4142-3-7-3-7-7-8-0-0"
         inkscape:connector-curvature="0"
         sodipodi:nodetypes="ccccc" /><path
         style="opacity:1;fill:#000000;fill-opacity:1;stroke:#ffffff;stroke-width:10.65786552;stroke-linecap:butt;stroke-linejoin:round;stroke-miterlimit:4;stroke-dasharray:none;stroke-opacity:1"
         d="m 271.99266,196.13332 -23.61311,52.66244 c 134.37269,-6.29076 279.9175,75.31341 311.51524,213.08688 l 51.28788,-11.35875 C 593.78807,286.11054 398.49043,178.91783 271.99266,196.13332 Z"
         id="rect4142-3-7-3-7-7-8-0-0-4"
         inkscape:connector-curvature="0"
         sodipodi:nodetypes="ccccc" /><path
         style="opacity:1;fill:#000000;fill-opacity:1;stroke:#ffffff;stroke-width:10.65786552;stroke-linecap:butt;stroke-linejoin:round;stroke-miterlimit:4;stroke-dasharray:none;stroke-opacity:1"
         d="m 312.06506,163.0817 29.16221,51.26753 C 210.52047,222.12763 79.567549,320.8184 65.559569,464.81033 l -50.9647,-6.17598 C 11.666949,288.94681 187.66173,158.87482 312.06506,163.0817 Z"
         id="rect4142-3-7-3-7-7-8-4-8"
         inkscape:connector-curvature="0"
         sodipodi:nodetypes="ccccc" /></g></g></svg>