<?xml version="1.0" encoding="UTF-8" standalone="no"?>
<!-- Generator: Adobe Illustrator 16.0.0, SVG Export Plug-In . SVG Version: 6.00 Build 0)  -->

<svg
   xmlns:dc="http://purl.org/dc/elements/1.1/"
   xmlns:cc="http://creativecommons.org/ns#"
   xmlns:rdf="http://www.w3.org/1999/02/22-rdf-syntax-ns#"
   xmlns:svg="http://www.w3.org/2000/svg"
   xmlns="http://www.w3.org/2000/svg"
   xmlns:sodipodi="http://sodipodi.sourceforge.net/DTD/sodipodi-0.dtd"
   xmlns:inkscape="http://www.inkscape.org/namespaces/inkscape"
   version="1.1"
   id="svg2"
   inkscape:output_extension="org.inkscape.output.svg.inkscape"
   sodipodi:docname="deer.svg"
   inkscape:version="0.91 r13725"
   sodipodi:version="0.32"
   x="0px"
   y="0px"
   width="580px"
   height="580px"
   viewBox="0 0 580 580"
   enable-background="new 0 0 580 580"
   xml:space="preserve"
   inkscape:export-filename="D:\qgis-styles\collections\animalsonmaps\image\animalsonmaps_preview.png"
   inkscape:export-xdpi="300"
   inkscape:export-ydpi="300"><metadata
     id="metadata75"><rdf:RDF><cc:Work
         rdf:about=""><dc:format>image/svg+xml</dc:format><dc:type
           rdf:resource="http://purl.org/dc/dcmitype/StillImage" /><dc:title /></cc:Work></rdf:RDF></metadata><sodipodi:namedview
     showgrid="false"
     inkscape:cy="410.41863"
     inkscape:cx="106.38316"
     inkscape:zoom="0.65172414"
     pagecolor="#ffffff"
     bordercolor="#666666"
     guidetolerance="10.0"
     objecttolerance="10.0"
     gridtolerance="10.0"
     borderopacity="1.0"
     id="base"
     inkscape:current-layer="svg2"
     inkscape:window-y="-8"
     inkscape:window-x="-8"
     inkscape:pageopacity="0.0"
     inkscape:pageshadow="2"
     inkscape:window-height="705"
     inkscape:window-width="1366"
     inkscape:window-maximized="1" /><defs
     id="defs4"><inkscape:perspective
       inkscape:vp_z="580 : 290 : 1"
       inkscape:vp_y="0 : 1000 : 0"
       inkscape:vp_x="0 : 290 : 1"
       sodipodi:type="inkscape:persp3d"
       id="perspective3653"
       inkscape:persp3d-origin="290 : 193.33333 : 1" /></defs><g
     id="g4138"><path
       sodipodi:nodetypes="cacaaasscc"
       inkscape:connector-curvature="0"
       id="path4319-5-9"
       d="m 266.62079,34.397029 c 11.58422,9.141182 -1.41636,85.708661 -0.94495,128.560841 1.04329,94.83534 7.54933,202.65828 8.34996,284.40068 0.29805,23.55023 -9.19246,44.4393 -22.10481,62.29143 -11.37858,15.73154 -26.69548,33.96728 -46.03468,35.6846 -30.54379,2.71229 -63.30433,-17.98342 -81.49935,-42.66582 -24.30641,-32.97277 -24.685873,-80.45052 -22.23749,-120.86163 5.54059,-91.4513 27.78806,-213.27052 69.12625,-273.77702 37.48124,-54.861076 64.14481,-83.660365 95.34544,-73.633067 z"
       style="fill:#000000;fill-opacity:1;fill-rule:evenodd;stroke:none;stroke-width:0.97023773;stroke-linecap:butt;stroke-linejoin:miter;stroke-miterlimit:4;stroke-dasharray:none;stroke-opacity:1" /><path
       sodipodi:nodetypes="cacaaasscc"
       inkscape:connector-curvature="0"
       id="path4319-5-9-9"
       d="m 313.3792,36.396397 c -11.58422,9.141182 1.41636,85.708663 0.94495,128.560843 -1.04329,94.83533 -7.54933,202.65827 -8.34996,284.40068 -0.29805,23.55022 9.19246,44.43929 22.10481,62.29142 11.37858,15.73155 26.69549,33.96728 46.03469,35.68461 30.54379,2.71229 63.30433,-17.98343 81.49936,-42.66582 24.3064,-32.97277 24.68587,-80.45052 22.23748,-120.86163 C 472.30995,292.3552 450.06247,170.53598 408.72428,110.02948 371.24304,55.168402 344.57948,26.369112 313.37883,36.396411 Z"
       style="fill:#000000;fill-opacity:1;fill-rule:evenodd;stroke:none;stroke-width:0.97023773;stroke-linecap:butt;stroke-linejoin:miter;stroke-miterlimit:4;stroke-dasharray:none;stroke-opacity:1" /></g></svg>