<?xml version="1.0" encoding="UTF-8" standalone="no"?>
<!-- Generator: Adobe Illustrator 16.0.0, SVG Export Plug-In . SVG Version: 6.00 Build 0)  -->

<svg
   xmlns:dc="http://purl.org/dc/elements/1.1/"
   xmlns:cc="http://creativecommons.org/ns#"
   xmlns:rdf="http://www.w3.org/1999/02/22-rdf-syntax-ns#"
   xmlns:svg="http://www.w3.org/2000/svg"
   xmlns="http://www.w3.org/2000/svg"
   xmlns:sodipodi="http://sodipodi.sourceforge.net/DTD/sodipodi-0.dtd"
   xmlns:inkscape="http://www.inkscape.org/namespaces/inkscape"
   version="1.1"
   id="svg2"
   inkscape:output_extension="org.inkscape.output.svg.inkscape"
   sodipodi:docname="bear.svg"
   inkscape:version="0.91 r13725"
   sodipodi:version="0.32"
   x="0px"
   y="0px"
   width="580px"
   height="580px"
   viewBox="0 0 580 580"
   enable-background="new 0 0 580 580"
   xml:space="preserve"><metadata
     id="metadata75"><rdf:RDF><cc:Work
         rdf:about=""><dc:format>image/svg+xml</dc:format><dc:type
           rdf:resource="http://purl.org/dc/dcmitype/StillImage" /><dc:title /></cc:Work></rdf:RDF></metadata><sodipodi:namedview
     showgrid="false"
     inkscape:cy="299.70983"
     inkscape:cx="154.59087"
     inkscape:zoom="0.65172414"
     pagecolor="#ffffff"
     bordercolor="#666666"
     guidetolerance="10.0"
     objecttolerance="10.0"
     gridtolerance="10.0"
     borderopacity="1.0"
     id="base"
     inkscape:current-layer="svg2"
     inkscape:window-y="-8"
     inkscape:window-x="-8"
     inkscape:pageopacity="0.0"
     inkscape:pageshadow="2"
     inkscape:window-height="705"
     inkscape:window-width="1366"
     inkscape:window-maximized="1" /><defs
     id="defs4"><inkscape:perspective
       inkscape:vp_z="580 : 290 : 1"
       inkscape:vp_y="0 : 1000 : 0"
       inkscape:vp_x="0 : 290 : 1"
       sodipodi:type="inkscape:persp3d"
       id="perspective3653"
       inkscape:persp3d-origin="290 : 193.33333 : 1" /><pattern
       y="0"
       x="0"
       height="6"
       width="6"
       patternUnits="userSpaceOnUse"
       id="EMFhbasepattern" /></defs><ellipse
     fill="param(fill) #000" fill-opacity="param(fill-opacity)" stroke="param(outline) #FFF" stroke-opacity="param(outline-opacity)" stroke-width="param(outline-width) 0"
     id="path4272-7-5"
     cx="198.27728"
     cy="73.121437"
     rx="22.836313"
     ry="30.678339"
     transform="matrix(0.99472986,0.10253053,-0.03140725,0.99950667,0,0)"
     inkscape:transform-center-x="26.088398"
     inkscape:transform-center-y="17.903549" /><path
     fill="param(fill) #000" fill-opacity="param(fill-opacity)" stroke="param(outline) #FFF" stroke-opacity="param(outline-opacity)" stroke-width="param(outline-width) 0"
     d="m 353.9718,126.10934 c 10.5354,5.04316 20.05112,6.91275 30.83983,16.61544 9.96314,8.96021 10.65118,29.63753 10.06909,44.98255 -0.96805,25.51917 -18.81428,59.39668 -22.3638,73.3102 -5.82204,22.82143 -16.54388,76.72783 -67.44834,72.61741 -46.16721,-7.03552 -51.9063,-38.38481 -72.07525,-63.08014 -15.48224,-18.95682 -28.92672,-55.10177 -36.27242,-63.73433 -9.99907,-11.75078 -11.33678,-52.56402 -0.66051,-65.99062 13.09891,-16.47304 27.89477,-17.35523 43.44827,-22.13437 42.57369,-11.67144 64.01537,-7.03894 114.46313,7.41386 z"
     id="path4319"
     inkscape:connector-curvature="0"
     sodipodi:nodetypes="csascasscc" /><path
     fill="param(fill) #000" fill-opacity="param(fill-opacity)" stroke="param(outline) #FFF" stroke-opacity="param(outline-opacity)" stroke-width="param(outline-width) 0"
     d="m 187.45641,54.455496 c -0.16122,3.098847 11.13538,1.495456 10.46338,-1.159051 -0.56176,-2.219093 -3.66861,-15.246657 -6.26497,-15.232211 -2.40353,0.01337 -4.03719,13.292415 -4.19841,16.391262 z"
     id="path4328"
     inkscape:connector-curvature="0"
     sodipodi:nodetypes="zssz" /><ellipse
     fill="param(fill) #000" fill-opacity="param(fill-opacity)" stroke="param(outline) #FFF" stroke-opacity="param(outline-opacity)" stroke-width="param(outline-width) 0"
     id="path4272-7-5-4"
     cx="251.38037"
     cy="15.622668"
     rx="22.834339"
     ry="30.678345"
     transform="matrix(0.9765595,0.21524765,-0.14633747,0.98923473,0,0)"
     inkscape:transform-center-x="27.968045"
     inkscape:transform-center-y="14.796267" /><ellipse
     fill="param(fill) #000" fill-opacity="param(fill-opacity)" stroke="param(outline) #FFF" stroke-opacity="param(outline-opacity)" stroke-width="param(outline-width) 0"
     id="path4272-7-5-4-8"
     cx="301.81207"
     cy="-12.591937"
     rx="21.026937"
     ry="28.832003"
     transform="matrix(0.96727834,0.2537176,-0.20078013,0.97963633,0,0)"
     inkscape:transform-center-x="26.571402"
     inkscape:transform-center-y="12.907234" /><ellipse
    fill="param(fill) #000" fill-opacity="param(fill-opacity)" stroke="param(outline) #FFF" stroke-opacity="param(outline-opacity)" stroke-width="param(outline-width) 0"
     id="path4272-7-5-4-8-9"
     cx="350.58224"
     cy="-42.259575"
     rx="20.428345"
     ry="28.787716"
     transform="matrix(0.94351853,0.33131977,-0.26707309,0.96367627,0,0)"
     inkscape:transform-center-x="26.612498"
     inkscape:transform-center-y="10.89021" /><ellipse
     fill="param(fill) #000" fill-opacity="param(fill-opacity)" stroke="param(outline) #FFF" stroke-opacity="param(outline-opacity)" stroke-width="param(outline-width) 0"
     id="path4272-7-5-4-8-9-3"
     cx="396.90997"
     cy="77.419426"
     rx="18.749821"
     ry="24.375784"
     transform="matrix(0.99833973,0.05760014,-0.0944424,0.99553033,0,0)"
     inkscape:transform-center-x="22.352404"
     inkscape:transform-center-y="15.249144" /><path
     inkscape:connector-curvature="0"
     id="path4150"
     d="m 216.41188,447.66143 c 0.57473,17.01386 -9.21106,30.41031 -21.81346,29.92696 -12.57389,-0.48264 -23.24184,-14.67108 -23.81586,-31.71344 -0.54627,-17.01316 9.2111,-30.41031 21.81349,-29.92696 12.60235,0.48335 23.27026,14.67178 23.81583,31.71344 z"
     fill="param(fill) #000" fill-opacity="param(fill-opacity)" stroke="param(outline) #FFF" stroke-opacity="param(outline-opacity)" stroke-width="param(outline-width) 0" /><path
     inkscape:connector-curvature="0"
     id="path4152"
     d="m 216.41188,447.66143 c 0.57473,17.01386 -9.21106,30.41031 -21.81346,29.92696 -12.57389,-0.48264 -23.24184,-14.67108 -23.81586,-31.71344 -0.54627,-17.01316 9.2111,-30.41031 21.81349,-29.92696 12.60235,0.48335 23.27026,14.67178 23.81583,31.71344 z"
     fill="param(fill) #000" fill-opacity="param(fill-opacity)" stroke="param(outline) #FFF" stroke-opacity="param(outline-opacity)" stroke-width="param(outline-width) 0" /><path
     inkscape:connector-curvature="0"
     id="path4154"
     d="m 291.68836,455.19449 c 30.71324,3.61492 42.43828,13.3427 63.09732,21.4527 11.02031,4.32499 20.81141,5.5756 32.41066,14.53919 10.68712,8.2648 17.12588,29.22854 13.17354,44.02067 -3.33896,12.38246 -15.26642,24.21994 -28.15207,26.92689 -23.58145,5.01553 -39.22158,-2.7482 -79.70743,-6.06245 -35.1236,1.77725 -38.50862,9.13962 -58.11754,8.83705 -13.71186,-0.21666 -32.42115,0.65801 -40.46803,-7.43056 -10.9069,-11.03328 -8.51439,-42.10412 1.43466,-56.13202 12.23837,-17.1872 27.883,-17.54401 42.68536,-24.7444 17.30315,-8.40879 27.88904,-18.92512 53.64353,-21.40707 z"
fill="param(fill) #000" fill-opacity="param(fill-opacity)" stroke="param(outline) #FFF" stroke-opacity="param(outline-opacity)" stroke-width="param(outline-width) 0" /><path
     inkscape:connector-curvature="0"
     id="path4158"
     d="m 265.68692,419.55434 c -1.38883,16.96477 -12.62561,29.15821 -25.10704,27.25415 -12.45265,-1.93186 -21.41273,-17.24592 -20.02319,-34.23919 1.41729,-16.96447 12.65407,-29.15777 25.10672,-27.22604 12.45227,1.93186 21.41235,17.24591 20.02351,34.21108 z"
     fill="param(fill) #000" fill-opacity="param(fill-opacity)" stroke="param(outline) #FFF" stroke-opacity="param(outline-opacity)" stroke-width="param(outline-width) 0" /><path
     inkscape:connector-curvature="0"
     id="path4160"
     d="m 265.68692,419.55434 c -1.38883,16.96477 -12.62561,29.15821 -25.10704,27.25415 -12.45265,-1.93186 -21.41273,-17.24592 -20.02319,-34.23919 1.41729,-16.96447 12.65407,-29.15777 25.10672,-27.22604 12.45227,1.93186 21.41235,17.24591 20.02351,34.21108 z"
     fill="param(fill) #000" fill-opacity="param(fill-opacity)" stroke="param(outline) #FFF" stroke-opacity="param(outline-opacity)" stroke-width="param(outline-width) 0" /><path
     inkscape:connector-curvature="0"
     id="path4162"
     d="m 314.55127,411.45468 c -2.18728,15.86297 -13.19593,26.8945 -24.58751,24.67576 -11.39125,-2.24725 -18.85861,-16.89739 -16.67132,-32.76075 2.18659,-15.83487 13.19594,-26.89476 24.61564,-24.64681 11.39158,2.21887 18.85893,16.86914 16.64319,32.7318 z"
     fill="param(fill) #000" fill-opacity="param(fill-opacity)" stroke="param(outline) #FFF" stroke-opacity="param(outline-opacity)" stroke-width="param(outline-width) 0" /><path
     inkscape:connector-curvature="0"
     id="path4164"
     d="m 314.55127,411.45468 c -2.18728,15.86297 -13.19593,26.8945 -24.58751,24.67576 -11.39125,-2.24725 -18.85861,-16.89739 -16.67132,-32.76075 2.18659,-15.83487 13.19594,-26.89476 24.61564,-24.64681 11.39158,2.21887 18.85893,16.86914 16.64319,32.7318 z"
     fill="param(fill) #000" fill-opacity="param(fill-opacity)" stroke="param(outline) #FFF" stroke-opacity="param(outline-opacity)" stroke-width="param(outline-width) 0" /><path
     inkscape:connector-curvature="0"
     id="path4166"
     d="m 361.80781,421.11198 c -3.26372,15.63703 -14.70685,25.83206 -25.5654,22.77229 -10.85855,-3.05991 -17.0319,-18.2193 -13.76818,-33.8562 3.26375,-15.6373 14.70796,-25.86068 25.56651,-22.80105 10.85745,3.08826 17.03082,18.24766 13.76707,33.88496 z"
     fill="param(fill) #000" fill-opacity="param(fill-opacity)" stroke="param(outline) #FFF" stroke-opacity="param(outline-opacity)" stroke-width="param(outline-width) 0" /><path
     inkscape:connector-curvature="0"
     id="path4168"
     d="m 361.80781,421.11198 c -3.26372,15.63703 -14.70685,25.83206 -25.5654,22.77229 -10.85855,-3.05991 -17.0319,-18.2193 -13.76818,-33.8562 3.26375,-15.6373 14.70796,-25.86068 25.56651,-22.80105 10.85745,3.08826 17.03082,18.24766 13.76707,33.88496 z"
     fill="param(fill) #000" fill-opacity="param(fill-opacity)" stroke="param(outline) #FFF" stroke-opacity="param(outline-opacity)" stroke-width="param(outline-width) 0" /><path
     inkscape:connector-curvature="0"
     id="path4170"
     d="m 409.22358,436.98061 c -0.42127,13.54364 -9.15082,24.54639 -19.48938,24.63173 -10.36632,0.0561 -18.4106,-10.85002 -18.01849,-24.36586 0.42126,-13.54337 9.15118,-24.54611 19.48975,-24.63145 10.3663,-0.0561 18.43867,10.85071 18.01812,24.36558 z"
     fill="param(fill) #000" fill-opacity="param(fill-opacity)" stroke="param(outline) #FFF" stroke-opacity="param(outline-opacity)" stroke-width="param(outline-width) 0" /><path
     inkscape:connector-curvature="0"
     id="path4172"
     d="m 409.22358,436.98061 c -0.42127,13.54364 -9.15082,24.54639 -19.48938,24.63173 -10.36632,0.0561 -18.4106,-10.85002 -18.01849,-24.36586 0.42126,-13.54337 9.15118,-24.54611 19.48975,-24.63145 10.3663,-0.0561 18.43867,10.85071 18.01812,24.36558 z"
     fill="param(fill) #000" fill-opacity="param(fill-opacity)" stroke="param(outline) #FFF" stroke-opacity="param(outline-opacity)" stroke-width="param(outline-width) 0" /><path
     fill="param(fill) #000" fill-opacity="param(fill-opacity)" stroke="param(outline) #FFF" stroke-opacity="param(outline-opacity)" stroke-width="param(outline-width) 0"
     d="m 238.81186,29.19582 c -0.42406,3.073926 10.96795,2.436606 10.52403,-0.265417 -0.37109,-2.258813 -2.35929,-15.503322 -4.94748,-15.709632 -2.39597,-0.19099 -5.1525,12.901123 -5.57655,15.975049 z"
     id="path4328-2"
     inkscape:connector-curvature="0"
     sodipodi:nodetypes="zssz" /><path
     fill="param(fill) #000" fill-opacity="param(fill-opacity)" stroke="param(outline) #FFF" stroke-opacity="param(outline-opacity)" stroke-width="param(outline-width) 0"
     d="m 294.20765,26.46928 c -0.77259,3.005319 10.61761,3.674149 10.48541,0.939096 -0.1105,-2.286424 -0.57198,-15.671378 -3.11963,-16.172136 -2.35845,-0.46357 -6.59319,12.227719 -7.36578,15.23304 z"
     id="path4328-2-4"
     inkscape:connector-curvature="0"
     sodipodi:nodetypes="zssz" /><path
     fill="param(fill) #000" fill-opacity="param(fill-opacity)" stroke="param(outline) #FFF" stroke-opacity="param(outline-opacity)" stroke-width="param(outline-width) 0"
     d="m 347.77667,35.25464 c -1.08942,2.905513 10.16403,4.788069 10.32494,2.054557 0.13455,-2.285135 1.1065,-15.642727 -1.37303,-16.412948 -2.29538,-0.713021 -7.8625,11.452876 -8.95191,14.358391 z"
     id="path4328-2-4-1"
     inkscape:connector-curvature="0"
     sodipodi:nodetypes="zssz" /><path
     fill="param(fill) #000" fill-opacity="param(fill-opacity)" stroke="param(outline) #FFF" stroke-opacity="param(outline-opacity)" stroke-width="param(outline-width) 0"
     d="m 391.42845,62.182804 c -1.13782,2.886904 10.08261,4.957235 10.28917,2.226793 0.17271,-2.282567 1.36772,-15.622054 -1.09859,-16.433599 -2.28315,-0.751276 -8.05277,11.3199 -9.19058,14.206806 z"
     id="path4328-2-4-1-8"
     inkscape:connector-curvature="0"
     sodipodi:nodetypes="zssz" /><path
     fill="param(fill) #000" fill-opacity="param(fill-opacity)" stroke="param(outline) #FFF" stroke-opacity="param(outline-opacity)" stroke-width="param(outline-width) 0"
     d="m 186.85007,403.12748 c -0.39202,2.87758 11.22496,2.15624 10.73613,-0.36417 -0.40862,-2.10698 -2.61306,-14.46337 -5.25701,-14.62762 -2.44761,-0.15207 -5.08711,12.11423 -5.47912,14.99179 z"
     id="path4328-2-4-1-8-7"
     inkscape:connector-curvature="0"
     sodipodi:nodetypes="zssz" /><path
     fill="param(fill) #000" fill-opacity="param(fill-opacity)" stroke="param(outline) #FFF" stroke-opacity="param(outline-opacity)" stroke-width="param(outline-width) 0"
     d="m 237.83034,373.47677 c -0.39202,2.87758 11.22496,2.15624 10.73613,-0.36417 -0.40862,-2.10698 -2.61306,-14.46337 -5.25701,-14.62762 -2.44761,-0.15207 -5.08711,12.11423 -5.47912,14.99179 z"
     id="path4328-2-4-1-8-7-5"
     inkscape:connector-curvature="0"
     sodipodi:nodetypes="zssz" /><path
     fill="param(fill) #000" fill-opacity="param(fill-opacity)" stroke="param(outline) #FFF" stroke-opacity="param(outline-opacity)" stroke-width="param(outline-width) 0"
     d="m 290.66303,364.79844 c -0.61143,2.83907 11.02667,3.01027 10.73246,0.4598 -0.24592,-2.1321 -1.49679,-14.6211 -4.12038,-14.98752 -2.42875,-0.33923 -6.00067,11.68868 -6.61208,14.52772 z"
     id="path4328-2-4-1-8-7-7"
     inkscape:connector-curvature="0"
     sodipodi:nodetypes="zssz" /><path
     fill="param(fill) #000" fill-opacity="param(fill-opacity)" stroke="param(outline) #FFF" stroke-opacity="param(outline-opacity)" stroke-width="param(outline-width) 0"
     d="m 347.35759,366.37753 c -1.12904,2.67571 10.27393,5.00954 10.45946,2.44888 0.15495,-2.14064 1.25006,-14.64426 -1.25952,-15.49248 -2.3232,-0.78525 -8.0709,10.36791 -9.19994,13.0436 z"
     id="path4328-2-4-1-8-7-6"
     inkscape:connector-curvature="0"
     sodipodi:nodetypes="zssz" /><path
     fill="param(fill) #000" fill-opacity="param(fill-opacity)" stroke="param(outline) #FFF" stroke-opacity="param(outline-opacity)" stroke-width="param(outline-width) 0"
     d="m 390.94127,399.24514 c -0.74997,2.62975 10.01752,3.55542 9.91008,1.13757 -0.0898,-2.02123 -0.44017,-13.84836 -2.84627,-14.36533 -2.22744,-0.4786 -6.31384,10.59802 -7.06381,13.22776 z"
     id="path4328-2-4-1-8-7-1"
     inkscape:connector-curvature="0"
     sodipodi:nodetypes="zssz" /></svg>