<?xml version="1.0" encoding="UTF-8" standalone="no"?>
<!-- Generator: Adobe Illustrator 16.0.0, SVG Export Plug-In . SVG Version: 6.00 Build 0)  -->

<svg
   xmlns:dc="http://purl.org/dc/elements/1.1/"
   xmlns:cc="http://creativecommons.org/ns#"
   xmlns:rdf="http://www.w3.org/1999/02/22-rdf-syntax-ns#"
   xmlns:svg="http://www.w3.org/2000/svg"
   xmlns="http://www.w3.org/2000/svg"
   xmlns:sodipodi="http://sodipodi.sourceforge.net/DTD/sodipodi-0.dtd"
   xmlns:inkscape="http://www.inkscape.org/namespaces/inkscape"
   version="1.1"
   id="svg2"
   inkscape:output_extension="org.inkscape.output.svg.inkscape"
   sodipodi:docname="bear_front_paw.svg"
   inkscape:version="0.91 r13725"
   sodipodi:version="0.32"
   x="0px"
   y="0px"
   width="580px"
   height="580px"
   viewBox="0 0 580 580"
   enable-background="new 0 0 580 580"
   xml:space="preserve"><metadata
     id="metadata75"><rdf:RDF><cc:Work
         rdf:about=""><dc:format>image/svg+xml</dc:format><dc:type
           rdf:resource="http://purl.org/dc/dcmitype/StillImage" /><dc:title /></cc:Work></rdf:RDF></metadata><sodipodi:namedview
     showgrid="false"
     inkscape:cy="322.21806"
     inkscape:cx="47.963702"
     inkscape:zoom="0.65172416"
     pagecolor="#ffffff"
     bordercolor="#666666"
     guidetolerance="10.0"
     objecttolerance="10.0"
     gridtolerance="10.0"
     borderopacity="1.0"
     id="base"
     inkscape:current-layer="svg2"
     inkscape:window-y="-8"
     inkscape:window-x="-8"
     inkscape:pageopacity="0.0"
     inkscape:pageshadow="2"
     inkscape:window-height="705"
     inkscape:window-width="1366"
     inkscape:window-maximized="1" /><defs
     id="defs4"><inkscape:perspective
       inkscape:vp_z="580 : 290 : 1"
       inkscape:vp_y="0 : 1000 : 0"
       inkscape:vp_x="0 : 290 : 1"
       sodipodi:type="inkscape:persp3d"
       id="perspective3653"
       inkscape:persp3d-origin="290 : 193.33333 : 1" /></defs><g
     id="g4222"><ellipse
       inkscape:transform-center-y="17.903549"
       inkscape:transform-center-x="26.088398"
       transform="matrix(0.99990497,0.01378617,0.05724799,0.99835999,0,0)"
       ry="71.81868"
       rx="53.176498"
       cy="268.42813"
       cx="50.570778"
       id="path4272-7-5"
       fill="param(fill) #000" fill-opacity="param(fill-opacity)" stroke="param(outline) #FFF" stroke-opacity="param(outline-opacity)" stroke-width="param(outline-width) 0" /><path
       sodipodi:nodetypes="casascassacc"
       inkscape:connector-curvature="0"
       id="path4319"
       d="m 293.23806,276.87339 c 71.21535,6.8681 98.89541,29.54332 147.11949,47.84157 25.75299,9.77179 48.45028,12.20595 75.77422,33.01447 25.23307,19.21619 41.34255,69.20492 33.03595,104.93248 -6.94618,29.87629 -33.8436,58.9754 -63.43277,66.26413 -54.25553,13.36481 -90.85128,-4.35769 -184.6495,-10.00285 -81.10858,6.32378 -88.46626,24.19745 -133.80223,24.60425 -31.74908,0.28486 -74.963488,3.44437 -93.992453,-15.5464 -25.902541,-25.85055 -22.205791,-100.55943 0.004,-134.77839 27.249633,-41.98313 63.368363,-43.74225 97.202333,-61.88691 39.46051,-21.1621 63.31928,-47.03384 122.74054,-54.44235 z"
       fill="param(fill) #000" fill-opacity="param(fill-opacity)" stroke="param(outline) #FFF" stroke-opacity="param(outline-opacity)" stroke-width="param(outline-width) 0" /><ellipse
       inkscape:transform-center-y="14.796267"
       inkscape:transform-center-x="27.968045"
       transform="matrix(0.99173916,0.12827096,-0.05752764,0.99834391,0,0)"
       ry="71.81868"
       rx="53.176498"
       cy="170.15125"
       cx="190.81789"
       id="path4272-7-5-4"
       fill="param(fill) #000" fill-opacity="param(fill-opacity)" stroke="param(outline) #FFF" stroke-opacity="param(outline-opacity)" stroke-width="param(outline-width) 0" /><ellipse
       inkscape:transform-center-y="12.907234"
       inkscape:transform-center-x="26.571402"
       transform="matrix(0.98585348,0.16760942,-0.11232109,0.99367196,0,0)"
       ry="67.492981"
       rx="48.970459"
       cy="119.20618"
       cx="315.09586"
       id="path4272-7-5-4-8"
       fill="param(fill) #000" fill-opacity="param(fill-opacity)" stroke="param(outline) #FFF" stroke-opacity="param(outline-opacity)" stroke-width="param(outline-width) 0" /><ellipse
       inkscape:transform-center-y="10.89021"
       inkscape:transform-center-x="26.612498"
       transform="matrix(0.96891698,0.24738609,-0.17943429,0.98376996,0,0)"
       ry="67.382225"
       rx="47.584747"
       cy="80.400581"
       cx="438.0152"
       id="path4272-7-5-4-8-9"
       fill="param(fill) #000" fill-opacity="param(fill-opacity)" stroke="param(outline) #FFF" stroke-opacity="param(outline-opacity)" stroke-width="param(outline-width) 0" /><ellipse
       inkscape:transform-center-y="15.249144"
       inkscape:transform-center-x="22.352404"
       transform="matrix(0.99950285,-0.03152848,-0.00555573,0.99998457,0,0)"
       ry="57.06525"
       rx="43.660904"
       cy="251.41226"
       cx="525.41742"
       id="path4272-7-5-4-8-9-3"
       fill="param(fill) #000" fill-opacity="param(fill-opacity)" stroke="param(outline) #FFF" stroke-opacity="param(outline-opacity)" stroke-width="param(outline-width) 0"
	   /><path
       sodipodi:nodetypes="zzsz"
       inkscape:connector-curvature="0"
       id="path4328-2"
       d="m 44.728191,164.89537 c 1.14382,5.33684 22.62536,2.93525 23.7593,-0.65384 1.13394,-3.58908 -6.69128,-36.73952 -10.95539,-36.54245 -3.68123,0.17013 -13.9477,31.85945 -12.80391,37.19629 z"
       fill="param(fill) #000" fill-opacity="param(fill-opacity)" stroke="param(outline) #FFF" stroke-opacity="param(outline-opacity)" stroke-width="param(outline-width) 0" /><path
       sodipodi:nodetypes="zzsz"
       inkscape:connector-curvature="0"
       id="path4328-2-2"
       d="m 162.17599,91.441246 c 1.14382,5.33684 22.62536,2.93525 23.7593,-0.65384 1.13394,-3.58908 -6.69128,-36.73952 -10.95539,-36.54245 -3.68123,0.17013 -13.9477,31.85945 -12.80391,37.19629 z"
       fill="param(fill) #000" fill-opacity="param(fill-opacity)" stroke="param(outline) #FFF" stroke-opacity="param(outline-opacity)" stroke-width="param(outline-width) 0" /><path
       sodipodi:nodetypes="zzsz"
       inkscape:connector-curvature="0"
       id="path4328-2-2-1"
       d="m 288.64811,70.826652 c 1.14382,5.33684 22.62536,2.93525 23.7593,-0.65384 1.13394,-3.58908 -6.69128,-36.73952 -10.95539,-36.54245 -3.68123,0.17013 -13.9477,31.85945 -12.80391,37.19629 z"
       fill="param(fill) #000" fill-opacity="param(fill-opacity)" stroke="param(outline) #FFF" stroke-opacity="param(outline-opacity)" stroke-width="param(outline-width) 0" /><path
       sodipodi:nodetypes="zzsz"
       inkscape:connector-curvature="0"
       id="path4328-2-2-17"
       d="m 414.78019,75.765254 c 0.70385,5.412466 22.3098,4.774465 23.73326,1.290051 1.42346,-3.484405 -3.6664,-37.163465 -7.93235,-37.315534 -3.68282,-0.131283 -16.50472,30.61302 -15.80091,36.025483 z"
       fill="param(fill) #000" fill-opacity="param(fill-opacity)" stroke="param(outline) #FFF" stroke-opacity="param(outline-opacity)" stroke-width="param(outline-width) 0" /><path
       sodipodi:nodetypes="zzsz"
       inkscape:connector-curvature="0"
       id="path4328-2-2-9"
       d="m 523.55005,148.55648 c 0.97271,5.37067 22.52002,3.65667 23.76806,0.10564 1.24803,-3.55101 -5.51398,-36.93455 -9.78221,-36.87383 -3.68479,0.0524 -14.95854,31.39753 -13.98585,36.76819 z"
       fill="param(fill) #000" fill-opacity="param(fill-opacity)" stroke="param(outline) #FFF" stroke-opacity="param(outline-opacity)" stroke-width="param(outline-width) 0" /></g></svg>