<?xml version="1.0" encoding="UTF-8" standalone="no"?>

<svg
   xmlns:dc="http://purl.org/dc/elements/1.1/"
   xmlns:cc="http://creativecommons.org/ns#"
   xmlns:rdf="http://www.w3.org/1999/02/22-rdf-syntax-ns#"
   xmlns:svg="http://www.w3.org/2000/svg"
   xmlns="http://www.w3.org/2000/svg"
   xmlns:sodipodi="http://sodipodi.sourceforge.net/DTD/sodipodi-0.dtd"
   xmlns:inkscape="http://www.inkscape.org/namespaces/inkscape"
   version="1.1"
   id="svg2"
   inkscape:output_extension="org.inkscape.output.svg.inkscape"
   sodipodi:docname="carnivore_scat.svg"
   inkscape:version="0.91 r13725"
   sodipodi:version="0.32"
   x="0px"
   y="0px"
   width="580px"
   height="580px"
   viewBox="0 0 580 580"
   enable-background="new 0 0 580 580"
   xml:space="preserve"><metadata
     id="metadata75"><rdf:RDF><cc:Work
         rdf:about=""><dc:format>image/svg+xml</dc:format><dc:type
           rdf:resource="http://purl.org/dc/dcmitype/StillImage" /><dc:title /></cc:Work></rdf:RDF></metadata><sodipodi:namedview
     showgrid="false"
     inkscape:cy="328.7793"
     inkscape:cx="32.145901"
     inkscape:zoom="0.46083856"
     pagecolor="#ffffff"
     bordercolor="#666666"
     guidetolerance="10.0"
     objecttolerance="10.0"
     gridtolerance="10.0"
     borderopacity="1.0"
     id="base"
     inkscape:current-layer="svg2"
     inkscape:window-y="1"
     inkscape:window-x="160"
     inkscape:pageopacity="0.0"
     inkscape:pageshadow="2"
     inkscape:window-height="768"
     inkscape:window-width="1280"
     inkscape:window-maximized="0" /><defs
     id="defs4"><inkscape:perspective
       inkscape:vp_z="580 : 290 : 1"
       inkscape:vp_y="0 : 1000 : 0"
       inkscape:vp_x="0 : 290 : 1"
       sodipodi:type="inkscape:persp3d"
       id="perspective3653"
       inkscape:persp3d-origin="290 : 193.33333 : 1" /></defs><g
     id="g4138"><path
       sodipodi:nodetypes="cczccccccccsc"
       inkscape:connector-curvature="0"
       id="path4258"
       d="m 34.675491,358.59028 c -1.245314,66.3844 68.372049,106.42568 122.414699,115.09073 28.19073,6.58543 84.72301,4.88448 131.83124,4.18511 47.10823,-0.69937 126.23236,-0.78512 163.21958,-12.55534 42.7099,-14.32789 90.1012,-42.34142 93.1189,-87.8875 1.18754,-28.28061 -10.99227,-53.30578 -26.157,-73.23957 -83.25722,-88.56685 -162.49015,-38.21447 -230.18151,-123.46098 -19.88182,-24.30677 -8.91838,-56.93428 0,-79.51725 0,0 -24.10899,27.97952 -33.48094,41.8512 -15.48865,23.34422 -29.70986,47.86117 -30.34211,75.33213 0.58189,28.14927 20.37371,44.91538 32.86037,60.10231 C 226.8553,265.24781 178.38564,258.87001 141.009,262.37124 90.458488,267.10652 45.982191,300.66704 34.675491,358.59028 Z"
       fill="param(fill) #FFF" fill-opacity="param(fill-opacity)" stroke="param(outline) #000" stroke-opacity="param(outline-opacity)" stroke-width="param(outline-width) 0.3" /><path
       sodipodi:nodetypes="cac"
       inkscape:connector-curvature="0"
       id="path4260"
       d="m 253.6188,273.06625 c 0,0 13.05313,14.81536 20.84821,20.77078 6.61655,5.05501 21.66225,12.43923 21.66225,12.43923"
       fill="param(fill) #FFF" fill-opacity="param(fill-opacity)" stroke="param(outline) #000" stroke-opacity="param(outline-opacity)" stroke-width="param(outline-width) 0.3" /></g></svg>