<?xml version="1.0" encoding="UTF-8" standalone="no"?>
<!-- Generator: Adobe Illustrator 16.0.0, SVG Export Plug-In . SVG Version: 6.00 Build 0)  -->

<svg
   xmlns:dc="http://purl.org/dc/elements/1.1/"
   xmlns:cc="http://creativecommons.org/ns#"
   xmlns:rdf="http://www.w3.org/1999/02/22-rdf-syntax-ns#"
   xmlns:svg="http://www.w3.org/2000/svg"
   xmlns="http://www.w3.org/2000/svg"
   xmlns:sodipodi="http://sodipodi.sourceforge.net/DTD/sodipodi-0.dtd"
   xmlns:inkscape="http://www.inkscape.org/namespaces/inkscape"
   version="1.1"
   id="svg2"
   inkscape:output_extension="org.inkscape.output.svg.inkscape"
   sodipodi:docname="cat.svg"
   inkscape:version="0.91 r13725"
   sodipodi:version="0.32"
   x="0px"
   y="0px"
   width="580px"
   height="580px"
   viewBox="0 0 580 580"
   enable-background="new 0 0 580 580"
   xml:space="preserve"><metadata
     id="metadata75"><rdf:RDF><cc:Work
         rdf:about=""><dc:format>image/svg+xml</dc:format><dc:type
           rdf:resource="http://purl.org/dc/dcmitype/StillImage" /><dc:title /></cc:Work></rdf:RDF></metadata><sodipodi:namedview
     showgrid="false"
     inkscape:cy="2056.9957"
     inkscape:cx="-2625.5521"
     inkscape:zoom="0.05760482"
     pagecolor="#ffffff"
     bordercolor="#666666"
     guidetolerance="10.0"
     objecttolerance="10.0"
     gridtolerance="10.0"
     borderopacity="1.0"
     id="base"
     inkscape:current-layer="svg2"
     inkscape:window-y="18"
     inkscape:window-x="44"
     inkscape:pageopacity="0.0"
     inkscape:pageshadow="2"
     inkscape:window-height="768"
     inkscape:window-width="1280"
     inkscape:window-maximized="0" /><defs
     id="defs4"><inkscape:perspective
       inkscape:vp_z="580 : 290 : 1"
       inkscape:vp_y="0 : 1000 : 0"
       inkscape:vp_x="0 : 290 : 1"
       sodipodi:type="inkscape:persp3d"
       id="perspective3653"
       inkscape:persp3d-origin="290 : 193.33333 : 1" /></defs><g
     id="g3489"
     transform="matrix(1.6955499,0,0,1.6955499,-210.90764,-218.96501)"><ellipse
       inkscape:transform-center-y="-28.538565"
       inkscape:transform-center-x="18.612116"
       transform="matrix(0.9903044,-0.13891438,0.13891438,0.9903044,0,0)"
       ry="51.094841"
       rx="32.778412"
       cy="252.54953"
       cx="218.0728"
       id="path4272"
       style="opacity:1;fill:#000000;fill-opacity:1;stroke:#000000;stroke-width:0;stroke-linecap:butt;stroke-linejoin:round;stroke-miterlimit:4;stroke-dasharray:none;stroke-opacity:1" /><ellipse
       transform="matrix(0.99952532,0.03080808,-0.03080808,0.99952532,0,0)"
       ry="51.094837"
       rx="32.778408"
       cy="208.19772"
       cx="344.27121"
       id="path4272-7"
       style="opacity:1;fill:#000000;fill-opacity:1;stroke:#000000;stroke-width:0;stroke-linecap:butt;stroke-linejoin:round;stroke-miterlimit:4;stroke-dasharray:none;stroke-opacity:1" /><ellipse
       inkscape:transform-center-y="-1.9121721"
       inkscape:transform-center-x="0.21804482"
       transform="matrix(0.93647333,-0.35073878,0.35073878,0.93647333,0,0)"
       ry="45.939552"
       rx="29.47118"
       cy="318.84509"
       cx="68.606293"
       id="path4272-7-5"
       style="opacity:1;fill:#000000;fill-opacity:1;stroke:#000000;stroke-width:0;stroke-linecap:butt;stroke-linejoin:round;stroke-miterlimit:4;stroke-dasharray:none;stroke-opacity:1" /><ellipse
       inkscape:transform-center-y="0.4784611"
       inkscape:transform-center-x="-0.41814287"
       transform="matrix(-0.95059158,-0.31044428,-0.31044428,0.95059158,0,0)"
       ry="45.939545"
       rx="29.47118"
       cy="127.98105"
       cx="-478.6723"
       id="path4272-7-5-8"
       style="opacity:1;fill:#000000;fill-opacity:1;stroke:#000000;stroke-width:0;stroke-linecap:butt;stroke-linejoin:round;stroke-miterlimit:4;stroke-dasharray:none;stroke-opacity:1" /><path
       sodipodi:nodetypes="ccsaaassasscc"
       inkscape:connector-curvature="0"
       id="path4319"
       d="m 305.14572,304.0544 c 27.65635,4.30309 31.73657,15.94983 43.69936,30.33905 8.82236,10.25434 17.09552,18.0797 27.40702,28.64709 9.52247,9.75875 13.34486,29.59788 9.59508,44.19047 -1.97051,7.66845 -8.52392,14.4027 -15.68853,18.20888 -9.96618,5.29455 -22.48288,4.66979 -33.86125,4.25313 -11.35695,-0.41604 -17.35783,-5.75118 -33.3942,-6.70558 -10.58029,-0.62963 -21.13427,1.30721 -31.49808,3.42781 -13.46969,2.75613 -22.6992,5.44194 -33.46153,2.46449 -8.44162,-2.33544 -13.32255,-9.26035 -21.2412,-15.07076 -10.98122,-8.05759 -13.21998,-33.36149 -4.48356,-43.62848 26.92131,-31.6377 21.98835,-21.76154 37.96611,-36.62828 13.03257,-22.9821 31.66795,-26.64176 54.96078,-29.49782 z"
       style="fill:#000000;fill-rule:evenodd;stroke:#000000;stroke-width:5.08565474px;stroke-linecap:butt;stroke-linejoin:miter;stroke-opacity:1" /></g></svg>