<?xml version="1.0" encoding="UTF-8" standalone="no"?>
<!-- Generator: Adobe Illustrator 16.0.0, SVG Export Plug-In . SVG Version: 6.00 Build 0)  -->

<svg
   xmlns:dc="http://purl.org/dc/elements/1.1/"
   xmlns:cc="http://creativecommons.org/ns#"
   xmlns:rdf="http://www.w3.org/1999/02/22-rdf-syntax-ns#"
   xmlns:svg="http://www.w3.org/2000/svg"
   xmlns="http://www.w3.org/2000/svg"
   xmlns:sodipodi="http://sodipodi.sourceforge.net/DTD/sodipodi-0.dtd"
   xmlns:inkscape="http://www.inkscape.org/namespaces/inkscape"
   version="1.1"
   id="svg2"
   inkscape:output_extension="org.inkscape.output.svg.inkscape"
   sodipodi:docname="roe_deer.svg"
   inkscape:version="0.91 r13725"
   sodipodi:version="0.32"
   x="0px"
   y="0px"
   width="580px"
   height="580px"
   viewBox="0 0 580 580"
   enable-background="new 0 0 580 580"
   xml:space="preserve"><metadata
     id="metadata75"><rdf:RDF><cc:Work
         rdf:about=""><dc:format>image/svg+xml</dc:format><dc:type
           rdf:resource="http://purl.org/dc/dcmitype/StillImage" /><dc:title /></cc:Work></rdf:RDF></metadata><sodipodi:namedview
     showgrid="false"
     inkscape:cy="327.61297"
     inkscape:cx="-218.9873"
     inkscape:zoom="0.49320926"
     pagecolor="#ffffff"
     bordercolor="#666666"
     guidetolerance="10.0"
     objecttolerance="10.0"
     gridtolerance="10.0"
     borderopacity="1.0"
     id="base"
     inkscape:current-layer="svg2"
     inkscape:window-y="-8"
     inkscape:window-x="-8"
     inkscape:pageopacity="0.0"
     inkscape:pageshadow="2"
     inkscape:window-height="705"
     inkscape:window-width="1366"
     inkscape:window-maximized="1" /><defs
     id="defs4"><inkscape:perspective
       inkscape:vp_z="580 : 290 : 1"
       inkscape:vp_y="0 : 1000 : 0"
       inkscape:vp_x="0 : 290 : 1"
       sodipodi:type="inkscape:persp3d"
       id="perspective3653"
       inkscape:persp3d-origin="290 : 193.33333 : 1" /></defs><g
     id="g3353"
     fill="param(fill) #FFF" stroke="param(outline) #000" stroke-width="param(outline-width) 1"><path
       sodipodi:nodetypes="cacaaasscc"
       inkscape:connector-curvature="0"
       id="path4319-5-9"
       d="m 272.64815,22.606996 c 4.54847,9.686639 -10.07934,94.861594 -11.21043,142.492404 -2.34448,98.72872 1.38543,207.15785 9.19102,296.12708 0.5625,25.06463 2.47656,47.69135 -8.67849,67.41035 -10.1761,17.9885 -28.0431,36.63494 -48.6294,38.46341 -29.01968,2.57753 -60.07819,-17.59803 -77.03412,-41.28943 -25.69921,-35.90787 -23.76033,-87.66115 -21.575,-130.70172 4.94525,-97.40184 29.89574,-226.01505 72.9912,-291.0349 38.21077,-57.650119 64.10792,-81.808727 84.94561,-81.467181 z"
       fill="param(fill) #FFF" stroke="param(outline) #000" stroke-width="param(outline-width) 1" /><path
       sodipodi:nodetypes="cacaaasscc"
       inkscape:connector-curvature="0"
       id="path4319-5-9-8"
       d="m 308.91241,21.424894 c -4.66132,9.632841 8.97045,94.972866 9.54503,142.613636 1.19094,98.74937 -3.80541,207.12753 -12.64983,295.9995 -0.85527,25.05634 -3.03353,47.65917 7.8904,67.50714 9.96526,18.10614 27.61321,36.96004 48.17675,39.02888 28.98759,2.91637 60.27968,-16.89498 77.51122,-40.38668 26.11694,-35.60519 24.78278,-87.3776 23.10042,-130.44076 C 458.67935,298.29365 435.23306,169.39774 392.90012,103.87888 355.36543,45.786308 329.75228,21.32681 308.91202,21.424903 Z"
       fill="param(fill) #FFF" stroke="param(outline) #000" stroke-width="param(outline-width) 1" /></g></svg>