<?xml version="1.0" encoding="UTF-8" standalone="no"?>
<!-- Generator: Adobe Illustrator 16.0.0, SVG Export Plug-In . SVG Version: 6.00 Build 0)  -->

<svg
   xmlns:dc="http://purl.org/dc/elements/1.1/"
   xmlns:cc="http://creativecommons.org/ns#"
   xmlns:rdf="http://www.w3.org/1999/02/22-rdf-syntax-ns#"
   xmlns:svg="http://www.w3.org/2000/svg"
   xmlns="http://www.w3.org/2000/svg"
   xmlns:sodipodi="http://sodipodi.sourceforge.net/DTD/sodipodi-0.dtd"
   xmlns:inkscape="http://www.inkscape.org/namespaces/inkscape"
   version="1.1"
   id="svg2"
   inkscape:output_extension="org.inkscape.output.svg.inkscape"
   sodipodi:docname="squirrel.svg"
   inkscape:version="0.91 r13725"
   sodipodi:version="0.32"
   x="0px"
   y="0px"
   width="580px"
   height="580px"
   viewBox="0 0 580 580"
   enable-background="new 0 0 580 580"
   xml:space="preserve"><metadata
     id="metadata75"><rdf:RDF><cc:Work
         rdf:about=""><dc:format>image/svg+xml</dc:format><dc:type
           rdf:resource="http://purl.org/dc/dcmitype/StillImage" /><dc:title></dc:title></cc:Work></rdf:RDF></metadata><sodipodi:namedview
     showgrid="false"
     inkscape:cy="-29.973837"
     inkscape:cx="-162.54209"
     inkscape:zoom="0.32586209"
     pagecolor="#ffffff"
     bordercolor="#666666"
     guidetolerance="10.0"
     objecttolerance="10.0"
     gridtolerance="10.0"
     borderopacity="1.0"
     id="base"
     inkscape:current-layer="svg2"
     inkscape:window-y="-8"
     inkscape:window-x="-8"
     inkscape:pageopacity="0.0"
     inkscape:pageshadow="2"
     inkscape:window-height="705"
     inkscape:window-width="1366"
     inkscape:window-maximized="1" /><defs
     id="defs4"><inkscape:perspective
       inkscape:vp_z="580 : 290 : 1"
       inkscape:vp_y="0 : 1000 : 0"
       inkscape:vp_x="0 : 290 : 1"
       sodipodi:type="inkscape:persp3d"
       id="perspective3653"
       inkscape:persp3d-origin="290 : 193.33333 : 1" /></defs><g
     id="g3433"
     transform="matrix(1.0171631,0,0,1.0171631,-17.463105,-23.450897)"><path
       sodipodi:nodetypes="zcccccccz"
       inkscape:connector-curvature="0"
       id="path3376"
       d="m 228.25455,551.07608 c -35.18184,-1.61314 -21.02245,-33.69869 -71.10607,-105.17768 12.20287,-14.45401 30.89686,13.01426 30.89686,13.01426 0,0 -17.75337,-88.33697 -1.26933,-76.71346 13.19603,33.18536 26.66478,45.55157 26.66478,45.55157 0,0 -2.22361,-57.76523 7.40686,-45.55157 7.68822,31.67952 23.75503,63.54014 23.75503,63.54014 0,0 19.77628,-57.08379 19.20489,-25.02435 -15.09625,87.72359 -0.37119,131.97422 -35.55302,130.36109 z"
       fill="param(fill) #FFF" stroke="param(outline) #000" stroke-width="param(outline-width) 1" /><path
       sodipodi:nodetypes="zcccccccz"
       inkscape:connector-curvature="0"
       id="path3376-6"
       d="m 354.73796,549.50914 c -31.857,-15.01655 -6.44922,-39.19122 -25.19904,-124.43242 16.82235,-8.65088 25.6436,22.47698 25.6436,22.47698 0,0 15.45106,-86.95561 26.19865,-69.88755 -0.57814,35.70811 1.43618,54.54549 1.43618,54.54549 0,0 25.82225,-56.42261 30.01623,-41.44494 -5.08359,32.20025 -7.22301,65.31106 -7.22301,65.31106 0,0 44.92538,-42.61327 32.07107,-13.23809 -47.66542,75.17535 -51.08668,121.68598 -82.94368,106.66947 z"
       fill="param(fill) #FFF" stroke="param(outline) #000" stroke-width="param(outline-width) 1" /><path
       sodipodi:nodetypes="scccccccccs"
       inkscape:connector-curvature="0"
       id="path3376-9"
       d="m 439.09017,322.85929 c -38.18423,-15.282 18.46911,-89.13896 -10.89717,-200.95578 -4.58291,-33.622327 30.43542,20.33393 30.43542,20.33393 0,0 8.42046,-95.297606 21.83908,-75.123818 0.91497,44.745658 9.21963,50.871308 9.21963,50.871308 0,0 24.23893,-60.424992 29.8469,-42.145173 -7.3057,35.205233 -10.13612,57.352313 -10.13612,57.352313 0,0 52.12908,-68.737968 38.30529,-30.56483 -10.42731,19.62543 -12.14613,41.90851 -19.27648,58.09676 0.82881,7.15427 60.97707,-46.78143 32.95518,-2.23636 -75.03367,64.66298 -104.67626,171.42169 -122.29173,164.37165 z"
       fill="param(fill) #FFF" stroke="param(outline) #000" stroke-width="param(outline-width) 1" /><path
       sodipodi:nodetypes="scccccccccs"
       inkscape:connector-curvature="0"
       id="path3376-9-9"
       d="m 179.05405,312.96586 c -39.09509,12.77299 -43.01659,-80.22742 -137.276325,-147.16383 -25.084959,-22.85186 36.01795,-5.17998 36.01795,-5.17998 0,0 -54.301991,-77.251955 -31.066593,-70.384818 29.407095,33.737738 40.330677,31.279038 40.330677,31.279038 0,0 -20.793242,-60.072044 -4.764467,-49.647107 16.980571,31.692927 34.205358,53.159877 34.205358,53.159877 0,0 -9.2964,-88.833183 4.58807,-50.682074 4.59122,21.744097 14.88328,37.902994 19.79861,54.895344 5.2254,4.95642 19.4492,-72.967 26.52995,-20.81961 -6.32668,83.73187 29.67245,198.65062 11.63677,204.54316 z"
       fill="param(fill) #FFF" stroke="param(outline) #000" stroke-width="param(outline-width) 1" /></g></svg>