<?xml version="1.0" encoding="UTF-8" standalone="no"?>
<!-- Generator: Adobe Illustrator 16.0.0, SVG Export Plug-In . SVG Version: 6.00 Build 0)  -->

<svg
   xmlns:dc="http://purl.org/dc/elements/1.1/"
   xmlns:cc="http://creativecommons.org/ns#"
   xmlns:rdf="http://www.w3.org/1999/02/22-rdf-syntax-ns#"
   xmlns:svg="http://www.w3.org/2000/svg"
   xmlns="http://www.w3.org/2000/svg"
   xmlns:sodipodi="http://sodipodi.sourceforge.net/DTD/sodipodi-0.dtd"
   xmlns:inkscape="http://www.inkscape.org/namespaces/inkscape"
   version="1.1"
   id="svg2"
   inkscape:output_extension="org.inkscape.output.svg.inkscape"
   sodipodi:docname="lynx.svg"
   inkscape:version="0.91 r13725"
   sodipodi:version="0.32"
   x="0px"
   y="0px"
   width="580px"
   height="580px"
   viewBox="0 0 580 580"
   enable-background="new 0 0 580 580"
   xml:space="preserve"><metadata
     id="metadata75"><rdf:RDF><cc:Work
         rdf:about=""><dc:format>image/svg+xml</dc:format><dc:type
           rdf:resource="http://purl.org/dc/dcmitype/StillImage" /><dc:title></dc:title></cc:Work></rdf:RDF></metadata><sodipodi:namedview
     showgrid="false"
     inkscape:cy="293.92042"
     inkscape:cx="-82.683663"
     inkscape:zoom="0.46083856"
     pagecolor="#ffffff"
     bordercolor="#666666"
     guidetolerance="10.0"
     objecttolerance="10.0"
     gridtolerance="10.0"
     borderopacity="1.0"
     id="base"
     inkscape:current-layer="svg2"
     inkscape:window-y="18"
     inkscape:window-x="44"
     inkscape:pageopacity="0.0"
     inkscape:pageshadow="2"
     inkscape:window-height="768"
     inkscape:window-width="1280"
     inkscape:window-maximized="0" /><defs
     id="defs4"><inkscape:perspective
       inkscape:vp_z="580 : 290 : 1"
       inkscape:vp_y="0 : 1000 : 0"
       inkscape:vp_x="0 : 290 : 1"
       sodipodi:type="inkscape:persp3d"
       id="perspective3653"
       inkscape:persp3d-origin="290 : 193.33333 : 1" /></defs><g
     transform="matrix(4.9225424,0,0,4.9225424,-2152.3615,-667.47209)"
     id="g4412"><g
       transform="matrix(0.92246676,0,0,0.92246676,-35.24817,-294.70295)"
       id="g4244"><ellipse
         fill="param(fill) #FFF" stroke="param(outline) #000" stroke-width="param(outline-width) 1"
         id="path4213"
         cx="561.78571"
         cy="503.07651"
         rx="9.8258495"
         ry="14.468708" /><ellipse
         fill="param(fill) #FFF" stroke="param(outline) #000" stroke-width="param(outline-width) 1"
         id="path4213-9"
         cx="542.85712"
         cy="538.07648"
         rx="9.8258495"
         ry="14.468708" /><ellipse
         fill="param(fill) #FFF" stroke="param(outline) #000" stroke-width="param(outline-width) 1"
         id="path4213-8"
         cx="609.28571"
         cy="523.07648"
         rx="9.8258495"
         ry="14.468708" /><ellipse
         fill="param(fill) #FFF" stroke="param(outline) #000" stroke-width="param(outline-width) 1"
         id="path4213-4"
         cx="590"
         cy="493.7908"
         rx="9.8258495"
         ry="14.468708" /></g><path
       sodipodi:nodetypes="ssssssssssssssssss"
       inkscape:connector-curvature="0"
       id="path4242"
       d="m 497.9169,198.05804 c 3.679,-0.77428 7.86949,0.65545 10.98769,2.99712 3.93347,2.95389 5.93258,8.21385 8.19369,12.78112 2.3774,4.80216 4.31909,9.91305 5.55227,15.17858 0.55606,2.37429 1.87882,4.41351 0.71583,6.47828 -1.37,2.43238 -5.33658,6.03019 -7.93552,5.4193 -2.46153,-0.57856 -4.65531,0.44427 -4.70759,-2.25517 -0.0434,-2.24083 1.3255,-3.06821 -0.60437,-3.18363 -2.26231,-0.13529 -0.56544,0.89444 -1.41758,3.87779 -0.91306,3.19662 -8.93459,3.03246 -12.1128,2.34966 -2.46992,-0.53058 -3.5277,-0.58937 -5.30928,-2.54114 -1.02012,-1.11759 -0.22299,-4.61195 -1.62259,-4.28604 -2.58059,0.60092 0.0986,2.59896 -1.68526,4.68842 -2.17396,2.54647 -6.71899,3.53935 -9.49949,1.70378 -3.36584,-2.22197 -2.98251,-8.0382 -3.29332,-12.26975 -0.31602,-4.30247 2.38772,-9.8908 4.2736,-13.64745 2.19883,-4.38011 3.4207,-7.74493 7.03122,-10.82393 3.47792,-2.96592 7.06685,-5.54793 11.4335,-6.46694 z"
       fill="param(fill) #FFF" stroke="param(outline) #000" stroke-width="param(outline-width) 1" /></g></svg>