<?xml version="1.0" encoding="UTF-8" standalone="no"?>
<!-- Generator: Adobe Illustrator 16.0.0, SVG Export Plug-In . SVG Version: 6.00 Build 0)  -->

<svg
   xmlns:dc="http://purl.org/dc/elements/1.1/"
   xmlns:cc="http://creativecommons.org/ns#"
   xmlns:rdf="http://www.w3.org/1999/02/22-rdf-syntax-ns#"
   xmlns:svg="http://www.w3.org/2000/svg"
   xmlns="http://www.w3.org/2000/svg"
   xmlns:sodipodi="http://sodipodi.sourceforge.net/DTD/sodipodi-0.dtd"
   xmlns:inkscape="http://www.inkscape.org/namespaces/inkscape"
   version="1.1"
   id="svg2"
   inkscape:output_extension="org.inkscape.output.svg.inkscape"
   sodipodi:docname="nest_small.svg"
   inkscape:version="0.91 r13725"
   sodipodi:version="0.32"
   x="0px"
   y="0px"
   width="580px"
   height="580px"
   viewBox="0 0 580 580"
   enable-background="new 0 0 580 580"
   xml:space="preserve"><metadata
     id="metadata75"><rdf:RDF><cc:Work
         rdf:about=""><dc:format>image/svg+xml</dc:format><dc:type
           rdf:resource="http://purl.org/dc/dcmitype/StillImage" /><dc:title /></cc:Work></rdf:RDF></metadata><sodipodi:namedview
     showgrid="false"
     inkscape:cy="273.49355"
     inkscape:cx="117.8406"
     inkscape:zoom="0.54657811"
     pagecolor="#ffffff"
     bordercolor="#666666"
     guidetolerance="10.0"
     objecttolerance="10.0"
     gridtolerance="10.0"
     borderopacity="1.0"
     id="base"
     inkscape:current-layer="svg2"
     inkscape:window-y="-8"
     inkscape:window-x="-8"
     inkscape:pageopacity="0.0"
     inkscape:pageshadow="2"
     inkscape:window-height="705"
     inkscape:window-width="1366"
     inkscape:window-maximized="1" /><defs
     id="defs4"><inkscape:perspective
       inkscape:vp_z="580 : 290 : 1"
       inkscape:vp_y="0 : 1000 : 0"
       inkscape:vp_x="0 : 290 : 1"
       sodipodi:type="inkscape:persp3d"
       id="perspective3653"
       inkscape:persp3d-origin="290 : 193.33333 : 1" /></defs><g
     id="g4158"
     transform="matrix(0.97995413,0,0,1.0492059,5.8133022,-14.269713)"><path
       sodipodi:nodetypes="ccccc"
       inkscape:connector-curvature="0"
       id="rect4142-3-7-3-7-7-8-02-2"
       d="m 551.54797,205.36501 -42.0237,44.93625 C 471.22181,137.19584 346.12288,57.663924 205.43249,98.754008 L 199.28382,51.229429 C 360.48875,-14.441528 526.16979,93.398728 551.54797,205.36501 Z"
       fill="param(fill) #FFF" stroke="param(outline) #000" stroke-width="param(outline-width) 1" /><path
       sodipodi:nodetypes="ccccc"
       inkscape:connector-curvature="0"
       id="rect4142-3-7-3-7-7-8-02"
       d="M 401.48447,525.76571 357.14833,487.38053 C 466.77348,450.30571 542.51607,333.14636 500.57664,203.15481 l 46.19819,-6.34975 c 66.15821,148.69401 -36.5979,303.89388 -145.29036,328.96065 z"
fill="param(fill) #FFF" stroke="param(outline) #000" stroke-width="param(outline-width) 1" /><ellipse
       transform="matrix(0.38347363,-0.92355183,0.91538386,0.40258215,0,0)"
       ry="69.05027"
       rx="56.512768"
       cy="385.40536"
       cx="-75.894554"
       id="path4395"
       fill="param(fill) #FFF" stroke="param(outline) #000" stroke-width="param(outline-width) 1" /><ellipse
       transform="matrix(-0.40026795,-0.91639815,0.90757846,-0.41988254,0,0)"
       ry="67.159637"
       rx="54.922146"
       cy="160.40175"
       cx="-484.02863"
       id="path4395-3"
       fill="param(fill) #FFF" stroke="param(outline) #000" stroke-width="param(outline-width) 1" /><ellipse
       transform="matrix(-0.97104421,0.23889984,-0.25591938,-0.96669813,0,0)"
       ry="68.167564"
       rx="56.480431"
       cy="-352.11508"
       cx="-119.88937"
       id="path4395-3-4"
       fill="param(fill) #FFF" stroke="param(outline) #000" stroke-width="param(outline-width) 1" /><path
       sodipodi:nodetypes="ccccc"
       inkscape:connector-curvature="0"
       id="rect4142-3-7-3-7-7-8"
       d="M 53.592549,438.95406 111.50723,437.2769 C 48.071699,338.07332 59.565701,197.84874 170.96477,122.9057 L 138.62697,88.361541 C -3.0390199,162.44668 -16.369558,349.75032 53.592549,438.95406 Z"
       fill="param(fill) #FFF" stroke="param(outline) #000" stroke-width="param(outline-width) 1" /><path
       sodipodi:nodetypes="ccccc"
       inkscape:connector-curvature="0"
       id="rect4142-3-7-3-7-7-8-0"
       d="M 65.796979,245.10127 98.27245,294.10654 C 161.40454,176.04682 304.5055,96.633878 437.03024,145.19771 L 453.55681,95.226458 C 305.75429,19.946702 115.68541,127.77046 65.796979,245.10127 Z"
       fill="param(fill) #FFF" stroke="param(outline) #000" stroke-width="param(outline-width) 1" /><path
       sodipodi:nodetypes="ccccc"
       inkscape:connector-curvature="0"
       id="rect4142-3-7-3-7-7-8-0-0"
       d="M 153.95026,64.045951 139.26624,121.46268 C 267.30643,92.601518 419.39681,151.11012 470.61687,285.70456 L 518.1297,265.59414 C 476.50551,101.57713 272.7745,25.410177 153.95026,64.045951 Z"
       fill="param(fill) #FFF" stroke="param(outline) #000" stroke-width="param(outline-width) 1" /><path
       sodipodi:nodetypes="ccccc"
       inkscape:connector-curvature="0"
       id="rect4142-3-7-3-7-7-8-0-0-4"
       d="m 533.52047,168.52185 -55.6834,-15.17467 c 27.01975,131.77833 -31.06575,288.20278 -162.28558,340.75087 l 19.16264,48.91074 C 494.45167,500.36793 570.11395,290.82876 533.52047,168.52185 Z"
       fill="param(fill) #FFF" stroke="param(outline) #000" stroke-width="param(outline-width) 1" /><path
       sodipodi:nodetypes="ccccc"
       inkscape:connector-curvature="0"
       id="rect4142-3-7-3-7-7"
       d="m 475.94437,490.71726 -7.14816,-58.85988 C 360.24771,507.21923 197.70249,510.61635 101.34969,405.12946 L 64.474598,441.81943 C 162.56542,578.25417 379.50149,571.65471 475.94437,490.71726 Z"
       fill="param(fill) #FFF" stroke="param(outline) #000" stroke-width="param(outline-width) 1" /><path
       sodipodi:nodetypes="ccccc"
       inkscape:connector-curvature="0"
       id="rect4142-3-7-3-7-7-8-4-8"
       d="m 91.47855,506.33629 58.78229,-4.84123 C 82.950573,389.18255 90.567853,225.38232 201.56001,132.58879 L 167.71086,93.991148 C 25.948136,187.29582 17.827891,405.98955 91.47855,506.33629 Z"
       fill="param(fill) #FFF" stroke="param(outline) #000" stroke-width="param(outline-width) 1" /><path
       sodipodi:nodetypes="ccccc"
       inkscape:connector-curvature="0"
       id="rect4142-3-7-3-7-7-8-4"
       d="m 352.42584,532.57885 25.93319,-52.97418 C 247.42139,479.93107 110.61122,389.53461 87.71798,246.68574 l -50.484741,9.3185 C 44.813445,425.54768 228.52139,544.4774 352.42584,532.57885 Z"
       fill="param(fill) #FFF" stroke="param(outline) #000" stroke-width="param(outline-width) 1" /></g></svg>