<?xml version="1.0" encoding="UTF-8" standalone="no"?>
<!-- Generator: Adobe Illustrator 16.0.0, SVG Export Plug-In . SVG Version: 6.00 Build 0)  -->

<svg
   xmlns:dc="http://purl.org/dc/elements/1.1/"
   xmlns:cc="http://creativecommons.org/ns#"
   xmlns:rdf="http://www.w3.org/1999/02/22-rdf-syntax-ns#"
   xmlns:svg="http://www.w3.org/2000/svg"
   xmlns="http://www.w3.org/2000/svg"
   xmlns:sodipodi="http://sodipodi.sourceforge.net/DTD/sodipodi-0.dtd"
   xmlns:inkscape="http://www.inkscape.org/namespaces/inkscape"
   version="1.1"
   id="svg2"
   inkscape:output_extension="org.inkscape.output.svg.inkscape"
   sodipodi:docname="fox.svg"
   inkscape:version="0.91 r13725"
   sodipodi:version="0.32"
   x="0px"
   y="0px"
   width="580px"
   height="580px"
   viewBox="0 0 580 580"
   enable-background="new 0 0 580 580"
   xml:space="preserve"><metadata
     id="metadata75"><rdf:RDF><cc:Work
         rdf:about=""><dc:format>image/svg+xml</dc:format><dc:type
           rdf:resource="http://purl.org/dc/dcmitype/StillImage" /><dc:title /></cc:Work></rdf:RDF></metadata><sodipodi:namedview
     showgrid="false"
     inkscape:cy="221.54008"
     inkscape:cx="35.965615"
     inkscape:zoom="0.65172414"
     pagecolor="#ffffff"
     bordercolor="#666666"
     guidetolerance="10.0"
     objecttolerance="10.0"
     gridtolerance="10.0"
     borderopacity="1.0"
     id="base"
     inkscape:current-layer="svg2"
     inkscape:window-y="-8"
     inkscape:window-x="-8"
     inkscape:pageopacity="0.0"
     inkscape:pageshadow="2"
     inkscape:window-height="705"
     inkscape:window-width="1366"
     inkscape:window-maximized="1"
     showguides="true"
     inkscape:guide-bbox="true"><sodipodi:guide
       position="251.64021,267.75132"
       orientation="0,1"
       id="guide4254" /><sodipodi:guide
       position="286.93122,305.34391"
       orientation="1,0"
       id="guide4256" /></sodipodi:namedview><defs
     id="defs4"><inkscape:perspective
       inkscape:vp_z="580 : 290 : 1"
       inkscape:vp_y="0 : 1000 : 0"
       inkscape:vp_x="0 : 290 : 1"
       sodipodi:type="inkscape:persp3d"
       id="perspective3653"
       inkscape:persp3d-origin="290 : 193.33333 : 1" /></defs><g
     id="g4258"
     fill="param(fill) #FFF" stroke="param(outline) #000" stroke-width="param(outline-width) 1"
><ellipse
       transform="matrix(0.99577143,0.09186543,-0.09186543,0.99577143,0,0)"
       ry="75.407158"
       rx="48.375271"
       cy="174.48061"
       cx="242.78856"
       id="path4272"
       fill="param(fill) #FFF" stroke="param(outline) #000" stroke-width="param(outline-width) 1"
 /><ellipse
       transform="matrix(0.98620824,-0.16550924,0.16550924,0.98620824,0,0)"
       ry="75.407158"
       rx="48.375271"
       cy="246.3511"
       cx="316.91275"
       id="path4272-7"
       fill="param(fill) #FFF" stroke="param(outline) #000" stroke-width="param(outline-width) 1"
 /><ellipse
       transform="matrix(0.94754469,-0.31962331,0.31962331,0.94754469,0,0)"
       ry="67.798843"
       rx="43.494373"
       cy="386.99561"
       cx="37.145069"
       id="path4272-7-5"
       fill="param(fill) #FFF" stroke="param(outline) #000" stroke-width="param(outline-width) 1"
 /><ellipse
       inkscape:transform-center-y="60.147699"
       inkscape:transform-center-x="-1.9844836"
       transform="matrix(-0.95460513,-0.29787421,-0.29787421,0.95460513,0,0)"
       ry="67.798836"
       rx="43.494373"
       cy="209.82315"
       cx="-504.79047"
       id="path4272-7-5-8"
       fill="param(fill) #FFF" stroke="param(outline) #000" stroke-width="param(outline-width) 1"
 /><path
       sodipodi:nodetypes="ccsaaassasscc"
       inkscape:connector-curvature="0"
       id="path4319"
       d="m 297.39037,371.08866 c 30.52041,4.0477 26.71968,22.2153 40.38358,38.99783 10.06371,11.94796 28.14468,16.64593 39.85477,28.90943 10.81401,11.32506 15.74233,34.97503 12.16422,52.63526 -1.8803,9.28049 -8.82629,17.62492 -16.55126,22.48072 -10.74572,6.7546 -24.50981,6.50978 -37.01655,6.46872 -12.48321,-0.041 -19.2679,-6.2006 -36.90813,-6.69898 -11.63846,-0.32879 -23.15334,2.42076 -34.45265,5.38313 -14.68558,3.85015 -24.71875,7.44498 -36.6437,4.30647 -9.35354,-2.46174 -14.96742,-10.57378 -23.87506,-17.22609 -12.35268,-9.22509 -15.74413,-39.49588 -6.53197,-52.1671 28.3873,-39.04639 33.49764,-24.09234 50.48974,-42.57463 13.45937,-28.10081 23.62113,-36.14855 49.08701,-40.51476 z"
       fill="param(fill) #FFF" stroke="param(outline) #000" stroke-width="param(outline-width) 1"
 /><path
       sodipodi:nodetypes="zzzz"
       inkscape:connector-curvature="0"
       id="path4328"
       d="m 111.28805,262.72307 c 0.95997,5.2409 21.62693,-3.03831 19.83238,-7.27581 -1.79456,-4.23749 -16.63562,-27.81036 -20.07194,-26.6909 -3.43632,1.11946 -0.7204,28.7258 0.23956,33.96671 z"
       fill="param(fill) #FFF" stroke="param(outline) #000" stroke-width="param(outline-width) 1"
 /><path
       sodipodi:nodetypes="zzzz"
       inkscape:connector-curvature="0"
       id="path4328-9"
       d="m 226.51132,83.996608 c -2.40898,4.752415 19.05229,10.675471 20.18953,6.21638 1.13723,-4.459089 3.59707,-32.205917 0.18436,-33.395403 -3.41271,-1.189486 -17.9649,22.42661 -20.37389,27.179023 z"
       fill="param(fill) #FFF" stroke="param(outline) #000" stroke-width="param(outline-width) 1"
 /><path
       sodipodi:nodetypes="zzzz"
       inkscape:connector-curvature="0"
       id="path4328-9-7"
       d="m 343.72891,80.904244 c 2.40898,4.752415 -19.05229,10.675471 -20.18953,6.21638 -1.13723,-4.459089 -3.59707,-32.205917 -0.18436,-33.395403 3.41271,-1.189486 17.9649,22.42661 20.37389,27.179023 z"
       fill="param(fill) #FFF" stroke="param(outline) #000" stroke-width="param(outline-width) 1"
 /><path
       sodipodi:nodetypes="zzzz"
       inkscape:connector-curvature="0"
       id="path4328-5"
       d="m 467.05454,262.19573 c -0.95997,5.2409 -21.62693,-3.03831 -19.83238,-7.27581 1.79456,-4.23749 16.63562,-27.81036 20.07194,-26.6909 3.43632,1.11946 0.7204,28.7258 -0.23956,33.96671 z"
       fill="param(fill) #FFF" stroke="param(outline) #000" stroke-width="param(outline-width) 1"
 /></g></svg>