<?xml version="1.0" encoding="UTF-8" standalone="no"?>
<!-- Generator: Adobe Illustrator 16.0.0, SVG Export Plug-In . SVG Version: 6.00 Build 0)  -->

<svg
   xmlns:dc="http://purl.org/dc/elements/1.1/"
   xmlns:cc="http://creativecommons.org/ns#"
   xmlns:rdf="http://www.w3.org/1999/02/22-rdf-syntax-ns#"
   xmlns:svg="http://www.w3.org/2000/svg"
   xmlns="http://www.w3.org/2000/svg"
   xmlns:sodipodi="http://sodipodi.sourceforge.net/DTD/sodipodi-0.dtd"
   xmlns:inkscape="http://www.inkscape.org/namespaces/inkscape"
   version="1.1"
   id="svg2"
   inkscape:output_extension="org.inkscape.output.svg.inkscape"
   sodipodi:docname="deer.svg"
   inkscape:version="0.91 r13725"
   sodipodi:version="0.32"
   x="0px"
   y="0px"
   width="580px"
   height="580px"
   viewBox="0 0 580 580"
   enable-background="new 0 0 580 580"
   xml:space="preserve"
   inkscape:export-filename="D:\qgis-styles\collections\animalsonmaps\image\animalsonmaps_preview.png"
   inkscape:export-xdpi="300"
   inkscape:export-ydpi="300"><metadata
     id="metadata75"><rdf:RDF><cc:Work
         rdf:about=""><dc:format>image/svg+xml</dc:format><dc:type
           rdf:resource="http://purl.org/dc/dcmitype/StillImage" /><dc:title /></cc:Work></rdf:RDF></metadata><sodipodi:namedview
     showgrid="false"
     inkscape:cy="410.41863"
     inkscape:cx="45.501455"
     inkscape:zoom="0.65172414"
     pagecolor="#ffffff"
     bordercolor="#666666"
     guidetolerance="10.0"
     objecttolerance="10.0"
     gridtolerance="10.0"
     borderopacity="1.0"
     id="base"
     inkscape:current-layer="svg2"
     inkscape:window-y="-8"
     inkscape:window-x="-8"
     inkscape:pageopacity="0.0"
     inkscape:pageshadow="2"
     inkscape:window-height="705"
     inkscape:window-width="1366"
     inkscape:window-maximized="1" /><defs
     id="defs4"><inkscape:perspective
       inkscape:vp_z="580 : 290 : 1"
       inkscape:vp_y="0 : 1000 : 0"
       inkscape:vp_x="0 : 290 : 1"
       sodipodi:type="inkscape:persp3d"
       id="perspective3653"
       inkscape:persp3d-origin="290 : 193.33333 : 1" /></defs><g
     id="g4607"
     transform="matrix(1.3780288,0,0,1.3780288,-114.44875,-109.05683)"><path
       sodipodi:nodetypes="cacaaasscc"
       inkscape:connector-curvature="0"
       id="path4319-5-9"
       d="m 276.53235,104.10077 c 8.40637,6.63352 -1.02782,62.19657 -0.68573,93.29329 0.75709,68.81956 5.47836,147.06389 6.05935,206.38225 0.21629,17.08979 -6.67073,32.24845 -16.04089,45.20328 -8.25714,11.41598 -19.37222,24.64918 -33.40618,25.8954 -22.16484,1.96824 -45.93832,-13.05011 -59.14198,-30.96149 -17.63853,-23.92749 -17.9139,-58.38087 -16.13717,-87.70617 4.02066,-66.36385 20.16508,-154.76492 50.16314,-198.67293 27.19917,-39.81127 46.54823,-60.710172 69.18973,-53.43362 z"
       style="fill:#000000;fill-opacity:1;fill-rule:evenodd;stroke:none;stroke-width:0.97023773;stroke-linecap:butt;stroke-linejoin:miter;stroke-miterlimit:4;stroke-dasharray:none;stroke-opacity:1" /><path
       sodipodi:nodetypes="cacaaasscc"
       inkscape:connector-curvature="0"
       id="path4319-5-9-9"
       d="m 310.46372,105.55166 c -8.40637,6.63352 1.02782,62.19657 0.68573,93.29329 -0.75709,68.81956 -5.47836,147.06389 -6.05935,206.38225 -0.21629,17.08979 6.67073,32.24845 16.04089,45.20328 8.25714,11.41598 19.37223,24.64918 33.40619,25.8954 22.16484,1.96824 45.93832,-13.05011 59.14198,-30.96149 17.63853,-23.92749 17.9139,-58.38087 16.13717,-87.70617 C 425.79567,291.29437 409.65125,202.8933 379.65319,158.98529 352.45402,119.17402 333.10496,98.275117 310.46345,105.55167 Z"
       style="fill:#000000;fill-opacity:1;fill-rule:evenodd;stroke:none;stroke-width:0.97023773;stroke-linecap:butt;stroke-linejoin:miter;stroke-miterlimit:4;stroke-dasharray:none;stroke-opacity:1" /></g></svg>