<?xml version="1.0" encoding="UTF-8" standalone="no"?>

<svg
   xmlns:dc="http://purl.org/dc/elements/1.1/"
   xmlns:cc="http://creativecommons.org/ns#"
   xmlns:rdf="http://www.w3.org/1999/02/22-rdf-syntax-ns#"
   xmlns:svg="http://www.w3.org/2000/svg"
   xmlns="http://www.w3.org/2000/svg"
   xmlns:sodipodi="http://sodipodi.sourceforge.net/DTD/sodipodi-0.dtd"
   xmlns:inkscape="http://www.inkscape.org/namespaces/inkscape"
   version="1.1"
   id="svg2"
   inkscape:output_extension="org.inkscape.output.svg.inkscape"
   sodipodi:docname="dog.svg"
   inkscape:version="0.91 r13725"
   sodipodi:version="0.32"
   x="0px"
   y="0px"
   width="580px"
   height="580px"
   viewBox="0 0 580 580"
   enable-background="new 0 0 580 580"
   xml:space="preserve"><metadata
     id="metadata75"><rdf:RDF><cc:Work
         rdf:about=""><dc:format>image/svg+xml</dc:format><dc:type
           rdf:resource="http://purl.org/dc/dcmitype/StillImage" /><dc:title /></cc:Work></rdf:RDF></metadata><sodipodi:namedview
     showgrid="false"
     inkscape:cy="288.73338"
     inkscape:cx="358.47118"
     inkscape:zoom="0.92167712"
     pagecolor="#ffffff"
     bordercolor="#666666"
     guidetolerance="10.0"
     objecttolerance="10.0"
     gridtolerance="10.0"
     borderopacity="1.0"
     id="base"
     inkscape:current-layer="svg2"
     inkscape:window-y="18"
     inkscape:window-x="44"
     inkscape:pageopacity="0.0"
     inkscape:pageshadow="2"
     inkscape:window-height="768"
     inkscape:window-width="1280"
     inkscape:window-maximized="0" /><defs
     id="defs4"><inkscape:perspective
       inkscape:vp_z="580 : 290 : 1"
       inkscape:vp_y="0 : 1000 : 0"
       inkscape:vp_x="0 : 290 : 1"
       sodipodi:type="inkscape:persp3d"
       id="perspective3653"
       inkscape:persp3d-origin="290 : 193.33333 : 1" /></defs><g
     id="g4239"><ellipse
       inkscape:transform-center-y="-35.291005"
       inkscape:transform-center-x="23.015873"
       transform="matrix(0.9903044,-0.13891438,0.13891438,0.9903044,0,0)"
       ry="81.277718"
       rx="52.141361"
       cy="239.38562"
       cx="193.48639"
       id="path4272"
       fill="param(fill) #000" fill-opacity="param(fill-opacity)" stroke="param(outline) #FFF" stroke-opacity="param(outline-opacity)" stroke-width="param(outline-width) 0" /><ellipse
       transform="matrix(0.98887666,0.14873787,-0.14873787,0.98887666,0,0)"
       ry="81.277718"
       rx="52.141357"
       cy="154.66698"
       cx="378.01181"
       id="path4272-7"
       fill="param(fill) #000" fill-opacity="param(fill-opacity)" stroke="param(outline) #FFF" stroke-opacity="param(outline-opacity)" stroke-width="param(outline-width) 0" /><ellipse
       inkscape:transform-center-y="26.084656"
       inkscape:transform-center-x="13.809524"
       transform="matrix(0.91213038,-0.4099002,0.4099002,0.91213038,0,0)"
       ry="73.077087"
       rx="46.880474"
       cy="355.62491"
       cx="2.285449"
       id="path4272-7-5"
       fill="param(fill) #000" fill-opacity="param(fill-opacity)" stroke="param(outline) #FFF" stroke-opacity="param(outline-opacity)" stroke-width="param(outline-width) 0" /><ellipse
       inkscape:transform-center-y="59.491723"
       inkscape:transform-center-x="9.0784742"
       transform="matrix(-0.88379755,-0.46786952,-0.46786952,0.88379755,0,0)"
       ry="73.07708"
       rx="46.880474"
       cy="87.468323"
       cx="-530.88654"
       id="path4272-7-5-8"
       fill="param(fill) #000" fill-opacity="param(fill-opacity)" stroke="param(outline) #FFF" stroke-opacity="param(outline-opacity)" stroke-width="param(outline-width) 0" /><path
       sodipodi:nodetypes="ccsaaassasscc"
       inkscape:connector-curvature="0"
       id="path4319"
       d="m 294.44325,344.58924 c 34.05956,4.51418 39.53789,19.91552 54.78625,38.63209 11.2307,13.32485 21.68853,23.4241 34.75653,37.10086 12.06799,12.63017 17.56781,39.00556 13.57477,58.70099 -2.09833,10.34998 -9.84977,19.65601 -18.47053,25.07142 -11.9918,7.533 -27.35196,7.25996 -41.30899,7.21416 -13.93075,-0.0457 -21.5022,-6.91516 -41.18797,-7.47096 -12.98805,-0.36669 -25.8382,2.69972 -38.44779,6.00347 -16.38851,4.29386 -27.58513,8.30294 -40.89289,4.80275 -10.43818,-2.74543 -16.70304,-11.7923 -26.64362,-19.21123 -13.78508,-10.28819 -17.56979,-44.04741 -7.28939,-58.17886 31.67908,-43.54614 26.04225,-30.10869 45.00475,-50.7209 15.02012,-31.33917 37.7,-37.07441 66.11888,-41.94379 z"
       fill="param(fill) #000" fill-opacity="param(fill-opacity)" stroke="param(outline) #FFF" stroke-opacity="param(outline-opacity)" stroke-width="param(outline-width) 0" /><path
       sodipodi:nodetypes="zzzz"
       inkscape:connector-curvature="0"
       id="path4328"
       d="m 89.557953,238.60749 c 1.531231,3.53915 20.674877,-2.53033 21.191967,-6.76572 0.51709,-4.23539 -17.70271,-33.98283 -22.538999,-31.84953 -4.836288,2.13331 -0.184198,35.07609 1.347032,38.61525 z"
       fill="param(fill) #000" fill-opacity="param(fill-opacity)" stroke="param(outline) #FFF" stroke-opacity="param(outline-opacity)" stroke-width="param(outline-width) 0" /><path
       sodipodi:nodetypes="zzzz"
       inkscape:connector-curvature="0"
       id="path4328-1"
       d="m 196.27619,98.990624 c 0.32886,3.842146 20.40909,4.162056 22.24363,0.30974 1.83454,-3.852317 -6.0024,-37.844282 -11.2657,-37.35616 -5.26331,0.488129 -11.30677,33.204262 -10.97793,37.04642 z"
       fill="param(fill) #000" fill-opacity="param(fill-opacity)" stroke="param(outline) #FFF" stroke-opacity="param(outline-opacity)" stroke-width="param(outline-width) 0" /><path
       sodipodi:nodetypes="zzzz"
       inkscape:connector-curvature="0"
       id="path4328-1-9"
       d="m 360.85968,106.04563 c 0.24734,3.84826 20.31627,4.59376 22.23207,0.7812 1.91579,-3.81256 -5.19881,-37.963024 -10.47127,-37.586585 -5.27249,0.376445 -12.00811,32.957125 -11.7608,36.805385 z"
       fill="param(fill) #000" fill-opacity="param(fill-opacity)" stroke="param(outline) #FFF" stroke-opacity="param(outline-opacity)" stroke-width="param(outline-width) 0" /><path
       sodipodi:nodetypes="zzzz"
       inkscape:connector-curvature="0"
       id="path4328-1-9-7"
       d="m 468.39019,235.56263 c -0.8977,3.75025 18.0603,10.37684 21.01456,7.29816 2.95426,-3.07868 6.21954,-37.8092 1.07029,-39.00324 -5.14929,-1.19405 -21.18712,27.95483 -22.08485,31.70508 z"
       fill="param(fill) #000" fill-opacity="param(fill-opacity)" stroke="param(outline) #FFF" stroke-opacity="param(outline-opacity)" stroke-width="param(outline-width) 0" /></g></svg>