<?xml version="1.0" encoding="UTF-8" standalone="no"?>
<svg
   xmlns:dc="http://purl.org/dc/elements/1.1/"
   xmlns:cc="http://creativecommons.org/ns#"
   xmlns:rdf="http://www.w3.org/1999/02/22-rdf-syntax-ns#"
   xmlns:svg="http://www.w3.org/2000/svg"
   xmlns="http://www.w3.org/2000/svg"
   xmlns:sodipodi="http://sodipodi.sourceforge.net/DTD/sodipodi-0.dtd"
   xmlns:inkscape="http://www.inkscape.org/namespaces/inkscape"
   version="1.1"
   id="svg2"
   inkscape:output_extension="org.inkscape.output.svg.inkscape"
   sodipodi:docname="dog.svg"
   inkscape:version="0.92.2 (5c3e80d, 2017-08-06)"
   sodipodi:version="0.32"
   x="0px"
   y="0px"
   width="580px"
   height="580px"
   viewBox="0 0 580 580"
   enable-background="new 0 0 580 580"
   xml:space="preserve"><metadata
     id="metadata75"><rdf:RDF><cc:Work
         rdf:about=""><dc:format>image/svg+xml</dc:format><dc:type
           rdf:resource="http://purl.org/dc/dcmitype/StillImage" /><dc:title /></cc:Work></rdf:RDF></metadata><sodipodi:namedview
     showgrid="false"
     inkscape:cy="483.32913"
     inkscape:cx="-126.1057"
     inkscape:zoom="0.46083856"
     pagecolor="#ffffff"
     bordercolor="#666666"
     guidetolerance="10.0"
     objecttolerance="10.0"
     gridtolerance="10.0"
     borderopacity="1.0"
     id="base"
     inkscape:current-layer="svg2"
     inkscape:window-y="18"
     inkscape:window-x="44"
     inkscape:pageopacity="0.0"
     inkscape:pageshadow="2"
     inkscape:window-height="975"
     inkscape:window-width="1501"
     inkscape:window-maximized="0" /><defs
     id="defs4"><inkscape:perspective
       inkscape:vp_z="580 : 290 : 1"
       inkscape:vp_y="0 : 1000 : 0"
       inkscape:vp_x="0 : 290 : 1"
       sodipodi:type="inkscape:persp3d"
       id="perspective3653"
       inkscape:persp3d-origin="290 : 193.33333 : 1" /></defs><g
     id="g971"><path
       sodipodi:nodetypes="ccsaaassasscc"
       inkscape:connector-curvature="0"
       id="path4319"
       d="m 300.95312,342.41928 c 34.05956,4.51418 39.53789,19.91552 54.78625,38.63209 11.2307,13.32485 21.68853,23.4241 34.75653,37.10086 12.06799,12.63017 17.56781,39.00556 13.57477,58.70099 -2.09833,10.34998 -9.84977,19.65601 -18.47053,25.07142 -11.9918,7.533 -27.35196,7.25996 -41.30899,7.21416 -13.93075,-0.0457 -21.5022,-6.91516 -41.18797,-7.47096 -12.98805,-0.36669 -25.8382,2.69972 -38.44779,6.00347 -16.38851,4.29386 -27.58513,8.30294 -40.89289,4.80275 -10.43818,-2.74543 -16.70304,-11.7923 -26.64362,-19.21123 -13.78508,-10.28819 -17.56979,-44.04741 -7.28939,-58.17886 31.67908,-43.54614 26.04225,-30.10869 45.00475,-50.7209 15.02012,-31.33917 37.7,-37.07441 66.11888,-41.94379 z"
       fill="param(fill) #000"
       fill-opacity="param(fill-opacity)"
       stroke="param(outline) #FFF"
       stroke-opacity="param(outline-opacity)"
       stroke-width="param(outline-width) 0" /><path
       fill="param(fill) #000" fill-opacity="param(fill-opacity)" stroke="param(outline) #FFF" stroke-opacity="param(outline-opacity)" stroke-width="param(outline-width) 0"
       sodipodi:nodetypes="zzzz"
       inkscape:connector-curvature="0"
       id="path4328-1-9"
       d="m 334.82338,103.16316 c 0.36631,4.68123 30.08788,5.58808 32.92513,0.9503 2.83724,-4.637805 -7.6993,-46.180252 -15.50768,-45.722332 -7.80842,0.457928 -17.78371,40.090806 -17.41745,44.772032 z"
       fill="param(fill) #000"
       fill-opacity="param(fill-opacity)"
       stroke="param(outline) #FFF"
       stroke-opacity="param(outline-opacity)" /><path
       inkscape:transform-center-y="-10.990071"
       inkscape:transform-center-x="0.54486972"
       sodipodi:nodetypes="zzzzzcz"
       inkscape:connector-curvature="0"
       id="path854-6"
       d="m 412.87477,253.29361 c 14.17197,-23.00179 0.18011,-48.75586 -9.99095,-70.00486 -10.17105,-21.24902 -20.47175,-41.83976 -46.08211,-54.9608 -25.61037,-13.12103 -36.56702,26.85639 -44.04814,49.29675 -7.48117,22.44036 -11.95442,59.27315 -7.41702,76.07696 4.53744,16.8038 -0.84999,26.771 15.46685,33.85608 41.39765,10.88555 77.89941,-11.26234 92.07137,-34.26413 z"
       fill="param(fill) #000" fill-opacity="param(fill-opacity)" stroke="param(outline) #FFF" stroke-opacity="param(outline-opacity)" stroke-width="param(outline-width) 0" /><path
       inkscape:transform-center-y="-9.761199"
       inkscape:transform-center-x="8.0998187"
       sodipodi:nodetypes="zzzzzzzz"
       inkscape:connector-curvature="0"
       id="path854-6-3"
       d="m 469.52692,379.4942 c 12.06175,-12.74552 19.19409,-40.52637 19.56729,-61.33011 0.37321,-20.80374 0.31052,-41.09815 -17.90195,-59.81855 -18.21247,-18.72038 -47.62608,11.27433 -65.40652,27.70668 -17.78047,16.43232 -36.33156,29.53966 -39.97175,44.9259 -3.64013,15.38624 2.72616,35.81279 14.93415,46.67744 12.20803,10.86466 34.2117,21.62311 51.90609,19.21867 17.69439,-2.40446 24.81092,-4.63451 36.87269,-17.38003 z"
       fill="param(fill) #000" fill-opacity="param(fill-opacity)" stroke="param(outline) #FFF" stroke-opacity="param(outline-opacity)" stroke-width="param(outline-width) 0" /><path
       inkscape:transform-center-y="-10.844286"
       inkscape:transform-center-x="-0.56530049"
       sodipodi:nodetypes="zzzzzcz"
       inkscape:connector-curvature="0"
       id="path854-6-7"
       d="m 172.05936,250.29213 c -14.70327,-22.69667 -0.18686,-48.10911 10.36551,-69.07624 10.55236,-20.96715 21.23924,-41.28476 47.80972,-54.23174 26.5705,-12.94698 37.93792,26.50014 45.69951,48.64283 7.76163,22.14268 12.40258,58.48688 7.69507,75.06779 -4.70754,16.5809 0.88186,26.41589 -16.0467,33.40698 -42.94963,10.74115 -80.81985,-11.11294 -95.52311,-33.80962 z"
       fill="param(fill) #000" fill-opacity="param(fill-opacity)" stroke="param(outline) #FFF" stroke-opacity="param(outline-opacity)" stroke-width="param(outline-width) 0" /><path
       inkscape:transform-center-y="-9.761199"
       inkscape:transform-center-x="-8.2457883"
       sodipodi:nodetypes="zzzzzzzz"
       inkscape:connector-curvature="0"
       id="path854-6-3-1"
       d="m 116.42974,382.97049 c -12.27913,-12.74552 -19.539998,-40.52637 -19.919925,-61.33011 -0.379937,-20.80374 -0.316118,-41.09815 18.224575,-59.81855 18.54069,-18.72038 48.48439,11.27433 66.58526,27.70668 18.10091,16.43232 36.98632,29.53966 40.69211,44.9259 3.70573,15.38624 -2.77529,35.81279 -15.20329,46.67744 -12.42804,10.86466 -34.82826,21.62311 -52.84153,19.21867 -18.01328,-2.40446 -25.25806,-4.63451 -37.5372,-17.38003 z"
       fill="param(fill) #000" fill-opacity="param(fill-opacity)" stroke="param(outline) #FFF" stroke-opacity="param(outline-opacity)" stroke-width="param(outline-width) 0" /><path
       fill="param(fill) #000" fill-opacity="param(fill-opacity)" stroke="param(outline) #FFF" stroke-opacity="param(outline-opacity)" stroke-width="param(outline-width) 0"
       sodipodi:nodetypes="zzzz"
       inkscape:connector-curvature="0"
       id="path4328-1-9-5"
       d="m 213.32142,105.6355 c 0.36631,4.68123 30.08788,5.58808 32.92513,0.9503 2.83724,-4.63781 -7.6993,-46.180254 -15.50768,-45.722334 -7.80842,0.457928 -17.78371,40.090804 -17.41745,44.772034 z"
       fill="param(fill) #000"
       fill-opacity="param(fill-opacity)"
       stroke="param(outline) #FFF"
       stroke-opacity="param(outline-opacity)" /><path
       fill="param(fill) #000" fill-opacity="param(fill-opacity)" stroke="param(outline) #FFF" stroke-opacity="param(outline-opacity)" stroke-width="param(outline-width) 0"
       sodipodi:nodetypes="zzzz"
       inkscape:connector-curvature="0"
       id="path4328-1-9-4"
       d="m 462.38374,235.2943 c -0.89993,4.60849 27.49469,13.43684 31.46968,9.7276 3.97499,-3.70927 4.9411,-46.5562 -2.70499,-48.20479 -7.64612,-1.64861 -27.86472,33.86871 -28.76469,38.47719 z"
       fill="param(fill) #000"
       fill-opacity="param(fill-opacity)"
       stroke="param(outline) #FFF"
       stroke-opacity="param(outline-opacity)" /><path
       fill="param(fill) #000" fill-opacity="param(fill-opacity)" stroke="param(outline) #FFF" stroke-opacity="param(outline-opacity)" stroke-width="param(outline-width) 0"
       sodipodi:nodetypes="zzzz"
       inkscape:connector-curvature="0"
       id="path4328-1-9-6"
       d="m 91.086994,242.47753 c 1.942528,4.2749 30.187856,-5.02002 31.271226,-10.34781 1.08337,-5.3278 -23.003139,-40.77684 -30.186004,-37.68056 -7.1829,3.0963 -3.027701,43.75346 -1.085222,48.02837 z"
       fill="param(fill) #000"
       fill-opacity="param(fill-opacity)"
       stroke="param(outline) #FFF"
       stroke-opacity="param(outline-opacity)" /></g></svg>