<?xml version="1.0" encoding="UTF-8" standalone="no"?>
<!-- Generator: Adobe Illustrator 16.0.0, SVG Export Plug-In . SVG Version: 6.00 Build 0)  -->

<svg
   xmlns:dc="http://purl.org/dc/elements/1.1/"
   xmlns:cc="http://creativecommons.org/ns#"
   xmlns:rdf="http://www.w3.org/1999/02/22-rdf-syntax-ns#"
   xmlns:svg="http://www.w3.org/2000/svg"
   xmlns="http://www.w3.org/2000/svg"
   xmlns:sodipodi="http://sodipodi.sourceforge.net/DTD/sodipodi-0.dtd"
   xmlns:inkscape="http://www.inkscape.org/namespaces/inkscape"
   version="1.1"
   id="svg2"
   inkscape:output_extension="org.inkscape.output.svg.inkscape"
   sodipodi:docname="dog.svg"
   inkscape:version="0.91 r13725"
   sodipodi:version="0.32"
   x="0px"
   y="0px"
   width="580px"
   height="580px"
   viewBox="0 0 580 580"
   enable-background="new 0 0 580 580"
   xml:space="preserve"><metadata
     id="metadata75"><rdf:RDF><cc:Work
         rdf:about=""><dc:format>image/svg+xml</dc:format><dc:type
           rdf:resource="http://purl.org/dc/dcmitype/StillImage" /><dc:title></dc:title></cc:Work></rdf:RDF></metadata><sodipodi:namedview
     showgrid="false"
     inkscape:cy="337.64464"
     inkscape:cx="240.09805"
     inkscape:zoom="0.65172414"
     pagecolor="#ffffff"
     bordercolor="#666666"
     guidetolerance="10.0"
     objecttolerance="10.0"
     gridtolerance="10.0"
     borderopacity="1.0"
     id="base"
     inkscape:current-layer="svg2"
     inkscape:window-y="18"
     inkscape:window-x="44"
     inkscape:pageopacity="0.0"
     inkscape:pageshadow="2"
     inkscape:window-height="768"
     inkscape:window-width="1280"
     inkscape:window-maximized="0" /><defs
     id="defs4"><inkscape:perspective
       inkscape:vp_z="580 : 290 : 1"
       inkscape:vp_y="0 : 1000 : 0"
       inkscape:vp_x="0 : 290 : 1"
       sodipodi:type="inkscape:persp3d"
       id="perspective3653"
       inkscape:persp3d-origin="290 : 193.33333 : 1" /></defs><g
     id="g3435"
     transform="translate(0,-4.2853319)"><ellipse
       inkscape:transform-center-y="-35.291005"
       inkscape:transform-center-x="23.015873"
       transform="matrix(0.99030439,-0.13891438,0.13891438,0.99030439,0,0)"
       ry="81.277718"
       rx="52.141361"
       cy="243.62941"
       cx="192.8911"
       id="path4272"
       style="opacity:1;fill:#000000;fill-opacity:1;stroke:#000000;stroke-width:0;stroke-linecap:butt;stroke-linejoin:round;stroke-miterlimit:4;stroke-dasharray:none;stroke-opacity:1" /><ellipse
       transform="matrix(0.98887666,0.14873787,-0.14873787,0.98887666,0,0)"
       ry="81.277718"
       rx="52.141357"
       cy="158.90465"
       cx="378.6492"
       id="path4272-7"
       style="opacity:1;fill:#000000;fill-opacity:1;stroke:#000000;stroke-width:0;stroke-linecap:butt;stroke-linejoin:round;stroke-miterlimit:4;stroke-dasharray:none;stroke-opacity:1" /><ellipse
       inkscape:transform-center-y="26.084656"
       inkscape:transform-center-x="13.809524"
       transform="matrix(0.91213038,-0.4099002,0.4099002,0.91213038,0,0)"
       ry="73.077087"
       rx="46.880474"
       cy="359.53369"
       cx="0.52889073"
       id="path4272-7-5"
       style="opacity:1;fill:#000000;fill-opacity:1;stroke:#000000;stroke-width:0;stroke-linecap:butt;stroke-linejoin:round;stroke-miterlimit:4;stroke-dasharray:none;stroke-opacity:1" /><ellipse
       inkscape:transform-center-y="59.491723"
       inkscape:transform-center-x="9.0784742"
       transform="matrix(-0.88379755,-0.46786952,-0.46786952,0.88379755,0,0)"
       ry="73.07708"
       rx="46.880474"
       cy="91.255692"
       cx="-532.89154"
       id="path4272-7-5-8"
       style="opacity:1;fill:#000000;fill-opacity:1;stroke:#000000;stroke-width:0;stroke-linecap:butt;stroke-linejoin:round;stroke-miterlimit:4;stroke-dasharray:none;stroke-opacity:1" /><path
       sodipodi:nodetypes="ccsaaassasscc"
       inkscape:connector-curvature="0"
       id="path4319"
       d="m 294.12705,351.58702 c 33.01975,4.37636 38.33084,19.30751 53.11367,37.45269 10.88784,12.91805 21.02641,22.70898 33.69545,35.9682 11.69957,12.24459 17.03148,37.81477 13.16034,56.90891 -2.03427,10.034 -9.54906,19.05593 -17.90664,24.30601 -11.62569,7.30303 -26.51693,7.03832 -40.04786,6.99393 -13.50546,-0.0443 -20.84576,-6.70405 -39.93055,-7.24289 -12.59154,-0.35549 -25.04938,2.61731 -37.27401,5.82019 -15.88819,4.16277 -26.74298,8.04947 -39.64447,4.65613 -10.11951,-2.66162 -16.19311,-11.43229 -25.83021,-18.62473 -13.36424,-9.97411 -17.03341,-42.70269 -7.06686,-56.40272 30.71195,-42.21671 25.24721,-29.1895 43.6308,-49.17243 14.56157,-30.38242 36.54905,-35.94257 64.10034,-40.66329 z"
       style="fill:#000000;fill-rule:evenodd;stroke:#000000;stroke-width:6.31633282px;stroke-linecap:butt;stroke-linejoin:miter;stroke-opacity:1" /><path
       sodipodi:nodetypes="ssss"
       inkscape:connector-curvature="0"
       id="path4328"
       d="m 91.251236,241.83111 c 1.009117,4.97563 21.990684,-2.92938 18.413704,-7.06023 0,0 -16.842013,-29.10467 -18.834648,-26.48481 0,0 -1.024024,26.42034 0.420944,33.54504 z"
       style="fill:#000000;fill-rule:evenodd;stroke:#000000;stroke-width:4.5699029px;stroke-linecap:butt;stroke-linejoin:miter;stroke-opacity:1" /><path
       sodipodi:nodetypes="ssss"
       inkscape:connector-curvature="0"
       id="path4328-2"
       d="m 488.74876,243.95488 c -1.00912,4.97563 -21.99068,-2.92937 -18.4137,-7.06022 0,0 16.84201,-29.10467 18.83464,-26.48481 0,0 1.02404,26.42033 -0.42094,33.54503 z"
       style="fill:#000000;fill-rule:evenodd;stroke:#000000;stroke-width:4.5699029px;stroke-linecap:butt;stroke-linejoin:miter;stroke-opacity:1" /><path
       inkscape:transform-center-y="-0.52686296"
       inkscape:transform-center-x="9.3396156"
       sodipodi:nodetypes="ssss"
       inkscape:connector-curvature="0"
       id="path4328-2-8"
       d="m 361.43633,107.70196 c -0.56561,5.04531 21.82926,3.95659 19.69165,-1.07226 0,0 -7.10352,-32.867539 -9.80367,-30.985104 0,0 -9.0781,24.832854 -9.88798,32.057364 z"
       style="fill:#000000;fill-rule:evenodd;stroke:#000000;stroke-width:4.5699029px;stroke-linecap:butt;stroke-linejoin:miter;stroke-opacity:1" /><path
       inkscape:transform-center-y="-12.276918"
       inkscape:transform-center-x="-1.5179464"
       sodipodi:nodetypes="ssss"
       inkscape:connector-curvature="0"
       id="path4328-2-4"
       d="m 218.05292,101.43489 c 0.85933,5.00368 -21.5609,5.22481 -19.72067,0.0798 0,0 5.17172,-33.226334 7.9772,-31.50484 0,0 10.51301,24.260254 11.74347,31.42512 z"
       style="fill:#000000;fill-rule:evenodd;stroke:#000000;stroke-width:4.5699029px;stroke-linecap:butt;stroke-linejoin:miter;stroke-opacity:1" /></g></svg>