<?xml version="1.0" encoding="UTF-8" standalone="no"?>
<svg
   xmlns:dc="http://purl.org/dc/elements/1.1/"
   xmlns:cc="http://creativecommons.org/ns#"
   xmlns:rdf="http://www.w3.org/1999/02/22-rdf-syntax-ns#"
   xmlns:svg="http://www.w3.org/2000/svg"
   xmlns="http://www.w3.org/2000/svg"
   xmlns:sodipodi="http://sodipodi.sourceforge.net/DTD/sodipodi-0.dtd"
   xmlns:inkscape="http://www.inkscape.org/namespaces/inkscape"
   version="1.1"
   id="svg2"
   inkscape:output_extension="org.inkscape.output.svg.inkscape"
   sodipodi:docname="european_bison.svg"
   inkscape:version="0.92.2 (5c3e80d, 2017-08-06)"
   sodipodi:version="0.32"
   x="0px"
   y="0px"
   width="580px"
   height="580px"
   viewBox="0 0 580 580"
   enable-background="new 0 0 580 580"
   xml:space="preserve"><metadata
     id="metadata75"><rdf:RDF><cc:Work
         rdf:about=""><dc:format>image/svg+xml</dc:format><dc:type
           rdf:resource="http://purl.org/dc/dcmitype/StillImage" /><dc:title /></cc:Work></rdf:RDF></metadata><sodipodi:namedview
     showgrid="false"
     inkscape:cy="574.99382"
     inkscape:cx="801.50626"
     inkscape:zoom="0.46083856"
     pagecolor="#ffffff"
     bordercolor="#666666"
     guidetolerance="10.0"
     objecttolerance="10.0"
     gridtolerance="10.0"
     borderopacity="1.0"
     id="base"
     inkscape:current-layer="g890"
     inkscape:window-y="-8"
     inkscape:window-x="-8"
     inkscape:pageopacity="0.0"
     inkscape:pageshadow="2"
     inkscape:window-height="1017"
     inkscape:window-width="1920"
     inkscape:window-maximized="1" /><defs
     id="defs4"><inkscape:perspective
       inkscape:vp_z="580 : 290 : 1"
       inkscape:vp_y="0 : 1000 : 0"
       inkscape:vp_x="0 : 290 : 1"
       sodipodi:type="inkscape:persp3d"
       id="perspective3653"
       inkscape:persp3d-origin="290 : 193.33333 : 1" /></defs><g
     id="g890"
     transform="matrix(1.0397264,0,0,1.0397264,-2.1208706,-21.681671)"><g
       id="g894"
       transform="matrix(1.0212269,0,0,1.0212269,-15.386538,-6.5682768)"><path
         stroke-opacity="param(outline-opacity)"
         stroke="param(outline) #FFF"
         fill-opacity="param(fill-opacity)"
         fill="param(fill) #000"
         d="m 315.96592,60.223289 c -19.09174,21.23741 1.51738,147.400851 -2.48677,213.896131 -3.7334,61.99916 -4.03348,106.25594 -3.84498,186.37066 -0.008,23.0821 4.2676,48.87325 19.84243,64.62058 17.15258,17.34254 45.01963,20.10637 68.91179,20.60278 28.28369,0.58765 60.1965,-2.77155 82.44594,-20.98177 26.22591,-21.46479 43.44644,-55.57847 46.09802,-92.53597 C 528.4499,327.05495 497.21722,199.45887 453.71687,137.62954 422.47136,94.165091 346.34408,34.975418 315.96593,60.223289 Z"
         id="path4319-5-9-3-1-3"
         inkscape:connector-curvature="0"
         sodipodi:nodetypes="cscaaacccc"
         style="stroke-width:0.95475411" /><path
         stroke-opacity="param(outline-opacity)"
         stroke="param(outline) #FFF"
         fill-opacity="param(fill-opacity)"
         fill="param(fill) #000"
         d="m 264.40638,60.204401 c 19.09174,21.171124 -1.51738,146.940789 2.48677,213.228519 3.7334,61.80565 4.03348,105.92429 3.84498,185.78896 0.008,23.01005 -4.2676,48.72071 -19.84243,64.41888 -17.15258,17.28842 -45.01963,20.04362 -68.91179,20.53848 -28.28369,0.58582 -60.1965,-2.7629 -82.445936,-20.91628 -26.22591,-21.39779 -43.44644,-55.405 -46.09802,-92.24715 C 51.922404,326.20323 83.155084,199.0054 126.65543,137.36904 157.90094,94.040261 234.02822,35.035336 264.40637,60.204401 Z"
         id="path4319-5-9-3-1-3-8"
         inkscape:connector-curvature="0"
         sodipodi:nodetypes="cscaaacccc"
         style="stroke-width:0.95326298" /></g></g></svg>