<?xml version="1.0" encoding="UTF-8" standalone="no"?>
<svg
   xmlns:dc="http://purl.org/dc/elements/1.1/"
   xmlns:cc="http://creativecommons.org/ns#"
   xmlns:rdf="http://www.w3.org/1999/02/22-rdf-syntax-ns#"
   xmlns:svg="http://www.w3.org/2000/svg"
   xmlns="http://www.w3.org/2000/svg"
   xmlns:sodipodi="http://sodipodi.sourceforge.net/DTD/sodipodi-0.dtd"
   xmlns:inkscape="http://www.inkscape.org/namespaces/inkscape"
   version="1.1"
   id="svg2"
   inkscape:output_extension="org.inkscape.output.svg.inkscape"
   sodipodi:docname="european_bison.svg"
   inkscape:version="0.91 r13725"
   sodipodi:version="0.32"
   x="0px"
   y="0px"
   width="580px"
   height="580px"
   viewBox="0 0 580 580"
   enable-background="new 0 0 580 580"
   xml:space="preserve"><metadata
     id="metadata75"><rdf:RDF><cc:Work
         rdf:about=""><dc:format>image/svg+xml</dc:format><dc:type
           rdf:resource="http://purl.org/dc/dcmitype/StillImage" /><dc:title /></cc:Work></rdf:RDF></metadata><sodipodi:namedview
     showgrid="false"
     inkscape:cy="208.19196"
     inkscape:cx="-286.57959"
     inkscape:zoom="0.65172414"
     pagecolor="#ffffff"
     bordercolor="#666666"
     guidetolerance="10.0"
     objecttolerance="10.0"
     gridtolerance="10.0"
     borderopacity="1.0"
     id="base"
     inkscape:current-layer="svg2"
     inkscape:window-y="-8"
     inkscape:window-x="-8"
     inkscape:pageopacity="0.0"
     inkscape:pageshadow="2"
     inkscape:window-height="705"
     inkscape:window-width="1366"
     inkscape:window-maximized="1" /><defs
     id="defs4"><inkscape:perspective
       inkscape:vp_z="580 : 290 : 1"
       inkscape:vp_y="0 : 1000 : 0"
       inkscape:vp_x="0 : 290 : 1"
       sodipodi:type="inkscape:persp3d"
       id="perspective3653"
       inkscape:persp3d-origin="290 : 193.33333 : 1" /></defs><g
     id="g4639"
     fill="param(fill) #000"
     fill-opacity="param(fill-opacity)"
     stroke="param(outline) #FFF"
     stroke-opacity="param(outline-opacity)"
     stroke-width="param(outline-width) 0"
     transform="translate(6.2846009,10.82525)"><path
       sodipodi:nodetypes="cacaaaaaac"
       inkscape:connector-curvature="0"
       id="path4319-5-9"
       d="m 243.72793,21.252384 c 21.66292,20.533487 -0.95621,136.995686 2.99066,205.333606 4.20538,72.81385 17.82408,136.05607 22.02225,217.69452 1.27683,23.51748 -5.12333,46.45771 -19.4961,63.15653 -14.53567,16.88806 -37.94404,28.75982 -60.22478,29.00701 -24.71031,0.27414 -49.58204,-13.65069 -67.48923,-30.68031 C 87.699372,473.59032 69.215626,426.45463 57.23926,381.32973 45.974603,338.88641 45.743435,293.21239 51.714162,249.70747 58.509001,200.19777 66.846304,146.12562 98.124253,107.15038 133.39361,63.201485 209.7279,-2.7140649 243.72793,21.252384 Z"
       fill="param(fill) #000"
       fill-opacity="param(fill-opacity)"
       stroke="param(outline) #FFF"
       stroke-opacity="param(outline-opacity)"
       stroke-width="param(outline-width) 0" /><path
       sodipodi:nodetypes="cacaaaaaac"
       inkscape:connector-curvature="0"
       id="path4319-5-9-3"
       d="m 320.24314,27.70714 c -21.41141,20.795617 2.62348,136.9739 -0.49137,205.35479 -3.31887,72.85964 -16.16685,136.26293 -19.3711,217.94643 -0.99051,23.53128 5.68837,46.39191 20.26332,62.91457 14.74014,16.7099 38.29126,28.29588 60.57336,28.27188 24.71182,-0.0266 49.41223,-14.25314 67.11082,-31.49944 33.43728,-32.58279 51.34597,-79.93995 62.77224,-125.20728 10.74726,-42.57727 10.42252,-88.25072 3.92277,-131.67975 -7.39691,-49.42333 -16.3917,-103.39 -48.14169,-141.98168 C 431.07985,68.310279 353.94897,3.328656 320.24316,27.707141 Z"
       fill="param(fill) #000"
       fill-opacity="param(fill-opacity)"
       stroke="param(outline) #FFF"
       stroke-opacity="param(outline-opacity)"
       stroke-width="param(outline-width) 0" /></g></svg>