<?xml version="1.0" encoding="UTF-8" standalone="no"?>
<svg
   xmlns:dc="http://purl.org/dc/elements/1.1/"
   xmlns:cc="http://creativecommons.org/ns#"
   xmlns:rdf="http://www.w3.org/1999/02/22-rdf-syntax-ns#"
   xmlns:svg="http://www.w3.org/2000/svg"
   xmlns="http://www.w3.org/2000/svg"
   xmlns:sodipodi="http://sodipodi.sourceforge.net/DTD/sodipodi-0.dtd"
   xmlns:inkscape="http://www.inkscape.org/namespaces/inkscape"
   version="1.1"
   id="svg2"
   inkscape:output_extension="org.inkscape.output.svg.inkscape"
   sodipodi:docname="feather.svg"
   inkscape:version="0.91 r13725"
   sodipodi:version="0.32"
   x="0px"
   y="0px"
   width="580px"
   height="580px"
   viewBox="0 0 580 580"
   enable-background="new 0 0 580 580"
   xml:space="preserve"><metadata
     id="metadata75"><rdf:RDF><cc:Work
         rdf:about=""><dc:format>image/svg+xml</dc:format><dc:type
           rdf:resource="http://purl.org/dc/dcmitype/StillImage" /><dc:title></dc:title></cc:Work></rdf:RDF></metadata><sodipodi:namedview
     showgrid="false"
     inkscape:cy="370.17246"
     inkscape:cx="387.9886"
     inkscape:zoom="0.92167712"
     pagecolor="#ffffff"
     bordercolor="#666666"
     guidetolerance="10.0"
     objecttolerance="10.0"
     gridtolerance="10.0"
     borderopacity="1.0"
     id="base"
     inkscape:current-layer="g4144"
     inkscape:window-y="-8"
     inkscape:window-x="-8"
     inkscape:pageopacity="0.0"
     inkscape:pageshadow="2"
     inkscape:window-height="705"
     inkscape:window-width="1366"
     inkscape:window-maximized="1" /><defs
     id="defs4"><inkscape:path-effect
       effect="spiro"
       id="path-effect3365"
       is_visible="true" /><inkscape:path-effect
       effect="spiro"
       id="path-effect3361"
       is_visible="true" /><inkscape:perspective
       inkscape:vp_z="580 : 290 : 1"
       inkscape:vp_y="0 : 1000 : 0"
       inkscape:vp_x="0 : 290 : 1"
       sodipodi:type="inkscape:persp3d"
       id="perspective3653"
       inkscape:persp3d-origin="290 : 193.33333 : 1" /></defs><g
     id="g4144"><g
       id="g4173"
       transform="translate(-2.3246552,10.541754)"><path
         sodipodi:nodetypes="czzzzzzzzzzzzzzzzzc"
         inkscape:connector-curvature="0"
         inkscape:original-d="m 527.36196,263.3831 c 0,0 -36.68601,-9.41034 -73.15252,-7.05084 -36.4665,2.3595 -60.8101,4.69928 -87.89576,4.55798 -27.08565,-0.14129 -47.01742,0.5418 -76.91773,-3.67663 -29.90031,-4.21843 -63.43155,-14.3314 -90.77962,-19.38982 -27.34807,-5.05841 -53.23362,-9.90717 -73.15251,-11.45762 -19.9189,-1.55046 -32.234968,-2.83435 -45.830492,0 -13.595524,2.83434 -25.124035,8.96958 -34.372867,14.98304 -9.248831,6.01346 -15.628686,12.94272 -21.152533,19.38983 -5.523847,6.44711 -11.462399,12.40129 -12.338978,18.50847 -0.876579,6.10717 1.069188,8.75027 4.406778,14.10168 3.33759,5.35142 9.941181,12.05207 16.745756,15.8644 6.804575,3.81233 5.229043,2.97444 22.915245,6.1695 17.686204,3.19506 47.450871,4.78194 83.728771,7.9322 36.27791,3.15025 99.52333,9.84915 133.96605,10.57626 34.44272,0.72711 47.94684,0.2716 72.27116,-2.64407 24.32432,-2.91567 51.84165,-8.72375 73.15251,-14.98304 21.31087,-6.25929 38.38804,-6.95711 54.64405,-15.86441 16.25601,-8.9073 53.76269,-37.01693 53.76269,-37.01693 z"
         inkscape:path-effect="#path-effect3365"
         id="path3363"
         d="m 527.36196,263.3831 c -24.07831,-4.71655 -48.61663,-7.08168 -73.15252,-7.05084 -29.34263,0.0369 -58.57265,3.48729 -87.89576,4.55798 -25.68685,0.93792 -51.48419,0.0421 -76.91773,-3.67663 -30.62541,-4.47786 -60.49421,-13.00536 -90.77962,-19.38982 -24.16091,-5.09336 -48.60139,-8.82428 -73.15251,-11.45762 -15.24657,-1.63534 -30.761418,-2.83815 -45.830492,0 -12.390235,2.33361 -24.28085,7.4256 -34.372867,14.98304 -7.661789,5.73755 -14.209398,12.80079 -21.152533,19.38983 -2.754303,2.61384 -5.590778,5.17365 -7.906133,8.18321 -2.315354,3.00956 -4.107066,6.54211 -4.432845,10.32526 -0.215132,2.49825 0.217112,5.02548 1.038203,7.39473 0.82109,2.36924 2.023728,4.59061 3.368575,6.70695 4.171509,6.56457 9.850471,12.26578 16.745756,15.8644 7.048097,3.67837 15.045337,5.04227 22.915245,6.1695 27.756354,3.97561 55.784571,5.62087 83.728771,7.9322 44.64837,3.69298 89.18966,9.09632 133.96605,10.57626 24.11988,0.7972 48.33719,0.44935 72.27116,-2.64407 24.69709,-3.19205 48.91168,-9.28065 73.15251,-14.98304 18.48599,-4.34863 37.13351,-8.51435 54.64405,-15.86441 20.20424,-8.48074 38.63143,-21.16831 53.76269,-37.01693 z"
         fill="param(fill) #000" fill-opacity="param(fill-opacity)" stroke="param(outline) #FFF" stroke-opacity="param(outline-opacity)" stroke-width="param(outline-width) 0" /><path
         sodipodi:nodetypes="cssssc"
         inkscape:connector-curvature="0"
         id="path3357"
         d="m 570.54838,249.28141 c 0,0 -64.31496,21.62306 -96.94911,30.84744 -32.91216,9.30297 -65.7732,19.58237 -99.59318,24.67796 -46.55448,7.01427 -93.94615,8.86235 -141.0169,7.93221 -36.88478,-0.72886 -73.47367,-6.77643 -110.16944,-10.57627 -10.58476,-1.09605 -93.423683,-11.45763 -93.423683,-11.45763"
         fill="param(fill) #000" fill-opacity="param(fill-opacity)" stroke="param(outline) #FFF" stroke-opacity="param(outline-opacity)" stroke-width="param(outline-width) 0" /></g></g></svg>