<?xml version="1.0" encoding="UTF-8" standalone="no"?>
<!-- Generator: Adobe Illustrator 16.0.0, SVG Export Plug-In . SVG Version: 6.00 Build 0)  -->

<svg
   xmlns:dc="http://purl.org/dc/elements/1.1/"
   xmlns:cc="http://creativecommons.org/ns#"
   xmlns:rdf="http://www.w3.org/1999/02/22-rdf-syntax-ns#"
   xmlns:svg="http://www.w3.org/2000/svg"
   xmlns="http://www.w3.org/2000/svg"
   xmlns:sodipodi="http://sodipodi.sourceforge.net/DTD/sodipodi-0.dtd"
   xmlns:inkscape="http://www.inkscape.org/namespaces/inkscape"
   version="1.1"
   id="svg2"
   inkscape:output_extension="org.inkscape.output.svg.inkscape"
   sodipodi:docname="fox.svg"
   inkscape:version="0.91 r13725"
   sodipodi:version="0.32"
   x="0px"
   y="0px"
   width="580px"
   height="580px"
   viewBox="0 0 580 580"
   enable-background="new 0 0 580 580"
   xml:space="preserve"><metadata
     id="metadata75"><rdf:RDF><cc:Work
         rdf:about=""><dc:format>image/svg+xml</dc:format><dc:type
           rdf:resource="http://purl.org/dc/dcmitype/StillImage" /><dc:title></dc:title></cc:Work></rdf:RDF></metadata><sodipodi:namedview
     showgrid="false"
     inkscape:cy="337.64464"
     inkscape:cx="240.09805"
     inkscape:zoom="0.65172414"
     pagecolor="#ffffff"
     bordercolor="#666666"
     guidetolerance="10.0"
     objecttolerance="10.0"
     gridtolerance="10.0"
     borderopacity="1.0"
     id="base"
     inkscape:current-layer="svg2"
     inkscape:window-y="18"
     inkscape:window-x="44"
     inkscape:pageopacity="0.0"
     inkscape:pageshadow="2"
     inkscape:window-height="768"
     inkscape:window-width="1280"
     inkscape:window-maximized="0" /><defs
     id="defs4"><inkscape:perspective
       inkscape:vp_z="580 : 290 : 1"
       inkscape:vp_y="0 : 1000 : 0"
       inkscape:vp_x="0 : 290 : 1"
       sodipodi:type="inkscape:persp3d"
       id="perspective3653"
       inkscape:persp3d-origin="290 : 193.33333 : 1" /></defs><g
     id="g3395"
     transform="matrix(0.8650717,0,0,0.8650717,36.172333,41.869212)"><ellipse
       transform="matrix(0.99577143,0.09186542,-0.09186542,0.99577143,0,0)"
       ry="87.168678"
       rx="55.920532"
       cy="157.3412"
       cx="234.57344"
       id="path4272"
       style="opacity:1;fill:#000000;fill-opacity:1;stroke:#000000;stroke-width:0;stroke-linecap:butt;stroke-linejoin:round;stroke-miterlimit:4;stroke-dasharray:none;stroke-opacity:1" /><ellipse
       transform="matrix(0.98620824,-0.16550924,0.16550924,0.98620824,0,0)"
       ry="87.168678"
       rx="55.920532"
       cy="230.12253"
       cx="333.11578"
       id="path4272-7"
       style="opacity:1;fill:#000000;fill-opacity:1;stroke:#000000;stroke-width:0;stroke-linecap:butt;stroke-linejoin:round;stroke-miterlimit:4;stroke-dasharray:none;stroke-opacity:1" /><ellipse
       transform="matrix(0.94754469,-0.31962331,0.31962331,0.94754469,0,0)"
       ry="78.373665"
       rx="50.278343"
       cy="388.13098"
       cx="18.78751"
       id="path4272-7-5"
       style="opacity:1;fill:#000000;fill-opacity:1;stroke:#000000;stroke-width:0;stroke-linecap:butt;stroke-linejoin:round;stroke-miterlimit:4;stroke-dasharray:none;stroke-opacity:1" /><ellipse
       inkscape:transform-center-y="60.147699"
       inkscape:transform-center-x="-1.9844836"
       transform="matrix(-0.95460513,-0.29787421,-0.29787421,0.95460513,0,0)"
       ry="78.373665"
       rx="50.278343"
       cy="198.43352"
       cx="-529.67181"
       id="path4272-7-5-8"
       style="opacity:1;fill:#000000;fill-opacity:1;stroke:#000000;stroke-width:0;stroke-linecap:butt;stroke-linejoin:round;stroke-miterlimit:4;stroke-dasharray:none;stroke-opacity:1" /><path
       sodipodi:nodetypes="ccsaaassasscc"
       inkscape:connector-curvature="0"
       id="path4319"
       d="m 302.95035,382.34269 c 34.59858,4.5856 30.28999,25.16749 45.77967,44.18027 11.40842,13.53572 31.9054,18.85801 45.18019,32.7512 12.25899,12.83006 17.84584,39.62288 13.78961,59.62998 -2.13155,10.51378 -10.00565,19.9671 -18.76285,25.46819 -12.18157,7.65222 -27.78483,7.37487 -41.96273,7.32835 -14.15122,-0.0465 -21.84249,-7.0246 -41.83981,-7.5892 -13.1936,-0.3725 -26.24711,2.74245 -39.05625,6.09848 -16.64788,4.3618 -28.02169,8.43435 -41.54005,4.87877 -10.60337,-2.78889 -16.96738,-11.97894 -27.06527,-19.51528 -14.00325,-10.45102 -17.84787,-44.7445 -7.40477,-59.09959 32.18043,-44.23529 37.97362,-27.29398 57.23622,-48.23239 15.25782,-31.83514 26.7774,-40.95234 55.64604,-45.89878 z"
       style="fill:#000000;fill-rule:evenodd;stroke:#000000;stroke-width:6.61834574px;stroke-linecap:butt;stroke-linejoin:miter;stroke-opacity:1" /><path
       sodipodi:nodetypes="ssss"
       inkscape:connector-curvature="0"
       id="path4328"
       d="m 90.019552,255.45758 c 1.082255,5.33626 23.584558,-3.1417 19.748318,-7.57194 0,0 -18.062713,-31.21417 -20.199774,-28.40442 0,0 -1.098247,28.33527 0.451456,35.97636 z"
       style="fill:#000000;fill-rule:evenodd;stroke:#000000;stroke-width:4.90112686px;stroke-linecap:butt;stroke-linejoin:miter;stroke-opacity:1" /><path
       sodipodi:nodetypes="ssss"
       inkscape:connector-curvature="0"
       id="path4328-2"
       d="m 496.81658,243.54556 c -1.08225,5.33626 -23.58455,-3.1417 -19.74831,-7.57194 0,0 18.06271,-31.21417 20.19977,-28.40442 0,0 1.09825,28.33527 -0.45146,35.97636 z"
       style="fill:#000000;fill-rule:evenodd;stroke:#000000;stroke-width:4.90112686px;stroke-linecap:butt;stroke-linejoin:miter;stroke-opacity:1" /><path
       sodipodi:nodetypes="ssss"
       inkscape:connector-curvature="0"
       id="path4328-2-8"
       d="m 334.82362,52.51383 c 1.08225,5.33626 23.58455,-3.1417 19.74831,-7.57194 0,0 -18.06271,-31.21417 -20.19977,-28.40442 0,0 -1.09825,28.33527 0.45146,35.97636 z"
       style="fill:#000000;fill-rule:evenodd;stroke:#000000;stroke-width:4.90112686px;stroke-linecap:butt;stroke-linejoin:miter;stroke-opacity:1" /><path
       sodipodi:nodetypes="ssss"
       inkscape:connector-curvature="0"
       id="path4328-2-4"
       d="m 242.10759,55.582613 c -1.08225,5.33626 -23.58455,-3.1417 -19.74831,-7.57194 0,0 18.06271,-31.21417 20.19977,-28.40442 0,0 1.09825,28.33527 -0.45146,35.97636 z"
       style="fill:#000000;fill-rule:evenodd;stroke:#000000;stroke-width:4.90112686px;stroke-linecap:butt;stroke-linejoin:miter;stroke-opacity:1" /></g></svg>