<?xml version="1.0" encoding="UTF-8" standalone="no"?>
<svg
   xmlns:dc="http://purl.org/dc/elements/1.1/"
   xmlns:cc="http://creativecommons.org/ns#"
   xmlns:rdf="http://www.w3.org/1999/02/22-rdf-syntax-ns#"
   xmlns:svg="http://www.w3.org/2000/svg"
   xmlns="http://www.w3.org/2000/svg"
   xmlns:sodipodi="http://sodipodi.sourceforge.net/DTD/sodipodi-0.dtd"
   xmlns:inkscape="http://www.inkscape.org/namespaces/inkscape"
   version="1.1"
   id="svg2"
   inkscape:output_extension="org.inkscape.output.svg.inkscape"
   sodipodi:docname="fox.svg"
   inkscape:version="0.92.2 (5c3e80d, 2017-08-06)"
   sodipodi:version="0.32"
   x="0px"
   y="0px"
   width="580px"
   height="580px"
   viewBox="0 0 580 580"
   enable-background="new 0 0 580 580"
   xml:space="preserve"><metadata
     id="metadata75"><rdf:RDF><cc:Work
         rdf:about=""><dc:format>image/svg+xml</dc:format><dc:type
           rdf:resource="http://purl.org/dc/dcmitype/StillImage" /><dc:title /></cc:Work></rdf:RDF></metadata><sodipodi:namedview
     showgrid="false"
     inkscape:cy="296.32106"
     inkscape:cx="-324.36856"
     inkscape:zoom="0.65172414"
     pagecolor="#ffffff"
     bordercolor="#666666"
     guidetolerance="10.0"
     objecttolerance="10.0"
     gridtolerance="10.0"
     borderopacity="1.0"
     id="base"
     inkscape:current-layer="g6711"
     inkscape:window-y="-8"
     inkscape:window-x="-8"
     inkscape:pageopacity="0.0"
     inkscape:pageshadow="2"
     inkscape:window-height="1017"
     inkscape:window-width="1920"
     inkscape:window-maximized="1"
     showguides="true"
     inkscape:guide-bbox="true" /><defs
     id="defs4"><inkscape:perspective
       inkscape:vp_z="580 : 290 : 1"
       inkscape:vp_y="0 : 1000 : 0"
       inkscape:vp_x="0 : 290 : 1"
       sodipodi:type="inkscape:persp3d"
       id="perspective3653"
       inkscape:persp3d-origin="290 : 193.33333 : 1" /></defs><g
     id="g6711"
     transform="matrix(1.1402845,0,0,1.1402845,-18.924258,-72.003565)"><g
       id="g6722"
       transform="translate(-7.3441641,12.016137)"><path
         stroke-opacity="param(outline-opacity)"
         stroke="param(outline) #FFF"
         fill-opacity="param(fill-opacity)"
         fill="param(fill) #000"
         d="m 276.20476,366.17072 c 18.95152,-0.26869 34.50756,13.47106 47.21058,30.729 9.356,12.28644 18.10971,15.55523 28.99632,28.16612 10.05353,11.64589 24.084,27.11387 22.58682,43.19051 -1.3219,14.19464 -14.20482,26.49391 -26.66535,34.05338 -9.91597,6.01575 -22.74444,7.43422 -34.41344,6.65197 -12.08115,-0.80986 -17.9129,-11.06302 -34.31262,-11.57552 -10.82001,-0.33811 -21.52514,7.1761 -32.02984,10.22239 -13.65283,3.95921 -22.98047,7.65589 -34.0668,4.42847 -8.69577,-2.53149 -13.91487,-10.87333 -22.1961,-17.71407 -11.484,-9.48643 -16.33695,-41.82585 -6.07261,-53.64491 19.9464,-22.96764 25.36892,-28.25609 42.10569,-40.65617 15.90476,-11.78367 28.84345,-33.56742 48.85735,-33.85117 z"
         id="path4319"
         inkscape:connector-curvature="0"
         sodipodi:nodetypes="acsaaassasssa"
         fill="param(fill) #000" fill-opacity="param(fill-opacity)" stroke="param(outline) #FFF" stroke-opacity="param(outline-opacity)" stroke-width="param(outline-width) 0" /><path
         stroke-opacity="param(outline-opacity)"
         stroke="param(outline) #FFF"
         fill-opacity="param(fill-opacity)"
         fill="param(fill) #000"
         d="m 135.35229,259.75007 c 0.58738,5.5637 22.88543,-1.4574 21.34428,-6.03707 -1.54116,-4.57966 -15.20087,-30.44316 -18.8879,-29.54497 -3.68704,0.89818 -3.04374,30.01832 -2.45638,35.58204 z"
         id="path4328"
         inkscape:connector-curvature="0"
         sodipodi:nodetypes="zzzz"
         fill="param(fill) #000" fill-opacity="param(fill-opacity)" stroke="param(outline) #FFF" stroke-opacity="param(outline-opacity)" stroke-width="param(outline-width) 0" /><path
         stroke-opacity="param(outline-opacity)"
         stroke="param(outline) #FFF"
         fill-opacity="param(fill-opacity)"
         fill="param(fill) #000"
         d="m 236.41424,133.41503 c -1.26082,5.93168 23.76374,6.45066 23.72582,1.20065 -0.0379,-5.25001 -5.29305,-36.621172 -9.34315,-36.977476 -4.05008,-0.356336 -13.12182,29.845156 -14.38267,35.776826 z"
         id="path4328-9"
         inkscape:connector-curvature="0"
         sodipodi:nodetypes="zzzz"
         fill="param(fill) #000" fill-opacity="param(fill-opacity)" stroke="param(outline) #FFF" stroke-opacity="param(outline-opacity)" stroke-width="param(outline-width) 0"
         inkscape:transform-center-x="4.7666557"
         inkscape:transform-center-y="-5.9409441" /><path
         stroke-opacity="param(outline-opacity)"
         stroke="param(outline) #FFF"
         fill-opacity="param(fill-opacity)"
         fill="param(fill) #000"
         d="m 319.4877,131.39661 c 1.43034,5.40871 -21.90676,6.77945 -22.09564,1.95112 -0.18888,-4.82833 3.37629,-33.859322 7.14164,-34.331549 3.76536,-0.472237 13.52365,26.971739 14.954,32.380429 z"
         id="path4328-9-7"
         inkscape:connector-curvature="0"
         sodipodi:nodetypes="zzzz"
         fill="param(fill) #000" fill-opacity="param(fill-opacity)" stroke="param(outline) #FFF" stroke-opacity="param(outline-opacity)" stroke-width="param(outline-width) 0" /><path
         stroke-opacity="param(outline-opacity)"
         stroke="param(outline) #FFF"
         fill-opacity="param(fill-opacity)"
         fill="param(fill) #000"
         d="m 421.62632,263.61686 c 0.0273,5.59456 -22.90704,1.06524 -21.87827,-3.65598 1.02879,-4.72124 11.76488,-31.92868 15.52826,-31.44092 3.76337,0.48774 6.32266,29.50234 6.35001,35.0969 z"
         id="path4328-5"
         inkscape:connector-curvature="0"
         sodipodi:nodetypes="zzzz"
         inkscape:transform-center-x="6.5904077"
         inkscape:transform-center-y="-7.6392051"
         fill="param(fill) #000" fill-opacity="param(fill-opacity)" stroke="param(outline) #FFF" stroke-opacity="param(outline-opacity)" stroke-width="param(outline-width) 0" /><path
         fill="param(fill) #000" fill-opacity="param(fill-opacity)" stroke="param(outline) #FFF" stroke-opacity="param(outline-opacity)" stroke-width="param(outline-width) 0"
         d="m 380.94865,245.78786 c 0.0146,-13.54298 -12.0553,-35.5833 -24.23189,-50.14894 -12.17659,-14.56563 -24.32461,-28.60807 -46.99819,-34.47437 -22.67355,-5.86633 -23.35718,26.4064 -24.78436,44.73729 -0.12205,23.74825 -2.11104,75.63914 29.00561,93.89154 26.0164,-0.0139 66.64519,-30.46874 67.00883,-54.00552 z"
         id="path854-6"
         inkscape:connector-curvature="0"
         sodipodi:nodetypes="czzccc" /><path
         fill="param(fill) #000" fill-opacity="param(fill-opacity)" stroke="param(outline) #FFF" stroke-opacity="param(outline-opacity)" stroke-width="param(outline-width) 0"
         d="m 400.22663,391.4075 c 10.05604,-9.85974 17.26666,-32.45948 18.85244,-49.67088 1.58577,-17.2114 2.80509,-34.02613 -10.00786,-50.58752 -12.81294,-16.56138 -37.2676,6.58256 -51.94425,19.16534 -14.67667,12.58273 -29.7373,22.36659 -33.49286,34.90124 -3.75551,12.53467 1.0261,26.29645 9.71991,36.00291 8.69382,9.70648 27.89976,28.25175 41.63425,27.28419 13.73451,-0.9676 15.18232,-7.23554 25.23837,-17.09528 z"
         id="path854-6-3-3"
         inkscape:connector-curvature="0"
         sodipodi:nodetypes="zzzzzzzz"
         inkscape:transform-center-x="5.8050753"
         inkscape:transform-center-y="-8.2638764" /><path
         fill="param(fill) #000" fill-opacity="param(fill-opacity)" stroke="param(outline) #FFF" stroke-opacity="param(outline-opacity)" stroke-width="param(outline-width) 0"
         d="m 159.16253,384.34565 c -10.05604,-9.85974 -17.26666,-32.45947 -18.85245,-49.67088 -1.58576,-17.2114 -2.80508,-34.02612 10.00787,-50.58752 12.81294,-16.56138 37.2676,6.58256 51.94425,19.16534 14.67667,12.58273 29.7373,22.36659 33.49286,34.90124 3.75551,12.53467 -1.02611,26.29645 -9.71991,36.00291 -8.69382,9.70648 -27.89976,28.25175 -41.63425,27.28419 -13.73451,-0.9676 -15.18232,-7.23553 -25.23837,-17.09528 z"
         id="path854-6-3-3-2"
         inkscape:connector-curvature="0"
         sodipodi:nodetypes="zzzzzzzz"
         inkscape:transform-center-x="-5.8050737"
         inkscape:transform-center-y="-8.2638764" /><path
         fill="param(fill) #000" fill-opacity="param(fill-opacity)" stroke="param(outline) #FFF" stroke-opacity="param(outline-opacity)" stroke-width="param(outline-width) 0"
         d="m 175.60568,244.38986 c -0.0146,-13.54298 12.05529,-35.58331 24.23189,-50.14894 12.17659,-14.56563 24.32461,-28.60807 46.99819,-34.47437 22.67355,-5.86633 23.35718,26.4064 24.78436,44.73729 0.12204,23.74824 2.11104,75.63915 -29.00562,93.89155 -26.01639,-0.0139 -66.64518,-30.46874 -67.00882,-54.00553 z"
         id="path854-6-2"
         inkscape:connector-curvature="0"
         sodipodi:nodetypes="czzccc" /></g></g></svg>