<?xml version="1.0" encoding="UTF-8" standalone="no"?>
<!-- Generator: Adobe Illustrator 16.0.0, SVG Export Plug-In . SVG Version: 6.00 Build 0)  -->

<svg
   xmlns:dc="http://purl.org/dc/elements/1.1/"
   xmlns:cc="http://creativecommons.org/ns#"
   xmlns:rdf="http://www.w3.org/1999/02/22-rdf-syntax-ns#"
   xmlns:svg="http://www.w3.org/2000/svg"
   xmlns="http://www.w3.org/2000/svg"
   xmlns:xlink="http://www.w3.org/1999/xlink"
   xmlns:sodipodi="http://sodipodi.sourceforge.net/DTD/sodipodi-0.dtd"
   xmlns:inkscape="http://www.inkscape.org/namespaces/inkscape"
   version="1.1"
   id="svg2"
   inkscape:output_extension="org.inkscape.output.svg.inkscape"
   sodipodi:docname="hare.svg"
   inkscape:version="0.91 r13725"
   sodipodi:version="0.32"
   x="0px"
   y="0px"
   width="580px"
   height="580px"
   viewBox="0 0 580 580"
   enable-background="new 0 0 580 580"
   xml:space="preserve"><metadata
     id="metadata75"><rdf:RDF><cc:Work
         rdf:about=""><dc:format>image/svg+xml</dc:format><dc:type
           rdf:resource="http://purl.org/dc/dcmitype/StillImage" /><dc:title /></cc:Work></rdf:RDF></metadata><sodipodi:namedview
     showgrid="false"
     inkscape:cy="206.70329"
     inkscape:cx="338.76728"
     inkscape:zoom="0.46083858"
     pagecolor="#ffffff"
     bordercolor="#666666"
     guidetolerance="10.0"
     objecttolerance="10.0"
     gridtolerance="10.0"
     borderopacity="1.0"
     id="base"
     inkscape:current-layer="svg2"
     inkscape:window-y="-8"
     inkscape:window-x="-8"
     inkscape:pageopacity="0.0"
     inkscape:pageshadow="2"
     inkscape:window-height="705"
     inkscape:window-width="1366"
     inkscape:window-maximized="1" /><defs
     id="defs4"><linearGradient
       inkscape:collect="always"
       id="linearGradient4183"><stop
         style="stop-color:#000000;stop-opacity:1;"
         offset="0"
         id="stop4185" /><stop
         style="stop-color:#000000;stop-opacity:0;"
         offset="1"
         id="stop4187" /></linearGradient><inkscape:perspective
       inkscape:vp_z="580 : 290 : 1"
       inkscape:vp_y="0 : 1000 : 0"
       inkscape:vp_x="0 : 290 : 1"
       sodipodi:type="inkscape:persp3d"
       id="perspective3653"
       inkscape:persp3d-origin="290 : 193.33333 : 1" /><linearGradient
       inkscape:collect="always"
       xlink:href="#linearGradient4183"
       id="linearGradient4189"
       x1="-194.85007"
       y1="609.95111"
       x2="-195.08208"
       y2="684.80701"
       gradientUnits="userSpaceOnUse"
       gradientTransform="matrix(0.53481858,0,0,0.84016368,307.61954,-337.53334)" /><linearGradient
       inkscape:collect="always"
       xlink:href="#linearGradient4183"
       id="linearGradient4189-8"
       x1="-194.85007"
       y1="609.95111"
       x2="-195.08208"
       y2="684.80701"
       gradientUnits="userSpaceOnUse"
       gradientTransform="matrix(0.53481858,0,0,0.84016368,475.05107,-404.75803)" /></defs><g
     id="g4159"
     transform="matrix(1.1569731,0,0,1.1569731,-45.5222,2.1788591)"><path
       sodipodi:nodetypes="sscass"
       inkscape:connector-curvature="0"
       id="path4319-5-9"
       d="m 242.78526,212.52623 c 6.51282,-25.63025 6.15836,-67.02254 -6.15092,-100.74972 -4.31024,-11.810019 -20.07583,-37.367425 -29.46977,-37.0917 -8.44325,0.03739 -22.8918,17.676514 -28.79267,31.87834 -13.04507,31.39608 -15.96105,75.15995 -9.41952,105.39055 8.24482,38.10221 64.37489,37.79319 73.83288,0.57253 z"
       style="opacity:1;fill:url(#linearGradient4189);fill-opacity:1;fill-rule:evenodd;stroke:none;stroke-width:0.97023773;stroke-linecap:butt;stroke-linejoin:miter;stroke-miterlimit:4;stroke-dasharray:none;stroke-opacity:1" /><path
       sodipodi:nodetypes="sscass"
       inkscape:connector-curvature="0"
       id="path4319-5-9-2-6"
       d="m 320.35345,326.09385 c 7.19913,-14.98179 12.40751,-44.31835 3.11205,-65.7749 -3.25492,-7.51327 -12.26631,-21.09668 -23.36475,-21.85813 -9.50128,0.10763 -21.75436,7.82582 -27.55456,16.90783 -11.71333,18.34084 -11.86847,45.98806 -7.57426,64.84544 5.41236,23.7676 44.92685,27.63652 55.38152,5.87976 z"
       style="opacity:1;fill:#000000;fill-opacity:1;fill-rule:evenodd;stroke:none;stroke-width:0.97023773;stroke-linecap:butt;stroke-linejoin:miter;stroke-miterlimit:4;stroke-dasharray:none;stroke-opacity:1" /><path
       sodipodi:nodetypes="sscass"
       inkscape:connector-curvature="0"
       id="path4319-5-9-0"
       d="M 410.21679,145.30154 C 416.7296,119.67129 416.37515,78.278998 404.06587,44.551816 399.75563,32.741799 383.99004,7.184393 374.59609,7.4601178 366.15284,7.4975038 351.7043,25.136632 345.80343,39.33846 c -13.04508,31.396079 -15.96106,75.15995 -9.41952,105.39055 8.24482,38.10221 64.37488,37.79319 73.83288,0.57253 z"
       style="opacity:1;fill:url(#linearGradient4189-8);fill-opacity:1;fill-rule:evenodd;stroke:none;stroke-width:0.97023773;stroke-linecap:butt;stroke-linejoin:miter;stroke-miterlimit:4;stroke-dasharray:none;stroke-opacity:1" /><path
       sodipodi:nodetypes="sscass"
       inkscape:connector-curvature="0"
       id="path4319-5-9-2-6-0"
       d="m 367.26974,475.75712 c 7.19913,-14.98179 12.40751,-44.31834 3.11205,-65.77489 -3.25492,-7.51327 -12.26631,-21.09668 -23.36475,-21.85813 -9.50128,0.10762 -21.75436,7.82582 -27.55456,16.90783 -11.71333,18.34083 -11.86848,45.98805 -7.57427,64.84543 5.41237,23.76761 44.92686,27.63653 55.38153,5.87976 z"
       style="opacity:1;fill:#000000;fill-opacity:1;fill-rule:evenodd;stroke:none;stroke-width:0.97023773;stroke-linecap:butt;stroke-linejoin:miter;stroke-miterlimit:4;stroke-dasharray:none;stroke-opacity:1" /></g></svg>