<?xml version="1.0" encoding="UTF-8" standalone="no"?>
<svg
   xmlns:dc="http://purl.org/dc/elements/1.1/"
   xmlns:cc="http://creativecommons.org/ns#"
   xmlns:rdf="http://www.w3.org/1999/02/22-rdf-syntax-ns#"
   xmlns:svg="http://www.w3.org/2000/svg"
   xmlns="http://www.w3.org/2000/svg"
   xmlns:sodipodi="http://sodipodi.sourceforge.net/DTD/sodipodi-0.dtd"
   xmlns:inkscape="http://www.inkscape.org/namespaces/inkscape"
   version="1.1"
   id="svg2"
   inkscape:output_extension="org.inkscape.output.svg.inkscape"
   sodipodi:docname="herbivore_scat.svg"
   inkscape:version="0.91 r13725"
   sodipodi:version="0.32"
   x="0px"
   y="0px"
   width="580px"
   height="580px"
   viewBox="0 0 580 580"
   enable-background="new 0 0 580 580"
   xml:space="preserve"><metadata
     id="metadata75"><rdf:RDF><cc:Work
         rdf:about=""><dc:format>image/svg+xml</dc:format><dc:type
           rdf:resource="http://purl.org/dc/dcmitype/StillImage" /><dc:title /></cc:Work></rdf:RDF></metadata><sodipodi:namedview
     showgrid="false"
     inkscape:cy="274.56724"
     inkscape:cx="217.15604"
     inkscape:zoom="0.46083856"
     pagecolor="#ffffff"
     bordercolor="#666666"
     guidetolerance="10.0"
     objecttolerance="10.0"
     gridtolerance="10.0"
     borderopacity="1.0"
     id="base"
     inkscape:current-layer="svg2"
     inkscape:window-y="1"
     inkscape:window-x="160"
     inkscape:pageopacity="0.0"
     inkscape:pageshadow="2"
     inkscape:window-height="768"
     inkscape:window-width="1280"
     inkscape:window-maximized="0" /><defs
     id="defs4"><inkscape:perspective
       inkscape:vp_z="580 : 290 : 1"
       inkscape:vp_y="0 : 1000 : 0"
       inkscape:vp_x="0 : 290 : 1"
       sodipodi:type="inkscape:persp3d"
       id="perspective3653"
       inkscape:persp3d-origin="290 : 193.33333 : 1" /></defs><g
     id="g3377"
     transform="matrix(0.96674512,0,0,0.96674512,0.30186103,14.421506)"
     fill="param(fill) #000" fill-opacity="param(fill-opacity)" stroke="param(outline) #FFF" stroke-opacity="param(outline-opacity)" stroke-width="param(outline-width) 0"><path
       sodipodi:nodetypes="ccassacc"
       inkscape:connector-curvature="0"
       id="path3468-1-8-2-9"
       d="m 398.05702,460.23958 c -33.56231,45.56243 -61.90966,70.98556 -101.79799,106.25731 -33.59198,18.64782 -63.63594,6.9838 -84.82115,-12.17492 -21.95668,-19.85617 -32.20471,-66.27381 -21.36384,-86.20243 26.56361,-48.83161 66.68458,-77.63802 104.84098,-103.84706 16.30968,-11.2024 50.26262,-8.52075 68.64591,5.21465 25.92519,19.37042 53.48896,62.3492 34.49625,90.75227 z"
       fill="param(fill) #000" fill-opacity="param(fill-opacity)" stroke="param(outline) #FFF" stroke-opacity="param(outline-opacity)" stroke-width="param(outline-width) 0" /><path
       sodipodi:nodetypes="ccassacc"
       inkscape:connector-curvature="0"
       id="path3468-1-8-2-9-4"
       d="m 180.4353,275.06447 c 5.05023,56.36365 0.66273,94.18767 -5.84355,147.03508 -12.80487,36.22428 -43.03596,47.39414 -71.59768,47.08101 -29.601636,-0.32437 -68.03243,-28.30115 -73.116775,-50.41041 -12.458226,-54.17518 -1.494054,-102.3342 9.71972,-147.24597 4.793542,-19.19691 32.001049,-39.68456 54.870799,-41.57709 32.252226,-2.66887 81.373926,11.25926 85.967456,45.11718 z"
       fill="param(fill) #000" fill-opacity="param(fill-opacity)" stroke="param(outline) #FFF" stroke-opacity="param(outline-opacity)" stroke-width="param(outline-width) 0" /><path
       inkscape:transform-center-y="1.5006145"
       inkscape:transform-center-x="-2.313867"
       sodipodi:nodetypes="ccassacc"
       inkscape:connector-curvature="0"
       id="path3468-1-8-2-9-4-2"
       d="M 229.44545,150.22571 C 179.89975,177.5678 143.51661,188.79994 92.530272,204.14848 54.217862,207.03226 31.809326,183.86883 20.582492,157.60412 8.94678,130.38332 19.058172,83.935794 37.24211,70.370414 81.798622,37.130876 130.29129,27.751789 175.91284,19.909946 c 19.5004,-3.35161 49.21736,13.288843 60.16813,33.455221 15.44332,28.440007 22.49824,79.008373 -6.6353,96.860463 z"
       fill="param(fill) #000" fill-opacity="param(fill-opacity)" stroke="param(outline) #FFF" stroke-opacity="param(outline-opacity)" stroke-width="param(outline-width) 0" /><path
       inkscape:transform-center-y="-0.41216742"
       inkscape:transform-center-x="0.50539023"
       sodipodi:nodetypes="ccassacc"
       inkscape:connector-curvature="0"
       id="path3468-1-8-2-9-4-2-0"
       d="m 193.67179,253.93913 c 22.47489,-51.93505 44.38946,-83.07418 75.33964,-126.40164 28.54703,-25.71435 60.44283,-21.09428 85.38905,-7.18158 25.85446,14.41896 46.26339,57.35019 40.17405,79.20416 -14.9206,53.54928 -47.54899,90.62883 -78.84611,124.73621 -13.3778,14.57853 -47.06599,19.58909 -68.06397,10.33223 -29.6126,-13.05466 -66.1229,-48.74681 -53.99276,-80.68923 z"
       fill="param(fill) #000" fill-opacity="param(fill-opacity)" stroke="param(outline) #FFF" stroke-opacity="param(outline-opacity)" stroke-width="param(outline-width) 0" /><path
       inkscape:transform-center-y="3.6671653"
       inkscape:transform-center-x="0.98597135"
       sodipodi:nodetypes="ccassacc"
       inkscape:connector-curvature="0"
       id="path3468-1-8-2-9-4-2-0-9"
       d="m 480.54452,444.80699 c -45.47104,-33.68612 -70.81727,-62.10204 -105.98029,-102.0863 -18.55651,-33.6425 -6.81092,-63.65465 12.40535,-84.78777 19.91575,-21.90266 66.36101,-32.02452 86.26009,-21.1295 48.75934,26.69608 77.45654,66.89524 103.56177,105.12271 11.15811,16.33999 8.38419,50.28562 -5.40109,68.6315 -19.44093,25.87235 -62.49433,53.31927 -90.84571,34.24948 z"
       fill="param(fill) #000" fill-opacity="param(fill-opacity)" stroke="param(outline) #FFF" stroke-opacity="param(outline-opacity)" stroke-width="param(outline-width) 0" /><path
       inkscape:transform-center-y="3.6302642"
       inkscape:transform-center-x="0.93620445"
       sodipodi:nodetypes="ccassacc"
       inkscape:connector-curvature="0"
       id="path3468-1-8-2-9-4-2-1"
       d="m 484.94886,204.81238 c -47.32331,-31.03015 -74.25331,-57.94984 -111.6458,-95.85744 -20.45031,-32.526012 -10.44059,-63.160831 7.5355,-85.358508 18.63036,-23.00590555 64.42066,-35.767687 84.91036,-26.0287336 50.20638,23.8635606 81.15593,62.3555216 109.4049,99.0272506 12.07442,15.675061 11.24661,49.723801 -1.4667,68.828101 -17.92928,26.94199 -59.34237,56.80651 -88.73808,39.38948 z"
       fill="param(fill) #000" fill-opacity="param(fill-opacity)" stroke="param(outline) #FFF" stroke-opacity="param(outline-opacity)" stroke-width="param(outline-width) 0" /></g></svg>