<?xml version="1.0" encoding="UTF-8" standalone="no"?>
<svg
   xmlns:dc="http://purl.org/dc/elements/1.1/"
   xmlns:cc="http://creativecommons.org/ns#"
   xmlns:rdf="http://www.w3.org/1999/02/22-rdf-syntax-ns#"
   xmlns:svg="http://www.w3.org/2000/svg"
   xmlns="http://www.w3.org/2000/svg"
   xmlns:sodipodi="http://sodipodi.sourceforge.net/DTD/sodipodi-0.dtd"
   xmlns:inkscape="http://www.inkscape.org/namespaces/inkscape"
   version="1.1"
   id="svg2"
   inkscape:output_extension="org.inkscape.output.svg.inkscape"
   sodipodi:docname="lynx.svg"
   inkscape:version="0.92.2 (5c3e80d, 2017-08-06)"
   sodipodi:version="0.32"
   x="0px"
   y="0px"
   width="580px"
   height="580px"
   viewBox="0 0 580 580"
   enable-background="new 0 0 580 580"
   xml:space="preserve"><metadata
     id="metadata75"><rdf:RDF><cc:Work
         rdf:about=""><dc:format>image/svg+xml</dc:format><dc:type
           rdf:resource="http://purl.org/dc/dcmitype/StillImage" /><dc:title /></cc:Work></rdf:RDF></metadata><sodipodi:namedview
     showgrid="false"
     inkscape:cy="92.895086"
     inkscape:cx="1001.2614"
     inkscape:zoom="0.46083856"
     pagecolor="#ffffff"
     bordercolor="#666666"
     guidetolerance="10.0"
     objecttolerance="10.0"
     gridtolerance="10.0"
     borderopacity="1.0"
     id="base"
     inkscape:current-layer="svg2"
     inkscape:window-y="-8"
     inkscape:window-x="-8"
     inkscape:pageopacity="0.0"
     inkscape:pageshadow="2"
     inkscape:window-height="1017"
     inkscape:window-width="1920"
     inkscape:window-maximized="1" /><defs
     id="defs4"><inkscape:perspective
       inkscape:vp_z="580 : 290 : 1"
       inkscape:vp_y="0 : 1000 : 0"
       inkscape:vp_x="0 : 290 : 1"
       sodipodi:type="inkscape:persp3d"
       id="perspective3653"
       inkscape:persp3d-origin="290 : 193.33333 : 1" /></defs><g
     id="g4539"
     transform="translate(-1.084982,1.2102886)"><path
       sodipodi:nodetypes="zsszz"
       inkscape:connector-curvature="0"
       id="path4140"
       d="m 189.51396,321.80814 c 0.49797,40.59864 -21.91053,71.71935 -48.94423,71.73214 -27.0337,0.0131 -48.95837,-32.07829 -48.975829,-71.68581 -0.01746,-39.6075 23.287549,-72.13385 48.912599,-71.77842 25.62504,0.35544 48.50947,31.13345 49.00746,71.73209 z"
       fill="param(fill) #000"
       fill-opacity="param(fill-opacity)"
       stroke="param(outline) #FFF"
       stroke-opacity="param(outline-opacity)"
       stroke-width="param(outline-width) 0" /><path
       sodipodi:nodetypes="zsszz"
       inkscape:connector-curvature="0"
       id="path4140-2"
       d="m 268.69414,167.56867 c 0.49797,40.59865 -21.91053,71.71936 -48.94423,71.73215 -27.03371,0.0131 -48.95837,-32.07829 -48.97583,-71.68582 -0.0175,-39.6075 23.28754,-72.133849 48.9126,-71.778419 25.62504,0.35544 48.50947,31.133449 49.00746,71.732089 z"
       fill="param(fill) #000"
       fill-opacity="param(fill-opacity)"
       stroke="param(outline) #FFF"
       stroke-opacity="param(outline-opacity)"
       stroke-width="param(outline-width) 0" /><path
       sodipodi:nodetypes="zsszz"
       inkscape:connector-curvature="0"
       id="path4140-2-8"
       d="m 388.79415,112.22152 c 0.49797,40.59865 -21.91053,71.71936 -48.94423,71.73215 -27.03371,0.0131 -48.95837,-32.07829 -48.97583,-71.68582 -0.0175,-39.60749 23.28754,-72.133839 48.9126,-71.778409 25.62504,0.35544 48.50947,31.133449 49.00746,71.732079 z"
       fill="param(fill) #000"
       fill-opacity="param(fill-opacity)"
       stroke="param(outline) #FFF"
       stroke-opacity="param(outline-opacity)"
       stroke-width="param(outline-width) 0" /><path
       sodipodi:nodetypes="zsszz"
       inkscape:connector-curvature="0"
       id="path4140-2-8-6"
       d="m 490.56793,252.11441 c 0.49797,40.59865 -21.91053,71.71936 -48.94423,71.73215 -27.03371,0.0131 -48.95837,-32.07829 -48.97583,-71.68582 -0.0175,-39.60749 23.28754,-72.13384 48.9126,-71.77841 25.62504,0.35544 48.50947,31.13345 49.00746,71.73208 z"
       fill="param(fill) #000"
       fill-opacity="param(fill-opacity)"
       stroke="param(outline) #FFF"
       stroke-opacity="param(outline-opacity)"
       stroke-width="param(outline-width) 0" /><path
       fill="param(fill) #000" fill-opacity="param(fill-opacity)" stroke="param(outline) #FFF" stroke-opacity="param(outline-opacity)" stroke-width="param(outline-width) 0"
       sodipodi:nodetypes="zzzzzzzcczccazzz"
       inkscape:connector-curvature="0"
       id="path4188"
       d="m 241.88943,353.40931 c 19.38603,-31.24611 25.61409,-63.59459 50.40675,-68.83892 24.79265,-5.24432 38.59354,-1.19928 63.98439,15.67377 25.39084,16.87304 78.4147,73.76974 87.79407,92.15787 9.37937,18.38813 10.04487,35.75585 8.0847,53.17813 -1.96017,17.42228 -8.87829,33.03681 -20.07331,40.59921 -11.19503,7.56239 -25.16627,10.19347 -33.4544,5.06062 -8.28813,-5.13284 -4.60108,-15.41546 -9.73161,-18.58745 -6.10669,3.44244 -6.74301,17.44759 -7.66155,21.65835 -4.81842,19.96775 -62.60375,29.00169 -79.64509,20.01785 -17.04134,-8.98383 -12.62429,-14.66109 -17.58663,-16.91846 -6.1919,-2.98449 -5.45726,8.84773 -6.71039,13.6619 -2.40138,7.88841 -7.95283,17.69539 -16.07153,21.37963 -13.34891,6.0577 -30.54079,7.34608 -43.85635,-3.25921 -13.31557,-10.60527 -24.3412,-21.39107 -27.02378,-54.58712 -2.68257,-33.19605 32.1587,-89.95005 51.54473,-121.19617 z"
       fill-opacity="param(fill-opacity)"
       stroke="param(outline) #FFF"
       stroke-opacity="param(outline-opacity)"
       stroke-width="param(outline-width) 0" /></g></svg>