<?xml version="1.0" encoding="UTF-8" standalone="no"?>
<!-- Generator: Adobe Illustrator 16.0.0, SVG Export Plug-In . SVG Version: 6.00 Build 0)  -->

<svg
   xmlns:dc="http://purl.org/dc/elements/1.1/"
   xmlns:cc="http://creativecommons.org/ns#"
   xmlns:rdf="http://www.w3.org/1999/02/22-rdf-syntax-ns#"
   xmlns:svg="http://www.w3.org/2000/svg"
   xmlns="http://www.w3.org/2000/svg"
   xmlns:xlink="http://www.w3.org/1999/xlink"
   xmlns:sodipodi="http://sodipodi.sourceforge.net/DTD/sodipodi-0.dtd"
   xmlns:inkscape="http://www.inkscape.org/namespaces/inkscape"
   version="1.1"
   id="svg2"
   inkscape:output_extension="org.inkscape.output.svg.inkscape"
   sodipodi:docname="moose.svg"
   inkscape:version="0.91 r13725"
   sodipodi:version="0.32"
   x="0px"
   y="0px"
   width="580px"
   height="580px"
   viewBox="0 0 580 580"
   enable-background="new 0 0 580 580"
   xml:space="preserve"><metadata
     id="metadata75"><rdf:RDF><cc:Work
         rdf:about=""><dc:format>image/svg+xml</dc:format><dc:type
           rdf:resource="http://purl.org/dc/dcmitype/StillImage" /><dc:title /></cc:Work></rdf:RDF></metadata><sodipodi:namedview
     showgrid="false"
     inkscape:cy="354.69408"
     inkscape:cx="395.63992"
     inkscape:zoom="0.65172416"
     pagecolor="#ffffff"
     bordercolor="#666666"
     guidetolerance="10.0"
     objecttolerance="10.0"
     gridtolerance="10.0"
     borderopacity="1.0"
     id="base"
     inkscape:current-layer="svg2"
     inkscape:window-y="-8"
     inkscape:window-x="-8"
     inkscape:pageopacity="0.0"
     inkscape:pageshadow="2"
     inkscape:window-height="705"
     inkscape:window-width="1366"
     inkscape:window-maximized="1" /><defs
     id="defs4"><linearGradient
       inkscape:collect="always"
       id="linearGradient4209"><stop
         style="stop-color:#000000;stop-opacity:1;"
         offset="0"
         id="stop4211" /><stop
         style="stop-color:#000000;stop-opacity:0;"
         offset="1"
         id="stop4213" /></linearGradient><inkscape:perspective
       inkscape:vp_z="580 : 290 : 1"
       inkscape:vp_y="0 : 1000 : 0"
       inkscape:vp_x="0 : 290 : 1"
       sodipodi:type="inkscape:persp3d"
       id="perspective3653"
       inkscape:persp3d-origin="290 : 193.33333 : 1" /><linearGradient
       inkscape:collect="always"
       xlink:href="#linearGradient4209"
       id="linearGradient4215"
       x1="59.657295"
       y1="727.0965"
       x2="77.554878"
       y2="702.54626"
       gradientUnits="userSpaceOnUse"
       gradientTransform="matrix(0.74377512,0.32282433,-0.32282433,0.74377512,373.64318,-26.375474)" /><linearGradient
       inkscape:collect="always"
       xlink:href="#linearGradient4209"
       id="linearGradient4215-5"
       x1="59.657295"
       y1="727.0965"
       x2="77.554878"
       y2="702.54626"
       gradientUnits="userSpaceOnUse"
       gradientTransform="matrix(-0.74377512,0.32282433,0.32282433,0.74377512,202.68068,-22.282664)" /></defs><g
     id="g4326"
     transform="translate(0,-2.0464035)"><path
       sodipodi:nodetypes="sacaaasas"
       inkscape:connector-curvature="0"
       id="path4319-5-9"
       d="m 241.37735,19.854431 c 11.96805,0.01346 7.50042,132.858469 14.06371,199.028239 5.08257,51.24147 13.40454,89.92151 19.59127,153.18882 1.8325,18.22269 -3.31403,35.38849 -12.16844,49.83209 -8.57806,13.99279 -21.38784,28.55176 -37.07747,31.43511 -17.99414,3.30688 -38.54637,-5.59871 -51.78913,-18.72008 C 140.41555,401.3447 122.8121,331.79245 121.86753,300.31212 119.7298,229.07137 120.13714,192.82459 140.13825,145.02094 161.06694,95.000323 190.23494,19.796896 241.37735,19.854431 Z"
       style="fill:#000000;fill-opacity:1;fill-rule:evenodd;stroke:none;stroke-width:0.97023773;stroke-linecap:butt;stroke-linejoin:miter;stroke-miterlimit:4;stroke-dasharray:none;stroke-opacity:1" /><path
       sodipodi:nodetypes="aasa"
       inkscape:connector-curvature="0"
       id="path4328-8-9"
       d="m 212.90585,542.29138 c -5.21966,16.6383 -38.3173,25.26291 -50.68118,12.96606 -13.53614,-13.46273 -2.67725,-41.78512 13.89352,-55.56273 14.67988,-12.20546 42.40342,24.69578 36.78766,42.59667 z"
       style="fill:url(#linearGradient4215);fill-opacity:1;fill-rule:evenodd;stroke:none;stroke-width:8.09399986;stroke-linecap:butt;stroke-linejoin:miter;stroke-miterlimit:4;stroke-dasharray:none;stroke-opacity:1" /><path
       sodipodi:nodetypes="aasa"
       inkscape:connector-curvature="0"
       id="path4328-8-9-8"
       d="m 363.418,546.38418 c 5.21966,16.6383 38.31731,25.26292 50.68119,12.96607 13.53613,-13.46273 2.67725,-41.78512 -13.89353,-55.56275 -14.67988,-12.20545 -42.40341,24.6958 -36.78766,42.59668 z"
       style="fill:url(#linearGradient4215-5);fill-opacity:1;fill-rule:evenodd;stroke:none;stroke-width:8.09399986;stroke-linecap:butt;stroke-linejoin:miter;stroke-miterlimit:4;stroke-dasharray:none;stroke-opacity:1" /><path
       sodipodi:nodetypes="sacaaasas"
       inkscape:connector-curvature="0"
       id="path4319-5-9-6"
       d="m 338.62265,18.939384 c -11.96805,0.01369 -7.50042,135.104156 -14.06371,202.392376 -5.08257,52.1076 -13.40454,91.44144 -19.59127,155.77814 -1.8325,18.5307 3.31403,35.98665 12.16844,50.67438 8.57806,14.22931 21.38784,29.03438 37.07747,31.96646 17.99414,3.36278 38.54637,-5.69334 51.78913,-19.0365 33.58174,-33.83633 51.18519,-104.56421 52.12976,-136.57665 2.13773,-72.44491 1.73039,-109.30437 -18.27072,-157.91602 C 418.93306,95.355449 389.76506,18.880877 338.62265,18.939384 Z"
       style="fill:#000000;fill-opacity:1;fill-rule:evenodd;stroke:none;stroke-width:0.97023773;stroke-linecap:butt;stroke-linejoin:miter;stroke-miterlimit:4;stroke-dasharray:none;stroke-opacity:1" /></g></svg>