<?xml version="1.0" encoding="UTF-8" standalone="no"?>
<!-- Generator: Adobe Illustrator 16.0.0, SVG Export Plug-In . SVG Version: 6.00 Build 0)  -->

<svg
   xmlns:dc="http://purl.org/dc/elements/1.1/"
   xmlns:cc="http://creativecommons.org/ns#"
   xmlns:rdf="http://www.w3.org/1999/02/22-rdf-syntax-ns#"
   xmlns:svg="http://www.w3.org/2000/svg"
   xmlns="http://www.w3.org/2000/svg"
   xmlns:sodipodi="http://sodipodi.sourceforge.net/DTD/sodipodi-0.dtd"
   xmlns:inkscape="http://www.inkscape.org/namespaces/inkscape"
   version="1.1"
   id="svg2"
   inkscape:output_extension="org.inkscape.output.svg.inkscape"
   sodipodi:docname="nest.svg"
   inkscape:version="0.91 r13725"
   sodipodi:version="0.32"
   x="0px"
   y="0px"
   width="580px"
   height="580px"
   viewBox="0 0 580 580"
   enable-background="new 0 0 580 580"
   xml:space="preserve"><metadata
     id="metadata75"><rdf:RDF><cc:Work
         rdf:about=""><dc:format>image/svg+xml</dc:format><dc:type
           rdf:resource="http://purl.org/dc/dcmitype/StillImage" /><dc:title /></cc:Work></rdf:RDF></metadata><sodipodi:namedview
     showgrid="false"
     inkscape:cy="184.51637"
     inkscape:cx="324.40141"
     inkscape:zoom="0.38648909"
     pagecolor="#ffffff"
     bordercolor="#666666"
     guidetolerance="10.0"
     objecttolerance="10.0"
     gridtolerance="10.0"
     borderopacity="1.0"
     id="base"
     inkscape:current-layer="svg2"
     inkscape:window-y="-8"
     inkscape:window-x="-8"
     inkscape:pageopacity="0.0"
     inkscape:pageshadow="2"
     inkscape:window-height="705"
     inkscape:window-width="1366"
     inkscape:window-maximized="1" /><defs
     id="defs4"><inkscape:perspective
       inkscape:vp_z="580 : 290 : 1"
       inkscape:vp_y="0 : 1000 : 0"
       inkscape:vp_x="0 : 290 : 1"
       sodipodi:type="inkscape:persp3d"
       id="perspective3653"
       inkscape:persp3d-origin="290 : 193.33333 : 1" /></defs><g
     id="g4170"><g
       transform="translate(2.027019,-8.6057)"
       id="g4379"><path
         style="opacity:1;fill:#000000;fill-opacity:1;stroke:#ffffff;stroke-width:6;stroke-linecap:butt;stroke-linejoin:round;stroke-miterlimit:4;stroke-dasharray:none;stroke-opacity:1"
         d="M 10.493011,288.77134 33.241653,249.34111 C 70.442995,400.79784 285.3129,463.49655 402.43285,462.72371 l -45.13927,34.87291 C 219.15808,496.60097 42.259862,410.87241 10.493011,288.77134 Z"
         id="rect4142-3-9-6-8-7"
         inkscape:connector-curvature="0"
         sodipodi:nodetypes="ccccc" /><path
         style="opacity:1;fill:#000000;fill-opacity:1;stroke:#ffffff;stroke-width:6;stroke-linecap:butt;stroke-linejoin:round;stroke-miterlimit:4;stroke-dasharray:none;stroke-opacity:1"
         d="m 361.55026,107.13918 -44.04219,11.51215 C 453.73615,194.57887 457.38393,418.37989 425.668,531.12642 l 45.56796,-34.31085 C 506.80359,363.33391 470.90471,170.06302 361.55026,107.13918 Z"
         id="rect4142-3-9-6-8"
         inkscape:connector-curvature="0"
         sodipodi:nodetypes="ccccc" /><path
         style="opacity:1;fill:#000000;fill-opacity:1;stroke:#ffffff;stroke-width:6;stroke-linecap:butt;stroke-linejoin:round;stroke-miterlimit:4;stroke-dasharray:none;stroke-opacity:1"
         d="m 183.40347,90.455768 -21.2009,40.283552 c 147.93335,-49.384223 315.64407,98.84977 377.50547,198.30252 l 5.39569,-56.78521 C 470.52941,155.97645 303.61202,52.145084 183.40347,90.455768 Z"
         id="rect4142-3-9-6"
         inkscape:connector-curvature="0"
         sodipodi:nodetypes="ccccc" /><path
         style="opacity:1;fill:#000000;fill-opacity:1;stroke:#ffffff;stroke-width:6;stroke-linecap:butt;stroke-linejoin:round;stroke-miterlimit:4;stroke-dasharray:none;stroke-opacity:1"
         d="m 511.53867,104.6956 10.20576,44.3631 C 391.3369,63.519519 191.3211,163.98783 106.10455,244.33597 l 9.29077,-56.27926 C 217.20196,94.687451 405.10683,36.945564 511.53867,104.6956 Z"
         id="rect4142-3-9"
         inkscape:connector-curvature="0"
         sodipodi:nodetypes="ccccc" /><path
         style="opacity:1;fill:#000000;fill-opacity:1;stroke:#ffffff;stroke-width:6;stroke-linecap:butt;stroke-linejoin:round;stroke-miterlimit:4;stroke-dasharray:none;stroke-opacity:1"
         d="M 220.39883,79.750225 261.0762,100.18532 C 112.01888,146.06566 61.825456,364.19598 69.356394,481.07612 L 31.936462,438.02473 C 24.958236,300.06197 100.33456,118.51092 220.39883,79.750225 Z"
         id="rect4142-3-7-3-7-7-9-0-3-3"
         inkscape:connector-curvature="0"
         sodipodi:nodetypes="ccccc" /><path
         style="opacity:1;fill:#000000;fill-opacity:1;stroke:#ffffff;stroke-width:6;stroke-linecap:butt;stroke-linejoin:round;stroke-miterlimit:4;stroke-dasharray:none;stroke-opacity:1"
         d="m 90.171331,160.13658 44.998429,-6.88351 c -94.986134,123.69608 -9.64675,330.61974 64.15208,421.56705 L 143.88779,561.37616 C 58.335637,452.91767 14.705459,261.24405 90.171331,160.13658 Z"
         id="rect4142-3-7-3-7-7-9-0-3"
         inkscape:connector-curvature="0"
         sodipodi:nodetypes="ccccc" /><path
         style="opacity:1;fill:#000000;fill-opacity:1;stroke:#ffffff;stroke-width:6;stroke-linecap:butt;stroke-linejoin:round;stroke-miterlimit:4;stroke-dasharray:none;stroke-opacity:1"
         d="m 497.49195,370.45156 -17.21002,-42.1433 C 422.94942,473.34643 201.57646,506.42544 85.635865,489.82841 l 40.011155,40.65438 c 137.00234,17.68546 323.86509,-43.3447 371.84493,-160.03123 z"
         id="rect4142-3-7-3-7-7-9-0"
         inkscape:connector-curvature="0"
         sodipodi:nodetypes="ccccc" /><path
         style="opacity:1;fill:#000000;fill-opacity:1;stroke:#ffffff;stroke-width:6;stroke-linecap:butt;stroke-linejoin:round;stroke-miterlimit:4;stroke-dasharray:none;stroke-opacity:1"
         d="m 460.77496,145.37682 -45.294,-4.54927 c 101.25053,118.62297 26.7168,329.67967 -42.28425,424.31864 l 54.66533,-16.29025 C 507.69592,436.1219 541.36414,242.44997 460.77496,145.37682 Z"
         id="rect4142-3-7-3-7-7-9"
         inkscape:connector-curvature="0"
         sodipodi:nodetypes="ccccc" /><path
         style="opacity:1;fill:#000000;fill-opacity:1;stroke:#ffffff;stroke-width:6;stroke-linecap:butt;stroke-linejoin:round;stroke-miterlimit:4;stroke-dasharray:none;stroke-opacity:1"
         d="m 253.17389,523.87416 37.2588,-26.15384 C 136.27481,474.08914 54.778722,265.6219 45.168078,148.89435 L 14.433159,196.94678 C 27.667967,334.45044 128.73778,503.05429 253.17389,523.87416 Z"
         id="rect4142-3-7-3-7-7-9-0-0"
         inkscape:connector-curvature="0"
         sodipodi:nodetypes="ccccc" /><path
         style="opacity:1;fill:#000000;fill-opacity:1;stroke:#ffffff;stroke-width:6;stroke-linecap:butt;stroke-linejoin:round;stroke-miterlimit:4;stroke-dasharray:none;stroke-opacity:1"
         d="m 271.36483,22.39147 35.43161,28.580467 C 151.4058,64.269468 56.188116,266.83747 38.814126,382.66418 L 11.352329,332.66896 C 33.728001,196.35411 145.81728,34.866163 271.36483,22.39147 Z"
         id="rect4142-3"
         inkscape:connector-curvature="0"
         sodipodi:nodetypes="ccccc" /><path
         style="opacity:1;fill:#000000;fill-opacity:1;stroke:#ffffff;stroke-width:6;stroke-linecap:butt;stroke-linejoin:round;stroke-miterlimit:4;stroke-dasharray:none;stroke-opacity:1"
         d="m 62.657147,106.72237 -2.940474,45.42682 C 174.67509,46.756407 388.24176,113.75999 485.26776,179.36212 L 467.0495,125.30875 C 351.55575,49.522177 156.81184,22.742024 62.657147,106.72237 Z"
         id="rect4142-3-7"
         inkscape:connector-curvature="0"
         sodipodi:nodetypes="ccccc" /><path
         style="opacity:1;fill:#000000;fill-opacity:1;stroke:#ffffff;stroke-width:6;stroke-linecap:butt;stroke-linejoin:round;stroke-miterlimit:4;stroke-dasharray:none;stroke-opacity:1"
         d="m 556.95482,388.52152 -40.43087,20.91857 C 566.94184,261.85584 419.88472,93.112212 320.86714,30.556618 L 377.6887,25.558316 C 493.44435,100.94425 596.10549,268.58391 556.95482,388.52152 Z"
         id="rect4142-3-7-3"
         inkscape:connector-curvature="0"
         sodipodi:nodetypes="ccccc" /><path
         style="opacity:1;fill:#000000;fill-opacity:1;stroke:#ffffff;stroke-width:6;stroke-linecap:butt;stroke-linejoin:round;stroke-miterlimit:4;stroke-dasharray:none;stroke-opacity:1"
         d="m 513.37052,477.19045 2.22736,-45.46734 C 402.30719,538.90657 187.71555,475.26199 89.672215,411.19026 l 19.064105,53.76087 c 116.6686,73.96519 311.80868,97.68662 404.6342,12.23932 z"
         id="rect4142-3-7-3-7-7"
         inkscape:connector-curvature="0"
         sodipodi:nodetypes="ccccc" /><path
         style="opacity:1;fill:#000000;fill-opacity:1;stroke:#ffffff;stroke-width:6;stroke-linecap:butt;stroke-linejoin:round;stroke-miterlimit:4;stroke-dasharray:none;stroke-opacity:1"
         d="m 321.36763,555.47987 -37.45762,-25.8683 c 153.97271,-24.80881 233.87297,-233.8929 242.5911,-350.69049 l 31.10132,47.81611 C 545.41905,364.33797 445.64094,533.70943 321.36763,555.47987 Z"
         id="rect4142-3-7-3-7"
         inkscape:connector-curvature="0"
         sodipodi:nodetypes="ccccc" /></g><ellipse
       transform="matrix(0.39295417,-0.91955806,0.91955806,0.39295417,0,0)"
       ry="80.494125"
       rx="64.582497"
       cy="367.11948"
       cx="-71.170784"
       id="path4395"
       style="opacity:1;fill:#000000;fill-opacity:1;stroke:none;stroke-width:6;stroke-linecap:butt;stroke-linejoin:round;stroke-miterlimit:4;stroke-dasharray:none;stroke-opacity:1" /><ellipse
       transform="matrix(-0.41000536,-0.91208311,0.91208311,-0.41000536,0,0)"
       ry="79.500267"
       rx="63.785099"
       cy="168.66382"
       cx="-464.08768"
       id="path4395-3"
       style="opacity:1;fill:#000000;fill-opacity:1;stroke:none;stroke-width:6;stroke-linecap:butt;stroke-linejoin:round;stroke-miterlimit:4;stroke-dasharray:none;stroke-opacity:1" /><ellipse
       transform="matrix(-0.98054975,0.19627072,-0.19627072,-0.98054975,0,0)"
       ry="81.037369"
       rx="65.018356"
       cy="-335.66156"
       cx="-128.92889"
       id="path4395-3-4"
       style="opacity:1;fill:#000000;fill-opacity:1;stroke:none;stroke-width:6;stroke-linecap:butt;stroke-linejoin:round;stroke-miterlimit:4;stroke-dasharray:none;stroke-opacity:1" /></g></svg>