<?xml version="1.0" encoding="UTF-8" standalone="no"?>
<!-- Generator: Adobe Illustrator 16.0.0, SVG Export Plug-In . SVG Version: 6.00 Build 0)  -->

<svg
   xmlns:dc="http://purl.org/dc/elements/1.1/"
   xmlns:cc="http://creativecommons.org/ns#"
   xmlns:rdf="http://www.w3.org/1999/02/22-rdf-syntax-ns#"
   xmlns:svg="http://www.w3.org/2000/svg"
   xmlns="http://www.w3.org/2000/svg"
   xmlns:sodipodi="http://sodipodi.sourceforge.net/DTD/sodipodi-0.dtd"
   xmlns:inkscape="http://www.inkscape.org/namespaces/inkscape"
   version="1.1"
   id="svg2"
   inkscape:output_extension="org.inkscape.output.svg.inkscape"
   sodipodi:docname="nest_small.svg"
   inkscape:version="0.91 r13725"
   sodipodi:version="0.32"
   x="0px"
   y="0px"
   width="580px"
   height="580px"
   viewBox="0 0 580 580"
   enable-background="new 0 0 580 580"
   xml:space="preserve"><metadata
     id="metadata75"><rdf:RDF><cc:Work
         rdf:about=""><dc:format>image/svg+xml</dc:format><dc:type
           rdf:resource="http://purl.org/dc/dcmitype/StillImage" /><dc:title /></cc:Work></rdf:RDF></metadata><sodipodi:namedview
     showgrid="false"
     inkscape:cy="273.49355"
     inkscape:cx="437.74939"
     inkscape:zoom="0.54657811"
     pagecolor="#ffffff"
     bordercolor="#666666"
     guidetolerance="10.0"
     objecttolerance="10.0"
     gridtolerance="10.0"
     borderopacity="1.0"
     id="base"
     inkscape:current-layer="svg2"
     inkscape:window-y="-8"
     inkscape:window-x="-8"
     inkscape:pageopacity="0.0"
     inkscape:pageshadow="2"
     inkscape:window-height="705"
     inkscape:window-width="1366"
     inkscape:window-maximized="1" /><defs
     id="defs4"><inkscape:perspective
       inkscape:vp_z="580 : 290 : 1"
       inkscape:vp_y="0 : 1000 : 0"
       inkscape:vp_x="0 : 290 : 1"
       sodipodi:type="inkscape:persp3d"
       id="perspective3653"
       inkscape:persp3d-origin="290 : 193.33333 : 1" /></defs><g
     id="g4165"
     transform="translate(-9.2389302,-8.6460424)"><path
       sodipodi:nodetypes="ccccc"
       inkscape:connector-curvature="0"
       id="rect4142-3-7-3-7-7-8-02-2"
       d="M 560.7869,214.01105 518.7632,258.9473 C 480.46074,145.84188 355.36181,66.309966 214.67142,107.40005 L 208.52275,59.875471 C 369.72768,-5.795486 535.40872,102.04477 560.7869,214.01105 Z"
       style="opacity:1;fill:#000000;fill-opacity:1;stroke:#ffffff;stroke-width:10.30307293;stroke-linecap:butt;stroke-linejoin:round;stroke-miterlimit:4;stroke-dasharray:none;stroke-opacity:1" /><path
       sodipodi:nodetypes="ccccc"
       inkscape:connector-curvature="0"
       id="rect4142-3-7-3-7-7-8-02"
       d="M 410.7234,534.41175 366.38726,496.02657 C 476.01241,458.95175 551.755,341.7924 509.81557,211.80085 l 46.19819,-6.34975 c 66.15821,148.69401 -36.5979,303.89388 -145.29036,328.96065 z"
       style="opacity:1;fill:#000000;fill-opacity:1;stroke:#ffffff;stroke-width:9.7952013;stroke-linecap:butt;stroke-linejoin:round;stroke-miterlimit:4;stroke-dasharray:none;stroke-opacity:1" /><ellipse
       transform="matrix(0.38347363,-0.92355183,0.91538386,0.40258215,0,0)"
       ry="69.05027"
       rx="56.512768"
       cy="397.25607"
       cx="-80.090477"
       id="path4395"
       style="opacity:1;fill:#000000;fill-opacity:1;stroke:#ffffff;stroke-width:5.02223635;stroke-linecap:butt;stroke-linejoin:round;stroke-miterlimit:4;stroke-dasharray:none;stroke-opacity:1" /><ellipse
       transform="matrix(-0.40026795,-0.91639815,0.90757846,-0.41988254,0,0)"
       ry="67.159637"
       rx="54.922146"
       cy="165.40871"
       cx="-495.75757"
       id="path4395-3"
       style="opacity:1;fill:#000000;fill-opacity:1;stroke:#ffffff;stroke-width:4.88280106;stroke-linecap:butt;stroke-linejoin:round;stroke-miterlimit:4;stroke-dasharray:none;stroke-opacity:1" /><ellipse
       transform="matrix(-0.97104421,0.23889984,-0.25591938,-0.96669813,0,0)"
       ry="68.167564"
       rx="56.480431"
       cy="-362.71957"
       cx="-126.60897"
       id="path4395-3-4"
       style="opacity:1;fill:#000000;fill-opacity:1;stroke:#ffffff;stroke-width:4.98860407;stroke-linecap:butt;stroke-linejoin:round;stroke-miterlimit:4;stroke-dasharray:none;stroke-opacity:1" /><path
       sodipodi:nodetypes="ccccc"
       inkscape:connector-curvature="0"
       id="rect4142-3-7-3-7-7-8"
       d="m 62.831479,447.6001 57.914681,-1.67716 C 57.310629,346.71936 68.804631,206.49478 180.2037,131.55174 L 147.8659,97.007583 C 6.1999103,171.09272 -7.1306279,358.39636 62.831479,447.6001 Z"
       style="opacity:1;fill:#000000;fill-opacity:1;stroke:#ffffff;stroke-width:9.7952013;stroke-linecap:butt;stroke-linejoin:round;stroke-miterlimit:4;stroke-dasharray:none;stroke-opacity:1" /><path
       sodipodi:nodetypes="ccccc"
       inkscape:connector-curvature="0"
       id="rect4142-3-7-3-7-7-8-0"
       d="m 75.035909,253.74731 32.475471,49.00527 C 170.64347,184.69286 313.74443,105.27992 446.26917,153.84375 L 462.79574,103.8725 C 314.99322,28.592744 124.92434,136.4165 75.035909,253.74731 Z"
       style="opacity:1;fill:#000000;fill-opacity:1;stroke:#ffffff;stroke-width:10.65786552;stroke-linecap:butt;stroke-linejoin:round;stroke-miterlimit:4;stroke-dasharray:none;stroke-opacity:1" /><path
       sodipodi:nodetypes="ccccc"
       inkscape:connector-curvature="0"
       id="rect4142-3-7-3-7-7-8-0-0"
       d="M 163.18919,72.691993 148.50517,130.10872 C 276.54536,101.24756 428.63574,159.75616 479.8558,294.3506 l 47.51283,-20.11042 C 485.74444,110.22317 282.01343,34.056219 163.18919,72.691993 Z"
       style="opacity:1;fill:#000000;fill-opacity:1;stroke:#ffffff;stroke-width:10.65786552;stroke-linecap:butt;stroke-linejoin:round;stroke-miterlimit:4;stroke-dasharray:none;stroke-opacity:1" /><path
       sodipodi:nodetypes="ccccc"
       inkscape:connector-curvature="0"
       id="rect4142-3-7-3-7-7-8-0-0-4"
       d="M 542.7594,177.16789 487.076,161.99322 C 514.09575,293.77155 456.01025,450.196 324.79042,502.74409 l 19.16264,48.91074 C 503.6906,509.01397 579.35288,299.4748 542.7594,177.16789 Z"
       style="opacity:1;fill:#000000;fill-opacity:1;stroke:#ffffff;stroke-width:10.65786552;stroke-linecap:butt;stroke-linejoin:round;stroke-miterlimit:4;stroke-dasharray:none;stroke-opacity:1" /><path
       sodipodi:nodetypes="ccccc"
       inkscape:connector-curvature="0"
       id="rect4142-3-7-3-7-7"
       d="m 485.1833,499.3633 -7.14816,-58.85988 C 369.48664,515.86527 206.94142,519.26239 110.58862,413.7755 L 73.713528,450.46547 C 171.80435,586.90021 388.74042,580.30075 485.1833,499.3633 Z"
       style="opacity:1;fill:#000000;fill-opacity:1;stroke:#ffffff;stroke-width:10.65786552;stroke-linecap:butt;stroke-linejoin:round;stroke-miterlimit:4;stroke-dasharray:none;stroke-opacity:1" /><path
       sodipodi:nodetypes="ccccc"
       inkscape:connector-curvature="0"
       id="rect4142-3-7-3-7-7-8-4-8"
       d="m 100.71748,514.98233 58.78229,-4.84123 C 92.189503,397.82859 99.806783,234.02836 210.79894,141.23483 L 176.94979,102.63719 C 35.187066,195.94186 27.066821,414.63559 100.71748,514.98233 Z"
       style="opacity:1;fill:#000000;fill-opacity:1;stroke:#ffffff;stroke-width:10.65786552;stroke-linecap:butt;stroke-linejoin:round;stroke-miterlimit:4;stroke-dasharray:none;stroke-opacity:1" /><path
       sodipodi:nodetypes="ccccc"
       inkscape:connector-curvature="0"
       id="rect4142-3-7-3-7-7-8-4"
       d="m 361.66477,541.22489 25.93319,-52.97418 C 256.66032,488.57711 119.85015,398.18065 96.95691,255.33178 l -50.484741,9.3185 C 54.052375,434.19372 237.76032,553.12344 361.66477,541.22489 Z"
       style="opacity:1;fill:#000000;fill-opacity:1;stroke:#ffffff;stroke-width:10.65786552;stroke-linecap:butt;stroke-linejoin:round;stroke-miterlimit:4;stroke-dasharray:none;stroke-opacity:1" /></g></svg>