<?xml version="1.0" encoding="UTF-8" standalone="no"?>
<svg
   xmlns:dc="http://purl.org/dc/elements/1.1/"
   xmlns:cc="http://creativecommons.org/ns#"
   xmlns:rdf="http://www.w3.org/1999/02/22-rdf-syntax-ns#"
   xmlns:svg="http://www.w3.org/2000/svg"
   xmlns="http://www.w3.org/2000/svg"
   xmlns:sodipodi="http://sodipodi.sourceforge.net/DTD/sodipodi-0.dtd"
   xmlns:inkscape="http://www.inkscape.org/namespaces/inkscape"
   version="1.1"
   id="svg2"
   inkscape:output_extension="org.inkscape.output.svg.inkscape"
   sodipodi:docname="roe_deer.svg"
   inkscape:version="0.92.2 (5c3e80d, 2017-08-06)"
   sodipodi:version="0.32"
   x="0px"
   y="0px"
   width="580px"
   height="580px"
   viewBox="0 0 580 580"
   enable-background="new 0 0 580 580"
   xml:space="preserve"
   inkscape:export-xdpi="300"
   inkscape:export-ydpi="300"><metadata
     id="metadata75"><rdf:RDF><cc:Work
         rdf:about=""><dc:format>image/svg+xml</dc:format><dc:type
           rdf:resource="http://purl.org/dc/dcmitype/StillImage" /><dc:title /></cc:Work></rdf:RDF></metadata><sodipodi:namedview
     showgrid="false"
     inkscape:cy="437.47264"
     inkscape:cx="199.59681"
     inkscape:zoom="0.65172414"
     pagecolor="#ffffff"
     bordercolor="#666666"
     guidetolerance="10.0"
     objecttolerance="10.0"
     gridtolerance="10.0"
     borderopacity="1.0"
     id="base"
     inkscape:current-layer="svg2"
     inkscape:window-y="-8"
     inkscape:window-x="-8"
     inkscape:pageopacity="0.0"
     inkscape:pageshadow="2"
     inkscape:window-height="1017"
     inkscape:window-width="1920"
     inkscape:window-maximized="1" /><defs
     id="defs4"><inkscape:perspective
       inkscape:vp_z="580 : 290 : 1"
       inkscape:vp_y="0 : 1000 : 0"
       inkscape:vp_x="0 : 290 : 1"
       sodipodi:type="inkscape:persp3d"
       id="perspective3653"
       inkscape:persp3d-origin="290 : 193.33333 : 1" /></defs><g
     id="g6524"
     transform="matrix(1.0272694,0,0,1.0143615,-14.911915,-13.290814)"><path
       sodipodi:nodetypes="czzczzc"
       inkscape:connector-curvature="0"
       id="path4146-8"
       d="M 286.20829,32.134991 C 233.16823,25.022161 147.29337,178.13202 129.29456,273.78331 111.29575,369.43459 97.531769,413.03166 100.21529,471.5314 c 2.68353,58.49975 62.25524,91.87258 86.92613,92.40893 14.15512,-0.89095 52.10024,-3.89451 67.33939,-53.395 15.23914,-49.50048 7.65467,-243.14192 17.05753,-323.22239 9.40286,-80.08045 28.36787,-152.225651 14.66995,-155.187949 z"
       fill="param(fill) #000"
       fill-opacity="param(fill-opacity)"
       stroke="param(outline) #FFF"
       stroke-opacity="param(outline-opacity)"
       stroke-width="param(outline-width) 0" /><path
       sodipodi:nodetypes="czzczzc"
       inkscape:connector-curvature="0"
       id="path4146-8-56"
       d="m 307.42745,34.292465 c 53.04006,-7.11283 138.91492,145.997035 156.91373,241.648325 17.99881,95.65128 31.76279,139.24835 29.07927,197.74809 -2.68353,58.49975 -62.25524,91.87258 -86.92613,92.40893 -14.15512,-0.89095 -52.10024,-3.89451 -67.33939,-53.395 C 323.91579,463.20233 331.50026,269.56089 322.0974,189.48042 312.69454,109.39996 293.72953,37.254763 307.42745,34.292465 Z"
       fill="param(fill) #000"
       fill-opacity="param(fill-opacity)"
       stroke="param(outline) #FFF"
       stroke-opacity="param(outline-opacity)"
       stroke-width="param(outline-width) 0" /></g></svg>