<?xml version="1.0" encoding="UTF-8" standalone="no"?>
<!-- Generator: Adobe Illustrator 16.0.0, SVG Export Plug-In . SVG Version: 6.00 Build 0)  -->

<svg
   xmlns:dc="http://purl.org/dc/elements/1.1/"
   xmlns:cc="http://creativecommons.org/ns#"
   xmlns:rdf="http://www.w3.org/1999/02/22-rdf-syntax-ns#"
   xmlns:svg="http://www.w3.org/2000/svg"
   xmlns="http://www.w3.org/2000/svg"
   xmlns:sodipodi="http://sodipodi.sourceforge.net/DTD/sodipodi-0.dtd"
   xmlns:inkscape="http://www.inkscape.org/namespaces/inkscape"
   version="1.1"
   id="svg2"
   inkscape:output_extension="org.inkscape.output.svg.inkscape"
   sodipodi:docname="roe_deer.svg"
   inkscape:version="0.91 r13725"
   sodipodi:version="0.32"
   x="0px"
   y="0px"
   width="580px"
   height="580px"
   viewBox="0 0 580 580"
   enable-background="new 0 0 580 580"
   xml:space="preserve"><metadata
     id="metadata75"><rdf:RDF><cc:Work
         rdf:about=""><dc:format>image/svg+xml</dc:format><dc:type
           rdf:resource="http://purl.org/dc/dcmitype/StillImage" /><dc:title /></cc:Work></rdf:RDF></metadata><sodipodi:namedview
     showgrid="false"
     inkscape:cy="275.08506"
     inkscape:cx="-134.75674"
     inkscape:zoom="0.46083857"
     pagecolor="#ffffff"
     bordercolor="#666666"
     guidetolerance="10.0"
     objecttolerance="10.0"
     gridtolerance="10.0"
     borderopacity="1.0"
     id="base"
     inkscape:current-layer="svg2"
     inkscape:window-y="-8"
     inkscape:window-x="-8"
     inkscape:pageopacity="0.0"
     inkscape:pageshadow="2"
     inkscape:window-height="705"
     inkscape:window-width="1366"
     inkscape:window-maximized="1" /><defs
     id="defs4"><inkscape:perspective
       inkscape:vp_z="580 : 290 : 1"
       inkscape:vp_y="0 : 1000 : 0"
       inkscape:vp_x="0 : 290 : 1"
       sodipodi:type="inkscape:persp3d"
       id="perspective3653"
       inkscape:persp3d-origin="290 : 193.33333 : 1" /></defs><g
     id="g4586"
     transform="matrix(1.4668949,0,0,1.4668949,-97.445542,-37.87698)"><path
       sodipodi:nodetypes="cacaaasscc"
       inkscape:connector-curvature="0"
       id="path4319-5-9"
       d="m 250.65866,37.618476 c 3.036,6.633517 -3.77614,59.61196 -3.75451,89.457304 0.0508,70.13875 8.54714,150.89987 9.12813,210.21823 0.21629,17.08979 -6.67073,32.24845 -16.04089,45.20328 -8.25714,11.41598 -19.36073,24.78626 -33.40618,25.8954 -19.79931,1.56352 -40.83671,-12.39688 -52.23722,-28.6599 -17.27915,-24.64905 -15.61231,-59.91527 -13.83558,-89.24057 4.02066,-66.36385 21.88662,-153.87044 51.69753,-197.905731 26.43197,-39.044076 44.24664,-55.339794 58.44899,-54.968001 z"
       style="fill:#000000;fill-opacity:1;fill-rule:evenodd;stroke:none;stroke-width:0.97023773;stroke-linecap:butt;stroke-linejoin:miter;stroke-miterlimit:4;stroke-dasharray:none;stroke-opacity:1" /><path
       sodipodi:nodetypes="casaassscc"
       inkscape:connector-curvature="0"
       id="path4319-5-9-3"
       d="m 278.33754,38.440777 c -3.04734,6.628317 3.67422,59.618328 3.60156,89.463593 -0.17075,70.13855 -11.62988,158.18059 -9.4875,210.2023 0.65788,15.97481 6.61559,32.25981 15.96359,45.23064 8.23761,11.43008 19.31833,24.81932 33.36186,25.95247 19.79661,1.59737 42.39646,-11.34697 52.28613,-28.57055 15.69381,-27.33192 15.71472,-59.88849 13.98814,-89.21679 C 384.14411,225.13181 366.42778,137.59481 336.6922,93.508633 310.32702,54.419426 292.54024,38.093276 278.33727,38.440788 Z"
       style="fill:#000000;fill-opacity:1;fill-rule:evenodd;stroke:none;stroke-width:0.97023773;stroke-linecap:butt;stroke-linejoin:miter;stroke-miterlimit:4;stroke-dasharray:none;stroke-opacity:1" /></g></svg>