<?xml version="1.0" encoding="UTF-8" standalone="no"?>
<!-- Generator: Adobe Illustrator 16.0.0, SVG Export Plug-In . SVG Version: 6.00 Build 0)  -->

<svg
   xmlns:dc="http://purl.org/dc/elements/1.1/"
   xmlns:cc="http://creativecommons.org/ns#"
   xmlns:rdf="http://www.w3.org/1999/02/22-rdf-syntax-ns#"
   xmlns:svg="http://www.w3.org/2000/svg"
   xmlns="http://www.w3.org/2000/svg"
   xmlns:xlink="http://www.w3.org/1999/xlink"
   xmlns:sodipodi="http://sodipodi.sourceforge.net/DTD/sodipodi-0.dtd"
   xmlns:inkscape="http://www.inkscape.org/namespaces/inkscape"
   version="1.1"
   id="svg2"
   inkscape:output_extension="org.inkscape.output.svg.inkscape"
   sodipodi:docname="wild_boar.svg"
   inkscape:version="0.91 r13725"
   sodipodi:version="0.32"
   x="0px"
   y="0px"
   width="580px"
   height="580px"
   viewBox="0 0 580 580"
   enable-background="new 0 0 580 580"
   xml:space="preserve"><metadata
     id="metadata75"><rdf:RDF><cc:Work
         rdf:about=""><dc:format>image/svg+xml</dc:format><dc:type
           rdf:resource="http://purl.org/dc/dcmitype/StillImage" /><dc:title /></cc:Work></rdf:RDF></metadata><sodipodi:namedview
     showgrid="false"
     inkscape:cy="251.08817"
     inkscape:cx="303.56599"
     inkscape:zoom="0.65172414"
     pagecolor="#ffffff"
     bordercolor="#666666"
     guidetolerance="10.0"
     objecttolerance="10.0"
     gridtolerance="10.0"
     borderopacity="1.0"
     id="base"
     inkscape:current-layer="svg2"
     inkscape:window-y="-8"
     inkscape:window-x="-8"
     inkscape:pageopacity="0.0"
     inkscape:pageshadow="2"
     inkscape:window-height="705"
     inkscape:window-width="1366"
     inkscape:window-maximized="1" /><defs
     id="defs4"><linearGradient
       inkscape:collect="always"
       id="linearGradient4204"><stop
         style="stop-color:#000000;stop-opacity:1;"
         offset="0"
         id="stop4206" /><stop
         style="stop-color:#000000;stop-opacity:0;"
         offset="1"
         id="stop4208" /></linearGradient><inkscape:perspective
       inkscape:vp_z="580 : 290 : 1"
       inkscape:vp_y="0 : 1000 : 0"
       inkscape:vp_x="0 : 290 : 1"
       sodipodi:type="inkscape:persp3d"
       id="perspective3653"
       inkscape:persp3d-origin="290 : 193.33333 : 1" /><linearGradient
       gradientTransform="matrix(-3.0339,0,0,3.1793304,989.41375,-532.34409)"
       inkscape:collect="always"
       xlink:href="#linearGradient4204"
       id="linearGradient4210-7"
       x1="295.87698"
       y1="327.55127"
       x2="281.79102"
       y2="337.46442"
       gradientUnits="userSpaceOnUse" /><linearGradient
       gradientTransform="matrix(3.0339,0,0,3.1793304,-436.06431,-523.49655)"
       inkscape:collect="always"
       xlink:href="#linearGradient4204"
       id="linearGradient4210-7-9"
       x1="295.87698"
       y1="327.55127"
       x2="281.79102"
       y2="337.46442"
       gradientUnits="userSpaceOnUse" /></defs><g
     id="g3371"
     transform="translate(13.325283,-1.3909815)"><path
       sodipodi:nodetypes="cssaaaasscc"
       inkscape:connector-curvature="0"
       id="path4319-5"
       d="m 352.82141,10.881535 c -7.13574,3.013893 -5.70632,89.487685 -6.88486,127.610035 -1.12769,36.4997 -6.3642,68.75906 -16.77868,102.45348 -8.91824,28.85362 -27.14859,55.67391 -29.06232,85.81366 -1.27925,20.14839 -0.0837,43.20175 12.01639,59.36288 11.22931,14.99814 31.0003,25.47114 49.72169,26.21319 21.34259,0.84603 44.22325,-9.75722 58.87059,-25.30321 23.29961,-24.72905 33.49276,-64.29786 34.60958,-95.87368 C 457.8416,219.70105 466.80583,117.03385 435.49132,74.792677 405.29377,34.058289 360.0084,3.0899981 352.82109,10.881518 Z"
       style="fill:#000000;fill-opacity:1;fill-rule:evenodd;stroke:none;stroke-width:0.97023773;stroke-linecap:butt;stroke-linejoin:miter;stroke-miterlimit:4;stroke-dasharray:none;stroke-opacity:1" /><path
       sodipodi:nodetypes="sccs"
       inkscape:connector-curvature="0"
       id="path4328-8-9"
       d="m 150.70505,495.2811 c 24.58362,12.39678 -22.11588,89.27929 -51.296794,63.85889 0,0 -108.8588955,-101.21304 -84.074482,-150.35058 0,0 68.541581,52.79151 135.371276,86.49169 z"
       style="fill:url(#linearGradient4210-7);fill-opacity:1;fill-rule:evenodd;stroke:none;stroke-width:8.09399986;stroke-linecap:butt;stroke-linejoin:miter;stroke-miterlimit:4;stroke-dasharray:none;stroke-opacity:1" /><path
       sodipodi:nodetypes="cssaaaasscc"
       inkscape:connector-curvature="0"
       id="path4319-5-9"
       d="m 224.27417,11.165543 c 7.12952,3.028563 5.52226,89.499217 6.62239,127.623917 1.05261,36.50198 6.22276,68.77204 16.5679,102.48779 8.85889,28.87193 27.03404,55.72965 28.88577,85.87328 1.23783,20.15096 -0.005,43.20182 -12.13845,59.33802 -11.26013,14.97502 -31.05264,25.40732 -49.77549,26.11086 -21.34431,0.80213 -44.2031,-9.84814 -58.81843,-25.42422 -23.24904,-24.7769 -33.36076,-64.36661 -34.41264,-95.94467 -2.38054,-71.46189 -11.13359,-174.14733 20.26773,-216.324001 30.28129,-40.672194 75.63024,-71.547267 82.80151,-63.740991 z"
       style="fill:#000000;fill-opacity:1;fill-rule:evenodd;stroke:none;stroke-width:0.97023773;stroke-linecap:butt;stroke-linejoin:miter;stroke-miterlimit:4;stroke-dasharray:none;stroke-opacity:1" /><path
       sodipodi:nodetypes="sccs"
       inkscape:connector-curvature="0"
       id="path4328-8-9-9"
       d="m 402.64439,504.12864 c -24.58362,12.39678 22.11588,89.27929 51.29679,63.85889 0,0 108.85889,-101.21304 84.07448,-150.35058 0,0 -68.54158,52.79151 -135.37127,86.49169 z"
       style="fill:url(#linearGradient4210-7-9);fill-opacity:1;fill-rule:evenodd;stroke:none;stroke-width:8.09399986;stroke-linecap:butt;stroke-linejoin:miter;stroke-miterlimit:4;stroke-dasharray:none;stroke-opacity:1" /></g></svg>