<?xml version="1.0" encoding="UTF-8" standalone="no"?>
<!-- Generator: Adobe Illustrator 16.0.0, SVG Export Plug-In . SVG Version: 6.00 Build 0)  -->

<svg
   xmlns:dc="http://purl.org/dc/elements/1.1/"
   xmlns:cc="http://creativecommons.org/ns#"
   xmlns:rdf="http://www.w3.org/1999/02/22-rdf-syntax-ns#"
   xmlns:svg="http://www.w3.org/2000/svg"
   xmlns="http://www.w3.org/2000/svg"
   xmlns:xlink="http://www.w3.org/1999/xlink"
   xmlns:sodipodi="http://sodipodi.sourceforge.net/DTD/sodipodi-0.dtd"
   xmlns:inkscape="http://www.inkscape.org/namespaces/inkscape"
   version="1.1"
   id="svg2"
   inkscape:output_extension="org.inkscape.output.svg.inkscape"
   sodipodi:docname="wild_boar.svg"
   inkscape:version="0.91 r13725"
   sodipodi:version="0.32"
   x="0px"
   y="0px"
   width="580px"
   height="580px"
   viewBox="0 0 580 580"
   enable-background="new 0 0 580 580"
   xml:space="preserve"><metadata
     id="metadata75"><rdf:RDF><cc:Work
         rdf:about=""><dc:format>image/svg+xml</dc:format><dc:type
           rdf:resource="http://purl.org/dc/dcmitype/StillImage" /><dc:title /></cc:Work></rdf:RDF></metadata><sodipodi:namedview
     showgrid="false"
     inkscape:cy="349.84127"
     inkscape:cx="95.71015"
     inkscape:zoom="0.46083856"
     pagecolor="#ffffff"
     bordercolor="#666666"
     guidetolerance="10.0"
     objecttolerance="10.0"
     gridtolerance="10.0"
     borderopacity="1.0"
     id="base"
     inkscape:current-layer="svg2"
     inkscape:window-y="-8"
     inkscape:window-x="-8"
     inkscape:pageopacity="0.0"
     inkscape:pageshadow="2"
     inkscape:window-height="705"
     inkscape:window-width="1366"
     inkscape:window-maximized="1" /><defs
     id="defs4"><linearGradient
       inkscape:collect="always"
       id="linearGradient4204"><stop
         style="stop-color:#000000;stop-opacity:1;"
         offset="0"
         id="stop4206" /><stop
         style="stop-color:#000000;stop-opacity:0;"
         offset="1"
         id="stop4208" /></linearGradient><inkscape:perspective
       inkscape:vp_z="580 : 290 : 1"
       inkscape:vp_y="0 : 1000 : 0"
       inkscape:vp_x="0 : 290 : 1"
       sodipodi:type="inkscape:persp3d"
       id="perspective3653"
       inkscape:persp3d-origin="290 : 193.33333 : 1" /><linearGradient
       inkscape:collect="always"
       xlink:href="#linearGradient4204"
       id="linearGradient4210"
       x1="307.67841"
       y1="319.01978"
       x2="281.79102"
       y2="337.46442"
       gradientUnits="userSpaceOnUse"
       gradientTransform="matrix(2.2548338,0,0,2.2548338,-206.19042,-238.88415)" /><linearGradient
       gradientTransform="matrix(-2.2548338,0,0,2.2548338,784.02048,-242.72455)"
       inkscape:collect="always"
       xlink:href="#linearGradient4204"
       id="linearGradient4210-7"
       x1="307.67841"
       y1="319.01978"
       x2="281.79102"
       y2="337.46442"
       gradientUnits="userSpaceOnUse" /></defs><g
     id="g4513"
     transform="matrix(1.0754448,0,0,1.0754448,-20.712161,-11.108892)"><path
       sodipodi:nodetypes="sccs"
       inkscape:connector-curvature="0"
       id="path4328-8"
       d="m 417.14876,489.92469 c -18.27087,8.792 16.43682,63.31834 38.12444,45.28978 0,0 80.90533,-71.78196 62.48523,-106.63112 0,0 -50.94098,37.44062 -100.60967,61.34134 z"
       style="fill:url(#linearGradient4210);fill-opacity:1;fill-rule:evenodd;stroke:none;stroke-width:8.09399986;stroke-linecap:butt;stroke-linejoin:miter;stroke-miterlimit:4;stroke-dasharray:none;stroke-opacity:1" /><path
       sodipodi:nodetypes="cssaaaasscc"
       inkscape:connector-curvature="0"
       id="path4319-5"
       d="m 333.26897,27.240037 c -6.47478,3.155347 -0.82198,83.374873 -0.009,118.830483 0.77873,33.94643 -2.4697,64.16123 -10.45409,95.96749 -6.83729,27.23674 -22.42259,53.05134 -22.69184,81.13187 -0.17993,18.77179 2.08336,40.11706 14.12667,54.51742 11.17667,13.36408 30.05795,22.09929 47.4779,21.8518 19.85895,-0.28206 40.57327,-11.27172 53.3957,-26.43888 20.39673,-24.12645 27.88177,-61.37603 27.33925,-90.75009 -1.22764,-66.47421 1.96004,-162.24925 -29.2285,-199.903825 -30.0761,-36.311392 -73.67271,-62.800228 -79.95639,-55.206268 z"
       style="fill:#000000;fill-opacity:1;fill-rule:evenodd;stroke:none;stroke-width:0.97023773;stroke-linecap:butt;stroke-linejoin:miter;stroke-miterlimit:4;stroke-dasharray:none;stroke-opacity:1" /><path
       sodipodi:nodetypes="sccs"
       inkscape:connector-curvature="0"
       id="path4328-8-9"
       d="m 160.6813,486.08427 c 18.27087,8.792 -16.43681,63.31835 -38.12444,45.28978 0,0 -80.905339,-71.78196 -62.485241,-106.63112 0,0 50.940991,37.44062 100.609681,61.34134 z"
       style="fill:url(#linearGradient4210-7);fill-opacity:1;fill-rule:evenodd;stroke:none;stroke-width:8.09399986;stroke-linecap:butt;stroke-linejoin:miter;stroke-miterlimit:4;stroke-dasharray:none;stroke-opacity:1" /><path
       sodipodi:nodetypes="cssaaaasscc"
       inkscape:connector-curvature="0"
       id="path4319-5-9"
       d="m 237.44906,22.430769 c 6.47478,3.155347 0.82198,83.374871 0.009,118.830481 -0.77873,33.94646 2.4697,64.16126 10.45408,95.96751 6.83729,27.23675 22.42259,53.05135 22.69184,81.13188 0.17994,18.77178 -2.08335,40.11705 -14.12667,54.51741 -11.17667,13.36409 -30.05795,22.09929 -47.47789,21.8518 -19.85896,-0.28206 -40.57328,-11.27171 -53.39571,-26.43887 -20.39673,-24.12645 -27.88176,-61.37604 -27.33925,-90.7501 1.22762,-66.47421 -1.96006,-162.24927 29.22849,-199.903842 30.0761,-36.311393 73.6727,-62.80022 79.95638,-55.206269 z"
       style="fill:#000000;fill-opacity:1;fill-rule:evenodd;stroke:none;stroke-width:0.97023773;stroke-linecap:butt;stroke-linejoin:miter;stroke-miterlimit:4;stroke-dasharray:none;stroke-opacity:1" /></g></svg>