<?xml version="1.0" encoding="UTF-8" standalone="no"?>
<svg
   xmlns:dc="http://purl.org/dc/elements/1.1/"
   xmlns:cc="http://creativecommons.org/ns#"
   xmlns:rdf="http://www.w3.org/1999/02/22-rdf-syntax-ns#"
   xmlns:svg="http://www.w3.org/2000/svg"
   xmlns="http://www.w3.org/2000/svg"
   xmlns:sodipodi="http://sodipodi.sourceforge.net/DTD/sodipodi-0.dtd"
   xmlns:inkscape="http://www.inkscape.org/namespaces/inkscape"
   version="1.1"
   id="svg2"
   inkscape:output_extension="org.inkscape.output.svg.inkscape"
   sodipodi:docname="wolf.svg"
   inkscape:version="0.92.2 (5c3e80d, 2017-08-06)"
   sodipodi:version="0.32"
   x="0px"
   y="0px"
   width="580px"
   height="580px"
   viewBox="0 0 580 580"
   enable-background="new 0 0 580 580"
   xml:space="preserve"><metadata
     id="metadata75"><rdf:RDF><cc:Work
         rdf:about=""><dc:format>image/svg+xml</dc:format><dc:type
           rdf:resource="http://purl.org/dc/dcmitype/StillImage" /><dc:title /></cc:Work></rdf:RDF></metadata><sodipodi:namedview
     showgrid="false"
     inkscape:cy="-139.40929"
     inkscape:cx="1415.5597"
     inkscape:zoom="0.32586207"
     pagecolor="#ffffff"
     bordercolor="#666666"
     guidetolerance="10.0"
     objecttolerance="10.0"
     gridtolerance="10.0"
     borderopacity="1.0"
     id="base"
     inkscape:current-layer="g1053"
     inkscape:window-y="-8"
     inkscape:window-x="-8"
     inkscape:pageopacity="0.0"
     inkscape:pageshadow="2"
     inkscape:window-height="1017"
     inkscape:window-width="1920"
     inkscape:window-maximized="1"
     showguides="true"
     inkscape:guide-bbox="true" /><defs
     id="defs4"><inkscape:perspective
       inkscape:vp_z="580 : 290 : 1"
       inkscape:vp_y="0 : 1000 : 0"
       inkscape:vp_x="0 : 290 : 1"
       sodipodi:type="inkscape:persp3d"
       id="perspective3653"
       inkscape:persp3d-origin="290 : 193.33333 : 1" /></defs><g
     id="g1088"><g
       id="g1053"><g
         id="g1118"><path
           fill="param(fill) #000" fill-opacity="param(fill-opacity)" stroke="param(outline) #FFF" stroke-opacity="param(outline-opacity)" stroke-width="param(outline-width) 0"
           sodipodi:nodetypes="csssssssssssscc"
           inkscape:connector-curvature="0"
           id="path4319"
           d="m 261.94042,364.8931 c 21.35484,-14.75794 33.55134,-8.68192 47.2857,-6.08542 9.7451,1.84228 19.26006,6.10891 27.34711,12.02369 17.40152,12.72728 29.03609,27.9319 44.28284,43.33565 15.93059,16.09466 31.12638,27.46597 41.54503,47.82857 6.59824,12.89591 11.95158,30.58465 9.72139,45.00168 -2.38315,15.40586 -10.40877,23.02156 -23.79615,30.20931 -15.5837,8.36698 -34.72016,3.53814 -51.84807,-0.39736 -20.87014,-4.79556 -32.94913,-11.02036 -54.2791,-12.55956 -14.07284,-1.0155 -28.18539,2.43348 -42.01357,5.34211 -17.97231,3.78029 -29.96203,9.81818 -48.2957,9.53147 -13.22063,-0.20647 -31.92911,-2.57861 -42.37729,-10.95204 -14.48902,-11.61186 -14.54521,-34.16158 -11.595,-52.89062 4.75707,-30.19963 31.38099,-42.1879 52.8831,-63.20948 22.66519,-22.87279 32.78576,-26.52951 51.13971,-47.178 z"
           fill-opacity="param(fill-opacity)"
           stroke="param(outline) #FFF"
           stroke-opacity="param(outline-opacity)" /><path
           fill="param(fill) #000" fill-opacity="param(fill-opacity)" stroke="param(outline) #FFF" stroke-opacity="param(outline-opacity)" stroke-width="param(outline-width) 0"
           sodipodi:nodetypes="szzs"
           inkscape:connector-curvature="0"
           id="path4328-88-1"
           d="m 321.1834,69.529685 c 0.43088,5.10925 25.57055,0.966221 25.58859,-3.227083 0.018,-4.193303 -13.14573,-27.374167 -17.913,-26.794151 -4.76725,0.580017 -8.14083,24.504648 -7.67559,30.021234 z"
           fill-opacity="param(fill-opacity)"
           stroke="param(outline) #FFF"
           stroke-opacity="param(outline-opacity)" /><path
           inkscape:transform-center-y="-10.458472"
           inkscape:transform-center-x="-0.0053987856"
           sodipodi:nodetypes="zzzzzcz"
           inkscape:connector-curvature="0"
           id="path854-6"
           d="m 397.18656,225.25094 c 11.44796,-23.74935 -1.52953,-49.24502 -11.05059,-70.3312 -9.52104,-21.0862 -19.13134,-41.50285 -41.70926,-53.81422 -22.57793,-12.311361 -30.6615,28.46367 -36.34874,51.40058 -5.68728,22.9369 -8.27862,60.29834 -3.77804,77.10201 4.5006,16.80365 0.19098,27.06714 14.53175,33.62374 36.13906,9.47461 66.90692,-14.23156 78.35488,-37.98091 z"
           fill="param(fill) #000" fill-opacity="param(fill-opacity)" stroke="param(outline) #FFF" stroke-opacity="param(outline-opacity)" stroke-width="param(outline-width) 0" /><path
           inkscape:transform-center-y="6.127909"
           inkscape:transform-center-x="7.4529369"
           sodipodi:nodetypes="zzzzzzzz"
           inkscape:connector-curvature="0"
           id="path854-6-1"
           d="m 179.43166,201.97709 c -2.1822,-17.79695 10.28581,-27.22413 20.99515,-48.32609 10.70931,-21.10198 21.47177,-41.51175 44.81373,-52.86886 23.34195,-11.357091 29.23707,30.94836 33.69797,54.81072 4.46093,23.86236 5.02717,62.35351 -0.40762,79.34449 -5.43479,16.99098 -9.20303,24.18465 -23.96027,30.10189 -14.75725,5.91726 -34.52618,-3.81027 -46.33071,-13.51177 -11.80451,-9.70149 -26.62603,-31.75345 -28.80825,-49.55038 z"
           fill="param(fill) #000" fill-opacity="param(fill-opacity)" stroke="param(outline) #FFF" stroke-opacity="param(outline-opacity)" stroke-width="param(outline-width) 0" /><path
           fill="param(fill) #000" fill-opacity="param(fill-opacity)" stroke="param(outline) #FFF" stroke-opacity="param(outline-opacity)" stroke-width="param(outline-width) 0"
           sodipodi:nodetypes="szzs"
           inkscape:connector-curvature="0"
           id="path4328-88-1-0"
           d="m 268.43303,67.181194 c -0.43088,5.10925 -25.57055,0.966221 -25.58859,-3.227083 -0.018,-4.193303 13.14573,-27.374168 17.913,-26.794152 4.76725,0.580017 8.14083,24.504649 7.67559,30.021235 z"
           fill-opacity="param(fill-opacity)"
           stroke="param(outline) #FFF"
           stroke-opacity="param(outline-opacity)" /><path
           inkscape:transform-center-y="-9.761199"
           inkscape:transform-center-x="7.5068661"
           sodipodi:nodetypes="zzzzzzzz"
           inkscape:connector-curvature="0"
           id="path854-6-3"
           d="m 447.22059,368.90086 c 11.17876,-12.74552 17.78897,-40.52637 18.13485,-61.33011 0.34589,-20.80374 0.28779,-41.09815 -16.59143,-59.81855 -16.87921,-18.72038 -44.13958,11.27433 -60.61839,27.70668 -16.47884,16.43232 -33.67188,29.53966 -37.04559,44.9259 -3.37365,15.38624 3.61157,31.47288 14.92587,42.33753 11.31433,10.86466 36.04712,31.38791 52.44618,28.98347 16.39906,-2.40446 17.56973,-10.0594 28.74851,-22.80492 z"
           fill="param(fill) #000" fill-opacity="param(fill-opacity)" stroke="param(outline) #FFF" stroke-opacity="param(outline-opacity)" stroke-width="param(outline-width) 0" /><path
           inkscape:transform-center-y="21.468643"
           inkscape:transform-center-x="61.227204"
           fill="param(fill) #000" fill-opacity="param(fill-opacity)" stroke="param(outline) #FFF" stroke-opacity="param(outline-opacity)" stroke-width="param(outline-width) 0"
           sodipodi:nodetypes="szzs"
           inkscape:connector-curvature="0"
           id="path4328-88-1-6"
           d="m 437.60219,202.68869 c -1.15412,4.9958 24.04672,8.74883 25.34777,4.76243 1.30101,-3.98642 -4.13318,-30.08442 -8.8491,-30.99188 -4.71589,-0.90743 -15.25253,20.83534 -16.49867,26.22945 z"
           fill-opacity="param(fill-opacity)"
           stroke="param(outline) #FFF"
           stroke-opacity="param(outline-opacity)" /><path
           inkscape:transform-center-y="-7.610346"
           inkscape:transform-center-x="-26.562297"
           sodipodi:nodetypes="zzzzzzzz"
           inkscape:connector-curvature="0"
           id="path854-6-3-4"
           d="m 137.36829,369.96979 c -11.0669,-13.42451 -16.95602,-42.01245 -16.63813,-63.24606 0.31785,-21.23361 1.03407,-41.93238 18.97265,-60.38808 17.93854,-18.45571 44.96125,13.17302 61.35139,30.55909 16.39016,17.38607 38.53333,32.84948 41.49992,48.67182 2.96658,15.82233 -18.23646,37.72263 -30.2064,48.37613 -11.96993,10.65351 -23.68769,18.12457 -40.44978,15.05045 -16.76205,-3.07415 -23.46275,-5.59883 -34.52965,-19.02335 z"
           fill="param(fill) #000" fill-opacity="param(fill-opacity)" stroke="param(outline) #FFF" stroke-opacity="param(outline-opacity)" stroke-width="param(outline-width) 0" /><path
           inkscape:transform-center-y="35.088737"
           inkscape:transform-center-x="51.295607"
           fill="param(fill) #000" fill-opacity="param(fill-opacity)" stroke="param(outline) #FFF" stroke-opacity="param(outline-opacity)" stroke-width="param(outline-width) 0"
           sodipodi:nodetypes="szzs"
           inkscape:connector-curvature="0"
           id="path4328-88-1-6-1"
           d="m 121.21853,206.54826 c 0.0909,5.12657 25.45008,2.6609 25.74634,-1.52196 0.29622,-4.18287 -11.30026,-28.18616 -16.09551,-27.92378 -4.79523,0.2624 -9.74897,23.91043 -9.65083,29.44574 z"
           fill-opacity="param(fill-opacity)"
           stroke="param(outline) #FFF"
           stroke-opacity="param(outline-opacity)" /></g></g></g></svg>