<?xml version="1.0" encoding="UTF-8" standalone="no"?>
<!-- Generator: Adobe Illustrator 16.0.0, SVG Export Plug-In . SVG Version: 6.00 Build 0)  -->

<svg
   xmlns:dc="http://purl.org/dc/elements/1.1/"
   xmlns:cc="http://creativecommons.org/ns#"
   xmlns:rdf="http://www.w3.org/1999/02/22-rdf-syntax-ns#"
   xmlns:svg="http://www.w3.org/2000/svg"
   xmlns="http://www.w3.org/2000/svg"
   xmlns:sodipodi="http://sodipodi.sourceforge.net/DTD/sodipodi-0.dtd"
   xmlns:inkscape="http://www.inkscape.org/namespaces/inkscape"
   version="1.1"
   id="svg2"
   inkscape:output_extension="org.inkscape.output.svg.inkscape"
   sodipodi:docname="wolf.svg"
   inkscape:version="0.91 r13725"
   sodipodi:version="0.32"
   x="0px"
   y="0px"
   width="580px"
   height="580px"
   viewBox="0 0 580 580"
   enable-background="new 0 0 580 580"
   xml:space="preserve"><metadata
     id="metadata75"><rdf:RDF><cc:Work
         rdf:about=""><dc:format>image/svg+xml</dc:format><dc:type
           rdf:resource="http://purl.org/dc/dcmitype/StillImage" /><dc:title></dc:title></cc:Work></rdf:RDF></metadata><sodipodi:namedview
     showgrid="false"
     inkscape:cy="293.92042"
     inkscape:cx="-82.683663"
     inkscape:zoom="0.46083856"
     pagecolor="#ffffff"
     bordercolor="#666666"
     guidetolerance="10.0"
     objecttolerance="10.0"
     gridtolerance="10.0"
     borderopacity="1.0"
     id="base"
     inkscape:current-layer="svg2"
     inkscape:window-y="18"
     inkscape:window-x="44"
     inkscape:pageopacity="0.0"
     inkscape:pageshadow="2"
     inkscape:window-height="768"
     inkscape:window-width="1280"
     inkscape:window-maximized="0" /><defs
     id="defs4"><inkscape:perspective
       inkscape:vp_z="580 : 290 : 1"
       inkscape:vp_y="0 : 1000 : 0"
       inkscape:vp_x="0 : 290 : 1"
       sodipodi:type="inkscape:persp3d"
       id="perspective3653"
       inkscape:persp3d-origin="290 : 193.33333 : 1" /></defs><g
     id="g4375"
     style="fill:#000000;stroke:#000000"
     transform="matrix(6.7906662,0,0,6.7906662,287.72341,-2382.0552)"><g
       id="g4321"
       style="fill:#000000;stroke:#000000"><ellipse
         style="opacity:1;fill:#000000;fill-opacity:1;stroke:#000000;stroke-width:0;stroke-linecap:butt;stroke-linejoin:round;stroke-miterlimit:4;stroke-dasharray:none;stroke-opacity:1"
         id="path4272"
         cx="24.577145"
         cy="376.36301"
         rx="8.234911"
         ry="12.836543"
         transform="matrix(0.99577143,0.09186542,-0.09186542,0.99577143,0,0)" /><ellipse
         style="opacity:1;fill:#000000;fill-opacity:1;stroke:#000000;stroke-width:0;stroke-linecap:butt;stroke-linejoin:round;stroke-miterlimit:4;stroke-dasharray:none;stroke-opacity:1"
         id="path4272-7"
         cx="-50.789059"
         cy="372.82117"
         rx="8.234911"
         ry="12.836543"
         transform="matrix(0.98620824,-0.16550924,0.16550924,0.98620824,0,0)" /><ellipse
         style="opacity:1;fill:#000000;fill-opacity:1;stroke:#000000;stroke-width:0;stroke-linecap:butt;stroke-linejoin:round;stroke-miterlimit:4;stroke-dasharray:none;stroke-opacity:1"
         id="path4272-7-5"
         cx="-173.09581"
         cy="364.7608"
         rx="7.404037"
         ry="11.541381"
         transform="matrix(0.9264885,-0.37632307,0.37632307,0.9264885,0,0)" /><ellipse
         style="opacity:1;fill:#000000;fill-opacity:1;stroke:#000000;stroke-width:0;stroke-linecap:butt;stroke-linejoin:round;stroke-miterlimit:4;stroke-dasharray:none;stroke-opacity:1"
         id="path4272-7-5-8"
         cx="-173.10689"
         cy="361.758"
         rx="7.404037"
         ry="11.541381"
         transform="matrix(-0.9264885,-0.37632307,-0.37632307,0.9264885,0,0)"
         inkscape:transform-center-x="3.0304576"
         inkscape:transform-center-y="60.104076" /><path
         style="fill:#000000;fill-rule:evenodd;stroke:#000000;stroke-width:1px;stroke-linecap:butt;stroke-linejoin:miter;stroke-opacity:1"
         d="m -2.5253814,407.3798 c 1.80099175,-0.93081 4.0528295,-0.78358 6.0609153,-0.50507 1.4248192,0.19761 2.8311917,0.73647 4.0406102,1.51523 2.6023969,1.67572 4.2596429,4.50171 6.5659919,6.56599 2.409793,2.15687 5.939536,3.27152 7.576144,6.06091 1.036484,1.76656 1.24481,4.02623 1.010152,6.06092 -0.250754,2.17425 -0.449328,3.8987 -2.34681,4.98948 -2.20878,1.26973 -5.246168,0.50639 -7.754715,0.0613 -3.056637,-0.54236 -5.9881028,-1.93724 -9.0913731,-2.0203 -2.0474392,-0.0548 -4.07313868,0.51643 -6.0609153,1.01015 -2.5834895,0.64168 -4.915183,2.45152 -7.5761436,2.52538 -1.918846,0.0533 -3.988806,-0.40653 -5.555839,-1.51523 -2.173084,-1.53749 -3.608216,-3.56527 -3.295687,-6.20885 0.503938,-4.26264 5.892909,-7.29168 8.882163,-10.37201 2.9123842,-3.00111 3.8304078,-6.2478 7.5455066,-8.16788 z"
         id="path4319"
         inkscape:connector-curvature="0"
         sodipodi:nodetypes="sssssssssssssss" /></g><path
       sodipodi:nodetypes="ssss"
       inkscape:connector-curvature="0"
       id="path4328"
       d="m -30.892857,390.18363 c 0.286236,1.07344 4.764512,-0.93076 3.928571,-1.78571 0,0 -4.063707,-6.13432 -4.464285,-5.53572 0,0 0.125846,5.78435 0.535714,7.32143 z"
       style="fill:#000000;fill-rule:evenodd;stroke:#000000;stroke-width:1px;stroke-linecap:butt;stroke-linejoin:miter;stroke-opacity:1" /><path
       sodipodi:nodetypes="ssss"
       inkscape:connector-curvature="0"
       id="path4328-9"
       d="m -10.34791,360.13954 c -0.325737,1.06212 4.5343467,1.73396 4.27809,0.56602 0,0 -0.1980029,-7.35557 -0.854823,-7.05998 0,0 -2.956839,4.97309 -3.423267,6.49396 z"
       style="fill:#000000;fill-rule:evenodd;stroke:#000000;stroke-width:1px;stroke-linecap:butt;stroke-linejoin:miter;stroke-opacity:1" /><path
       sodipodi:nodetypes="ssss"
       inkscape:connector-curvature="0"
       id="path4328-9-3"
       d="m 6.7548114,360.64957 c 0.07869,1.10818 4.8545506,-0.0156 4.1948206,-1.01287 0,0 -2.8340944,-6.79055 -3.3403589,-6.27821 0,0 -0.9671353,5.70431 -0.8544595,7.29109 z"
       style="fill:#000000;fill-rule:evenodd;stroke:#000000;stroke-width:1px;stroke-linecap:butt;stroke-linejoin:miter;stroke-opacity:1" /><path
       sodipodi:nodetypes="ssss"
       inkscape:connector-curvature="0"
       id="path4328-8"
       d="m 31.563362,387.67423 c -0.286236,1.07344 -4.764512,-0.93076 -3.928571,-1.78571 0,0 4.063707,-6.13432 4.464285,-5.53572 0,0 -0.125846,5.78435 -0.535714,7.32143 z"
       style="fill:#000000;fill-rule:evenodd;stroke:#000000;stroke-width:1px;stroke-linecap:butt;stroke-linejoin:miter;stroke-opacity:1" /></g></svg>