<?xml version="1.0" encoding="UTF-8" standalone="no"?>

<svg
   xmlns:dc="http://purl.org/dc/elements/1.1/"
   xmlns:cc="http://creativecommons.org/ns#"
   xmlns:rdf="http://www.w3.org/1999/02/22-rdf-syntax-ns#"
   xmlns:svg="http://www.w3.org/2000/svg"
   xmlns="http://www.w3.org/2000/svg"
   xmlns:sodipodi="http://sodipodi.sourceforge.net/DTD/sodipodi-0.dtd"
   xmlns:inkscape="http://www.inkscape.org/namespaces/inkscape"
   version="1.1"
   id="svg2"
   inkscape:output_extension="org.inkscape.output.svg.inkscape"
   sodipodi:docname="wolf.svg"
   inkscape:version="0.91 r13725"
   sodipodi:version="0.32"
   x="0px"
   y="0px"
   width="580px"
   height="580px"
   viewBox="0 0 580 580"
   enable-background="new 0 0 580 580"
   xml:space="preserve"><metadata
     id="metadata75"><rdf:RDF><cc:Work
         rdf:about=""><dc:format>image/svg+xml</dc:format><dc:type
           rdf:resource="http://purl.org/dc/dcmitype/StillImage" /><dc:title /></cc:Work></rdf:RDF></metadata><sodipodi:namedview
     showgrid="false"
     inkscape:cy="305.03548"
     inkscape:cx="194.63165"
     inkscape:zoom="0.65172414"
     pagecolor="#ffffff"
     bordercolor="#666666"
     guidetolerance="10.0"
     objecttolerance="10.0"
     gridtolerance="10.0"
     borderopacity="1.0"
     id="base"
     inkscape:current-layer="svg2"
     inkscape:window-y="18"
     inkscape:window-x="44"
     inkscape:pageopacity="0.0"
     inkscape:pageshadow="2"
     inkscape:window-height="768"
     inkscape:window-width="1280"
     inkscape:window-maximized="0" /><defs
     id="defs4"><inkscape:perspective
       inkscape:vp_z="580 : 290 : 1"
       inkscape:vp_y="0 : 1000 : 0"
       inkscape:vp_x="0 : 290 : 1"
       sodipodi:type="inkscape:persp3d"
       id="perspective3653"
       inkscape:persp3d-origin="290 : 193.33333 : 1" /></defs><g
     id="g4230"
     fill="param(fill) #000" fill-opacity="param(fill-opacity)" stroke="param(outline) #FFF" stroke-opacity="param(outline-opacity)" stroke-width="param(outline-width) 0"
     transform="matrix(0.98103256,0,0,0.98103256,5.0679383,6.739756)"><ellipse
       transform="matrix(0.99577143,0.09186542,-0.09186542,0.99577143,0,0)"
       ry="87.168678"
       rx="55.920532"
       cy="150.37085"
       cx="233.93039"
       id="path4272"
       fill="param(fill) #000" fill-opacity="param(fill-opacity)" stroke="param(outline) #FFF" stroke-opacity="param(outline-opacity)" stroke-width="param(outline-width) 0" /><ellipse
       transform="matrix(0.98620824,-0.16550924,0.16550924,0.98620824,0,0)"
       ry="87.168678"
       rx="55.920532"
       cy="223.21912"
       cx="334.27435"
       id="path4272-7"
       fill="param(fill) #000" fill-opacity="param(fill-opacity)" stroke="param(outline) #FFF" stroke-opacity="param(outline-opacity)" stroke-width="param(outline-width) 0" /><ellipse
       transform="matrix(0.9264885,-0.37632308,0.37632308,0.9264885,0,0)"
       ry="78.373665"
       rx="50.278343"
       cy="371.81366"
       cx="-9.8068342"
       id="path4272-7-5"
       fill="param(fill) #000" fill-opacity="param(fill-opacity)" stroke="param(outline) #FFF" stroke-opacity="param(outline-opacity)" stroke-width="param(outline-width) 0" /><ellipse
       inkscape:transform-center-y="60.104076"
       inkscape:transform-center-x="3.0304576"
       transform="matrix(-0.9264885,-0.37632308,-0.37632308,0.9264885,0,0)"
       ry="78.373665"
       rx="50.278343"
       cy="134.86868"
       cx="-543.02698"
       id="path4272-7-5-8"
       fill="param(fill) #000" fill-opacity="param(fill-opacity)" stroke="param(outline) #FFF" stroke-opacity="param(outline-opacity)" stroke-width="param(outline-width) 0" /><path
       sodipodi:nodetypes="sssssssssssssss"
       inkscape:connector-curvature="0"
       id="path4319"
       d="m 270.56366,387.15799 c 12.51034,-6.54537 28.15242,-5.51006 42.10131,-3.5516 9.89731,1.38957 19.66649,5.17878 28.06755,10.65496 18.07719,11.78351 29.58902,31.65562 45.60976,46.17145 16.73929,15.16692 41.25817,23.00503 52.62665,42.61978 7.19979,12.42229 8.6469,28.31209 7.01687,42.61986 -1.74182,15.28912 -3.12119,27.41531 -16.30179,35.08557 -15.34299,8.92863 -36.44178,3.56089 -53.86706,0.43106 -21.23251,-3.81383 -41.59554,-13.6225 -63.15198,-14.20658 -14.22226,-0.38534 -28.29349,3.6315 -42.10131,7.10329 -17.94586,4.51224 -34.14265,17.23887 -52.62664,17.75825 -13.32901,0.3748 -27.7077,-2.85868 -38.59288,-10.65496 -15.09503,-10.81149 -25.06398,-25.07066 -22.89304,-43.66008 3.50053,-29.97451 40.93429,-51.27445 61.69873,-72.93506 20.23048,-21.10354 26.6074,-43.93397 52.41383,-57.4358 z"
       fill="param(fill) #000" fill-opacity="param(fill-opacity)" stroke="param(outline) #FFF" stroke-opacity="param(outline-opacity)" stroke-width="param(outline-width) 0" /><path
       sodipodi:nodetypes="szzs"
       inkscape:connector-curvature="0"
       id="path4328"
       d="m 76.312864,262.99284 c 2.752664,9.00934 35.212046,-6.51087 33.458726,-14.02487 -1.75332,-7.514 -29.497858,-44.77732 -35.740358,-42.20239 -6.2425,2.57493 -0.690488,46.49965 2.281632,56.22726 z"
       fill="param(fill) #000" fill-opacity="param(fill-opacity)" stroke="param(outline) #FFF" stroke-opacity="param(outline-opacity)" stroke-width="param(outline-width) 0" /><path
       sodipodi:nodetypes="szzs"
       inkscape:connector-curvature="0"
       id="path4328-88"
       d="m 249.33989,64.039734 c -1.24562,9.33776 -35.80252,-0.677729 -35.29883,-8.37712 0.50369,-7.699391 21.79576,-48.9905805 28.37477,-47.468809 6.57899,1.5217716 8.269,45.763716 6.92406,55.845929 z"
       fill="param(fill) #000" fill-opacity="param(fill-opacity)" stroke="param(outline) #FFF" stroke-opacity="param(outline-opacity)" stroke-width="param(outline-width) 0" /><path
       sodipodi:nodetypes="szzs"
       inkscape:connector-curvature="0"
       id="path4328-88-1"
       d="m 330.65833,60.860267 c 0.60265,9.401177 35.76477,1.777876 35.79,-5.937932 0.0252,-7.715808 -18.38654,-50.3693094 -25.05438,-49.3020612 -6.66782,1.0672486 -11.38633,45.0893052 -10.73562,55.2399932 z"
       fill="param(fill) #000" fill-opacity="param(fill-opacity)" stroke="param(outline) #FFF" stroke-opacity="param(outline-opacity)" stroke-width="param(outline-width) 0" /><path
       sodipodi:nodetypes="szzs"
       inkscape:connector-curvature="0"
       id="path4328-88-0"
       d="m 504.94804,247.06749 c -2.6719,9.03362 -35.26891,-6.19543 -33.58292,-13.72482 1.68599,-7.52939 29.09587,-45.03956 35.36118,-42.52061 6.26529,2.51895 1.10667,46.49161 -1.77826,56.24543 z"
       fill="param(fill) #000" fill-opacity="param(fill-opacity)" stroke="param(outline) #FFF" stroke-opacity="param(outline-opacity)" stroke-width="param(outline-width) 0" /></g></svg>