<?xml version="1.0" encoding="UTF-8" standalone="no"?>
<!-- Generator: Adobe Illustrator 16.0.0, SVG Export Plug-In . SVG Version: 6.00 Build 0)  -->

<svg
   xmlns:dc="http://purl.org/dc/elements/1.1/"
   xmlns:cc="http://creativecommons.org/ns#"
   xmlns:rdf="http://www.w3.org/1999/02/22-rdf-syntax-ns#"
   xmlns:svg="http://www.w3.org/2000/svg"
   xmlns="http://www.w3.org/2000/svg"
   xmlns:sodipodi="http://sodipodi.sourceforge.net/DTD/sodipodi-0.dtd"
   xmlns:inkscape="http://www.inkscape.org/namespaces/inkscape"
   version="1.1"
   id="svg2"
   inkscape:output_extension="org.inkscape.output.svg.inkscape"
   sodipodi:docname="wolf.svg"
   inkscape:version="0.91 r13725"
   sodipodi:version="0.32"
   x="0px"
   y="0px"
   width="580px"
   height="580px"
   viewBox="0 0 580 580"
   enable-background="new 0 0 580 580"
   xml:space="preserve"><metadata
     id="metadata75"><rdf:RDF><cc:Work
         rdf:about=""><dc:format>image/svg+xml</dc:format><dc:type
           rdf:resource="http://purl.org/dc/dcmitype/StillImage" /><dc:title /></cc:Work></rdf:RDF></metadata><sodipodi:namedview
     showgrid="false"
     inkscape:cy="293.92042"
     inkscape:cx="335.43219"
     inkscape:zoom="0.46083856"
     pagecolor="#ffffff"
     bordercolor="#666666"
     guidetolerance="10.0"
     objecttolerance="10.0"
     gridtolerance="10.0"
     borderopacity="1.0"
     id="base"
     inkscape:current-layer="svg2"
     inkscape:window-y="18"
     inkscape:window-x="44"
     inkscape:pageopacity="0.0"
     inkscape:pageshadow="2"
     inkscape:window-height="768"
     inkscape:window-width="1280"
     inkscape:window-maximized="0" /><defs
     id="defs4"><inkscape:perspective
       inkscape:vp_z="580 : 290 : 1"
       inkscape:vp_y="0 : 1000 : 0"
       inkscape:vp_x="0 : 290 : 1"
       sodipodi:type="inkscape:persp3d"
       id="perspective3653"
       inkscape:persp3d-origin="290 : 193.33333 : 1" /></defs><g
     id="g3359"
     transform="translate(2.4804802e-6,-6.9999528)"><ellipse
       transform="matrix(0.99577143,0.09186542,-0.09186542,0.99577143,0,0)"
       ry="87.168678"
       rx="55.920532"
       cy="157.3412"
       cx="234.57344"
       id="path4272"
       style="opacity:1;fill:#000000;fill-opacity:1;stroke:#000000;stroke-width:0;stroke-linecap:butt;stroke-linejoin:round;stroke-miterlimit:4;stroke-dasharray:none;stroke-opacity:1" /><ellipse
       transform="matrix(0.98620824,-0.16550924,0.16550924,0.98620824,0,0)"
       ry="87.168678"
       rx="55.920532"
       cy="230.12253"
       cx="333.11578"
       id="path4272-7"
       style="opacity:1;fill:#000000;fill-opacity:1;stroke:#000000;stroke-width:0;stroke-linecap:butt;stroke-linejoin:round;stroke-miterlimit:4;stroke-dasharray:none;stroke-opacity:1" /><ellipse
       transform="matrix(0.9264885,-0.37632308,0.37632308,0.9264885,0,0)"
       ry="78.373665"
       rx="50.278343"
       cy="378.29904"
       cx="-12.44108"
       id="path4272-7-5"
       style="opacity:1;fill:#000000;fill-opacity:1;stroke:#000000;stroke-width:0;stroke-linecap:butt;stroke-linejoin:round;stroke-miterlimit:4;stroke-dasharray:none;stroke-opacity:1" /><ellipse
       inkscape:transform-center-y="60.104076"
       inkscape:transform-center-x="3.0304576"
       transform="matrix(-0.9264885,-0.37632308,-0.37632308,0.9264885,0,0)"
       ry="78.373665"
       rx="50.278343"
       cy="141.35406"
       cx="-545.66119"
       id="path4272-7-5-8"
       style="opacity:1;fill:#000000;fill-opacity:1;stroke:#000000;stroke-width:0;stroke-linecap:butt;stroke-linejoin:round;stroke-miterlimit:4;stroke-dasharray:none;stroke-opacity:1" /><path
       sodipodi:nodetypes="sssssssssssssss"
       inkscape:connector-curvature="0"
       id="path4319"
       d="m 270.57439,398.32504 c 12.22993,-6.32082 27.52141,-5.32103 41.15765,-3.42976 9.67547,1.3419 19.22568,5.00112 27.43844,10.28942 17.672,11.37925 28.92581,30.56961 44.58745,44.58744 16.3641,14.64659 40.33341,22.2158 51.44707,41.15762 7.03842,11.99612 8.45309,27.34078 6.8596,41.15769 -1.70278,14.7646 -3.05123,26.47477 -15.9364,33.88189 -14.99909,8.62231 -35.62497,3.43872 -52.65968,0.41627 -20.7566,-3.68299 -40.66321,-13.15515 -61.73648,-13.71919 -13.90348,-0.37212 -27.65932,3.50691 -41.15765,6.85959 -17.54362,4.35744 -33.37737,16.64746 -51.44706,17.14902 -13.03025,0.36194 -27.08665,-2.76061 -37.72785,-10.28942 -14.75669,-10.44058 -24.50219,-24.21056 -22.37991,-42.16223 3.42207,-28.94617 40.01678,-49.51537 60.3158,-70.43286 19.77703,-20.37954 26.01102,-42.42672 51.23902,-55.46535 z"
       style="fill:#000000;fill-rule:evenodd;stroke:#000000;stroke-width:6.7906661px;stroke-linecap:butt;stroke-linejoin:miter;stroke-opacity:1" /><path
       sodipodi:nodetypes="ssss"
       inkscape:connector-curvature="0"
       id="path4328"
       d="m 77.94033,267.55159 c 1.943733,7.28937 32.35421,-6.32048 26.67761,-12.12616 0,0 -27.595273,-41.65612 -30.315465,-37.59123 0,0 0.854578,39.27959 3.637855,49.71739 z"
       style="fill:#000000;fill-rule:evenodd;stroke:#000000;stroke-width:6.7906661px;stroke-linecap:butt;stroke-linejoin:miter;stroke-opacity:1" /><path
       sodipodi:nodetypes="ssss"
       inkscape:connector-curvature="0"
       id="path4328-9"
       d="m 217.45421,63.532202 c -2.21197,7.212502 30.79123,11.774743 29.05108,3.843652 0,0 -1.34457,-49.94922 -5.80482,-47.941967 0,0 -20.07891,33.770594 -23.24626,44.098315 z"
       style="fill:#000000;fill-rule:evenodd;stroke:#000000;stroke-width:6.7906661px;stroke-linecap:butt;stroke-linejoin:miter;stroke-opacity:1" /><path
       sodipodi:nodetypes="ssss"
       inkscape:connector-curvature="0"
       id="path4328-9-3"
       d="m 333.59308,66.995645 c 0.53436,7.525281 32.96563,-0.105934 28.48563,-6.878062 0,0 -19.24539,-46.112358 -22.68327,-42.633228 0,0 -6.56749,38.736065 -5.80235,49.511358 z"
       style="fill:#000000;fill-rule:evenodd;stroke:#000000;stroke-width:6.7906661px;stroke-linecap:butt;stroke-linejoin:miter;stroke-opacity:1" /><path
       sodipodi:nodetypes="ssss"
       inkscape:connector-curvature="0"
       id="path4328-8"
       d="m 502.05967,250.51109 c -1.94374,7.28937 -32.35422,-6.32048 -26.67762,-12.12616 0,0 27.59528,-41.65612 30.31547,-37.59123 0,0 -0.85458,39.27959 -3.63785,49.71739 z"
       style="fill:#000000;fill-rule:evenodd;stroke:#000000;stroke-width:6.7906661px;stroke-linecap:butt;stroke-linejoin:miter;stroke-opacity:1" /></g></svg>