<?xml version="1.0" encoding="UTF-8" standalone="no"?>
<!-- Created with Inkscape (http://www.inkscape.org/) -->

<svg
   xmlns:dc="http://purl.org/dc/elements/1.1/"
   xmlns:cc="http://creativecommons.org/ns#"
   xmlns:rdf="http://www.w3.org/1999/02/22-rdf-syntax-ns#"
   xmlns:svg="http://www.w3.org/2000/svg"
   xmlns="http://www.w3.org/2000/svg"
   xmlns:sodipodi="http://sodipodi.sourceforge.net/DTD/sodipodi-0.dtd"
   xmlns:inkscape="http://www.inkscape.org/namespaces/inkscape"
   version="1.1"
   width="37mm"
   height="37mm"
   viewBox="0 0 37 37"
   id="svg12113"
   inkscape:version="0.91 r13725"
   sodipodi:docname="amphibians_salamandra.svg">
  <metadata
     id="metadata9">
    <rdf:RDF>
      <cc:Work
         rdf:about="">
        <dc:format>image/svg+xml</dc:format>
        <dc:type
           rdf:resource="http://purl.org/dc/dcmitype/StillImage" />
        <dc:title></dc:title>
      </cc:Work>
    </rdf:RDF>
  </metadata>
  <sodipodi:namedview
     pagecolor="#ffffff"
     bordercolor="#666666"
     borderopacity="1"
     objecttolerance="10"
     gridtolerance="10"
     guidetolerance="10"
     inkscape:pageopacity="0"
     inkscape:pageshadow="2"
     inkscape:window-width="984"
     inkscape:window-height="644"
     id="namedview7"
     showgrid="false"
     inkscape:zoom="2.7609569"
     inkscape:cx="65.194788"
     inkscape:cy="53.398138"
     inkscape:window-x="0"
     inkscape:window-y="0"
     inkscape:window-maximized="0"
     inkscape:current-layer="svg12113" />
  <defs
     id="defs12115" />
  <g
     transform="matrix(1.0086925,0.79729649,-0.79729649,1.0086925,28.052132,-214.32361)"
     id="layer1">
    <g
       transform="matrix(0.5539354,0.07655686,-0.07655686,0.5539354,70.259185,75.823752)"
       id="layer2-5"
       style="display:inline">
      <path
         d="m 77.362463,130.34097 c 0.005,-0.32743 0.18322,-0.82643 0.39687,-1.10891 0.77408,-1.02341 0.51915,-1.24726 -1.19904,-1.05287 -1.8154,0.20539 -2.259797,-0.25782 -0.52804,-0.55039 1.25487,-0.21201 1.20661,-0.61944 -0.0556,-0.46953 -0.82724,0.0982 -0.84544,0.0826 -0.35795,-0.3087 0.28247,-0.22671 0.90755,-0.41221 1.38906,-0.41221 0.48151,0 0.969455,-0.0251 0.762688,-0.39616 -0.07083,-0.12712 0.346722,-0.13301 0.632642,-0.13301 0.28592,0 0.62435,-0.20835 0.75207,-0.46302 0.31303,-0.6242 0.935077,-4.29733 0.757777,-4.47463 -0.0776,-0.0776 -0.774397,0.007 -1.548427,0.18722 -0.88512,0.2065 -4.092867,0.35726 -8.644897,0.4063 -3.980667,0.0429 -7.301471,0.14187 -7.379561,0.21996 -0.07809,0.0781 0.291556,0.67106 0.821437,1.31771 0.529881,0.64665 0.963037,1.39382 0.962577,1.66037 -4.6e-4,0.26655 -0.476333,1.19901 -1.05749,2.07214 -0.768738,1.15494 -1.056879,1.8621 -1.057491,2.5953 -9.79e-4,1.18331 -0.386532,1.09864 -0.63411,-0.13924 l -0.172448,-0.86225 -0.631759,0.7906 c -0.811411,1.01541 -1.228819,0.64465 -0.454039,-0.40329 0.647847,-0.87626 0.631467,-0.9019 -0.340221,-0.53246 -0.918669,0.34927 -0.856644,-0.0613 0.135368,-0.89598 0.54178,-0.45588 0.67452,-0.68498 0.396875,-0.68498 -0.229446,0 -0.417175,-0.11906 -0.417175,-0.26458 0,-0.14552 0.276902,-0.26458 0.615337,-0.26458 0.634997,0 1.765913,-0.98473 1.765913,-1.53765 0,-0.39807 -1.762417,-2.35905 -2.490722,-2.77133 -0.318095,-0.18007 -2.19767,-0.37039 -4.435812,-0.44915 -4.296486,-0.15118 -4.545731,-0.24053 -6.129246,-2.19701 -0.686479,-0.84817 -0.753024,-1.07495 -0.538435,-1.83497 0.188624,-0.66804 0.542381,-1.01908 1.540513,-1.52864 0.712614,-0.3638 1.525967,-0.88222 1.807451,-1.15204 0.38239,-0.36655 0.722235,-0.44586 1.344124,-0.31368 0.20547,0.0437 0.229383,0.26694 0.72693,0.31667 0.610984,0.0611 1.513469,-0.20645 2.42681,0.16568 1.293421,0.069 2.857146,0.19989 2.857146,0.19989 0.873117,0.29976 1.525755,0.39876 1.044271,0.12087 -0.481483,-0.27789 -0.538148,-0.46767 -0.06523,-0.56581 0.158953,-0.033 0.259521,-0.22058 0.0074,-0.25637 -0.302888,-0.043 -1.033797,-0.0267 -1.033797,-0.0267 -1.045886,0.049 -0.898928,-0.49511 0.42507,-0.74285 0.642762,-0.12027 0.845486,-0.22806 -0.727604,-0.50564 -1.188333,-0.20969 -0.84086,-0.68702 0.549224,-0.61377 1.605244,0.0846 1.290029,-0.0951 1.169179,-0.72725 -0.07381,-0.38612 -0.0035,-0.66146 0.168982,-0.66146 0.162485,0 0.295427,0.11056 0.295427,0.24568 0,0.48939 0.556377,1.12423 1.26213,1.12423 0.766892,0 1.54084,0.35077 1.578178,0.89518 0.03544,0.51673 -0.314585,0.71345 -0.784767,1.15287 -0.54684,0.51107 -0.761348,0.88725 -0.595313,1.04399 0.160264,0.15129 1.676656,-0.005 3.963726,-0.40772 2.999387,-0.52856 4.528717,-0.6481 8.037794,-0.62828 l 4.33364,0.0245 -0.16645,-0.83224 c -0.0915,-0.45773 -0.115773,-0.95366 -0.16645,-1.08038 -0.07441,-0.18608 -0.209073,-0.5316 -0.45475,-0.27285 -0.245677,0.25876 -0.263302,0.28397 -0.448188,0.29576 -0.111886,0.007 -0.155025,-0.35412 -0.13067,-0.57848 0.02435,-0.22436 -0.250783,-0.47765 -1.211162,-0.50437 -1.692345,-0.0471 -1.71189,-0.57482 -0.40106,-0.69515 1.41648,-0.13003 1.45301,-0.42634 0.13606,-1.10368 -1.36455,-0.70181 -1.722253,-1.37749 -1.59843,-1.57785 0.123824,-0.20035 0.586641,-0.33198 1.55424,0.51758 1.185899,1.04123 1.819946,0.79277 1.492143,0.21437 -0.327804,-0.5784 -0.401014,-0.71524 -0.525683,-0.93902 -0.551362,-0.9897 -0.831211,-1.74483 -0.471707,-1.86166 0.359503,-0.11682 0.815667,0.62994 1.397747,1.46496 1.00897,1.4474 1.06224,1.48428 1.14206,0.79062 0.14012,-1.21778 0.842317,-0.69452 0.842317,0.62766 0,0.28503 0.25443,0.86238 0.56541,1.28299 0.48407,0.65474 0.54128,0.98626 0.39769,2.3044 -0.0922,0.84679 -0.0788,1.67028 0.0299,1.82998 0.10869,0.15968 0.92939,0.36493 1.82377,0.45608 0.89438,0.0912 3.422727,0.52634 5.618557,0.96707 4.029537,0.80878 6.218657,1.08106 12.731338,1.58355 4.78795,0.36941 6.354,0.27827 8.82067,-0.1221 3.97034,-0.64444 3.91017,-3.50837 4.47876,-3.02516 0.15353,0.13048 -0.38861,2.39021 -1.41326,3.16611 -0.96653,0.73189 -1.86883,0.88237 -2.94703,1.21505 -2.43293,0.75068 -7.04521,1.1812 -15.024571,0.99989 -7.495807,-0.17032 -7.546597,-0.1678 -8.546567,0.42431 -0.7127,0.42201 -1.3909,0.58698 -2.326437,0.5659 l -1.32049,-0.0297 -0.51783,1.20806 c -0.32174,0.75058 -0.51783,1.80749 -0.51783,2.79101 0,0.87063 -0.13101,1.82774 -0.29112,2.12692 -0.16012,0.29918 -0.37787,1.09503 -0.48389,1.76855 0,0 0.144892,1.17443 -0.19275,1.22457 -0.337642,0.0501 -0.255445,-0.30195 -0.35234,-0.7276 -0.04935,-0.21677 -0.43279,-0.72761 -0.53112,-0.72761 -0.0983,0 -0.644767,0.59054 -1.214297,1.31231 -1.15574,1.46466 -1.43631,1.6101 -1.42398,0.73822 z"
         id="path5037"
         fill="param(fill) #000"
         fill-opacity="param(fill-opacity)"
         stroke="param(outline) #FFF"
         stroke-opacity="param(outline-opacity)"
         stroke-width="param(outline-width) 0"
         inkscape:connector-curvature="0" />
    </g>
  </g>
</svg>
