<?xml version="1.0" encoding="UTF-8" standalone="no"?>
<!-- Created with Inkscape (http://www.inkscape.org/) -->

<svg
   xmlns:dc="http://purl.org/dc/elements/1.1/"
   xmlns:cc="http://creativecommons.org/ns#"
   xmlns:rdf="http://www.w3.org/1999/02/22-rdf-syntax-ns#"
   xmlns:svg="http://www.w3.org/2000/svg"
   xmlns="http://www.w3.org/2000/svg"
   xmlns:sodipodi="http://sodipodi.sourceforge.net/DTD/sodipodi-0.dtd"
   xmlns:inkscape="http://www.inkscape.org/namespaces/inkscape"
   version="1.1"
   width="1024"
   height="1024"
   viewBox="0 0 1024 1024"
   id="Layer_1"
   xml:space="preserve"
   inkscape:version="0.91 r13725"
   sodipodi:docname="amphibians_tree_frog.svg"><metadata
     id="metadata52"><rdf:RDF><cc:Work
         rdf:about=""><dc:format>image/svg+xml</dc:format><dc:type
           rdf:resource="http://purl.org/dc/dcmitype/StillImage" /><dc:title></dc:title></cc:Work></rdf:RDF></metadata><sodipodi:namedview
     pagecolor="#ffffff"
     bordercolor="#666666"
     borderopacity="1"
     objecttolerance="10"
     gridtolerance="10"
     guidetolerance="10"
     inkscape:pageopacity="0"
     inkscape:pageshadow="2"
     inkscape:window-width="659"
     inkscape:window-height="480"
     id="namedview50"
     showgrid="false"
     inkscape:zoom="0.23046875"
     inkscape:cx="-22.247509"
     inkscape:cy="908.39918"
     inkscape:window-x="0"
     inkscape:window-y="0"
     inkscape:window-maximized="0"
     inkscape:current-layer="Layer_1" /><defs
     id="defs97" /><path
     d="m 755.5,231.90002 c -11.2,-3.5 -23.6,-4.2 -37,-1.9 0,0.4 -0.1,0.5 -0.2,0.6 -18.9,11.9 -36.4,25 -52.8,39.4 0,-0.4 -0.1,-0.5 -0.2,-0.7 -84.08538,-64.75182 -132.12091,-108.11241 -219.8,-145.3 -18.12449,-6.88433 -44.9,-14.5 -64.9,-24.200006 -20,-9.7 -37.2,-21.9 -51.8,-36.9 C 299.3,32.600011 260.6,11.600011 212.5,1.175e-5 l -1,0 -3,0 c 0,0.3 -0.1,0.5 -0.2,0.6 -3.6,2.20000005 -8.5,3.00000005 -14.8,2.40000005 -0.3,0 -0.7,0 -0.9,0.2 -5.8,3.1 -11.2,6.7 -16.1,10.7999992 -0.3,0 -0.7,0 -1,0.1 -11.3,2.6 -20.7,7.2 -28,13.9 l -1,0 c -6.2,0.9 -11.8,2.2 -17,4 0,0.4 0,0.5 -0.1,0.5 -3.6,0.7 -6.9,1.5 -9.9,2.5 -0.3,0 -0.7,0 -1,0.1 -6.6,2.4 -13.6,4.3 -21,5.9 0,0.4 -0.1,0.5 -0.2,0.6 -7.7,4.9 -16.5,8.3 -26.8,10.4 0,0.4 -0.1,0.5 -0.2,0.6 C 51.1,65.600014 36.9,83.400014 27.5,106.00002 l 0,15 0,1 c 18.3,61.5 47.6,111.6 88.3,150.7 22.3,21.4 46.5,40.8 72.7,58.3 50.9,28.7 85.9,73.4 105,134 1.8,5.5 3.1,11.5 4,18 1.1,3.1 1.5,7.1 1.1,12 -0.1,0.4 -0.1,0.6 -0.1,1 2.7,8.3 4.9,17.2 6.5,26.9 0,0 0.1,0.1 0.5,0.1 1.1,2.9 1.5,6.5 1.1,11 -0.1,0.4 -0.1,0.6 -0.1,1 1.1,1.9 1.6,4.6 1.5,8 l 0.5,0 c 1.1,2.9 1.5,6.5 1.1,11 -0.1,0.4 -0.1,0.6 -0.1,1 l 0.5,0 c -1.3,22.4 -6.1,41.4 -14.5,57 -0.4,0 -0.6,0.1 -0.6,0.2 -4.8,11 -10,21.6 -15.4,31.8 0,0.4 -0.1,0.6 -0.2,0.9 -4.7,14.5 -8.4,30.2 -10.8,47.1 -0.3,0 -0.5,0.1 -0.6,0.1 -0.8,3.7 -2,7 -3.4,9.9 0,-0.4 0,-0.5 -0.1,-0.5 -10.8,-0.6 -19.1,1.6 -24.9,6.5 0,0.4 0.1,0.6 0.3,0.9 6.2,9.8 5.8,15.8 -1.3,18.1 0,0.4 -0.1,0.6 -0.2,0.6 -3.2,1.9 -6.5,2 -9.8,0.4 -0.3,0 -0.7,0 -1,0.1 -5.2,0.4 -9.5,0 -13,-1.1 -0.3,0 -0.7,-0.1 -0.9,-0.1 -12.8,-3 -25.1,-6.3 -37.1,-9.9 0,-0.4 -0.1,-0.6 -0.2,-0.6 -7.6,-4.9 -14.5,-10.3 -20.8,-16.4 0,-0.4 0.1,-0.6 0.2,-0.9 1,-3.7 1.9,-7.4 2.8,-11.1 0,-0.4 -0.1,-0.5 -0.2,-0.6 -3.1,-1 -5.7,-2.5 -7.8,-4.4 l -1,0 -11,0 c 0,0.4 0,0.5 -0.1,0.5 -10.9,1.7 -19.9,5.2 -26.9,10.5 0.3,10 5.3,15.3 15,15.9 0.3,0.1 0.7,0.1 1,0.1 1.8,2.9 4.4,5.1 7.8,6.4 0.2,0.1 0.2,0.2 0.2,0.6 18.3,7.7 34.8,17.2 49.8,28.3 0.1,0.1 0.2,0.3 0.2,0.7 4.3,1.1 8.3,2.4 12.1,3.9 0.2,0 0.6,0.1 0.9,0.1 1.2,3.1 3.1,5.6 5.8,7.4 0.1,0 0.2,0.2 0.2,0.6 -13.7,13.1 -31.7,21.6 -54,25.5 l 0,-0.5 -1,0 -20,0 c -0.3,0 -0.7,0.1 -0.9,0.2 -6.6,2 -11.9,5.3 -16.1,9.8 -0.5,4.4 -0.2,8.1 0.8,11.1 0.2,0.2 0.2,0.6 0.2,0.9 4.8,4.7 9.8,9.5 14.8,14.2 0.1,0.2 0.2,0.5 0.2,0.8 5.2,-0.2 9.8,0.1 14,0.5 l 0,-0.5 c 6.2,-3.2 11.5,-7.2 15.8,-12.2 0.1,-0.2 0.2,-0.5 0.2,-0.8 17.8,-9.3 39.8,-14.3 66,-15 l 1,0 0,-1 0,-1 19,0 1,0 c 3.3,-1.1 7.3,-1.4 12,-1.1 0.3,0.1 0.7,0.1 1,0.1 l 0,-1 11,0 1,0 0,-1 c 6.9,-1.1 12.2,-3.8 15.8,-8.2 0.1,-0.2 0.2,-0.5 0.2,-0.8 4.3,-0.7 8,-1.9 11.1,-3.8 0.3,-0.1 0.5,-0.2 0.9,-0.2 13.8,3.2 27.4,6.7 40.9,10.4 0,0.1 0.1,0.3 0.1,0.6 l 22,0 1,0 0,-1 26,0 1,0 c 0.4,0 0.6,-0.1 0.9,-0.3 3.3,-2.2 5.4,-5.8 6.1,-10.7 0,-0.3 -0.1,-0.7 -0.2,-0.9 -4.9,-10 -13.2,-16.7 -24.8,-20.1 -0.4,0 -0.6,0.1 -0.9,0.2 -4.1,2.9 -7.8,6.1 -11.1,9.8 -0.4,0 -0.6,-0.1 -0.9,-0.1 -12,-4.3 -21.4,-11.3 -28.1,-20.9 0,-0.4 -0.1,-0.6 -0.2,-0.9 -1.5,-3.7 -2.4,-8.1 -2.8,-13.1 21.8,-37.5 42.3,-76.4 61.4,-116.8 0,-0.1 0.2,-0.2 0.6,-0.2 2.4,-7.2 4.6,-14.9 6.5,-22.9 0,0 0.1,-0.1 0.5,-0.1 l 0,-1 0,-11 1,0 c 1.4,-4.9 3.1,-9.6 5.4,-13.8 0,-0.1 0.2,-0.2 0.6,-0.2 6.3,2.4 12.9,4.4 20,5.9 0.4,0 0.6,0.1 1,0.1 0.5,1.8 1.8,2.9 3.9,3.4 0,0.1 0.1,0.2 0.1,0.6 8,2 15.3,4.8 21.8,8.4 0.1,0 0.2,0.2 0.2,0.6 28.9,8.8 57.5,17.9 85.9,27.4 0,0.1 0.1,0.2 0.1,0.6 0.4,3.7 0.2,8.7 -0.5,14.9 0,0.1 -0.1,0.1 -0.5,0.1 0,0.4 0,0.6 0.1,1 0.4,5.5 0,10.1 -1.1,14 -0.4,0 -0.5,0 -0.5,0.1 -0.6,8 -1.7,15.3 -3.5,21.9 l 0,17 0,1 0,22 0,1 c 1.4,8.9 2.4,18.3 2.9,28 0.1,0.4 0.1,0.6 0.1,1 3.2,5.9 5.2,12.9 5.9,21 0.1,0.4 0.1,0.6 0.1,1 9.8,15.6 23.7,27.1 41.9,34.4 0.1,0.1 0.1,0.3 0.1,0.6 l 23,0 1,0 c 0,-0.3 0,-0.5 0.1,-0.5 6.5,-1.4 12.2,-3.6 16.9,-6.5 l 1,0 7,0 c 0,-0.3 0,-0.5 0.1,-0.6 54.9,-19.7 102.9,-46.2 143.9,-79.4 -0.1,5.2 -0.4,9.9 -0.9,14.1 -8.1,74.2 -35.5,125.5 -82.1,153.9 -0.4,0 -0.5,0.1 -0.5,0.2 -3.6,9 -9.7,17 -18.5,23.8 -0.4,0 -0.6,0.1 -1,0.2 -11.5,3.3 -22.5,7.2 -33,11.8 l -1,0 c -8.7,0.7 -16.1,0 -22,-2 -0.4,0 -0.6,0.1 -0.7,0.2 -2.7,2.5 -5.1,5 -7.3,7.8 0,0.3 0,0.7 0.1,0.9 3.2,8.8 7.8,16.2 13.9,22.1 l 1,0 c 4.5,-0.3 8.8,-0.5 13,-1 0,-0.3 0.1,-0.6 0.3,-0.8 4.8,-5.6 9.5,-8.4 13.7,-8.2 l 0.5,0 c -19.4,23 -45.9,40.59995 -79.5,52.99995 0,0.4 0,0.5 -0.2,0.6 -13.8,7.8 -27,15.8 -39.8,24.40003 5.9,7.1 12.5,13.6 19.8,19.3 0.1,0.2 0.2,0.3 0.2,0.7 3,0.3 5.6,1.1 7.8,2.3 0.2,0.1 0.2,0.4 0.2,0.7 l 8,0 1,0 0,-1 c 23.3,-19.1 48.2,-36.50003 74.8,-52.40003 0.2,-0.1 0.2,-0.2 0.2,-0.6 2,-0.4 4,-0.7 6,-1 l 1,0 c 19.9,-17.49995 42.9,-31.79995 69.1,-42.79995 0.3,-0.2 0.5,-0.2 0.9,-0.2 0.3,7 0,13.3 -0.9,19 -0.1,0.3 -0.1,0.7 -0.1,1 -5.5,5.2 -9.4,12.1 -11.5,20.89995 0,0.1 -0.1,0.1 -0.5,0.1 l 0,11 0,1 c 1.4,2.6 2.6,5.4 3.8,8.1 0.2,0.3 0.2,0.5 0.2,0.9 6.9,3.1 14.5,5.4 23,6.9 0.4,0 0.6,0.1 1,0.1 5,-1.6 8.6,-4.6 10.8,-9.1 0.2,-0.3 0.2,-0.5 0.2,-0.9 l 0,-1 0,-21 1,0 0,-1 c 1,-13.29995 3.3,-25.39995 6.9,-35.99995 0.1,-0.3 0.1,-0.7 0.1,-1 37,-42.7 64.1,-95.3 81.4,-157.9 0.1,-0.4 0.2,-0.7 0.6,-1.1 1.9,-10.1 3.9,-20.1 5.9,-30 0.1,-0.4 0.1,-0.6 0.1,-1 7.6,-21 14.5,-42.9 20.5,-65.9 0,0 0.1,-0.1 0.5,-0.1 -0.1,-7.4 1.5,-13.1 4.8,-17.2 0.1,-0.2 0.2,-0.4 0.2,-0.8 -0.5,-5.5 -0.2,-10.2 0.9,-14.1 0.1,-0.3 0.1,-0.5 0.1,-0.9 l 0,-1 0,-18 c 0,-0.4 0,-0.6 -0.2,-0.9 -4.2,-9.1 -8.1,-18.5 -11.8,-28.1 0,-0.4 -0.1,-0.6 -0.2,-0.7 -8.6,-6.5 -17.5,-12.6 -26.8,-18.3 -0.4,0 -0.6,0 -1,-0.1 -1.5,-0.1 -4.5,-0.1 -9,0.1 l 0,1 0,0.5 c -5,0.4 -10,0.5 -15,0.5 0,0.4 0,0.5 -0.1,0.5 -5.3,1 -10.9,1.5 -16.9,1.5 0,0.4 0,0.6 -0.2,0.6 -24.8,11 -48.7,19.5 -71.8,25.4 8.3,-4.1 13.5,-11.1 15.9,-21.1 0.1,-0.3 0.1,-0.5 0.1,-0.9 1.5,-0.9 2.6,-2.1 3.4,-3.8 0.1,-0.1 0.2,-0.2 0.6,-0.2 10.9,-26.9 20.8,-54.5 29.9,-83 0.1,-0.4 0.1,-0.6 0.1,-1 5,-7 6.9,-17.4 5.5,-31 l 0.5,0 0,-1 0,-23 c 0,-0.4 0,-0.6 -0.1,-1 -0.7,-4.2 -1,-8.2 -0.9,-12 l 1,0 c 0,-0.4 0,-0.6 -0.1,-1 -0.5,-2.3 -0.9,-5 -0.9,-8 1.5,0.2 2.5,0.9 2.9,2 0.1,0.4 0.1,0.6 0.1,1 27.4,39 60.4,72.2 99.1,99.7 0.3,0.2 0.5,0.3 0.9,0.3 6.1,5.9 13.1,10.9 20.8,15.4 0.2,0 0.2,0.2 0.2,0.6 4.1,0.2 7.4,1.4 9.8,3.3 0.1,0.1 0.2,0.3 0.2,0.7 5,0.2 10,0.7 15,1.5 l 0,0.5 c 5.3,2.4 10.9,4.4 17,5.9 0.4,0 0.6,0.1 1,0.1 5.2,1.1 11.2,1.5 18,1.1 0.4,-0.1 0.6,-0.1 1,-0.1 l 0,-1 c 11.9,-1.5 19.5,-7.2 22.9,-17.1 0.1,-0.3 0.1,-0.5 0.1,-0.9 l 0,-1 0,-13 -0.5,0 c 0.1,-3.5 -0.4,-6.1 -1.5,-8 l -0.5,0 c -0.4,-4 -0.5,-8 -0.5,-12 -0.4,0 -0.5,0 -0.5,-0.1 -4.4,-11.9 -7.5,-24.9 -9.5,-38.9 l -0.5,0 c -0.4,-4 -0.5,-8 -0.5,-12 -0.4,0 -0.5,0 -0.5,-0.1 -0.4,-1.6 -0.5,-3.3 -0.5,-4.9 l -0.5,0 c -0.4,-9 -0.5,-18 -0.5,-27 l 1,0 0,-1 c 5.8,-21.5 16.1,-38.5 31.2,-50.8 0.2,-0.1 0.4,-0.2 0.8,-0.2 l 0,-1 0,-2 c -0.4,0 -0.5,0 -0.5,-0.1 -1.1,-7.1 -4.4,-12 -9.5,-14.9 -0.4,0 -0.6,0 -0.9,-0.2 -5.9,-3.2 -11.6,-3.1 -17.1,0.2 0,1 0.2,2 0.5,2.9 0,0.1 0.1,0.1 0.5,0.1 1.1,4.5 1.4,9.8 0.5,16 l -0.5,0 c -0.4,0 -0.5,0 -0.6,0.2 -2.9,4.6 -5.4,9.5 -7.4,14.8 -0.4,0 -0.6,0.1 -0.9,0.2 -2.7,1.8 -5.8,3.4 -9.1,4.8 -0.4,0 -0.5,0 -0.5,-0.1 -2.7,-12.2 -4.5,-22.8 -5.5,-31.9 0.4,-0.4 0.6,-0.7 0.8,-1.1 0.2,-0.3 0.2,-0.5 0.2,-0.9 l -0.5,0 c -0.4,-4 -0.5,-8 -0.5,-12 l 1,0 0,-1 c 0.6,-7.4 1.3,-14.6 2,-22 l 0,-1 0,-1 0,-12 1,0 0,-1 c 1.1,-4.1 1.6,-9.1 1.5,-15 l 0.5,0 0,-1 0,-14 1,0 c 1.1,-3.9 1.6,-8.5 1.5,-14 l 0.5,0 0,-1 0,-14 1,0 c 0.4,0 0.5,-0.1 0.6,-0.3 3.1,-4.3 4.9,-9.9 5.4,-16.7 0,-0.4 -0.1,-0.6 -0.2,-0.8 -2.2,-2.2 -4.4,-4.2 -6.8,-6.2 -0.4,0 -0.6,0 -1,-0.1 -2,-0.6 -4,-1.3 -6,-1.9 l -1,0 -15,0 c 0,0.4 0,0.5 -0.1,0.5 -4,1.6 -7.3,3.7 -9.9,6.5 l 0,11 0,1 c 4.6,4 7.1,10.4 7.5,19 l 0.5,0 c 1.1,14.1 1.4,29.1 0.5,45 l -0.5,0 -0.5,0 c -1.9,13.9 -3.4,27.9 -4.5,42 -0.4,0 -0.5,0 -0.6,0.2 -2.5,5.5 -4.4,11.8 -5.4,18.8 l 0,0.5 c -2.9,-1.8 -6.5,-2.9 -11,-3.5 0,-0.4 0,-0.5 -0.2,-0.6 -19.1,-10.4 -35,-23.9 -47.8,-40.4 l -1,0 c -4,-0.4 -7.4,0 -10,1 -0.4,0 -0.6,0.1 -0.9,0.2 -5,3.7 -9.6,7.6 -14.1,11.8 0,-0.4 -0.1,-0.6 -0.2,-0.8 -24,-31 -49.7,-60.3 -76.8,-88.2 -0.4,0 -0.6,0 -1,-0.1 z m 89.3,102.8 c -0.2,-0.1 -0.3,-0.3 -0.3,-0.7 24.3,6 41.9,18.7 52.8,38.1 0.2,0.3 0.2,0.5 0.2,0.9 -0.7,6.6 -3.7,10.9 -9,12.9 -0.4,0.1 -0.6,0.1 -1,0.1 -6.2,-1.8 -10.6,-5.4 -13.4,-10.8 -0.1,-0.2 -0.2,-0.2 -0.6,-0.2 -7.7,-15.3 -17.3,-28.7 -28.7,-40.3 z"
     id="path9"
     inkscape:connector-curvature="0"
     fill="param(fill) #000"
     fill-opacity="param(fill-opacity)"
     stroke="param(outline) #FFF"
     stroke-opacity="param(outline-opacity)"
     stroke-width="param(outline-width) 0" /></svg>