<?xml version="1.0" encoding="UTF-8" standalone="no"?>
<!-- Created with Inkscape (http://www.inkscape.org/) -->

<svg
   xmlns:dc="http://purl.org/dc/elements/1.1/"
   xmlns:cc="http://creativecommons.org/ns#"
   xmlns:rdf="http://www.w3.org/1999/02/22-rdf-syntax-ns#"
   xmlns:svg="http://www.w3.org/2000/svg"
   xmlns="http://www.w3.org/2000/svg"
   xmlns:sodipodi="http://sodipodi.sourceforge.net/DTD/sodipodi-0.dtd"
   xmlns:inkscape="http://www.inkscape.org/namespaces/inkscape"
   version="1.1"
   width="10in"
   height="10in"
   id="svg2"
   inkscape:version="0.91 r13725"
   sodipodi:docname="birds_wader.svg">
  <metadata
     id="metadata11">
    <rdf:RDF>
      <cc:Work
         rdf:about="">
        <dc:format>image/svg+xml</dc:format>
        <dc:type
           rdf:resource="http://purl.org/dc/dcmitype/StillImage" />
        <dc:title></dc:title>
      </cc:Work>
    </rdf:RDF>
  </metadata>
  <sodipodi:namedview
     pagecolor="#ffffff"
     bordercolor="#666666"
     borderopacity="1"
     objecttolerance="10"
     gridtolerance="10"
     guidetolerance="10"
     inkscape:pageopacity="0"
     inkscape:pageshadow="2"
     inkscape:window-width="659"
     inkscape:window-height="480"
     id="namedview9"
     showgrid="false"
     fit-margin-top="0"
     fit-margin-left="0"
     fit-margin-right="0"
     fit-margin-bottom="0"
     inkscape:zoom="0.31716402"
     inkscape:cx="459.28984"
     inkscape:cy="478.18685"
     inkscape:window-x="0"
     inkscape:window-y="0"
     inkscape:window-maximized="0"
     inkscape:current-layer="svg2"
     units="in"
     width="855in" />
  <defs
     id="defs4" />
  <path
     d="m 375.90171,692.25114 c -3.52744,-5.226 -7.54451,-6.221 -32.78788,-8.125 -7.19382,-0.543 -8.28767,-0.745 -9.42238,-1.743 -1.15644,-1.017 -1.82109,-1.129 -6.70175,-1.129 l -5.41798,0 -1.57085,-2.382 c -1.28904,-1.956 -1.99504,-2.494 -3.93525,-3.003 -3.05007,-0.799 -7.42958,-0.845 -11.48398,-0.12 -4.00698,0.717 -18.78643,1.273 -47.06983,1.77 -20.69084,0.364 -21.91427,0.336 -22.93308,-0.526 -0.59192,-0.501 -1.07622,-1.455 -1.07622,-2.12 0,-1.624 -0.74745,-2.855 -3.86196,-6.36 -2.33595,-2.628 -2.61137,-3.188 -2.46826,-5.016 l 0.16109,-2.058 19.31206,-0.298 c 10.62164,-0.164 21.84678,-0.546 24.94475,-0.848 8.35109,-0.816 22.63022,-1.629 28.43923,-1.621 3.6919,0 5.84372,-0.252 7.77847,-0.931 8.54747,-3 8.94708,-3.189 9.56431,-4.519 0.34132,-0.736 1.73712,-2.295 3.10178,-3.465 1.36465,-1.169 3.61034,-3.648 4.99041,-5.507 3.83788,-5.169 5.11658,-6.801 6.18701,-7.895 0.54019,-0.552 2.4772,-3.373 4.30447,-6.271 1.82727,-2.897 3.97879,-6.057 4.78115,-7.023 1.40412,-1.69 7.02854,-12.069 7.02854,-12.97 0,-0.242 0.49771,-1.031 1.10602,-1.754 1.69435,-2.015 5.86778,-9.703 5.86778,-10.81 0,-0.54 0.33981,-1.3 0.75513,-1.689 1.04678,-0.979 4.52465,-6.115 5.10158,-7.534 0.26131,-0.643 1.10565,-1.869 1.87633,-2.726 0.77067,-0.856 1.78678,-2.42 2.25802,-3.475 0.47124,-1.055 1.31284,-2.46 1.87023,-3.122 0.70571,-0.839 1.01342,-2.017 1.01342,-3.879 0,-2.228 0.25725,-2.95 1.54022,-4.322 2.51618,-2.692 4.36069,-5.48 4.36069,-6.591 0,-0.573 0.93598,-2.742 2.07995,-4.822 1.60094,-2.909 2.14136,-4.545 2.34655,-7.1 0.19903,-2.479 0.62361,-3.811 1.67517,-5.259 1.19398,-1.643 1.40857,-2.481 1.40857,-5.504 0,-1.962 0.34513,-4.639 0.76695,-5.95 0.60977,-1.895 0.70418,-4.661 0.46069,-13.499 -0.26813,-9.733 -0.43035,-11.282 -1.30339,-12.448 -0.54843,-0.732 -0.99714,-1.816 -0.99714,-2.408 0,-0.592 -0.35508,-1.718 -0.78908,-2.503 l -0.78908,-1.427 -22.68044,-0.314 c -28.86786,-0.399 -40.16524,-1.18 -54.59899,-3.777 -5.02825,-0.905 -6.36741,-1.051 -13.67938,-1.494 -4.13064,-0.25 -9.07936,-0.8 -10.99715,-1.222 -1.9178,-0.423 -5.29741,-1.131 -7.51025,-1.573 -6.67434,-1.336 -9.80777,-2.378 -12.22481,-4.067 -1.89002,-1.321 -3.13452,-1.717 -6.9738,-2.219 -2.57029,-0.336 -6.16282,-1.148 -7.98342,-1.805 -1.82059,-0.656 -3.6311,-1.191 -4.02335,-1.188 -1.44381,0.01 -10.54523,-2.96 -18.3282,-5.981 -2.90222,-1.126 -7.41742,-2.58 -10.03377,-3.231 -3.41679,-0.851 -5.29945,-1.63 -6.68238,-2.765 -1.05897,-0.87 -3.31494,-2.237 -5.01329,-3.039 -3.42417,-1.616 -12.47881,-6.689 -14.56837,-8.161 -0.73762,-0.52 -3.15163,-2.027 -5.36447,-3.348 -2.21284,-1.321 -5.3589,-3.202 -6.99124,-4.178 -3.43167,-2.054 -7.34595,-5.154 -17.79454,-14.094 -4.12286,-3.527 -8.05375,-6.755 -8.7353,-7.173 -0.68154,-0.418 -2.48655,-2.328 -4.01112,-4.245 -1.60925,-2.024 -3.26341,-3.574 -3.94361,-3.695 -4.54187,-0.807 -7.29254,-1.308 -8.68191,-1.583 -2.5926,-0.511 -13.38447,-1.126 -20.9214,-1.192 -5.22149,-0.04 -7.23546,-0.246 -8.01512,-0.797 -0.72723,-0.515 -2.42612,-0.737 -5.63268,-0.737 -4.32863,0 -4.85231,0.122 -9.15117,2.132 -4.78475,2.237 -5.53199,2.841 -20.9214,16.896 -8.359057,7.635 -10.126567,8.907 -17.434497,12.547 -2.95046,1.47 -6.45077,3.293 -7.77847,4.053 -1.32771,0.759 -3.34644,1.658 -4.48607,1.997 -1.94235,0.578 -2.15844,0.536 -3.45179,-0.673 -1.2292,-1.15 -1.41818,-1.827 -1.73217,-6.203 -0.38661,-5.389 -0.27108,-5.741 3.04515,-9.274 0.95652,-1.019 1.99391,-2.738 2.3053,-3.819 0.3114,-1.082 1.20339,-2.844 1.98222,-3.917 0.77882,-1.072 1.85302,-2.902 2.38711,-4.067 0.53409,-1.164 1.91866,-3.083 3.07683,-4.264 2.04623,-2.086 5.45656,-8.108 5.45656,-9.634 0,-0.417 1.02595,-1.887 2.27989,-3.268 1.25395,-1.381 3.3662,-3.767 4.69391,-5.302 1.3277,-1.535 3.74171,-3.619 5.36446,-4.632 4.878227,-3.044 7.555747,-5.247 9.743527,-8.017 3.21882,-4.074 3.38655,-4.821 1.69076,-7.527 -1.11063,-1.772 -1.5424,-3.321 -1.87841,-6.738 -1.28824,-13.1 -1.48552,-14.307 -3.30702,-20.239 -0.3389,-1.104 -0.61617,-5.087 -0.61617,-8.852 0,-5.681 0.15198,-7.004 0.89378,-7.776 1.17217,-1.22 2.17495,-3.776 3.91413,-9.975 0.15712,-0.56 1.13117,-2.246 2.16456,-3.746 1.11888,-1.624 1.87889,-3.358 1.87889,-4.286 0,-1.697 6.14111,-11.818 9.54057,-15.724 4.11159,-4.724 7.97722,-8.27299 9.77149,-8.96999 2.32633,-0.905 6.74091,-4.685 8.7505,-7.493 1.51435,-2.117 5.90679,-5.406 11.90268,-8.913 1.77027,-1.036 3.70148,-2.292 4.29157,-2.793 3.72041,-3.154 17.74956,-8.575 23.77437,-9.186 2.73058,-0.277 10.68883,-2.306 13.50864,-3.443 1.41237,-0.57 9.74118,-1.151 23.60364,-1.646 13.89341,-0.497 13.3484,-0.377 18.10413,-3.982 5.13806,-3.895 9.68241,-6.809 10.61696,-6.809 1.12062,0 7.77653,-3.392 10.38346,-5.291 1.30783,-0.953 2.78851,-1.733 3.29039,-1.733 0.50189,0 1.48822,-0.418 2.19186,-0.93 0.70364,-0.512 2.18124,-1.205 3.28355,-1.541 1.10231,-0.337 2.14251,-0.821 2.31156,-1.077 0.16904,-0.256 0.83626,-0.477 1.4827,-0.491 0.64644,-0.01 2.67229,-0.748 4.50188,-1.631 1.8296,-0.882 6.17481,-2.987 9.65603,-4.678 3.48122,-1.691 7.5365,-3.457 9.01173,-3.925 1.47523,-0.467 3.40643,-1.267 4.29157,-1.778 2.09442,-1.208 9.97446,-3.791 17.49843,-5.735 1.65791,-0.428 3.31549,-1.118 3.6835,-1.532 0.36802,-0.415 1.66695,-0.992 2.88653,-1.283 2.18035,-0.521 4.66785,-1.466 7.31364,-2.779 0.73762,-0.366 2.47975,-1.24 3.87141,-1.943 1.39165,-0.703 3.21717,-1.278 4.05669,-1.278 0.83953,0 2.51166,-0.445 3.71585,-0.989 2.73491,-1.236 5.66476,-1.83 11.15502,-2.26 4.72371,-0.37 9.10084,-1.394 10.41578,-2.437 1.61135,-1.277 11.54427,-4.121 16.13831,-4.621 10.7835,-1.173 21.99999,-1.461 51.12878,-1.315 27.58945,0.139 31.70548,0.06 32.79948,-0.607 1.34418,-0.824 0.13442,-0.768 39.45437,-1.808 25.44584,-0.673 36.44267,-0.324 44.52504,1.415 1.3277,0.286 4.10381,0.789 6.16913,1.118 2.06531,0.33 4.18251,0.806 4.7049,1.058 1.07305,0.518 7.62601,2.2 12.46138,3.199 1.77027,0.365 4.18428,0.918 5.36446,1.228 1.18018,0.31 3.71489,0.895 5.63268,1.301 4.34575,0.918 7.00422,1.743 8.0467,2.498 0.44257,0.321 2.49447,1.08 4.55979,1.686 4.54692,1.336 10.3076,3.84 11.88405,5.165 0.63537,0.534 1.96308,1.158 2.95046,1.387 0.98744,0.229 3.12303,0.905 4.74578,1.501 1.62275,0.596 3.57852,1.268 4.34612,1.492 0.7676,0.224 2.37201,1.012 3.56533,1.751 2.45934,1.522 9.17575,3.778 11.31789,3.802 0.78311,0 1.89242,0.348 2.46513,0.753 1.31837,0.932 6.14285,0.966 7.5566,0.05 1.3335,-0.862 3.55272,-1.277 9.64128,-1.803 4.83917,-0.419 7.70208,-1.156 11.07026,-2.853 1.65162,-0.832 3.06987,-1.25 9.3147,-2.748 4.16969,-1.001 9.09471,-1.11 10.88901,-0.243 0.9153,0.443 2.1875,0.805 2.827,0.805 0.6396,0 1.9876,0.677 2.9958,1.505 1.7296,1.42 2.0904,1.505 6.4007,1.505 2.8639,0 5.109,-0.262 6.0187,-0.702 1.0245,-0.495 3.8938,-0.734 9.7635,-0.813 10.4938,-0.142 14.3942,0.358 18.505,2.372 8.2803,4.055 8.5917,4.16 12.3281,4.16 2.5945,0 3.9973,0.254 5.0236,0.909 0.7832,0.5 2.905,1.517 4.7152,2.26 3.6107,1.481 2.1763,1.499 15.2162,-0.19 2.2128,-0.287 5.5249,-0.684 7.3601,-0.883 1.8352,-0.198 3.6337,-0.638 3.9965,-0.978 0.3629,-0.339 1.5177,-0.617 2.5664,-0.617 1.1177,0 3.6817,-0.803 6.196,-1.942 2.3591,-1.068 5.1342,-2.111 6.1668,-2.318 1.0327,-0.206 2.5295,-0.687 3.3261,-1.067 0.7968,-0.381 2.1164,-0.693 2.9326,-0.693 1.795,0 5.819,-1.345 7.7717,-2.598 0.7832,-0.502 2.3558,-0.913 3.4949,-0.913 1.139,0 2.9122,-0.417 3.9405,-0.927 1.0283,-0.509 2.529,-1.077 3.335,-1.261 0.806,-0.184 2.2931,-1.015 3.3046,-1.845 1.0116,-0.831 3.3697,-1.98 5.2402,-2.554 3.9756,-1.22 7.24455,-2.92 9.02565,-4.693 0.8407,-0.837 1.8445,-1.262 2.9796,-1.262 0.9414,0 2.2874,-0.404 2.991,-0.898 0.7037,-0.494 1.9544,-1.171 2.7795,-1.505 1.827,-0.739 11.7265,-1.6 18.4636,-1.606 5.945,0 6.0453,0.09 6.4609,6.323 l 0.2776,4.161 -3.767,3.41 c -2.0719,1.875 -4.7975,4.312 -6.057,5.416 -1.2595,1.104 -2.8495,3.135 -3.5333,4.515 -0.8147,1.644 -2.9594,4.084 -6.2212,7.08 -2.7378,2.514 -6.2032,5.788 -7.7008,7.274 -1.4976,1.487 -4.6961,4.477 -7.1079,6.647 -2.4118,2.169 -4.38495,4.16 -4.38495,4.425 0,0.911 12.28875,-0.101 16.36155,-1.347 4.167,-1.274 9.6047,-2.129 16.0933,-2.528 3.9885,-0.245 8.467,-0.923 15.0205,-2.273 1.4753,-0.304 4.01,-0.733 5.6327,-0.954 4.1552,-0.564 8.6613,-1.376 9.9243,-1.788 0.5901,-0.192 2.642,-0.918 4.5598,-1.613 4.6063,-1.669 12.2086,-2.18 13.565,-0.912 0.8417,0.787 0.8428,0.932 0.017,2.11 -1.7912,2.557 -7.6227,6.58 -13.2349,9.131 -3.1353,1.425 -6.2123,2.59 -6.8377,2.59 -0.6254,0 -4.0679,0.65 -7.65,1.443 -7.5796,1.678 -12.5178,2.571 -14.2264,2.571 -1.0863,0 -8.602,2.219 -14.2808,4.217 -1.1802,0.416 -3.051,0.765 -4.1574,0.777 -1.3984,0.02 -2.0117,0.247 -2.0117,0.757 0,1.17 1.8208,1.774 5.3464,1.774 1.7992,0 4.1378,0.338 5.197,0.752 1.1214,0.438 3.5792,0.753 5.8837,0.753 4.1914,0 4.6656,0.337 3.1361,2.228 -0.4332,0.535 -0.7876,1.865 -0.7876,2.954 0,1.614 -0.3982,2.384 -2.1562,4.167 -1.6849,1.71 -2.0854,2.452 -1.8324,3.394 0.3234,1.205 0.3176,1.207 -4.9771,1.381 -4.5696,0.149 -5.7044,0.37 -8.2259,1.599 -4.1471,2.022 -8.9391,3.633 -11.9198,4.006 -4.0913,0.513 -5.6548,1.518 -6.3445,4.08 -0.7514,2.79 -1.5282,3.39 -5.85035,4.521 -1.9178,0.502 -6.1424,1.76899 -9.3879,2.81599 -3.2455,1.047 -7.6674,2.247 -9.8265,2.666 -2.1591,0.42 -4.6938,1.188 -5.6327,1.708 -0.9388,0.52 -2.5519,1.23 -3.5846,1.576 -1.8856,0.634 -6.4785,2.638 -17.4345,7.608 -3.2455,1.472 -7.1845,3.586 -8.7534,4.697 -3.6881,2.611 -5.5218,3.823 -7.4149,4.898 -0.844,0.479 -2.9828,2.019 -4.7531,3.423 -1.7703,1.404 -4.9085,3.462 -6.9738,4.573 -2.0653,1.112 -5.0828,2.757 -6.7056,3.658 -2.0173,1.119 -3.905,1.724 -5.9688,1.912 -7.0949,0.649 -7.565,0.96 -21.5924,14.285 -7.045,6.693 -13.4701,13.127 -14.2779,14.298 -0.8078,1.171 -2.2543,2.807 -3.2143,3.634 -3.5993,3.104 -9.1145,9.31 -9.4644,10.65 -0.1996,0.765 -0.9296,2.028 -1.6224,2.808 -0.6927,0.78 -1.2595,1.742 -1.2595,2.138 0,0.395 -0.8981,1.902 -1.9957,3.347 -1.0977,1.446 -3.0343,4.065 -4.3037,5.82 -2.6878,3.717 -5.34635,5.99 -19.73872,16.876 -5.83691,4.414 -13.32151,10.453 -16.63251,13.419 -3.31095,2.966 -6.26312,5.393 -6.56042,5.393 -0.29724,0 -1.95508,0.968 -3.68404,2.151 -4.14416,2.835 -9.03574,5.374 -10.35223,5.374 -1.27991,0 -3.53636,0.875 -5.54235,2.149 -0.81712,0.519 -2.93173,1.473 -4.69916,2.121 -1.76743,0.648 -4.79181,2.21 -6.72087,3.471 -1.92906,1.261 -3.70094,2.292 -3.93762,2.292 -0.23663,0 -1.40211,0.659 -2.58991,1.464 -1.18785,0.804 -3.09492,1.909 -4.23798,2.454 -1.14301,0.546 -2.56105,1.494 -3.15114,2.108 -0.59009,0.613 -2.4006,1.663 -4.02335,2.333 -1.70439,0.704 -4.3098,2.45 -6.16913,4.135 -1.77027,1.605 -4.36399,3.42 -5.76384,4.035 -1.39981,0.614 -2.67188,1.308 -2.82681,1.543 -0.15492,0.234 -2.14782,0.789 -4.42863,1.233 -2.28086,0.444 -4.8712,1.109 -5.75633,1.479 -3.96236,1.657 -9.0778,4.017 -15.19291,7.012 -3.63534,1.78 -7.98055,3.612 -9.65604,4.07 -1.67542,0.458 -4.01991,1.152 -5.20996,1.541 -1.19005,0.389 -2.75916,0.712 -3.4869,0.718 -0.72774,0 -1.9267,0.453 -2.66432,0.992 -0.73761,0.54 -1.61089,0.986 -1.94064,0.992 -0.3297,0 -2.86441,0.721 -5.63269,1.588 -2.76822,0.867 -6.36086,1.839 -7.98361,2.16 l -2.95045,0.584 0.16163,6.95 c 0.14709,6.323 0.28035,7.139 1.47823,9.05 0.93122,1.486 1.22562,2.527 1.00595,3.557 -0.19393,0.91 0.0826,2.314 0.73627,3.738 0.57577,1.255 1.21768,3.228 1.42646,4.383 0.20879,1.156 0.93868,2.872 1.622,3.813 1.23833,1.707 1.58981,3.487 2.21225,11.202 0.26908,3.335 0.18336,3.753 -1.09081,5.315 -0.76057,0.932 -1.38285,2.165 -1.38285,2.738 0,0.574 -0.8449,2.078 -1.87756,3.344 -1.16457,1.426 -1.87756,2.861 -1.87756,3.778 0,0.813 -0.6035,2.31 -1.34112,3.327 -0.73761,1.016 -1.34648,2.211 -1.35302,2.656 -0.006,0.444 -0.48404,1.372 -1.06099,2.062 -0.66396,0.794 -1.05342,2.046 -1.06098,3.412 -0.006,1.187 -0.47132,2.993 -1.03287,4.013 -1.75311,3.186 -2.73416,5.609 -2.73416,6.754 0,0.606 -0.45684,2.235 -1.01523,3.62 -0.55838,1.385 -1.38472,3.873 -1.83625,5.528 -0.45153,1.656 -1.29493,4.252 -1.87424,5.769 -0.57931,1.518 -1.53391,4.679 -2.12127,7.024 -0.58741,2.345 -1.43883,5.28 -1.8921,6.521 -0.45326,1.242 -1.23994,3.612 -1.74818,5.268 -0.50823,1.655 -1.35881,4.252 -1.89017,5.769 -0.53136,1.518 -1.13493,3.888 -1.34126,5.268 -0.20632,1.379 -0.61211,3.072 -0.90174,3.762 -0.28963,0.69 -0.71861,1.932 -0.95329,2.759 -0.23468,0.828 -0.78834,2.747 -1.23036,4.264 -0.44201,1.518 -0.97355,3.888 -1.18118,5.268 -0.20764,1.38 -0.71181,3.741 -1.12038,5.247 -0.40858,1.507 -0.74286,4.842 -0.74286,7.411 0,4.116 -0.15634,4.893 -1.3162,6.541 -1.19218,1.695 -1.37322,2.696 -1.92129,10.624 -0.41139,5.951 -0.84867,9.078 -1.36603,9.768 -0.41852,0.559 -0.76094,1.439 -0.76094,1.956 0,1.623 -2.21813,3.94 -4.77859,4.992 -1.35489,0.557 -3.0137,1.413 -3.68624,1.902 -0.67253,0.489 -2.24164,1.049 -3.4869,1.245 -1.24525,0.195 -3.13615,0.998 -4.202,1.784 -1.41327,1.044 -2.79289,1.522 -5.09623,1.766 -1.73709,0.185 -3.79912,0.755 -4.58227,1.267 -1.07819,0.705 -2.39673,0.931 -5.43039,0.931 -2.92138,0 -4.70578,0.289 -6.5886,1.068 -2.53614,1.049 -6.69832,1.483 -19.9984,2.082 l -4.47322,0.201 -1.27332,-1.886 z m 8.28786,-26.779 c 1.59286,-0.397 3.1499,-0.958 3.46008,-1.248 0.31371,-0.294 2.95625,-0.544 5.95524,-0.564 8.42909,-0.06 11.51185,-0.685 17.93273,-3.651 3.58176,-1.654 7.34901,-5.095 9.18304,-8.388 0.54861,-0.985 1.85971,-2.756 2.91354,-3.935 1.05383,-1.18 1.91606,-2.56 1.91606,-3.068 0,-0.507 0.57736,-2.235 1.28301,-3.84 2.70508,-6.152 3.54501,-8.352 3.54501,-9.287 0,-0.959 0.51612,-2.666 3.00366,-9.937 0.70835,-2.07 1.28791,-4.392 1.28791,-5.159 0,-0.768 0.34464,-1.896 0.76586,-2.507 0.42123,-0.611 1.03909,-2.578 1.37303,-4.372 0.58747,-3.155 1.12173,-5.119 3.27951,-12.054 0.56042,-1.801 1.01895,-3.679 1.01895,-4.172 0,-0.493 0.26641,-1.362 0.59203,-1.931 0.32561,-0.569 0.79268,-2.191 1.03794,-3.604 1.50385,-8.666 2.10928,-11.823 2.60957,-13.606 0.76836,-2.74 0.75098,-17.569 -0.023,-19.57 -0.4609,-1.192 -0.45249,-2.683 0.0341,-6.056 0.35507,-2.461 0.76853,-5.942 0.91881,-7.735 0.26527,-3.166 0.36379,-3.349 3.37872,-6.271 1.70802,-1.656 3.9972,-4.389 5.08708,-6.075 l 1.98158,-3.066 -0.25353,-6.717 c -0.28226,-7.478 -1.18572,-17.724 -1.66619,-18.895 -0.26448,-0.644 -1.17721,-0.708 -5.95623,-0.419 -3.10413,0.187 -6.90028,0.573 -8.43587,0.857 -1.5356,0.284 -7.01651,0.724 -12.1798,0.978 -5.1633,0.255 -13.69254,0.674 -18.95388,0.931 -7.85065,0.385 -9.75055,0.625 -10.59481,1.34 -1.43806,1.217 -1.30365,3.683 0.31237,5.732 0.73761,0.935 1.34112,2.064 1.34112,2.51 0,0.445 0.35442,1.248 0.78761,1.784 0.43318,0.535 0.79528,1.475 0.80467,2.089 0.009,0.613 0.48597,2.08 1.0591,3.26 0.57312,1.181 1.66421,3.743 2.42463,5.694 0.88804,2.279 2.05037,4.154 3.24952,5.241 l 1.86694,1.692 0,7.865 0,7.866 -3.74364,4.376 c -3.13082,3.66 -3.80069,4.779 -4.09203,6.832 -0.34368,2.423 -2.58136,5.681 -7.9386,11.558 -1.98178,2.174 -4.47364,5.425 -5.9518,7.766 -5.14656,8.15 -6.50105,10.205 -7.73265,11.733 -0.77821,0.966 -2.47289,3.788 -3.76593,6.271 -1.29305,2.484 -3.00884,5.305 -3.81288,6.271 -1.71072,2.055 -3.19593,5.182 -3.19593,6.73 0,0.599 -1.20701,2.424 -2.68223,4.056 -1.65111,1.826 -2.6888,3.457 -2.69929,4.242 -0.009,0.702 -0.37149,1.715 -0.80467,2.25 -0.43319,0.536 -0.78761,1.336 -0.78761,1.779 0,0.444 -1.06866,2.328 -2.3748,4.187 -1.30614,1.86 -2.61947,4.333 -2.91852,5.495 -0.29906,1.163 -1.32928,4.423 -2.2894,7.245 -1.66008,4.879 -1.71152,5.261 -1.04918,7.776 0.94702,3.596 2.73664,6.076 7.09425,9.834 2.64173,2.278 3.68343,3.526 3.68343,4.414 0,1.622 1.31928,3.968 2.52828,4.496 0.52724,0.231 3.49333,0.678 6.59131,0.994 3.09797,0.316 5.87408,0.604 6.16913,0.639 0.29504,0.04 1.8397,-0.26 3.43257,-0.656 z"
     id="path3052"
     fill="param(fill) #000"
     fill-opacity="param(fill-opacity)"
     stroke="param(outline) #FFF"
     stroke-opacity="param(outline-opacity)"
     stroke-width="param(outline-width) 0"
     inkscape:connector-curvature="0" />
</svg>
