<?xml version="1.0" encoding="UTF-8" standalone="no"?>
<!-- Created with Inkscape (http://www.inkscape.org/) -->

<svg
   xmlns:dc="http://purl.org/dc/elements/1.1/"
   xmlns:cc="http://creativecommons.org/ns#"
   xmlns:rdf="http://www.w3.org/1999/02/22-rdf-syntax-ns#"
   xmlns:svg="http://www.w3.org/2000/svg"
   xmlns="http://www.w3.org/2000/svg"
   xmlns:sodipodi="http://sodipodi.sourceforge.net/DTD/sodipodi-0.dtd"
   xmlns:inkscape="http://www.inkscape.org/namespaces/inkscape"
   version="1.0"
   width="381"
   height="381"
   id="svg2208"
   inkscape:version="0.91 r13725"
   sodipodi:docname="birds_pelican.svg">
  <metadata
     id="metadata7">
    <rdf:RDF>
      <cc:Work
         rdf:about="">
        <dc:format>image/svg+xml</dc:format>
        <dc:type
           rdf:resource="http://purl.org/dc/dcmitype/StillImage" />
        <dc:title></dc:title>
      </cc:Work>
    </rdf:RDF>
  </metadata>
  <sodipodi:namedview
     pagecolor="#ffffff"
     bordercolor="#666666"
     borderopacity="1"
     objecttolerance="10"
     gridtolerance="10"
     guidetolerance="10"
     inkscape:pageopacity="0"
     inkscape:pageshadow="2"
     inkscape:window-width="659"
     inkscape:window-height="480"
     id="namedview5"
     showgrid="false"
     inkscape:zoom="0.61942257"
     inkscape:cx="188"
     inkscape:cy="190.5"
     inkscape:window-x="0"
     inkscape:window-y="0"
     inkscape:window-maximized="0"
     inkscape:current-layer="svg2208" />
  <defs
     id="defs2211" />
  <path
     d="m 276.35396,380.83573 c -0.16124,-0.17203 -3.97215,-0.87821 -8.46869,-1.56928 -10.04297,-1.54352 -23.07482,-4.73825 -35.5831,-8.72313 -43.8267,-13.96228 -67.64393,-20.79715 -85.404,-24.50851 -11.85619,-2.47761 -19.72353,-5.50644 -35.88857,-13.81663 -10.87671,-5.59154 -17.058732,-9.62473 -19.278692,-12.57752 -1.05577,-1.40429 -2.24367,-4.19794 -3.45127,-8.11652 -1.31767,-4.27574 -2.09711,-6.05665 -2.74048,-6.2616 -0.49451,-0.15751 -4.130511,0.62207 -8.080017,1.73241 -16.685961,4.691 -33.919428,7.78651 -51.634563,9.2747 -12.017655,1.00957 -13.119323,1.31232 -20.2984004,5.5783 l -2.1156329,1.25715 -0.546879,-1.41151 c -0.796651,-2.05619 -0.223816,-6.89811 1.1280029,-9.53448 0.96991,-1.89157 1.801837,-2.62683 4.89999,-4.3306 10.1169194,-5.56363 31.6370384,-15.25335 45.0788454,-20.29735 14.853243,-5.57364 23.05385,-10.6529 33.970134,-21.04028 4.05734,-3.86076 8.34692,-7.66585 9.53241,-8.45575 4.615572,-3.07541 17.371012,-4.49586 32.097532,-3.5744 15.18784,0.95034 23.20855,2.49274 31.53996,6.06524 2.57799,1.10544 5.04497,2.00989 5.48218,2.00989 1.08434,0 -0.94308,-2.72266 -7.40107,-9.93898 -9.08023,-10.1465 -10.57795,-12.62559 -10.15513,-16.80926 0.52245,-5.16952 7.01656,-24.16423 11.08385,-32.41931 2.43845,-4.94916 3.07017,-7.6065 4.91321,-20.66758 2.30271,-16.31864 4.61655,-20.68169 8.17786,-15.42047 1.77377,2.62043 2.32817,8.67886 1.61698,17.67015 -0.31433,3.97398 -0.92511,8.78572 -1.35729,10.69276 -0.43218,1.90703 -0.68677,3.5667 -0.56577,3.68814 0.54887,0.55086 5.10018,-4.25267 7.59527,-8.01618 3.43938,-5.18784 8.02145,-14.78696 8.88947,-18.62282 0.36098,-1.5952 0.86188,-2.90036 1.11312,-2.90036 0.67208,0 3.01747,4.52475 4.25114,8.20135 1.53677,4.57992 1.13882,8.76113 -1.50367,15.79894 -1.12072,2.98481 -2.03766,5.49911 -2.03766,5.58734 0,0.0882 0.3923,0.16137 0.87178,0.16255 1.70415,0.004 9.41542,-5.80439 14.32204,-10.7882 5.525,-5.6119 7.19028,-6.88597 8.39429,-6.42227 1.2929,0.49793 1.4653,-0.8557 0.82694,-6.49321 -1.2387,-10.9394 1.59937,-18.4888 13.92565,-37.04283 9.52636,-14.33947 19.91107,-32.19029 30.39539,-52.248208 6.87011,-13.14346 14.54266,-27.41102 16.85896,-31.35025 4.54484,-7.72919 12.40926,-32.67675 13.5908,-43.11275 0.56443,-4.9854795 1.64002,-7.2114395 3.59548,-7.4409895 1.21895,-0.14309 1.49419,0.1375 2.69734,2.74982 1.2124,2.6323695 1.33496,3.4324495 1.28811,8.4088095 -0.0619,6.57833 -1.81415,17.21353 -4.6099,27.97994 -2.04584,7.8785 -3.33639,11.39987 -5.07724,13.85354 -1.92517,2.71347 -0.60922,1.9685 2.65241,-1.50156 6.87357,-7.31282 14.99089,-23.66736 20.0181,-40.33192 2.22727,-7.3831195 4.25103,-12.8975395 5.42671,-14.7869495 3.1126,-5.00216 5.03846,9.4692095 2.90632,21.8386995 -1.9922,11.5576 -3.53596,15.51271 -11.72773,30.04638 -1.58108,2.80512 -2.7639,5.39245 -2.62848,5.74962 0.41768,1.1017 7.2654,-6.42831 11.80884,-12.98544 5.49419,-7.92925 11.91426,-18.23902 18.39967,-29.54735 2.85916,-4.98541 5.37592,-9.0643795 5.59279,-9.0643795 1.12508,0 2.10872,2.85087 2.30972,6.6941995 0.19232,3.67763 0.0326,4.63792 -1.59183,9.57107 -0.99308,3.01581 -4.0429,9.983 -6.77738,15.48264 -4.50867,9.06792 -6.33253,11.99531 -12.35775,19.83479 -0.92529,1.20392 -1.40784,2.2247 -1.10031,2.32758 1.62933,0.54508 9.56153,-5.64164 23.72978,-18.50807 11.47286,-10.4187 16.07536,-14.40359 16.63596,-14.40359 1.3919,0 1.10683,5.65646 -0.46615,9.24939 -0.95741,2.18689 -5.41856,7.83763 -13.22291,16.7489 -6.82211,7.78973 -8.93408,10.46564 -8.55795,10.84314 0.47212,0.47384 7.60135,-1.5535 13.66708,-3.8865 8.89724,-3.42206 10.22413,-3.86532 10.84962,-3.62442 0.33066,0.12735 0.88947,1.26486 1.24179,2.52782 0.97384,3.49087 -0.0669,4.96434 -7.39363,10.46779 l -6.11743,4.59508 2.8794,0.35153 c 1.58367,0.19335 3.49263,0.66445 4.24212,1.04689 2.58285,1.31795 2.44226,4.92646 -0.34525,8.86139 -2.07937,2.93529 -3.10842,5.88561 -3.69816,10.60277 -0.50931,4.07367 -1.25365,5.724978 -4.03385,8.948908 -2.95028,3.42117 -3.18305,4.01608 -2.17532,5.55966 1.24825,1.91198 0.4889,4.83706 -4.51073,17.37566 -4.50709,11.30336 -6.24028,16.31967 -6.33124,18.32425 -0.0312,0.68745 0.19037,6.19959 0.49236,12.24919 1.45978,29.24255 -0.2555,68.07268 -3.46819,78.51193 -0.67208,2.18386 -1.79502,4.20716 -3.52112,6.34436 -3.63942,4.5062 -4.05468,5.71932 -3.64549,10.64954 0.44697,5.38524 0.18543,6.3546 -3.03052,11.23232 -1.49242,2.2636 -2.7135,4.66778 -2.7135,5.34264 0,0.81577 -0.88911,2.11933 -2.65287,3.8895 -2.76512,2.77516 -5.32505,4.32238 -9.54617,5.76971 -2.4391,0.83631 -2.49553,0.90091 -2.44916,2.80387 0.0261,1.0713 0.3319,3.29774 0.67955,4.94763 1.25569,5.95918 -0.0212,13.35173 -2.95222,17.09139 -1.44984,1.84987 -2.41466,5.51251 -3.26647,12.40011 -0.69894,5.6516 -0.6911,6.04156 0.13274,6.60563 1.57411,1.07778 3.77446,2.87931 4.82608,3.95137 0.56706,0.57808 1.9277,1.34214 3.02365,1.69791 1.09595,0.35577 5.13103,2.1018 8.96685,3.88005 15.5864,7.22575 20.0484,8.7691 30.06872,10.40044 10.74317,1.74902 17.23072,4.1323 24.55973,9.02232 4.32235,2.88392 7.02922,6.71501 4.24986,6.0149 -0.75092,-0.18916 -2.26283,0.26894 -4.35888,1.32071 l -3.20916,1.61031 -12.82757,-0.10522 c -7.48598,-0.0614 -12.82757,0.0849 -12.82757,0.35147 0,0.76935 3.4607,1.51199 9.41476,2.02035 8.81468,0.7526 13.00235,2.28637 13.00235,4.7622 0,1.74351 -1.59849,2.55454 -7.75244,3.93332 -2.99681,0.67143 -8.81131,2.07573 -12.92112,3.12066 -6.9376,1.7639 -7.9893,1.90046 -14.69566,1.90803 -6.80586,0.008 -7.40235,-0.0713 -10.32176,-1.36677 -1.70416,-0.7562 -3.62137,-1.3749 -4.26047,-1.3749 -0.63908,0 -3.92973,0.78436 -7.31254,1.74303 -3.3828,0.95866 -9.32396,2.19018 -13.20258,2.73669 -7.50778,1.05788 -19.25644,1.84782 -19.74411,1.32753 z M 170.23762,295.25971 c 4.28164,-0.81989 5.88518,-1.71999 6.34584,-3.56204 1.01982,-4.07807 -4.42841,-23.67233 -6.41018,-23.05385 -0.58115,0.18138 -1.23742,2.00544 -4.72778,13.14078 -1.4955,4.77111 -3.59121,9.10223 -6.02467,12.45097 l -1.78156,2.45162 4.45747,-0.36107 c 2.45161,-0.19859 6.11501,-0.67847 8.14088,-1.06641 z m 43.79105,-67.32158 c 0.82218,-0.82517 0.75161,-3.14921 -0.11761,-3.87322 -0.93548,-0.7792 -2.5747,0.0628 -3.05033,1.5668 -0.25372,0.8023 -0.0485,1.33625 0.76868,2.00041 1.31367,1.0676 1.60358,1.10458 2.39926,0.30601 z m -5.11698,-16.57908 c 5.36271,-2.59417 5.43677,-2.73389 5.62882,-10.62001 0.11289,-4.63512 -0.006,-6.69868 -0.38448,-6.69868 -1.20154,0 -8.95473,13.96209 -9.78656,17.62384 -0.41464,1.82524 0.2274,1.78211 4.54222,-0.30515 z"
     id="path2217"
     fill="param(fill) #000"
     fill-opacity="param(fill-opacity)"
     stroke="param(outline) #FFF"
     stroke-opacity="param(outline-opacity)"
     stroke-width="param(outline-width) 0"
     inkscape:connector-curvature="0" />
</svg>
