<?xml version="1.0" encoding="UTF-8" standalone="no"?>
<!-- Created with Inkscape (http://www.inkscape.org/) -->

<svg
   xmlns:svg="http://www.w3.org/2000/svg"
   xmlns="http://www.w3.org/2000/svg"
   version="1.1"
   width="2000"
   height="2000"
   viewBox="0 0 2000 2000"
   id="Layer_1"
   xml:space="preserve"><defs
   id="defs7" />
<path
   d="m 550.12,1540.701 c 5.786,-3.821 11.458,-8.377 17.797,-11.625 49.724,-25.469 99.846,-50.173 149.244,-76.254 18.365,-9.7 36.95,-20.46 52.045,-34.406 12.41,-11.467 19.812,-28.355 29.418,-42.853 2.086,-3.148 3.814,-6.577 6.194,-9.48 11.088,-13.521 10.704,-15.288 -2.704,-27.286 -8.809,-7.882 -17.965,-15.831 -24.802,-25.313 -4.911,-6.813 -9.076,-16.396 -8.546,-24.411 0.907,-13.724 -6.698,-17.679 -15.906,-24.893 -15.703,-12.302 -32.221,-23.321 -48.436,-34.788 -5.732,-4.055 -12.746,-8.132 -19.421,-8.589 -10.25,-0.695 -16.257,-4.653 -18.347,-14.214 -1.919,-8.778 -6.793,-12.811 -15.318,-16.382 -14.612,-6.12 -28.692,-14.217 -36.698,-29.391 -1.924,-3.648 -4.662,-8.246 -8.083,-9.485 -13.718,-4.954 -21.827,-14.127 -25.696,-28.004 -0.721,-2.592 -4.759,-4.194 -7.129,-6.401 -5.511,-5.13 -10.898,-10.39 -16.417,-15.506 -3.014,-2.797 -6.059,-7.531 -9.322,-7.737 -13.35,-0.84 -19.719,-9.841 -22.949,-20.259 -4.276,-13.793 -14.188,-19.248 -26.409,-19.863 -16.106,-0.813 -21.962,-9.806 -22.289,-23.688 -0.42,-17.893 -7.968,-28.521 -26.265,-31.222 -9.093,-1.34 -12.964,-6.951 -13.839,-16.808 -0.511,-5.751 -5.632,-12.554 -10.646,-16.115 -7.904,-5.614 -17.497,-8.837 -26.319,-13.18 -15.326,-7.55 -22.758,-20.216 -25.72,-36.829 -0.889,-4.982 -6.016,-10.182 -10.548,-13.355 -13.081,-9.15 -27.286,-16.73 -40.06,-26.255 -3.445,-2.572 -5.549,-10.401 -4.46,-14.892 2.503,-10.319 -1.936,-14.961 -10.213,-18.818 -19.938,-9.293 -34.535,-22.696 -43.158,-44.356 -3.951,-9.925 -17.706,-15.873 -26.825,-23.84 -7.775,-6.793 -15.234,-13.945 -22.91,-20.853 -10.376,-9.337 -11.477,-18.252 4.416,-28.003 -12.151,-8.513 -23.32,-15.195 -33.085,-23.521 -8.397,-7.163 -15.973,-15.651 -22.339,-24.664 -2.797,-3.963 -1.687,-10.685 -2.352,-16.152 1.396,-0.835 2.793,-1.667 4.19,-2.502 -13.396,-9.386 -26.748,-18.834 -40.206,-28.128 -5.487,-3.788 -8.312,-7.033 -8.922,-15.354 -0.59,-8.07 -9.249,-16.578 -16.153,-22.95 -15.271,-14.099 -31.729,-26.904 -47.525,-40.446 -1.877,-1.608 -2.643,-4.514 -4.966,-8.702 7.986,0 14.122,0 22.9,0 -17.153,-22.867 -43.823,-35.568 -55.157,-60.502 1.472,-1.634 2.946,-3.268 4.418,-4.901 28.383,17.783 56.765,35.565 85.148,53.347 0.802,-0.789 1.606,-1.58 2.409,-2.37 -24.021,-26.674 -48.038,-53.344 -72.057,-80.019 0.41,-1.055 0.821,-2.109 1.233,-3.164 3.299,0.685 7.421,0.339 9.779,2.212 31.169,24.759 61.812,50.189 93.173,74.697 19.566,15.289 40.121,29.31 62.691,41.516 -12.754,-18.899 -25.694,-37.678 -38.189,-56.749 -7.005,-10.691 -13.72,-21.634 -19.641,-32.949 -2.153,-4.111 -1.617,-9.63 -2.309,-14.507 1.311,-0.891 2.622,-1.784 3.932,-2.678 4.663,4.367 9.873,8.279 13.899,13.169 25.207,30.625 49.992,61.604 75.274,92.171 8.458,10.227 18.894,18.887 26.823,29.467 25.702,34.288 64.16,51.259 98.548,73.636 36.971,24.055 74.608,47.098 112.183,70.212 32.69,20.111 65.664,39.764 98.574,59.518 32.495,19.504 65.167,38.72 97.583,58.354 51.018,30.903 101.775,62.238 152.873,93.005 21.294,12.824 36.819,29.946 49.318,51.704 10.725,18.668 26.695,34.279 39.897,51.585 16.647,21.82 31.776,44.89 49.492,65.78 22.349,26.36 46.014,51.693 70.333,76.255 15.452,15.605 36.78,18.497 57.807,20.698 26.321,2.759 52.556,7.272 78.93,8.219 11.984,0.432 24.522,-5.032 36.268,-9.313 29.279,-10.668 58.088,-22.627 87.379,-33.265 43.22,-15.691 86.549,-31.105 130.106,-45.828 26.927,-9.099 54.286,-16.961 81.589,-24.907 55.144,-16.048 110.833,-30.022 162.295,-57.108 25.388,-13.362 54.726,-19.544 79.335,-33.988 26.889,-15.781 60.448,-17.8 82.962,-41.794 3.17,-3.382 7.372,-6.741 11.697,-7.939 23.743,-6.574 40.14,-22.371 56.78,-39.662 14.325,-14.886 35.324,-16.887 53.262,-27.407 7.808,-4.574 17.445,-14.764 26.291,-11.813 4.305,1.439 7.197,14.752 6.484,22.291 -3.654,38.811 -16.021,75.542 -36.672,108.147 -8.795,13.891 -24.893,25.023 -40.078,32.58 -24.893,12.391 -51.444,21.731 -77.846,30.766 -50.187,17.166 -100.407,34.4 -151.289,49.302 -34.946,10.236 -70.836,17.601 -106.647,24.444 -77.295,14.781 -151.37,39.794 -223.95,69.363 -30.095,12.26 -58.903,27.656 -89.976,42.424 4.445,5.416 7.167,9.753 10.841,13.021 12.037,10.695 13.997,20.39 8.915,36.173 -4.027,12.508 -5.992,25.667 -9.452,38.378 -1.289,4.745 -4.208,9.045 -6.816,14.447 -3.011,-6.168 -5.18,-10.615 -7.351,-15.063 -4.232,3.301 -8.812,6.245 -12.649,9.955 -36.109,34.933 -71.887,68.525 -125.222,77.763 -40.868,7.081 -80.104,23.104 -120.727,32.216 -36.792,8.249 -74.295,14.328 -111.813,18.083 -44.392,4.441 -89.06,5.783 -130.372,25.371 -13.284,6.299 -25.991,14.442 -39.897,18.661 -25.092,7.612 -50.884,12.92 -76.4,19.118 -1.342,0.325 -2.874,0.212 -4.258,-0.033 -26.098,-4.582 -52.188,-9.214 -80.974,-14.316 z"
   id="path3"
   fill="param(fill) #000" fill-opacity="param(fill-opacity)" stroke="param(outline) #FFF" stroke-opacity="param(outline-opacity)" stroke-width="param(outline-width) 0" />
</svg>