<?xml version="1.0" encoding="UTF-8" standalone="no"?>
<!-- Created with Inkscape (http://www.inkscape.org/) -->

<svg
   xmlns:dc="http://purl.org/dc/elements/1.1/"
   xmlns:cc="http://creativecommons.org/ns#"
   xmlns:rdf="http://www.w3.org/1999/02/22-rdf-syntax-ns#"
   xmlns:svg="http://www.w3.org/2000/svg"
   xmlns="http://www.w3.org/2000/svg"
   xmlns:sodipodi="http://sodipodi.sourceforge.net/DTD/sodipodi-0.dtd"
   xmlns:inkscape="http://www.inkscape.org/namespaces/inkscape"
   version="1.1"
   width="540"
   height="540"
   viewBox="0 0 540 540"
   id="Layer_1"
   xml:space="preserve"
   inkscape:version="0.91 r13725"
   sodipodi:docname="birds_woodpecker.svg"><metadata
     id="metadata11"><rdf:RDF><cc:Work
         rdf:about=""><dc:format>image/svg+xml</dc:format><dc:type
           rdf:resource="http://purl.org/dc/dcmitype/StillImage" /><dc:title></dc:title></cc:Work></rdf:RDF></metadata><sodipodi:namedview
     pagecolor="#ffffff"
     bordercolor="#666666"
     borderopacity="1"
     objecttolerance="10"
     gridtolerance="10"
     guidetolerance="10"
     inkscape:pageopacity="0"
     inkscape:pageshadow="2"
     inkscape:window-width="659"
     inkscape:window-height="480"
     id="namedview9"
     showgrid="false"
     inkscape:zoom="0.61806369"
     inkscape:cx="6.9411651"
     inkscape:cy="339.82571"
     inkscape:window-x="0"
     inkscape:window-y="0"
     inkscape:window-maximized="0"
     inkscape:current-layer="Layer_1" /><defs
     id="defs15" /><path
     d="m 246.23471,6.7499999e-7 22,0 C 271.71371,1.5210006 276.42871,1.8060006 281.23471,2.0000006 c 8.4,5.77 17.237,10.2499994 23,17.0000004 15.668,18.352 14.801,39.799 13,66 -1.562,22.719999 14.821,34.159999 27,44.999999 6.238,5.552 10.535,10.874 16,19 6.858,10.199 13.791,25.259 20,39 0.684,1.513 3.254,4.456 0,6 1.873,2.46 3.127,5.54 5,8 0.647,12.448 5.582,24.542 12,34 5.46321,17.39398 21.08536,162.58095 19,167 0,0 2.48476,23.51957 -3.29993,24.16949 C 407.15008,427.81942 407.23471,402 407.23471,402 c -1.835,-8.341 -2.484,-20.316 -4,-26 -3.825,4.842 -0.321,17.012 -3,23 5.973,7.027 7.702,18.298 9,30 -0.343,3.657 -3.424,4.576 -6,6 2.646,30.376 8.643,69.075 0,102 -6.96,-5.374 -7.938,-16.729 -10,-27 -4.113,7.553 -0.857,22.477 -5,30 l -3,0 c -3.926,-9.2 -11.242,-16.211 -15,-26 -2.325,-6.058 -2.409,-12.996 -5,-19 -1.068,-2.477 -3.83,-4.582 -5,-7 -2.617,-5.411 -3.937,-11.972 -6,-18 -2.034,-5.942 -4.576,-12.406 -5,-19 -4.52,-4.618 -5.412,-16.466 -8,-26 -1.149,-4.234 -1.754,-14.159 -4,-20 -1.675,-4.356 -7.055,-12.123 -10,-18 -7.847,-15.653 -18.704,-25.048 -31,-36 -7.8,5.638 -23.188,2.007 -33,3 -2.088,0.211 -1.203,1.787 -2,2 -2.405,0.642 -3.047,-2.967 -5,1 -11.852,-0.623 -14.523,-9.396 -22,-12 -0.319,-2.348 -1.58,-3.754 -1,-7 -4.36,-2.206 -5.692,-1.406 -11.00001,-2 4.28701,3.047 10.03701,4.63 12.00001,10 1.508,3.898 -1.704,4.511 -1,8 0.879,4.354 6.672,5.434 7,10 0.363,5.054 -3.539,11.995 -11,10 1.022,-4.312 7.419,-3.247 6,-10 -4.092,-3.362 -3.986,4.157 -9,3 -8.67601,-9.323 -20.59401,-15.406 -28.00001,-26 -18.116,-5.551 -33.686,-13.647 -48,-23 0.226,-4.178 -1.626,-4.723 0,-8 -3.44,-0.383 -6.234,5.022 -9,2 1.159,-6.44 8.451,-7.323 12,-7 8.953,0.815 14.024,14.448 21,16 -0.915,-5.752 -6.61,-6.724 -8,-12 0.846,-2.82 3.432,-3.901 5,-6 -4.35,0.017 -8.998,0.331 -12,-1 4.366,-5.292 12.767,-3.099 16,-1 5.699,3.699 8.138,20.802 17,22 13.252,-2.261 27.367,1.494 38.00001,5 0.249,-2.796 2.768,-5.426 3,-7 2.322,-15.721 -5.636,-24.667 -10,-35 -6.55301,-7.616 -10.42101,-16.107 -14.00001,-24 -1.276,-2.815 -1.455,-5.746 -4,-7 -3.769,-12.572 -6.095,-22.78 -10,-35 -0.592,-1.852 -1.045,-1.7 -2,-3 1.707,-5.092 -2.162,-8.954 -3,-14 -5.96,-35.903 0.743,-77.669 17,-99 18.37201,-13.581999 -12.221,-28.313999 -27,-29.999999 -19.48,-2.222 -41.157,7.909 -57,4 l 0,-4 c 11.453,-8.546 24.01,-15.207 39,-21 4.804,-1.856 10.46,-2.806 15,-5 6.656,-3.218 10.87,-10.53 19,-10 C 200.5807,13.013 222.5777,5.6760006 246.23471,6.7500009e-7 Z M 223.23471,348 c 3.109,0.891 4.659,3.341 8,4 1.24,-6.24 -3.21,-6.79 -6,-9 0.857,3.19 -1.574,3.093 -2,5 z"
     id="path7"
     fill="param(fill) #000"
     fill-opacity="param(fill-opacity)"
     stroke="param(outline) #FFF"
     stroke-opacity="param(outline-opacity)"
     stroke-width="param(outline-width) 0"
     inkscape:connector-curvature="0" /></svg>