<?xml version="1.0" encoding="UTF-8" standalone="no"?>
<!-- Created with Inkscape (http://www.inkscape.org/) -->

<svg
   xmlns:dc="http://purl.org/dc/elements/1.1/"
   xmlns:cc="http://creativecommons.org/ns#"
   xmlns:rdf="http://www.w3.org/1999/02/22-rdf-syntax-ns#"
   xmlns:svg="http://www.w3.org/2000/svg"
   xmlns="http://www.w3.org/2000/svg"
   xmlns:sodipodi="http://sodipodi.sourceforge.net/DTD/sodipodi-0.dtd"
   xmlns:inkscape="http://www.inkscape.org/namespaces/inkscape"
   version="1.1"
   width="580"
   height="580"
   viewBox="0 0 579.99998 580"
   id="Capa_1"
   xml:space="preserve"
   inkscape:version="0.91 r13725"
   sodipodi:docname="birds_estrildid_finche.svg"><metadata
     id="metadata8"><rdf:RDF><cc:Work
         rdf:about=""><dc:format>image/svg+xml</dc:format><dc:type
           rdf:resource="http://purl.org/dc/dcmitype/StillImage" /><dc:title></dc:title></cc:Work></rdf:RDF></metadata><sodipodi:namedview
     pagecolor="#ffffff"
     bordercolor="#666666"
     borderopacity="1"
     objecttolerance="10"
     gridtolerance="10"
     guidetolerance="10"
     inkscape:pageopacity="0"
     inkscape:pageshadow="2"
     inkscape:window-width="1366"
     inkscape:window-height="705"
     id="namedview6"
     showgrid="false"
     fit-margin-top="0"
     fit-margin-left="0"
     fit-margin-right="0"
     fit-margin-bottom="0"
     inkscape:zoom="0.58274626"
     inkscape:cx="-285.37532"
     inkscape:cy="282.15999"
     inkscape:window-x="-8"
     inkscape:window-y="-8"
     inkscape:window-maximized="1"
     inkscape:current-layer="Capa_1" /><defs
     id="defs9" /><path
     d="m 256.20549,407.21206 c -4.93348,8.60636 -8.25199,16.3711 -10.61999,25.86154 -2.07269,8.29999 -4.30226,16.56859 -7.10583,24.65079 -7.36423,21.23075 -14.66755,42.48735 -20.83394,64.10383 -3.42372,12.0024 -8.03421,21.43749 -16.81037,30.57355 -5.01654,5.22324 -10.89869,7.32733 -17.50066,9.73037 -7.10768,2.5895 -13.86652,5.6496 -21.25844,7.49712 -3.02875,0.75674 -4.17122,-2.67438 -7.38269,0 -2.80727,2.34031 -6.8622,2.8645 -10.3819,3.0269 -7.78135,0.35991 -14.34271,-0.16796 -21.85459,-2.12068 -5.25832,-1.36579 -9.0844,-3.99032 -9.06778,-10.33943 0.024,-8.1708 0.57769,-16.7993 1.64264,-24.93688 3.2207,-24.59541 8.30552,-49.48798 19.62133,-71.73755 8.65436,-17.01709 16.95434,-34.50297 23.99742,-52.24726 5.11989,-12.8957 11.64066,-24.76337 18.50286,-36.78053 2.26095,-3.96079 7.2498,-10.23056 7.68538,-14.89641 0.41343,-4.43513 -0.73643,-9.38155 -1.2606,-13.76687 -0.86193,-7.20919 -4.33732,-17.44157 -2.81834,-24.60462 2.20004,-10.37454 4.40193,-20.74904 6.60197,-31.12171 3.55845,-16.7753 9.94447,-32.88801 15.36152,-49.14284 5.90615,-17.72029 13.48263,-34.12092 21.56667,-50.88146 5.38936,-11.1737 11.07956,-22.18128 16.39694,-33.39189 4.84673,-10.21946 11.50776,-19.3057 17.1592,-29.07668 4.68801,-8.10434 13.48448,-13.96066 19.99231,-20.61061 6.08149,-6.21253 9.10101,-17.736899 12.72037,-25.555166 4.0494,-8.74848 10.82855,-16.80299 15.70847,-25.22848 2.7039,-4.66955 5.4115,-9.33725 8.121,-14.0031 1.4193,-2.44552 5.3524,-4.42223 7.534,-6.12394 6.3694,-4.97039 13.0341,-12.31802 20.7657,-14.97763 8.3129,-2.85894 16.6147,-5.71789 24.9811,-8.41626 3.2115,-1.03542 7.7426,-2.48981 11.1146,-2.9198505 4.8597,-0.62015 10.07,-2.5378 15.1124,-2.5378 3.8741,0 7.8865,1.05942 11.6646,1.92319 5.3266,1.2163005 5.7659,2.1539005 10.8932,4.1158505 16.779,6.41924 30.0198,14.43869 42.4892,25.11036 3.049,2.60978 7.8312,4.18783 7.6632,8.91644 -0.1772,4.96854 -4.6068,5.46503 -8.9589,7.72229 -6.8917,3.57321 -14.4885,6.79945 -19.7911,12.54871 -11.3269,12.28295 -18.3977,29.896187 -20.5442,46.354036 -2.1816,16.72362 4.3669,36.51105 7.4067,52.79171 1.423,7.61893 -1.4175,15.83771 -2.7021,23.40127 -1.0852,6.38046 -4.0734,12.6539 -6.194,18.73908 -6.2273,17.8624 -12.6706,35.55501 -17.7905,53.76071 -4.7821,17.00232 -16.2732,32.95446 -24.5862,48.43966 -2.7685,5.1568 -5.1309,12.05223 -9.1342,16.40617 -5.943,6.45985 -12.019,12.64285 -17.1186,19.78375 -4.1509,5.81017 -11.325,14.62877 -12.2423,21.81397 -1.1757,9.20436 6.3417,16.38771 11.3121,22.93985 5.179,6.82531 11.6536,10.03122 18.9938,14.54759 3.0934,1.90289 5.98,4.16382 8.9331,6.27344 3.0453,2.17418 7.4878,-0.30269 10.3357,-1.61681 4.9261,-2.27388 13.4383,-7.4916 20.7158,-6.53552 2.9217,0.3839 -15.4224,10.97621 -18.4567,12.68714 10.4022,0.92653 19.9831,-5.29153 29.9922,-1.53744 -4.7729,3.10627 -10.3635,6.29559 -16.0998,6.98587 -6.6112,0.79363 -10.1697,0.54262 -15.1253,4.82274 -5.9929,5.17526 -8.8518,14.9647 -13.6875,21.41347 -1.4655,-2.05238 -3.4606,-3.41264 -2.4252,-5.82309 1.2551,-2.92539 1.7275,-5.71235 1.8106,-8.94228 0.1772,-6.75331 -3.7633,-13.99388 -9.5532,-17.85317 -9.5107,-6.33989 -18.5822,-12.92709 -27.4617,-20.14181 -9.6547,-7.84595 -19.1765,-17.00233 -32.68316,-14.88165 -10.83408,1.70171 -21.59804,9.32064 -31.19922,14.11754 -5.03868,2.52118 -9.85957,8.06374 -14.14707,11.69048 z"
     id="path3"
     inkscape:connector-curvature="0"
     fill="param(fill) #000"
     fill-opacity="param(fill-opacity)"
     stroke="param(outline) #FFF"
     stroke-opacity="param(outline-opacity)"
     stroke-width="param(outline-width) 0" /></svg>