<?xml version="1.0" encoding="UTF-8" standalone="no"?>
<!-- Created with Inkscape (http://www.inkscape.org/) -->

<svg
   xmlns:dc="http://purl.org/dc/elements/1.1/"
   xmlns:cc="http://creativecommons.org/ns#"
   xmlns:rdf="http://www.w3.org/1999/02/22-rdf-syntax-ns#"
   xmlns:svg="http://www.w3.org/2000/svg"
   xmlns="http://www.w3.org/2000/svg"
   xmlns:sodipodi="http://sodipodi.sourceforge.net/DTD/sodipodi-0.dtd"
   xmlns:inkscape="http://www.inkscape.org/namespaces/inkscape"
   version="1.1"
   width="400"
   height="400"
   viewBox="0 0 400 400"
   id="Capa_2"
   xml:space="preserve"
   inkscape:version="0.91 r13725"
   sodipodi:docname="birds_rail.svg"><metadata
     id="metadata7"><rdf:RDF><cc:Work
         rdf:about=""><dc:format>image/svg+xml</dc:format><dc:type
           rdf:resource="http://purl.org/dc/dcmitype/StillImage" /><dc:title></dc:title></cc:Work></rdf:RDF></metadata><sodipodi:namedview
     pagecolor="#ffffff"
     bordercolor="#666666"
     borderopacity="1"
     objecttolerance="10"
     gridtolerance="10"
     guidetolerance="10"
     inkscape:pageopacity="0"
     inkscape:pageshadow="2"
     inkscape:window-width="800"
     inkscape:window-height="480"
     id="namedview5"
     showgrid="false"
     fit-margin-top="0"
     fit-margin-left="0"
     fit-margin-right="0"
     fit-margin-bottom="0"
     inkscape:zoom="0.52678571"
     inkscape:cx="112.84006"
     inkscape:cy="145.57357"
     inkscape:window-x="0"
     inkscape:window-y="0"
     inkscape:window-maximized="0"
     inkscape:current-layer="Capa_2" /><defs
     id="defs7" /><path
     d="m 44.200246,134.07013 c -11.455005,16.416 -22.382005,32.55001 -31.935005,50.16101 -4.4050005,8.119 -7.3680005,17.178 -10.7050005,25.793 -1.67000004,4.314 -0.58600004,8.367 3.855,3.103 4.7799995,-5.665 8.1850005,-12.739 11.4950005,-19.329 8.206,-16.345 23.339005,-32.70601 38.376005,-43.04301 6.723,-4.62 19.684,-6.06 27.659,-4.65 11.232,1.986 17.656994,7.298 26.353994,14.452 13.822,11.36901 24.482,27.43001 41.441,34.99001 18.507,8.253 36.331,16.478 56.685,18.734 10.724,1.192 22.257,2.874 33.061,1.711 5.273,-0.565 10.698,-0.137 15.997,0.045 3.311,0.11 8.464,-4.55 10.905,-1.398 3.068,3.964 6.137,7.808 8.777,12.064 3.762,6.061 3.535,7.726 0.354,14.094 -4.549,9.099 -10.679,17.438 -16.194,25.975 -4.947,7.655 -9.379,15.981 -15.786,22.551 -2.635,2.701 -4.883,6.831 -8.195,7.588 -4.231,0.966 -7.509,1.815 -11.751,1.548 -12.668,-0.797 -25.334,-1.592 -38.002,-2.39 -5.83,-0.366 -18.823,-3.848 -21.647,2.635 3.448,0 13.389,-1.897 13.62,2.725 -8.32,-0.956 -17.334,0.134 -25.747,0.134 -2.978,0 -17.44,0.299 -19.902,5.731 -1.556,2.53 0.07,1.225 1.358,0.887 2.829,-0.743 7.779,-2.473 8.9,-2.604 2.818,-0.334 5.637,-0.267 8.455,0.09 -1.307,1.548 -3.14,2.39 -5.146,2.752 4.375,4.246 14.931,-2.078 20.11,-2.243 6.795,-0.217 13.591,-0.354 20.388,-0.49 15.607,-0.312 31.081,-2.181 46.665,-3.045 0,9.251 -19.639,15.256 -26.724,18.063 -3.078,1.219 -33.507,10.374 -33.202,11.896 0.142,0.706 10.832,-0.96 12.712,-0.604 -0.757,0.306 -3.14,1.688 -3.888,2.013 4.269,3.103 8.527,0.922 11.952,-2.242 2.496,-2.301 7.118,-2.622 10.143,-4.19 7.468,-3.872 16.392,-7.003 23.249,-11.733 4.549,-3.135 9.097,-6.27 13.643,-9.408 3.468,-2.39 6.302,-1.866 8.939,-5.09 2.019,-2.467 9.396,-0.808 11.624,0.688 3.169,2.123 7.051,1.513 10.593,1.513 1.57,0 3.491,-1.484 4.979,-1.913 2.099,-0.607 2.858,0.365 2.264,-0.315 -0.916,-1.043 -2.051,-2.309 -3.637,-2.309 -2.999,0 -5.962,0.029 -8.953,0.197 -4.078,0.227 -8.762,-2.273 -12.813,-3.224 7.767,-14.315 14.539,-31.789 25.605,-43.86 4.582,-5 13.643,-14.37 10.409,-22.117 -1.583,-3.793 -6.628,-4.226 -8.228,-7.856 -1.975,-4.489 -3.79,-7.43 -6.905,-11.21 8.3,-6.737 18.722,-9.836 27.542,-15.737 8.809,-5.894 14.754,-12.98 21.188,-21.198 4.861,-6.203 11.061,-18.16401 17.998,-21.31801 15.137,-6.882 15.197,13.06401 16.666,22.49001 1.385,8.874 0.559,18.266 1.408,27.278 0.97,10.32 1.141,20.383 1.141,30.749 0,9.648 -4.67,20.18 -10.799,27.752 -3.278,4.05 -6.931,7.265 -10.826,10.749 -4.46,3.99 -7.974,4.314 -13.938,5.624 -2.677,0.585 -4.244,1.908 -6.502,3.522 1.952,0.932 4.241,1.08 6.355,0.906 -4.874,3.748 -9.977,4.762 -15.896,6.244 -2.86,0.715 -11.426,2.296 -12.945,6.8 -0.248,0.728 -0.658,1.635 0.229,1.046 2.258,-1.504 7.554,-3.555 8.406,-3.704 1.666,-0.295 2.344,1.987 3.259,2.022 1.889,0.07 4.87,-1.186 6.587,-2.019 7.958,-3.86 15.751,-7.856 23.034,-12.877 5.754,-3.967 10.961,-8.821 16.51,-13.091 5.268,-4.054 8.037,-13.95 11.069,-19.829 0,5.771 0,11.537 0,17.308 0,4.231 -6.603,8.482 -9.395,11.324 -4.106,4.185 -6.518,6.899 -11.88,9.096 -3.539,1.447 -11.974,2.899 -11.109,7.971 3.38,-0.881 6.299,-3.771 9.987,-3.027 1.375,0.277 0.216,2.792 3.634,2.118 1.38,-0.271 3.713,-3.494 4.762,-4.482 5.529,-5.205 11.172,-10.247 16.707,-15.492 2.082,-1.976 3.297,-1.657 3.478,-4.55 0.334,-5.269 0.668,-10.536 1.001,-15.804 0.439,-6.97 2.5,-13.214 2.5,-19.896 7.309,2.373 10.608,2.754 14.827,9.08 2.689,-3.659 5.634,0.626 8.778,1.513 -6.126,-9.527 -15.312,-13.018 -25.475,-17.202 -2.309,-0.95 -1.873,-9.341 -2.125,-11.575 -0.819,-7.258 -1.643,-14.521 -2.463,-21.778 -1.218,-10.762 -1.927,-21.036 -2.338,-31.88101 -0.47,-12.51 -7.172,-16.81 -19.656,-15.266 5.246,-9.9 10.489,-19.798 15.734,-29.697 3.989,-7.534 12.164,-16.167004 13.364,-24.262004 1.037,-6.978 3.568,-14.166 6.152,-20.746 3.29,-8.382 -10.818,-3.206 -13.762,-1 -5.278,3.953 -12.994,0.813 -18.898,3.718 -3.7,1.82 -8.316,5.058 -12.685,4.698 -41.524,-3.437 -82.346,-6.602 -124.016,-4.381 -15.809,0.842 -32.727,9.2 -47.419,14.575 -8.47,3.098 -15.205,5.27 -24.213,6.398 -7.103,0.889 -14.639,-2.52 -21.533,-4.381 -15.708,-4.24 -35.204994,-11.174 -50.677994,-3.094 -17.429,9.098 -21.333,30.856004 -24.972,48.436004 z"
     id="path3"
     fill="param(fill) #000"
     fill-opacity="param(fill-opacity)"
     stroke="param(outline) #FFF"
     stroke-opacity="param(outline-opacity)"
     stroke-width="param(outline-width) 0"
     inkscape:connector-curvature="0" /></svg>