<?xml version="1.0" encoding="UTF-8" standalone="no"?>
<!-- Created with Inkscape (http://www.inkscape.org/) -->

<svg
   xmlns:dc="http://purl.org/dc/elements/1.1/"
   xmlns:cc="http://creativecommons.org/ns#"
   xmlns:rdf="http://www.w3.org/1999/02/22-rdf-syntax-ns#"
   xmlns:svg="http://www.w3.org/2000/svg"
   xmlns="http://www.w3.org/2000/svg"
   xmlns:sodipodi="http://sodipodi.sourceforge.net/DTD/sodipodi-0.dtd"
   xmlns:inkscape="http://www.inkscape.org/namespaces/inkscape"
   version="1.1"
   width="340"
   height="340"
   viewBox="0 0 339.99999 340"
   id="svg2"
   xml:space="preserve"
   inkscape:version="0.91 r13725"
   sodipodi:docname="birds_pigeon.svg"><metadata
     id="metadata10"><rdf:RDF><cc:Work
         rdf:about=""><dc:format>image/svg+xml</dc:format><dc:type
           rdf:resource="http://purl.org/dc/dcmitype/StillImage" /><dc:title></dc:title></cc:Work></rdf:RDF></metadata><sodipodi:namedview
     pagecolor="#ffffff"
     bordercolor="#666666"
     borderopacity="1"
     objecttolerance="10"
     gridtolerance="10"
     guidetolerance="10"
     inkscape:pageopacity="0"
     inkscape:pageshadow="2"
     inkscape:window-width="659"
     inkscape:window-height="480"
     id="namedview8"
     showgrid="false"
     fit-margin-top="0"
     fit-margin-left="0"
     fit-margin-right="0"
     fit-margin-bottom="0"
     inkscape:zoom="0.54255492"
     inkscape:cx="162.12497"
     inkscape:cy="121.17541"
     inkscape:window-x="0"
     inkscape:window-y="0"
     inkscape:window-maximized="0"
     inkscape:current-layer="svg2" /><defs
     id="defs12" /><g
     id="Capa_1"
     style="display:none"
     transform="translate(-109.63562,1.3350922)"><image
       width="550"
       height="391"
       transform="matrix(1.0002,0,0,1.0002,-91.0991,17.8975)"
       id="image5"
       style="display:inline;overflow:visible" /></g><path
     inkscape:connector-curvature="0"
     stroke-width="param(outline-width) 0"
     stroke-opacity="param(outline-opacity)"
     stroke="param(outline) #FFF"
     fill-opacity="param(fill-opacity)"
     fill="param(fill) #000"
     id="path8"
     d="m 339.81687,315.99386 c -0.719,-2.156 0.158,-2.838 -1.697,-4.368 -1.285,-1.061 -2.555,-2.135 -3.804,-3.237 -2.29703,-2.026 -4.71203,-3.904 -7.14203,-5.767 -4.62,-3.542 -9.352,-6.896 -14.107,-10.253 4.414,0 9.339,-1.233 13.648,-0.655 3.136,0.42 3.898,0.861 6.53303,-0.798 2.305,-1.45 2.196,-3.438 0.778,-5.542 -3.34603,-4.965 -6.45603,-7.575 -11.57903,-10.575 -4.147,-2.427 -8.391,-4.969 -13.047,-6.283 -4.512,-1.272 -8.543,-4.053 -12.771,-6.127 -3.352,-1.645 -6.727,-3.131 -10.025,-4.886 -4.992,-2.655 -9.983,-5.312 -14.976,-7.968 -1.324,-0.704 -2.989,-2.432 -3.813,-3.666 -1.39,-2.084 -4.617,-3.455 -6.78,-4.51 -4.585,-2.235 -8.526,-4.597 -12.804,-7.318 -1.406,-0.896 -5.491,-1.468 -6.291,-2.797 -1.129,-1.876 0.348,-4.359 -1.281,-6.531 -6.472,-8.629 -14.731,-14.385 -23.7,-20.182 -5.464,-3.531 -9.994,-8.09 -15.709,-11.399 -4.798,-2.778 -10.099,-5.244 -15.403,-6.896 -2.379,-0.74 -5.62,-1.188 -7.644,-2.705 -1.998,-1.499 -3.786,-3.798 -6.013,-4.911 -4.201,-2.101 -8.219,-6.083 -12.086,-8.831 -7.693,-5.466 -16.211,-11.58 -25.098,-14.931 -3.523,-1.328 -9.401,-3.027 -11.707,-6.14 -2.498,-3.373 -5.005,-6.745 -7.466,-10.136 -5.17,-7.126 -10.478,-14.222 -15.486,-21.45701 -2.787004,-4.027 -5.775004,-7.826 -7.756004,-12.308 -0.899,-2.035 -1.561,-4.043 -2.246,-6.165005 -0.808,-2.502 -2.22,-4.605 -3.155,-7.033 -1.757,-4.56 -2.358,-10.127 -3.477,-14.898002 -0.931,-3.972004 -2.196,-7.894004 -3.22,-11.847004 -2.426,-9.37 -5.313,-17.849 -9.896,-26.402002 -4.229,-7.893999 -11.136,-13.986999 -20.183,-15.248999 -9.652,-1.347 -21.31,-1.165 -28.226,6.938 -3.663,4.290999 -4.413,9.363999 -6.435,14.303001 -0.745,1.819 -2.622,2.508 -3.996,3.686 -1.8420004,1.578 -3.5790004,3.089 -5.5540004,4.493 -3.866,2.749 -6.93800002,8.792 -5.82900002,13.453 0.442,1.858 3.95800002,-1.442 4.81200002,-1.667 2.34,-0.616 4.237,-1.932 6.5030004,-2.685 8.4,-2.794 18.352,2.558 22,10.375 1.788,3.832004 1.125,8.793006 1.125,12.983006 0,4.549 -0.058,9.123 -0.369,13.662 -0.875,12.783005 -0.822,25.513015 -2.725,38.199015 -1.481,9.877 -1.797,20.23 -2.278,30.196 -0.254,5.264 -0.501,11.229 0.146,16.462 0.251,2.023 0.287,4.451 1.264,6.266 1.065,1.979 2.307,3.935 3.202,5.997 3.847,8.87 7.855,16.964 13.103,25.092 4.908,7.603 11.729,13.624 19.206,18.64 8.046,5.397 15.8,10.68 24.423,15.111 7.724,3.969 15.280004,7.654 22.581004,12.435 2.36,1.546 4.722,3.092 7.083,4.638 1.538,1.007 3.709,1.001 4.985,2.341 3.422,3.593 4.511,8.827 3.846,13.794 -0.179,1.336 -1.16,2.37 -1.525,3.648 -0.374,1.31 -0.569,3.322 -1.441,4.412 -1.962,2.452 -2.509,6.011 -4.5,8.5 -2.09,2.612 -1.832,3.485 -5.07,4.564 -2.594,0.865 -4.104,-1.574 -6.656,-1.563 -3.563,0.014 -5.208,1.009 -8.362,2.541 -2.109004,1.025 -5.765004,0.208 -8.036004,0.208 -3.064,0 -5.475,-1.701 -8.375,-1.813 -3.15,-0.121 -6.434,3.239 -6.5,6.438 2.554,-0.02 3.455,-2.084 6.125,-1.75 -0.479,1.202 -2.277,3.554 -0.326,4.06 1.431,0.371 2.531,0.122 3.974,0.222 1.515,0.105 2.036,-1.022 3.353,-1.406 1.11,-0.324 2.92,-0.012 4.113,-0.059 7.250004,-0.29 14.578004,-0.62 21.835004,-0.277 6.246,0.295 12.428,0.289 18.682,0.223 2.652,-0.028 5.306,-0.012 7.958,-0.012 4.287,0 9.255,0.774 13.287,-0.875 -1.856,-1.164 -4.001,-2.681 -6.203,-2.906 -2.174,-0.223 -8.102,-0.519 -8.404,-3.211 -0.341,-3.033 5.167,-8.766 6.795,-11.008 2.417,-3.328 4.867,-7.71 8.188,-10.25 1.691,-1.294 3.225,-1.366 3.395,-3.918 0.085,-1.275 0.259,-1.916 0.793,-3.082 0.253,-0.551 0.727,-2.918 1.063,-3.25 2.126,-2.097 10.256,-0.061 12.852,0.296 4.595,0.631 9.015,1.828 13.487,3.025 8.519,2.279 17.044,4.506 25.577,6.781 4.204,1.121 9.209,0.925 13.529,1.353 4.269,0.422 8.477,0.794 12.692,1.559 4.842,0.879 9.009,1.629 13.428,3.825 5.19,2.578 10.508,4.411 15.902,6.498 5.245,2.028 10.538,3.716 15.541,6.318 5.645,2.937 11.495,7.283 17.741,8.845 0.316,0.079 4.784,1.18 4.13,-0.13 -0.471,-0.94 -1.342,-1.321 -2.194,-1.858 -2.23,-1.407 -4.5,-2.747 -6.703,-4.197 -1.943,-1.279 -3.968,-2.382 -6.001,-3.517 -1.852,-1.033 -2.731,-3.287 -3.856,-5.048 3.729,1.049 6.473,2.659 9.818,4.602 4.141,2.403 8.838,4.253 12.807,6.898 4.311,2.874 9.535,0.481 14.102,1.167 2.394,0.358 4.619,1.941 6.68603,3.141 1.06,0.616 7.425,0.836 6.835,-0.935 z m -195.25003,-27.75 c -0.198,4.448 -3.208,8.122 -5.144,12.042 -0.947,1.918 -5.433,9.176 -7.655,6.509 -0.918,-1.102 0.67,-6.45 1.199,-7.848 0.909,-2.4 1.541,-4.176 3.347,-5.984 2.91,-2.913 4.889,-6.539 8.253,-8.969 0,1.417 0,2.833 0,4.25 z" /></svg>