<?xml version="1.0" encoding="UTF-8" standalone="no"?>
<!-- Created with Inkscape (http://www.inkscape.org/) -->

<svg
   xmlns:dc="http://purl.org/dc/elements/1.1/"
   xmlns:cc="http://creativecommons.org/ns#"
   xmlns:rdf="http://www.w3.org/1999/02/22-rdf-syntax-ns#"
   xmlns:svg="http://www.w3.org/2000/svg"
   xmlns="http://www.w3.org/2000/svg"
   xmlns:sodipodi="http://sodipodi.sourceforge.net/DTD/sodipodi-0.dtd"
   xmlns:inkscape="http://www.inkscape.org/namespaces/inkscape"
   version="1.1"
   width="1024"
   height="1024"
   viewBox="0 0 1024 1024"
   id="svg2"
   xml:space="preserve"
   inkscape:version="0.91 r13725"
   sodipodi:docname="birds_thrush.svg"><metadata
     id="metadata9"><rdf:RDF><cc:Work
         rdf:about=""><dc:format>image/svg+xml</dc:format><dc:type
           rdf:resource="http://purl.org/dc/dcmitype/StillImage" /><dc:title></dc:title></cc:Work></rdf:RDF></metadata><sodipodi:namedview
     pagecolor="#ffffff"
     bordercolor="#666666"
     borderopacity="1"
     objecttolerance="10"
     gridtolerance="10"
     guidetolerance="10"
     inkscape:pageopacity="0"
     inkscape:pageshadow="2"
     inkscape:window-width="659"
     inkscape:window-height="480"
     id="namedview7"
     showgrid="false"
     inkscape:zoom="0.30729167"
     inkscape:cx="512"
     inkscape:cy="384"
     inkscape:window-x="0"
     inkscape:window-y="0"
     inkscape:window-maximized="0"
     inkscape:current-layer="svg2" /><defs
     id="defs10" /><g
     id="Layer_1"
     transform="translate(0,256)" /><g
     id="Tracings"
     transform="translate(-0.14831252,128.68364)"><path
       d="m 604.341,110.816 c 0.262,-0.147 0.524,-0.294 0.786,-0.441 13.353,-7.477 27.174,-14.68 40.586,-22.237 13.204,-7.441 26.081,-15.806 39.607,-22.125 14.731,-6.882 30.658,-11.911 46.464,-15.675 25.552,-6.086 50.677,-14.685 76.933,-17.338 26.74,-2.702 53.577,1.117 79.016,9.57 7.198,2.392 13.213,5.549 19.583,9.755 2.672,1.763 5.468,3.041 7.961,5.259 2.789,2.48 5.2,5.637 8.273,7.823 1.811,1.289 3.961,2.215 5.562,3.783 1.485,1.456 2.417,3.415 3.943,4.842 1.037,0.971 2.003,2.104 3.057,3 3.417,2.909 8.324,4.345 12.771,4.632 8.089,0.521 15.867,1.055 23.958,1.957 7.942,0.886 15.969,1.969 23.563,4.561 8.353,2.85 14.252,7.858 19.419,14.897 -3.494,0.303 -6.108,0.273 -9.241,1.567 -11.958,4.942 -25.175,8.789 -38.361,10.053 -5.793,0.556 -12.851,1.235 -18.201,3.651 3.782,1.812 8.234,3.125 11.959,4.972 2.058,1.021 4.242,2.02 6.413,2.767 1.658,0.569 3.626,1.781 5.355,2.024 -4.859,-1.373 -9.768,-2.079 -14.602,-3.918 -3.358,-1.276 -6.625,-2.818 -10.116,-3.72 -1.121,-0.29 -4.257,-1.241 -5.01,0.197 -0.93,1.777 3.22,3.872 4.317,4.576 2.075,1.331 4.12,3.715 6.326,4.59 -2.8,0.017 -6.686,-2.236 -8.953,-3.742 -1.301,-0.865 -2.563,-2.042 -3.853,-2.94 -2.08,-1.449 -3.209,-0.758 -5.425,-0.409 2.737,2.619 5.747,4.974 8.488,7.608 -3.327,-0.573 -6.436,-5.526 -9.349,-5.564 -6.34,-0.082 1.883,6.27 3.48,7.532 -2.528,-0.907 -5.196,-2.378 -7.284,-3.764 -1.541,1.065 -2.94,2.935 -3.765,4.583 -1.464,2.924 -1.474,3.045 0.66,6.136 -2.288,0.331 -4.543,-0.627 -6.551,-1.308 -3.242,5.89 -6.911,10.52 -9.295,16.672 -2.477,6.391 -5.732,12.521 -9.032,18.354 -13.705,24.234 -21.662,51.675 -23.36,79.317 -0.975,15.859 -7.238,30.044 -13.203,44.522 -2.81,6.819 -7.238,13.024 -9.914,19.916 -8.118,20.904 -21.288,42.231 -37.746,57.628 -18.936,17.715 -41.644,30.688 -64.491,42.633 -51.599,26.977 -106.625,47.882 -164.134,58.028 -13.387,2.362 -24.362,8.168 -35.673,15.42 2.561,0.772 5.27,3.894 7.375,5.486 2.868,2.166 5.896,4.112 8.883,6.107 6.829,4.563 13.81,8.946 20.537,13.69 10.27,7.242 21.309,13.322 31.522,20.645 5.591,4.009 11.659,7.287 17.647,10.654 6.761,3.801 14.426,7.965 20.301,12.975 4.721,4.026 10.946,4.376 15.813,8.089 4.246,3.241 8.465,6.599 13.577,8.367 3.896,1.348 5.916,-0.282 9.278,-1.663 3.698,-1.521 7.673,-2.04 11.16,-4.128 2.709,-1.622 5.135,-3.798 7.354,-6.031 1.937,-1.95 2.918,-4.126 5.307,-5.537 1.87,-1.104 4.287,-2.001 6.357,-2.674 1.887,-0.615 7.139,-1.425 8.5,0.504 1.575,2.225 -0.529,5.759 -2.276,7.039 -1.803,1.324 -3.314,2.176 -4.874,3.961 -1.752,2.002 -3.831,3.744 -5.832,5.329 -3.019,2.392 -5.999,4.206 -8.734,6.993 0.46,-0.468 10.86,1.325 12.265,1.401 6.964,0.377 14.04,-1.515 20.532,-3.869 6.044,-2.189 10.027,-7.554 15.775,-10.231 4.884,-2.272 17.275,-6.438 18.286,2.328 -0.047,-0.399 8.799,4.881 9.581,5.683 2.295,2.345 4.542,4.958 5.673,8.086 1.001,2.774 1.368,6.587 1.657,9.507 0.303,3.043 -0.913,5.977 -1.271,9.105 -1.644,-2.149 -0.876,-7.508 -1.761,-10.23 -1.791,-5.499 -6.95,-13.86 -13.422,-14.338 0.539,2.122 -0.326,5.143 -2.614,5.984 -2.111,0.775 -4.535,-1.256 -6.7,-1.935 -4.597,-1.441 -9.243,-0.16 -13.469,1.936 -5.083,2.52 -8.914,6.949 -13.843,9.721 -5.284,2.97 -11.289,1.915 -17.108,1.925 2.362,0.516 0.841,9.895 0.42,12.082 -0.75,3.888 -3.113,8.521 -5.794,11.359 0.56,-0.593 0.58,-4.938 0.764,-5.898 0.475,-2.491 1.015,-5.002 1.133,-7.541 0.088,-1.957 0.09,-4.401 -1.26,-5.989 -2.207,-2.593 -4.874,-0.562 -7.68,-1.079 -1.825,-0.337 -2.08,-1.325 -3.362,-2.506 -2.837,-2.613 -5.617,-2.1 -8.55,-0.117 -3.729,2.521 -7.914,5.286 -12.532,5.642 -4.087,0.314 -8.893,-2.215 -12.227,-4.424 -1.928,-1.276 -3.392,-2.56 -5.076,-4.04 -1.265,-1.113 -3.05,-3.276 -4.448,-3.344 -2.318,-0.112 -4.547,1.926 -6.803,2.321 -3.271,0.574 -6.604,0.547 -9.914,0.605 -7.144,0.125 -14.301,-0.283 -21.436,0.252 -5.943,0.446 -12.127,-0.018 -18.092,-0.025 -4.813,-0.007 -15.27,4.813 -18.675,-0.509 -1.889,-2.949 -0.978,-6.606 -3.86,-8.974 -2.698,-2.213 -6.854,-1.898 -9.976,-1.744 -5.344,0.261 -10.214,0.039 -14.606,3.748 -1.23,1.042 -1.868,3.217 -3.684,2.788 -0.885,-4.144 4.156,-8.823 7.369,-10.864 5.208,-3.309 11.187,-4.112 17.167,-3.401 5.142,0.611 9.748,2.784 14.659,4.409 6.143,2.033 12.271,2.631 18.644,3.183 8.199,0.709 16.441,0.006 24.622,-0.604 1.505,-0.112 5.507,-1.827 5.791,-3.739 0.754,-5.062 -9.156,-8.331 -12.051,-10.087 -3.019,-1.83 -6.341,-3.154 -9.288,-5.013 -6.801,-4.289 -12.518,-10.267 -19.059,-14.559 -11.293,-7.414 -21.417,-16.422 -32.498,-24.129 -10.366,-7.209 -21.332,-11.579 -32.658,-16.922 -6.361,-3.001 -13.152,-6.851 -19.413,-0.988 -5.971,5.588 -16.845,12.292 -17.251,21.525 -0.099,2.25 1.979,3.548 3.584,5.521 3.364,4.134 6.9,8.191 10.646,12.1 3.907,4.08 7.857,8.179 11.197,12.776 3.928,5.383 9.285,9.811 13.317,14.701 4.924,5.971 10.384,11.48 16.176,16.606 5.713,5.056 10.699,10.845 15.791,16.506 4.198,4.67 8.768,10.263 13.638,14.209 4.593,3.722 8.365,7.499 12.203,12.029 6.296,7.43 14.998,13.804 20.453,21.824 2.326,3.42 3.777,5.531 7.569,7.726 3.521,2.039 7.34,3.529 10.834,5.618 4.537,2.714 6.241,8.935 11.202,11.216 2.819,1.295 5.168,1.38 8.171,1.016 9.916,-1.201 17.364,-9.845 23.353,-16.988 1.357,-1.622 11.974,-7.637 12.607,-3.859 0.646,3.853 1.156,7.803 -1.794,10.764 -3.529,3.544 -8.642,4.493 -12.76,7.092 -4.167,2.628 -5.178,6.511 -7.899,10.319 4.997,3.974 11.685,3.676 17.705,3.483 2.615,-0.083 5.299,0.522 7.821,0.42 4.974,-0.203 11.487,-3.246 15.889,-5.454 6.448,-3.234 9.979,-7.648 14.631,-12.862 2.635,-2.953 19.556,-15.366 22.177,-8.399 0.232,0.614 9.001,0.734 10.092,1.018 3.416,0.887 6.065,2.903 7.914,5.913 2.217,3.605 2.205,7.347 0.785,11.227 -0.564,1.548 -1.253,3.507 -2.133,4.894 -0.794,1.252 -2.555,2.198 -2.98,3.616 1.104,-3.681 3.404,-6.974 1.762,-10.933 -1.482,-3.573 -6.924,-9.62 -11.326,-6.763 0.418,2.622 -1.335,5.716 -3.808,6.775 -2.425,1.037 -5.427,0.608 -7.992,0.901 -4.644,0.533 -7.444,2.766 -10.805,6.063 -3.159,3.099 -6.249,5.819 -8.998,9.332 -1.323,1.691 -2.275,3.284 -4.124,4.603 -4.282,3.052 -7.995,4.593 -13.264,4.922 2.998,8.2 -1.974,27.545 -12.581,29.801 1.946,-0.414 6.444,-16.661 5.702,-18.861 -0.82,-2.434 -3.71,-1.342 -5.422,-0.623 -2.315,0.971 -4.358,1.504 -6.821,2.087 -7.35,1.741 -15.766,-0.246 -22.73,-2.737 -6.644,-2.378 -14.15,-3.703 -19.335,-9.17 -2.553,-2.691 -4.599,-5.896 -7.514,-8.189 -2.625,-2.068 -6.511,-3.118 -9.831,-3.118 -4.054,0 -7.548,0.982 -11.491,1.229 -7.475,0.467 -14.572,3.221 -22.021,3.828 -5.916,0.482 -11.712,-0.575 -17.587,0.817 -3.818,0.905 -7.979,1.96 -11.98,2.199 -2.809,0.167 -5.682,0.221 -8.075,-0.921 -2.982,-1.423 -2.779,-5.361 -2.616,-8.133 0.205,-3.49 0.702,-6.674 -2.45,-9.11 -1.556,-1.204 -3.149,-1.972 -4.898,-2.676 -6.886,-2.775 -13.155,-1.199 -19.643,1.749 -0.52,0.237 -1.034,0.483 -1.528,0.77 -4.834,2.805 -7.217,8.198 -9.829,12.798 -0.57,-4.597 3.09,-10.956 5.52,-14.541 1.315,-1.939 2.829,-3.433 4.668,-4.868 4.716,-3.677 10.023,-5.026 15.863,-5.396 3.341,-0.21 7.201,0.633 10.275,1.461 3,0.808 5.351,3.17 8.313,3.868 2.069,0.489 4.049,-0.471 6.111,-0.434 4.516,0.084 7.306,2.602 10.427,5.273 3.573,3.057 10.171,0.097 14.39,0.097 4.076,0 8.154,-0.387 12.228,-0.335 2.808,0.035 7.038,0.747 9.339,-1.227 7.297,-6.261 -4.264,-13.109 -7.642,-17.874 -1.317,-1.858 -2.188,-3.962 -3.43,-5.852 -0.879,-1.341 -2.249,-2.251 -3.187,-3.54 -0.985,-1.351 -0.989,-2.805 -1.784,-4.188 -1.438,-2.507 -4.442,-3.818 -6.196,-6.065 -3.124,-4.006 -7.21,-7.088 -10.38,-11.026 -9.038,-11.226 -19.929,-21.075 -30.05,-31.261 -11.731,-11.801 -22.678,-24.428 -34.6,-36.024 -1.685,-1.64 -3.204,-3.466 -4.533,-5.385 -1.158,-1.67 -2.484,-2.506 -3.926,-3.945 -1.222,-1.22 -2.436,-2.259 -3.802,-3.3 -2.74,-2.091 -5.304,-4.297 -8.191,-6.241 -2.927,-1.969 -6.263,-4.896 -9.834,-5.324 -3.89,-0.467 -6.974,-0.852 -10.5,-2.433 -1.147,-0.515 -2.234,-1.122 -3.337,-1.71 1.567,-1.25 2.821,-1.789 3.873,-3.674 1.088,-1.945 0.738,-3.991 1.383,-6.07 -1.36,-0.258 -4.389,1.24 -5.176,-0.947 -0.445,-1.235 2.402,-3.303 2.229,-5.163 -3.421,-0.074 -5.432,-1.599 -7.965,-3.767 -1.032,-0.884 -2.021,-1.711 -2.932,-2.683 -0.521,-0.555 -2.848,-2.432 -2.952,-3.17 -0.093,-0.658 1.598,-2.671 2.09,-3.438 1.279,-1.991 2.588,-5.108 2.75,-7.519 0.135,-2.006 0.01,-3.717 0.794,-5.568 0.728,-1.719 2.481,-2.631 0.431,-3.791 -6.158,-3.476 -13.803,-4.742 -20.294,-8.069 -2.441,-1.251 -4.009,-3.828 -6.692,-4.681 -11.925,-3.798 -32.542,-0.779 -43.552,5.029 -6.814,3.596 -14.352,5.656 -22.01,6.712 -17.257,2.379 -33.959,7.453 -50.706,12.077 -12.893,3.56 -32.293,4.228 -43.539,11.731 -4.966,3.313 -9.8,7.129 -14.589,10.746 -4.833,3.649 -9.666,7.104 -14.383,10.91 -2.188,1.765 -3.981,3.762 -5.959,5.777 -22.768,23.205 -49.889,41.425 -76.334,60.085 -26.393,18.625 -52.634,37.287 -79.338,55.478 -20.165,13.737 -39.004,30.311 -61.057,41.013 -4.844,2.352 -16.476,8.577 -21.057,2.166 -3.655,-5.114 4.709,-8.645 6.417,-12.237 -2.564,-0.164 -3.064,-3.224 -1.603,-5.022 -2.712,0.188 -6.851,-0.063 -4.888,-3.91 -8.982,1.396 -1.494,-7.972 0.818,-11.102 2.843,-3.849 6.662,-8.756 8.567,-12.763 -1.386,0.624 -2.81,0.404 -4.24,-0.132 -0.856,-2.853 2.005,-4.595 3.289,-6.689 -2.411,0.418 -4.78,1.951 -7.201,2.284 -1.03,-6.231 8.356,-10.281 10.146,-15.498 -1.153,0.43 -3.766,0.486 -4.496,-0.906 -1.034,-1.973 1.814,-3.555 2.97,-5.037 4.305,-5.518 9.422,-10.99 13.2,-16.875 1.157,-1.804 1.484,-3.956 2.833,-5.573 3.135,-3.762 8.512,-6.131 12.407,-9.154 37.568,-29.169 75.849,-58.131 112.293,-88.675 6.143,-5.148 12.041,-10.579 18.17,-15.744 4.507,-3.798 13.903,-9.6 15.606,-15.368 0.192,-0.653 -8.3,1.944 -9.155,2.192 -3.252,0.935 -6.96,1.07 -10.317,0.763 -3.45,-0.316 -2.446,-2.896 -0.782,-4.848 1.387,-1.627 3.225,-2.555 4.896,-3.824 1.944,-1.477 2.664,-3.081 4.28,-4.783 2.257,-2.376 8.925,-3.705 9.974,-6.732 -2.439,0.152 -5.284,-0.347 -7.653,-0.798 -4.142,-0.788 -8.89,-0.766 -12.845,-2.174 -0.934,-0.333 -1.711,-1.353 -2.65,-1.771 -1.275,-0.567 -1.223,-0.235 -2.467,-0.43 -9.398,-1.467 -19.166,-1.326 -28.683,-2.356 -6.229,-0.675 -13.227,-2.259 -17.444,-7.296 -2.475,-2.957 -2.942,-7.654 -0.181,-10.636 1.53,-1.651 3.277,-3.188 4.859,-4.678 16.729,-15.758 38.137,-21.494 60.141,-26.371 7.935,-1.759 16.481,-2.384 24.063,-5.446 11.168,-4.51 21.164,-11.465 32.188,-16.318 15.173,-6.68 30.377,-13.761 45.626,-20.168 3.811,-1.603 8.713,-3.206 11.449,-6.511 1.462,-1.768 0.275,-3.165 0.958,-5.529 -21.458,-3.68 13.448,-40.91 19.489,-45.44 6.981,-5.235 14.678,-9.743 20.68,-16.165 6.27,-6.709 11.305,-13.602 18.597,-19.449 6.166,-4.943 11.691,-10.17 18.514,-14.26 16.324,-9.783 33.989,-17.006 51.422,-24.52 14.831,-6.392 33.067,-12.353 44.263,-24.542 22.626,-24.634 52.941,-45.739 80.56,-64.442 15.342,-10.387 31.271,-20.516 47.416,-29.594 z"
       id="path6"
       fill="param(fill) #000"
       fill-opacity="param(fill-opacity)"
       stroke="param(outline) #FFF"
       stroke-opacity="param(outline-opacity)"
       stroke-width="param(outline-width) 0"
       inkscape:connector-curvature="0" /></g></svg>