<?xml version="1.0" encoding="UTF-8" standalone="no"?>
<!-- Created with Inkscape (http://www.inkscape.org/) -->

<svg
   xmlns:dc="http://purl.org/dc/elements/1.1/"
   xmlns:cc="http://creativecommons.org/ns#"
   xmlns:rdf="http://www.w3.org/1999/02/22-rdf-syntax-ns#"
   xmlns:svg="http://www.w3.org/2000/svg"
   xmlns="http://www.w3.org/2000/svg"
   xmlns:sodipodi="http://sodipodi.sourceforge.net/DTD/sodipodi-0.dtd"
   xmlns:inkscape="http://www.inkscape.org/namespaces/inkscape"
   version="1.1"
   width="905"
   height="905"
   viewBox="0 0 905 905"
   id="svg2"
   xml:space="preserve"
   inkscape:version="0.91 r13725"
   sodipodi:docname="birds_thrush3.svg"><metadata
     id="metadata9"><rdf:RDF><cc:Work
         rdf:about=""><dc:format>image/svg+xml</dc:format><dc:type
           rdf:resource="http://purl.org/dc/dcmitype/StillImage" /><dc:title></dc:title></cc:Work></rdf:RDF></metadata><sodipodi:namedview
     pagecolor="#ffffff"
     bordercolor="#666666"
     borderopacity="1"
     objecttolerance="10"
     gridtolerance="10"
     guidetolerance="10"
     inkscape:pageopacity="0"
     inkscape:pageshadow="2"
     inkscape:window-width="659"
     inkscape:window-height="480"
     id="namedview7"
     showgrid="false"
     fit-margin-top="0"
     fit-margin-left="0"
     fit-margin-right="0"
     fit-margin-bottom="0"
     inkscape:zoom="0.30729167"
     inkscape:cx="456.25298"
     inkscape:cy="373.86402"
     inkscape:window-x="0"
     inkscape:window-y="0"
     inkscape:window-maximized="0"
     inkscape:current-layer="svg2" /><defs
     id="defs10" /><g
     id="Layer_1"
     transform="translate(-55.747024,147.13602)" /><g
     id="Tracings"
     transform="translate(-54.024462,66.507072)"><path
       d="m 903.532,61.123 c 0.999,-0.562 12.272,-5.524 12.316,-4.89 0.396,6.267 0.784,15.448 -2.794,20.518 -2.572,3.646 -6.568,5.733 -10.231,8.086 -2.733,1.757 -7.493,6.698 -10.976,6.353 5.427,0.537 10.879,1.386 16.324,1.649 5.135,0.25 10.296,0.598 15.297,1.867 3.91,0.992 10.376,3.63 7.988,8.333 -1.182,2.325 -3.248,3.966 -5.168,5.779 -1.021,0.961 -11.295,8.739 -12.086,7.706 2.025,2.652 26.151,6.283 26.06,6.793 -0.759,4.183 -2.105,9.563 -6.054,12.074 -3.732,2.373 -7.39,3.706 -11.737,4.447 2.747,3.366 4.507,5.17 8.418,6.903 2.745,1.216 7.005,3.156 6.345,6.793 -0.67,3.707 -3.458,6.144 -5.854,9.013 -2.001,2.391 -4.013,3.522 -6.688,4.952 -1.765,0.944 -3.336,2.924 -5.291,3.346 0.896,1.616 2.524,2.428 3.685,3.809 1.438,1.712 2.455,3.618 3.067,5.785 1.265,4.474 1.861,7.379 -0.536,11.604 -2.604,4.592 -6.753,7.641 -11.387,9.981 -0.949,0.479 -12.479,5.839 -12.133,6.538 1.303,2.615 2.706,5.333 4.173,7.892 1.785,3.119 4.355,5.63 4.813,9.307 0.47,3.766 -0.03,7.508 -1.718,10.671 -3.075,5.757 -12.244,12.026 -18.971,11.001 6.136,0.934 3.179,19.669 2.126,24.096 -1.198,5.02 -3.616,5.559 -8.964,5.149 -5.728,-0.438 -11.725,-1.898 -17.414,-2.776 2.853,2.592 5.291,7.144 5.038,11.024 -0.268,4.119 -0.51,9.398 -1.796,13.338 -1.089,3.34 -3.544,7.736 -7.138,9.032 -3.962,1.429 -8.354,-0.857 -12.042,-2.053 -4.641,-1.503 -9.002,-3.62 -13.581,-5.403 1.912,5.891 11.359,13.314 9.348,19.735 -3.726,11.899 -22.025,13.378 -31.847,13.084 10.1,14.099 -28.127,25.701 -37.359,16.717 1.188,3.519 0.883,7.369 -0.356,11.046 -9.356,7.576 -27.743,14.821 -38.838,5.443 4.033,3.409 -15.056,14.841 -19.654,12.433 3.991,8.772 10.858,16.01 15.039,24.839 4.601,9.725 2.603,21.996 8.8,30.7 6.047,8.489 15.283,10.342 24.51,14.478 12.581,5.642 24.013,9.666 37.156,13.418 15.795,4.506 31.467,8.806 47.465,11.579 9.83,1.705 19.64,3.557 29.537,4.826 9.063,1.161 18.762,2.154 27.908,2.154 11.979,0 23.147,-1.779 35.086,-1.031 4.368,0.274 8.954,2.322 11.958,5.917 3.589,4.302 1.702,6.748 -1.898,9.995 -3.098,2.795 -5.463,6.483 -9.016,8.941 -3.543,2.448 -6.951,5.474 -10.408,8.093 -4.681,3.552 -10.157,5.743 -15.737,7.452 -2.743,0.843 -5.523,1.559 -8.286,2.323 -1.164,0.32 -5.917,3.582 -6.407,3.527 9.764,1.09 17.876,8.847 26.549,12.765 5.187,18.438 -11.176,25.575 -24.436,33.047 0.746,4.751 4.851,7.289 7.519,10.772 2.818,3.677 1.282,7.029 0.254,11.073 -0.587,2.315 -1.182,3.707 -2.509,5.817 -1.113,1.771 -1.336,3.608 -2.247,5.245 -1.237,2.228 -2.702,1.651 -5.58,1.644 -3.132,-0.01 -3.544,0.272 -4.471,3.095 -0.953,2.905 -1.339,3.688 -4.204,3.862 -2.219,0.136 -4.592,0.258 -6.771,0.318 0.335,1.316 0.444,2.824 1.076,4.076 0.579,1.151 2.42,2.188 2.699,3.433 0.051,0.229 -0.842,3.328 -1.122,3.726 -0.59,0.828 -2.209,1.426 -3.114,1.701 -2.301,0.698 -5.181,0.716 -7.467,1.136 -2.326,0.431 -5.026,1.269 -7.457,0.988 1.26,2.927 -1.905,10.517 -2.026,13.937 -0.336,9.26 -35.994,3.6 -41.024,1.488 -2.649,-1.115 -5.288,-2.667 -7.934,-3.312 0.688,2.276 0.212,5.318 0.711,7.783 0.416,2.071 1.446,3.849 2.062,5.85 1.568,5.087 -0.015,9.907 -1.698,14.866 -1.552,4.554 -2.891,8.928 -6.032,12.635 -1.493,1.763 -3.095,3.397 -4.45,5.244 -1.477,2.012 -1.892,3.843 -3.087,6.142 -2.269,0.549 -4.556,1.257 -6.763,1.838 0.054,2.225 3.336,4.649 1.332,6.742 -1.074,1.122 -6.095,2.404 -7.585,2.485 -2.588,0.143 -6.084,-0.142 -8.513,-1.107 -2.526,-1.001 -4.739,-2.683 -7.602,-2.279 -0.442,2.154 1.424,3.104 2.27,4.838 0.892,1.824 0.94,3.599 0.698,5.697 -0.46,3.991 -1.726,7.486 -3.973,11.103 -2.3,3.696 -5.209,6.911 -8.677,9.699 -3.169,2.546 -4.159,4.985 -5.84,8.523 -0.931,1.959 -1.411,5.093 -3.175,6.449 -1.914,1.472 -5.024,1.036 -7.155,1.108 -2.759,0.095 -5.99,-1.145 -8.607,0.087 -2.122,0.997 -2.741,3.768 -4.539,4.116 -1.113,0.216 -2.702,-0.937 -3.786,-1.014 -1.704,-0.117 -1.616,-0.151 -3.284,0.688 -2.238,1.127 -3.371,2.901 -5.918,2.314 -4.142,-0.953 -7.711,-6.223 -11.989,-6.477 -0.589,1.133 -1.483,2.783 -2.373,3.732 -1.212,1.293 -3.46,2.455 -4.884,3.501 -1.748,1.284 -3.74,2.285 -5.804,2.981 -0.624,-2.69 -2.629,-7.796 -4.802,-9.533 -1.727,1.872 -3.292,4.067 -4.899,5.834 -4.938,-7.048 -5.544,-14.448 -7.559,-22.408 -1.093,-4.312 -1.52,-8.661 -2.771,-13.061 -7.401,-26.052 -17.319,-51.591 -25.788,-77.46 -4.538,-13.862 -9.998,-27.172 -16.771,-40.142 -3.368,-6.452 -5.65,-16.079 -12.462,-20.094 -3.85,-2.27 -6.053,-4.34 -8.34,-8.095 -2.508,-4.111 -4.423,-6.976 -8.273,-9.62 -5.916,-4.063 -12.363,-3.972 -19.171,-4.615 -3.764,-0.357 -7.645,-1.606 -11.34,-2.507 -10.09,-2.455 -16.575,-8.656 -24.708,-14.729 -3.214,-2.397 -6.351,-5.396 -9.271,-8.257 -1.766,-1.729 -3.375,-3.5 -5.321,-4.998 -1.665,-1.281 -4.142,-2.12 -5.513,-3.809 -2.554,2.121 -1.173,5.652 -2.197,8.247 -1.048,2.66 -4.938,4.72 -7.656,4.841 2.258,2.281 4.014,5.27 6.499,7.583 8.476,7.896 18.263,15.648 16.846,28.803 -0.493,4.584 -5.974,7.186 -9.348,9.967 -2.262,1.864 -4.915,2.942 -7.163,4.765 -2.481,2.011 -1.114,2.497 -0.076,5.313 4.495,12.181 -4.83,23.968 -15.405,29.07 -5.464,2.636 -11.628,-2.36 -17.497,-1.91 15.144,19.515 -7.591,32.307 -25.338,32.775 2.004,-0.052 -9.161,17.648 -10.535,18.913 -6.387,5.88 -15.246,9.688 -22.436,2.712 0.174,22.127 -32.928,20.343 -46.464,17.569 -0.14,4.462 -0.173,8.858 -1.388,13.103 -6.087,3.711 -12.066,7.458 -19.435,7.4 -3.192,-0.024 -9.54,-2.195 -12.174,-0.875 -2.353,1.177 -5.717,8.159 -8.175,10.396 -12.047,10.963 -30.095,5.854 -39.551,-6.06 2.613,3.29 -6.209,15.075 -9.24,15.801 -3.749,0.899 -9.031,-0.51 -12.726,-0.953 -3.223,-0.389 -8.602,-0.372 -11.284,-2.209 -2.781,-1.899 -4.05,-5.24 -5.838,-7.473 -0.778,4.196 -2.577,10.112 -5.917,13.129 -3.617,3.269 -9.875,2.81 -14.455,3.01 -2.246,0.099 -5.905,0.455 -7.929,-0.325 -1.796,-0.691 -3.624,-2.912 -5.127,-4.135 -2.295,-1.868 -3.277,-3.275 -4.747,-5.877 -0.958,-1.691 -1.75,-4.632 -3.095,-5.774 -5.577,9.515 -17.001,12.051 -26.684,6.824 -8.591,-4.636 -9.51,-13.324 -11.814,-21.536 0.171,0.611 -6.497,5.13 -7.245,5.66 -2.562,1.816 -5.32,3.563 -8.372,4.418 -4.906,1.373 -12.79,-0.326 -14.759,-5.777 -0.482,-1.338 -0.344,-2.896 -0.431,-4.379 -0.302,-5.104 0.09,-9.561 1.09,-14.504 0.399,-1.979 0.799,-3.899 1.405,-5.848 1.066,-3.435 3.775,-7.778 3.703,-11.314 -4.543,2.489 -7.706,6.676 -12.479,8.874 -5.228,2.408 -10.883,2.54 -16.354,4.169 -1.255,0.374 -18.613,4.401 -18.421,1.718 0.173,-2.435 1.043,-4.822 1.211,-7.23 0.261,-3.744 -1.606,-2.549 -4.764,-3.508 7.442,-13.508 18.32,-24.204 25.603,-37.955 1.061,-2.004 2.44,-3.836 3.519,-5.833 0.925,-1.718 1.231,-3.979 2.164,-5.571 -1.551,2.646 -4.231,4.833 -6.627,6.667 -2.613,1.997 -5.177,4.097 -7.856,6.012 -10.182,7.275 -20.593,14.255 -33.124,16.84 -6.18,1.271 -12.552,3.019 -18.909,2.97 -2.064,-0.021 -11.322,0.286 -11.525,-2.272 -0.148,-1.862 4.311,-5.655 5.694,-6.704 4.949,-3.751 9.617,-7.846 14.446,-11.699 4.698,-3.746 9.448,-7.015 13.855,-10.929 4.245,-3.769 8.31,-7.972 12.461,-11.945 4.146,-3.964 8.137,-7.733 12.305,-11.704 3.766,-3.587 5.979,-8.066 9.246,-11.713 -8.018,2.265 -14.99,6.204 -22.622,9.204 -8.35,3.279 -17.844,5.024 -26.595,6.904 -4.231,0.91 -9.288,1.996 -13.622,1.72 -4.604,-0.294 -9.452,-1.481 -13.851,-2.76 -0.787,-0.228 -11.327,-5.326 -8.171,-6.813 2.74,-1.29 5.651,-1.253 8.461,-2.198 4.953,-1.665 10.145,-3.846 15.135,-5.512 5.408,-1.807 11.12,-3.205 16.588,-5.508 8.398,-3.533 16.433,-7.827 24.493,-12.057 6.99,-3.671 14.377,-7.66 20.571,-12.625 2.433,-1.952 5.087,-3.547 7.223,-5.828 2.927,-3.125 10.31,-8.231 9.865,-13.145 -3.195,0.915 -6.62,3.615 -9.886,4.956 -3.618,1.484 -7.332,2.72 -10.928,4.26 -7.151,3.063 -14.025,5.941 -21.754,7.362 -16.003,2.94 -42.535,3.638 -49.381,-15.135 3.543,-2.192 5.629,-2.453 9.848,-2.774 2.362,-0.179 4.651,-0.359 6.881,-0.67 4.789,-0.668 9.54,-1.829 14.371,-2.09 9.337,-0.507 18.759,-2.069 27.863,-4.188 4.275,-0.994 8.638,-1.901 12.804,-2.936 10.367,-2.575 19.165,-6.459 28.973,-10.662 4.607,-1.976 9.115,-4.014 13.347,-6.88 2.796,-1.894 9.714,-5.449 10.258,-8.976 -4.718,1.432 -10.811,1.173 -15.754,2.029 -9.279,1.608 -18.487,4.033 -27.863,3.43 -5.947,-0.385 -11.839,-1.096 -17.561,-2.063 -15.708,-2.657 -29.82,-7.79 -37.934,-22.637 -1.776,-3.251 -1.095,-4.341 2.855,-3.867 2.496,0.299 5.249,0.77 7.903,1.059 5.501,0.595 10.878,1.378 16.511,1.358 5.675,-0.021 11.199,1.086 16.857,1.374 5.757,0.294 11.511,0.354 17.198,0.707 10.963,0.68 23.607,1.026 34.399,-0.36 5.758,-0.74 11.487,-1.263 17.199,-2.048 10.561,-1.454 20.01,-5.896 28.304,-12.646 7.595,-6.181 14.132,-14.521 20.111,-22.204 0.333,-0.427 0.66,-0.859 0.985,-1.295 2.213,-2.972 4.256,-6.09 6.475,-9.054 2.225,-2.97 4.979,-6.329 5.55,-10.138 0.588,-3.916 -2.057,-2.514 -4.615,-3.543 -0.632,-2.439 -2.544,-3.563 -1.34,-6.468 0.779,-1.88 2.801,-3.529 4.126,-5.101 3.459,-4.103 7.49,-7.811 11.251,-11.493 1.769,-1.735 3.649,-3.495 5.442,-5.18 1.616,-1.518 3.709,-2.458 4.808,-4.471 1.456,-2.665 -0.556,-3.603 -0.603,-6.443 -0.063,-3.866 2.941,-8.681 5.818,-11.13 5.815,-4.95 13.946,-6.181 21.013,-8.398 5.009,-1.574 10.187,-3.388 15.136,-5.678 5.623,-2.601 13.979,-4.563 18.048,-9.514 2.421,-2.945 0.902,-8.568 1.152,-12.206 0.361,-5.25 -0.293,-10.03 2.041,-14.991 3.884,-8.262 5.129,-15.362 4.213,-24.422 -0.523,-5.17 -2.543,-10.739 -3.802,-15.823 -1.308,-5.286 -1.705,-11.015 -4.719,-15.541 -3.343,-5.016 -6.881,-9.91 -10.409,-14.806 -9.955,-13.814 -17.912,-26.833 -33.107,-35.59 -5.536,-3.189 -11.769,-3.412 -17.792,-4.922 -3.57,-0.895 -7.036,-1.93 -10.396,-2.665 -3.534,-0.772 -6.914,-1.699 -10.226,-2.829 -2.828,-0.964 -6.974,-1.867 -9.184,-3.508 2.282,-2.733 8.156,-3.646 11.497,-4.832 6.567,-2.332 12.876,-2.499 19.607,-2.85 0.934,-0.048 1.877,-0.1 2.829,-0.162 4.51,-0.293 9.021,-0.577 13.536,-0.777 3.008,-0.134 7.367,0.248 9.948,-1.614 2.594,-1.871 4.842,-7.765 6.444,-10.56 0.333,0.911 0.904,1.712 1.625,2.252 1.34,-2.109 2.932,-3.971 4.708,-5.716 0.801,-0.784 6.39,-4.693 6.341,-5.497 0.212,3.56 -0.939,5.647 -2.389,8.709 3.415,-3.041 5.601,-5.723 10.009,-7.514 3.902,-1.584 7.801,-3.23 11.696,-4.739 15.554,-6.027 31.45,-6.523 47.79,-4.448 12.384,1.572 25.332,3.609 37.127,7.849 11.691,4.204 21.24,12.818 33.074,16.896 11.932,4.109 28.617,7.599 41.27,5.16 5.886,-1.134 11.13,-4.829 16.768,-6.601 7.903,-2.485 16.335,-3.289 23.481,-7.852 9.405,-6.002 15.061,-15.517 25.33,-20.84 9.027,-4.679 19.456,-7.106 29.368,-9.083 12.95,-2.583 26.188,-3.48 39.074,-6.409 16.903,-3.843 33.827,-7.705 50.316,-13.098 7.251,-2.373 14.338,-5.03 21.153,-8.473 2.415,-1.221 21.362,-9.472 21.457,-11.326 0.271,-5.326 1.85,-10.915 2.787,-16.307 1.672,-9.62 1.397,-19.447 0.42,-29.124 -0.2,-2.002 -4.172,-20.321 -2.509,-20.435 29.085,-2.002 28.021,48.495 16.102,63.926 2.353,-3.045 7.872,-3.843 10.419,-7.508 2.243,-3.226 3.812,-7.041 6.069,-10.367 6.161,-9.078 11.319,-18.784 16.196,-28.598 2.971,-5.977 5.545,-12.601 7.492,-18.964 1.049,-3.435 1.604,-7.397 2.569,-10.846 0.839,-2.998 2.965,-5.748 3.585,-8.801 4.405,-2.764 9.753,5.284 11.133,8.698 2.487,6.141 1.399,11.981 -0.515,18.045 -3.846,12.199 -10.013,21.942 -17.479,32.287 6.127,-2.403 13.314,-9.693 18.123,-14.229 9.338,-8.806 17.811,-18.517 25.396,-28.866 7.044,-9.613 11.839,-21.421 19.607,-30.37 4.738,-5.458 5.222,6.943 5.063,9.529 -0.432,7.033 -3.84,14.347 -7.069,20.49 -1.649,3.138 -3.699,6.133 -5.49,9.27 -3.302,5.772 -6.732,11.803 -8.351,18.29 -0.092,0.372 6.898,-4.499 7.501,-5.021 2.879,-2.497 6.099,-4.671 9.128,-6.986 6.621,-5.062 13.214,-10.161 19.733,-15.355 4.37,-3.483 8.106,-7.689 12.268,-11.352 4.185,-3.685 8.804,-10.791 13.957,-12.692 1.473,-0.544 2.446,7.909 2.386,8.685 -0.695,8.915 -9.442,20.366 -15.347,26.635 -3.621,3.846 -7.09,6.552 -6.465,12.354 6.111,0.965 16.314,-5.235 21.607,-8.219 z"
       fill="param(fill) #000"
       fill-opacity="param(fill-opacity)"
       stroke="param(outline) #FFF"
       stroke-opacity="param(outline-opacity)"
       stroke-width="param(outline-width) 0"
       id="path6"
       inkscape:connector-curvature="0" /></g></svg>