<?xml version="1.0" encoding="UTF-8" standalone="no"?>
<!-- Created with Inkscape (http://www.inkscape.org/) -->

<svg
   xmlns:svg="http://www.w3.org/2000/svg"
   xmlns="http://www.w3.org/2000/svg"
   version="1.1"
   width="1500"
   height="1500"
   viewBox="0 0 1500 1500"
   id="Layer_1"
   xml:space="preserve"><defs
   id="defs7" />
    
    <path
   d="m 1077.377,574.223 c 29.886,3.327 58.641,-1.504 88.098,-0.093 56.648,2.728 114.527,12.637 157.742,52.574 12.188,11.257 18.58,27.216 29.011,39.881 5.075,6.155 11.152,10.473 17.611,14.858 6.108,4.123 14.324,8.626 20.983,11.549 7.785,3.426 16.55,4.535 24.537,7.477 16.469,6.078 33.52,11.835 48.046,23.372 13.596,10.787 22.44,34.596 6.28,47.828 -4.151,-17.01 -33.867,-10.059 -47.172,-14.113 -16.93,-5.163 -33.779,-10.359 -50.305,-16.235 -20.068,-7.137 -30.525,-9.598 -51.729,-4.997 -15.61,3.403 -35.323,12.306 -51.995,10.396 32.249,1.278 44.543,23.752 49.892,50.23 5.875,29.15 7.785,55.021 17.44,84.236 5.251,15.887 7.396,33.73 11.475,47.836 5.1,17.529 12.907,30.193 13.491,49.503 0.606,20.693 -6.483,38.918 -7.172,59.044 -0.938,27.507 4.242,57.095 0.633,84.317 -2.639,19.893 -7.818,39.299 -10.797,59.887 -1.901,13.191 -6.772,26.916 -10.739,39.605 -8.278,26.472 -17.365,49.365 -31.907,74.145 -12.123,20.652 -23.033,48.459 -40.036,65.624 -3.763,3.796 -24.075,21.188 -28.688,21.656 -17.172,1.772 -17.869,-21.081 -15.853,-33.446 2.112,-13.047 10.082,-29.515 4.944,-41.016 -12.27,14.899 -27.369,41.549 -45.345,49.156 -32.005,13.547 -33.948,-12.956 -38.171,-37.42 -21.043,17.438 -46.566,-13.396 -42.602,-35.503 -0.478,-0.462 -0.955,-0.915 -1.448,-1.361 -27.571,4.671 -26.974,-32.604 -32.702,-50.878 -34.232,9.509 -38.966,-37.518 -39.557,-61.124 -32.751,18.46 -35.285,-22.303 -30.105,-48.086 -27.522,24.868 -37.478,-20.597 -30.881,-39.905 -1.821,0.729 -6.597,0.453 -8.449,1.246 -13.807,-21.276 -1.53,-57.49 10.246,-78.516 -2.947,0.583 -7.316,-1.1 -10.344,-0.631 -3.083,-7.364 -4.831,-15.812 -4.127,-24.271 -18.969,10.326 -62.565,1.757 -49.77,-27.279 1.521,-0.777 2.977,-1.376 4.451,-2.201 -11.694,0.59 -36.087,1.975 -40.634,-11.783 -25.499,8.699 -56.851,8.684 -84.56,10.075 -15.717,0.785 -30.837,-1.06 -45.005,3.941 -13.125,4.637 -23.383,11.508 -37.307,14.47 -28.214,6.021 -57.07,0.453 -84.893,3.156 -29.279,2.864 -53.051,14.389 -84.491,14.389 -37.117,0 -74.65,4.184 -111.481,7.138 -12.705,1.02 -30.557,7.097 -41.212,5.713 -14.943,18.808 -41.773,26.107 -62.652,36.174 -24.732,11.945 -51.401,22.271 -75.914,33.181 -28.995,12.916 -55.479,21.826 -88.064,18.468 -14.422,-1.481 -25.581,-4.742 -38.202,-12.139 -5.422,-3.173 -25.61,-11.483 -27.956,-16.987 -5.495,-12.932 12.009,-26.463 20.579,-33.876 -20.203,2.631 -28.248,13.11 -40.662,-5.365 -9.553,-14.187 -15.4,-27.046 -2.027,-40.528 -7.09,2.469 -15.336,3.868 -22.887,2.509 -2.958,-7.138 -1.513,-13.482 0,-20.943 3.816,-2.558 4.047,-6.069 6.608,-10.65 -21.187,-14.332 -13.155,-42.081 -17.695,-65.153 -6.021,-30.502 11.375,-45.295 41.961,-45.521 67.173,-0.502 135.584,-4.257 202.09,-14.227 51.239,-7.672 113.447,-21.471 157.294,-49.471 20.546,-13.135 37.735,-36.041 58.688,-46.833 -9.509,3.573 -27.491,-0.037 -36.029,-3.974 8.627,-8.554 22.256,-15.772 30.635,-24.8 -29.894,3.97 -34.859,-38.577 -7.197,-45.704 -10.384,-6.956 -20.454,-25.205 -12.629,-36.635 -2.182,0.481 -4.787,0.417 -6.688,0.81 -1.041,-7.794 -2.125,-7.984 -7.158,-12.625 -6.162,-13.713 -10.206,-15.915 -7.543,-33.892 1.954,-13.183 4.617,-20.548 -0.416,-33.642 -1.534,-4.051 -6.661,-6.037 -8.522,-11.253 -2.416,-6.712 2.17,-11.216 0.045,-17.966 -3.677,-11.616 -17.019,-15.675 -11.115,-30.271 -14.526,-0.368 -16.222,-13.854 -12.516,-23.263 -1.953,4.958 -14.547,-15.861 -15.035,-17.573 -1.215,-4.18 -2.377,-19.718 -2.314,-24.585 0.087,-6.968 2.628,-14.381 4.746,-20.854 -16.008,2.347 -13.892,-16.61 -10.736,-27.01 -17.601,0.882 -12.16,-44.093 1.298,-48.762 -6.02,-1.004 -13.17,-2.314 -17.552,-7.207 2.544,-2.133 4.547,-6.062 6.178,-8.89 -22.599,-4.564 7.353,-26.277 15.016,-30.789 -27.693,0.624 -62.649,12.103 -84.035,-8.89 2.749,-1.327 5.136,-4.758 9.024,-5.899 -4.091,-1.222 -8.955,-6.102 -12.616,-8.493 2.633,-1.938 5.122,-5.418 8.582,-6.927 -16.395,8.149 -52.975,-11.168 -27.017,-23.732 -8.881,-2.914 -21.442,3.767 -29.518,-2.104 -8.44,-6.107 -5.872,-17.339 1.65,-19.351 -9.493,2.218 -24.687,4.929 -31.04,-3.658 5.079,-6.466 13.442,-9.241 21.142,-10.734 -10.412,-2.804 -27.345,-7.421 -35.578,-14.393 9.151,-6.807 20.772,-8.065 32.078,-9.294 -8.946,-7.32 -19.232,-5.919 -29.785,-8.987 0.499,-2.42 1.898,-6.135 3.677,-8.368 2.834,-0.283 5.734,-1.789 7.944,-2.12 -6.931,-2.808 -13.997,-6.859 -15.222,-13.976 13.36,-7.705 34.874,-7.284 49.43,-2.06 -6.264,-2.707 -12.75,-5.216 -17.116,-10.479 21.243,-8.364 56.952,9.625 78.919,14.037 27.551,5.511 53.554,10.709 82.711,10.682 55.289,-0.049 110.085,12.771 165.002,11.192 57.405,-1.65 115.96,-1.255 172.56,7.187 25.027,3.746 51.918,8.513 75.962,17.537 12.963,4.863 25.07,10.593 37.8,17.521 19.244,10.495 43.79,14.817 53.712,37.198 9.404,21.183 -3.294,42.451 -10.684,62.188 -11.483,30.744 -18.742,57.312 -12.576,89.873 5.56,29.344 11.736,58.854 23.178,86.556 5.584,13.519 12.432,26.507 20.572,38.659 8.554,12.729 14.615,25.395 24.075,38.145 5.098,6.874 10.148,12.855 16.534,18.39 2.281,2.007 5.502,6.215 8.731,7.429 3.82,1.44 10.075,0.348 13.813,0.348 29.432,-0.015 59.471,5.031 89.059,8.325 z"
   id="path3" fill="param(fill) #000" fill-opacity="param(fill-opacity)" stroke="param(outline) #FFF" stroke-opacity="param(outline-opacity)" stroke-width="param(outline-width) 0" />
    
</svg>