<?xml version="1.0" encoding="UTF-8" standalone="no"?>
<!-- Created with Inkscape (http://www.inkscape.org/) -->

<svg
   xmlns:dc="http://purl.org/dc/elements/1.1/"
   xmlns:cc="http://creativecommons.org/ns#"
   xmlns:rdf="http://www.w3.org/1999/02/22-rdf-syntax-ns#"
   xmlns:svg="http://www.w3.org/2000/svg"
   xmlns="http://www.w3.org/2000/svg"
   xmlns:sodipodi="http://sodipodi.sourceforge.net/DTD/sodipodi-0.dtd"
   xmlns:inkscape="http://www.inkscape.org/namespaces/inkscape"
   version="1.1"
   width="405"
   height="405"
   viewBox="0 0 405 404.99998"
   id="Capa_2"
   xml:space="preserve"
   inkscape:version="0.91 r13725"
   sodipodi:docname="birds_stork.svg"><metadata
     id="metadata7"><rdf:RDF><cc:Work
         rdf:about=""><dc:format>image/svg+xml</dc:format><dc:type
           rdf:resource="http://purl.org/dc/dcmitype/StillImage" /><dc:title></dc:title></cc:Work></rdf:RDF></metadata><sodipodi:namedview
     pagecolor="#ffffff"
     bordercolor="#666666"
     borderopacity="1"
     objecttolerance="10"
     gridtolerance="10"
     guidetolerance="10"
     inkscape:pageopacity="0"
     inkscape:pageshadow="2"
     inkscape:window-width="659"
     inkscape:window-height="480"
     id="namedview5"
     showgrid="false"
     fit-margin-top="0"
     fit-margin-left="0"
     fit-margin-right="0"
     fit-margin-bottom="0"
     inkscape:zoom="0.39645207"
     inkscape:cx="153.81363"
     inkscape:cy="203.18017"
     inkscape:window-x="0"
     inkscape:window-y="0"
     inkscape:window-maximized="0"
     inkscape:current-layer="Capa_2" /><defs
     id="defs7" /><path
     d="m 381.4115,362.577 c -4.776,-6.68701 -9.608,-13.93201 -13.666,-21.051 -5.107,-8.963 -10.266,-17.964 -15.491,-26.843 -3.538,-6.01101 -7.613,-11.977 -10.401,-18.364 -2.515,-5.761 -4.561,-11.776 -7.852,-17.144 -4.797,-7.823 -9.392,-16.27 -16.34,-22.349 -4.412,-3.86 -10.491,-6.316 -15.188,-9.956 -4.508,-3.494 -9.063,-6.92 -13.563,-10.419 -3.427,-2.665 -8.24,-7.271 -12.25,-8.875 -3.391,-1.356 -8.348,-4.653 -10.625,-7.5 -3.023,-3.779 -5.989,-4.821 -9.625,-7.75 -2.671,-2.151 -4.862,-5.238 -7.375,-7.625 6.388,-2.419 9.151,-8.928 14.954,-12.259 5.762,-3.309 9.571,-4.005 16.199,-3.873 5.422,0.108 9.447,2.874 14.458,4.544 2.283,0.761 14.447,6.79 16.338,4.689 1.406,-1.562 -16.589,-12.554 -18.366,-13.542 -3.461,-1.923 -6.118,-3.773 -7.583,-7.435 -1.218,-3.045 -6.008,-6.404 -9.037,-7.194 -11.192,-2.92 -15.169,4.531 -21.15,12.507 -2.315,3.087 -5.994,8.144 -9.642,9.813 -2.081,0.952 -9.1,-9.929 -11.046,-11.875 -7.496,-7.497 -17.563,-11.364 -24.119,-20.036 -11.074,-14.649 -19.569,-30.861 -27.367,-47.439 -3.626,-7.709 -7.266,-15.025005 -9.735,-23.155005 -2.392,-7.877 -15.846,-14.846 -22.558,-18.91 -13.169,-7.976 -25.446,-16.841 -37.338,-26.652 -12.622,-10.413 -23.309996,-22.788 -36.134996,-33.068 -2.02,-1.6189999 -8.481,-8.4309995 -10.78,-8.3079995 -3.549,0.19 3.109,6.9919996 3.584,7.4639996 6.116,6.0829999 11.546,12.6149999 18.465,17.8729999 3.045,2.315 5.882,4.945 9,7.148 1.54,1.088 10.312996,7.872 6.545996,7.191 -3.034,-0.549 -6.626996,-5.17 -9.439996,-6.858 -3.37,-2.022 -6.321,-4.769 -9.565,-6.993 -6.583,-4.514 -13.254,-9.009 -20.177,-13.019 -3.774,-2.187 -7.504,-4.515 -11.027,-7.0879995 -1.82,-1.329 -3.321,-3.123 -4.998,-4.628 -0.207,-0.186 -7.332,-4.27299999 -6.113,-0.86 1.966,5.503 9.89,11.8509995 14.505,15.2129995 6.302,4.591 13.783,8.065 20.7,11.597 3.758,1.919 7.231,4.549 10.848,6.726 1.799,1.083 3.771,1.865 5.672,2.744 0.585,0.271 5.455,4.086 2.757,4.007 -3.054,-0.09 -7.86,-3.225 -10.814,-4.484 -3.835,-1.635 -7.58,-3.19 -11.163,-5.34 -5.825,-3.495 -14.604,-7.566 -21.096,-9.298 -4.309,-1.15 -8.538,-2.368 -12.654,-4.077 -0.521,-0.216 -11.067,-5.519 -10.532,-3.111 0.947,4.261 10.38,6.723 13.676,8.371 4.963,2.481 9.979,4.065 15.06,6.145 5.757,2.356 11.621,4.618 17.312,7.112 3.183,1.395 6.456,2.473 9.679,3.762 1.362,0.545 2.796,1.01 4.129,1.616 1.166,0.53 1.624,3.813 0.254,3.153 -10.71,-5.157 -22.764,-7.428 -34.298,-10.545 -5.28,-1.427 -10.546,-2.674 -15.928,-3.645 -1.701,-0.307 -16.804,-1.925 -16.329,-0.843 0.589,1.341 7.909,2.784 9.44,3.199 2.288,0.62 4.606,1.11 6.911,1.662 4.473,1.07 9.076,2.042 13.459,3.442 5.28,1.687 10.375,3.105 15.781,4.304 2.736,0.607 5.414,1.447 8.179,1.923 0.297,0.051 8.264,2.903 4.243,3.831 -1.122,0.259 -5.894,-1.81 -7.141,-2.162 -2.216,-0.626 -4.506,-0.819 -6.785,-1.129 -5.066,-0.691 -10.06,-2.114 -15.107,-2.716 -6.076,-0.725 -12.31,0.178 -18.334,-0.682 -2.608,-0.373 -4.984,-0.56 -7.616,-0.56 -1.163,0 -2.325,0 -3.488,0 -0.818,0 -3.294,1.691 -2.016,2.148 2.816,1.006 7.587,1.102 10.699,1.102 3.815,0 7.209,1.875 11.125,1.875 7.512,0 16.66,1.686 24,3.375 5.719,1.316 3.451,2.483 -1.027,2.36 -5.043,-0.139 -10.1,-0.296 -15.145,-0.182 -1.385,0.031 -23.715,1.038 -23.121,2.583 0.749,1.947 15.87,1.121 17.292,1.171 1.612,0.058 3.224,0.115 4.835,0.172 1.435,0.051 -0.136,2.038 0.541,2.77 2.043,2.209 4.546,2.336 7.375,3 2.573,0.604 6.875,0.314 6.875,3.25 0,2.822 3.387,3.607 5.69,4.956 2.191,1.282 1.387,4.144 3.938,5.585 3.03,1.713 4.471,1.795 3.99,5.554 2.201,1.898 5.29,2.129 4.507,5.655 -0.444,2 2.066,3.317 3.606,3.884 3.884,1.431 3.65,1.056 3.409,4.428 -0.307,4.292005 2.867,0.151 3.373,2.850001 0.079,0.418 -2.231,2.938004 0.056,3.319004 1.801,0.3 0.336,2.963 1.801,2.708 2.319,-0.403 0.375,2.806 1.364,3.794 1.257,1.257 3.822996,1.771 3.905996,3.688 0.202,4.64 4.381,5.486 6.703,8.969 0.761,1.141 0.406,2.983 0.406,4.234 0,1.792 1.833,3.065 2.75,4.375 1.699,2.42599 2.718,4.763 4.269,7.264 1.789,2.885 3.903,8.423 6.481,10.486 2.027,1.622 0.245,5.62299 2.547,6.39099 4.117,1.373 2.374,2.428 4.328,5.35901 1.551,2.32599 2.939,3.292 3.375,6.125 0.364,2.369 2.877,3 4.75,3.625 2.112,0.704 1.739,2.77099 0.906,4.734 -1.471,3.468 4.015,3.122 5.953,4.545 -1.507,-1.107 0.146,4.50499 0.849,5.286 0.468,0.52 4.315,3.788 4.12,4.31 -0.65,1.734 -2.594,5.77699 -1.578,7.625 0.635,1.154 3.716,2.287 4.875,3 -9.34,3.816 -20.623,4.31899 -29.203,9.578 -1.846,1.132 -6.255,6.082 -3.737,8.38499 1.978,1.809 2.815,3.84801 2.815,6.49001 0,2.562 0.754,4.728 1.983,6.621 l -0.008,-0.003 c -3.428,1.651 -6.6,3.609 -9.843,5.598 -2.53,1.551 -7.976,4.081 -10.883,4.081 -0.846,0 -1.693,0 -2.539,0 -1.219996,0 -1.395996,0.774 -2.460996,1.25 -1.809,0.808 -4.201,0.824 -6.128,1.534 -2.968,1.093 -7.674,3.411 -9.872,5.716 2.743,2.814 6.386,-1.559 9.5,-1.75 -0.11,2.004 -3.774,4.077 -5.273,5.248 -0.911,0.712 -1.878,1.347 -2.795,2.057 -0.26,0.201 -2.556,2.542 -2.557,2.82 -0.008,1.871 2.467,1.119 3.597,0.24 2.503,-1.946 5.117,-3.759 7.703,-5.592 1.474,-1.045 3.144,-2.70301 4.825,-3.398 3.214,-1.33001 4.322996,0.61099 1.042,2.44399 -2.302,1.286 -13.882,5.188 -13.417,8.556 -0.111,-0.019 0.573,0.319 0.462,0.301 0.116,0.855 7.531,-1.966 9.499,-3.547 4.329,-3.477 9.835996,-3.715 14.663996,-6.129 4.412,-2.206 8.271,-5.054 12.947,-6.621 2.808,-0.941 9.053,-2.288 11.133,-4.969 7.067,3.397 17.323,5.341 23.073,0.979 2.29,-1.737 4.789,-3.405 7.167,-4.99 2.86,-1.906 4.479,-4.212 7.056,-6.273 1.454,-1.163 6.578,-0.374 8.343,-0.098 4.104,0.644 3.368,1.978 5.954,4.254 7.893,6.945 14.9,15.04 23.439,21.658 5.197,4.029 10.278,8.68 15.196,13.081 2.729,2.442 6.453,7.566 9.942,8.729 2.817,0.939 7.728,5.645 9.652,8.014 1.236,1.52101 4.701,2.397 5.441,4.002 1.021,2.21 2.199,2.724 4.313,3.51601 1.453,0.545 1.249,2.265 2.375,3.07799 1.162,0.84 2.424,1.555 3.594,2.39101 1.896,1.35399 1.65,4.586 4.297,5.594 3.3,1.257 4.517,4.218 8.176,6.33199 1.889,1.092 4.402,1.50901 4.402,3.94901 0,2.255 1.57,3.648 3.311,4.41199 2.82,1.23701 2.336,0.789 2.83,3.55701 0.39,2.184 1.482,5.276 4.234,4.281 0.384,6.72899 9.625,7.072 9.625,12.266 0,5.778 5.19,4.265 7.375,8.109 1.187,2.088 -0.247,6.23399 0.819,8.773 0.901,2.146 2.425,3.051 4.306,4.227 3.07,1.91899 1.729,1.719 1.973,6.098 0.167,3.017 -0.507,6.01 -0.395,9.043 0.157,4.246 0.365,8.611 1.422,12.484 1.141,4.182 5.979,-6.954 6.603,-8.46 2.315,-5.586 1.627,-9.34 2.351,-15.368 0.144,-1.194 2.101,-12.153 2.75,-11.875 1.631,0.699 0.547,10.355 0.547,11.995 0,5.719 0.214,11.457 0.252,17.187 0.029,4.368 0.356,9.254 1.133,13.554 0.229,1.273 2.678,9.718 3.756,6.483 1.978,-5.933 4.394,-10.435 4.875,-16.859 0.346,-4.605 0.785,-9.831 0.095,-14.415 -0.841,-5.583 0.865,-10.943 0.445,-16.408 -0.097,-1.258 -0.373,-9.839 2.444,-6.08301 1.988,2.651 0.875,12.27 0.875,15.375 0,4.957 0.5,9.928 0.5,14.875 0,9.13401 0.747,18.488 4.672,26.64101 2.523,5.24099 5.004,-7.313 4.922,-8.54701 -0.482,-7.23 0.248,-15.051 -0.906,-22.172 -0.655,-4.041 -0.204,-8.256 -0.703,-12.344 -0.533,-4.369 -2.204,-7.946 -2.313,-12.484 -0.063,-2.651 -0.672,-5.319 -0.672,-7.969 0,-1.22 1.575,1.71 1.529,1.54501 0.372,1.331 0.837,2.685 0.898,4.074 0.146,3.252 -0.013,6.17399 1.077,9.283 1.597,4.558 1.451,9.411 2.74,14.053 1.764,6.35 3.292,12.744 6.255,18.67 1.509,3.017 3.554,13.625 8.083,13.625 1.209,0 -4.903,-31.085 -5.958,-34.25 -1.666,-4.998 -1.923,-10.099 -3.938,-15.063 -1.563,-3.854 -4.656,-10.519 -3.688,-14.563 4.344,0.094 5.647,10.433 7.264,13.65 2.521,5.019 4.212,10.324 5.902,15.708 2.232,7.114 7.831,24.269 17.209,25.517 0.961,-7.463 -5.427,-18.142 -9.019,-24.495 -4.059,-7.181 -6.55,-14.892 -10.231,-22.255 -0.892,-1.783 -6.634,-9.955 -5.875,-11.875 1.326,-3.356 3.578,3.241 4.25,4.25 3.84,5.76 5.752,12.503 10.042,18.032 2.659,3.428 5.194,7.052 8.208,10.172 4.808,4.968 9.167,4.719 4.133,-2.329 z m -253.716,-124.58 c -3.586,1.503 -7.173,3.006 -10.76,4.509 -2.537,1.063 -5.074,2.126 -7.611,3.188 -2.228,0.934 -4.15,-0.297 -6.039,-0.713 5.855,-5.972 14.993,-7.519 21.714,-12.522 1.077,1.177 2.331,2.244 3.68,3.238 0.606,0.446 1.299,0.885 2.029,1.314 -0.828,0.041 -1.573,0.384 -3.013,0.986 z"
     id="path3"
     fill="param(fill) #000"
     fill-opacity="param(fill-opacity)"
     stroke="param(outline) #FFF"
     stroke-opacity="param(outline-opacity)"
     stroke-width="param(outline-width) 0"
     inkscape:connector-curvature="0" /></svg>