<?xml version="1.0" encoding="UTF-8" standalone="no"?>
<!-- Created with Inkscape (http://www.inkscape.org/) -->

<svg
   xmlns:dc="http://purl.org/dc/elements/1.1/"
   xmlns:cc="http://creativecommons.org/ns#"
   xmlns:rdf="http://www.w3.org/1999/02/22-rdf-syntax-ns#"
   xmlns:svg="http://www.w3.org/2000/svg"
   xmlns="http://www.w3.org/2000/svg"
   xmlns:sodipodi="http://sodipodi.sourceforge.net/DTD/sodipodi-0.dtd"
   xmlns:inkscape="http://www.inkscape.org/namespaces/inkscape"
   version="1.1"
   width="1500"
   height="1500"
   viewBox="0 0 1500.0001 1500.0001"
   id="Layer_1"
   xml:space="preserve"
   inkscape:version="0.91 r13725"
   sodipodi:docname="birds_tern.svg"><metadata
     id="metadata7"><rdf:RDF><cc:Work
         rdf:about=""><dc:format>image/svg+xml</dc:format><dc:type
           rdf:resource="http://purl.org/dc/dcmitype/StillImage" /><dc:title></dc:title></cc:Work></rdf:RDF></metadata><sodipodi:namedview
     pagecolor="#ffffff"
     bordercolor="#666666"
     borderopacity="1"
     objecttolerance="10"
     gridtolerance="10"
     guidetolerance="10"
     inkscape:pageopacity="0"
     inkscape:pageshadow="2"
     inkscape:window-width="659"
     inkscape:window-height="480"
     id="namedview5"
     showgrid="false"
     inkscape:zoom="0.22122692"
     inkscape:cx="718.71997"
     inkscape:cy="533.38898"
     inkscape:window-x="0"
     inkscape:window-y="0"
     inkscape:window-maximized="0"
     inkscape:current-layer="Layer_1" /><defs
     id="defs7" /><path
     d="m 1066.1142,713.76012 c 15.986,1.428 32.005,2.319 47.879,2.619 25.835,0.479 48.954,-3.503 72.585,-13.981 24.537,-10.877 47.791,-20.317 75.191,-19.813 64.58,1.201 127.254,41.723 163.939,93.278 13.275,18.65895 71.92,113.30895 25.298,123.80895 -8.501,1.912 -18.241,0.016 -26.717,-1.146 -8.047,11.225 -21.819,8.21 -26.058,-4.498 -13.651,9.777 -38.009,10.188 -38.358,-10.766 -11.586,17.331 -33.883,-2.024 -41.649,-13.558 -1.445,26.391 -36.046,-2.623 -40.729,-13.627 -3.749,6.812 -12.336,13.32 -20.631,12.541 -9.995,-0.918 -14.712,-11.592 -17.711,-20.521 -9.312,4.698 -19.556,12.713 -29.816,5.065 -4.477,20.728 -19.907,38.565 -21.649,59.836 -3.571,43.536 13.097,87.63703 -2.682,130.16703 -8.381,-28.757 -11.414,-57.90703 -15.943,-87.41803 -4.698,-30.603 -12.524,-62.199 -49.996,-56.353 -23.418,3.64 -46.136,13.944 -68.211,22.095 -30.193,11.123 -60.60697,21.546 -91.52597,30.5 -58.479,16.916 -118.232,28.91 -176.687,45.92 -44.742,13.01303 -88.818,27.96403 -133.842,40.02703 3.743,12.797 -21.034,27.065 -28.843,33.131 -16.352,12.671 -32.722,25.887 -50.064,37.198 -30.851,20.146 -64.384,36.643 -96.61,54.37 -67.664,37.215 -134.372,77.608 -207.76,102.831 -20.658,7.098 -41.743,12.883 -62.999,17.924 6.151,-1.461 15.25,-11.312 21.239,-14.644 6.613,-3.691 13.533,-6.715 20.419,-9.842 18.104,-8.236 36.053,-16.78 53.772,-25.854 51.517,-26.416 102.437,-54.765 152.518,-83.846 24.315,-14.165 51.021,-28.988 67.903,-52.184 -4.494,0.572 -13.507,3.297 -17.736,1.521 -4.887,-2.06 -5.169,-6.296 -7.928,-11.021 0.025,0.034 -44.409,7.972 -48.784,8.44 -15.857,1.692 -31.525,3.727 -47.057,7.45 -71.765,17.224 -135.329,55.028 -201.147,86.733 -28.21,13.584 -56.993,25.903 -85.708,38.395 -13.140005,5.716 -26.203005,11.652 -39.334005,17.395 -6.458,2.819 -12.943,5.638 -19.718,7.604 -3.314,0.975 -17.89,1.4 -19.684,3.169 29.236,-29.106 69.253005,-46.381 105.700005,-64.52 41.265,-20.522 83.11,-39.837 125.145,-58.685 23.896,-10.697 47.86,-21.239 71.833,-31.767 36.72,-16.137 72.867,-33.557 109.578,-49.653 46.468,-20.614 93.807,-35.813 129.98,-72.84203 18.232,-18.658 38.548,-35.712 58.445,-52.558 20.701,-17.532 45.699,-30.104 61.599,-52.65 -30.774,-2.896 5.715,-56.583 10.346,-70.963 -14.507,12.35 -29.082,-0.768 -22.47,-17.786 -11.892,23.912 -17.112,-9.21495 -19.547,-19.68895 -7.724,-33.141 -23.169,-63.823 -37.215,-94.596 -25.246,-55.323 -35.934,-119.972 -95.208,-149.474 -13.533,-6.731 -49.022,-20.081 -37.386,-40.482 -11.175,-1.321 -23.059,-4.106 -33.644,-7.912 -15.157,-5.454 -19.454,-8.516 -6.237,-20.008 -20.299,-2.974 -63.667,-18.809 -42.922,-44.716 -26.229,0.112 -43.093,-9.79 -35.712,-37.708 -12.84,-0.361 -27.595,0.377 -37.531,-9.256 -11.286,-10.971 -8.894,-24.271 2.708,-33.521 -19.103,-1.563 -48.809,-7.919 -40.206,-32.127 -17.847,-18.001 -36.344,-34.263 -58.762,-46.356 -5.913,-3.191 -39.557,-14.384 -38.121,-23.529 2.034,-13.054 50.937,-8.702 58.403,-8.215 38.087,2.469 75.097,12.444 111.116,24.592 71.373,24.075 145.734,42.593 215.654,70.497 34.344,13.687 67.049,30.88 100.488,46.498 32.807,15.331 66.741,27.972 99.625,43.066 57.011,26.182 97.9,61.837 115.67,123.111 7.45,25.644 12.961,51.847 19.283,77.796 5.954,24.443 11.029,52.552 26.236,73.27 15.523,21.138 41.453,26.929 66.00697,30.799 17.123,2.697 34.535,4.884 51.979,6.438 z"
     fill="param(fill) #000"
     fill-opacity="param(fill-opacity)"
     stroke="param(outline) #FFF"
     stroke-opacity="param(outline-opacity)"
     stroke-width="param(outline-width) 0"
     id="path3"
     inkscape:connector-curvature="0" /></svg>