<?xml version="1.0" encoding="UTF-8" standalone="no"?>
<!-- Created with Inkscape (http://www.inkscape.org/) -->

<svg
   xmlns:dc="http://purl.org/dc/elements/1.1/"
   xmlns:cc="http://creativecommons.org/ns#"
   xmlns:rdf="http://www.w3.org/1999/02/22-rdf-syntax-ns#"
   xmlns:svg="http://www.w3.org/2000/svg"
   xmlns="http://www.w3.org/2000/svg"
   xmlns:sodipodi="http://sodipodi.sourceforge.net/DTD/sodipodi-0.dtd"
   xmlns:inkscape="http://www.inkscape.org/namespaces/inkscape"
   version="1.1"
   width="440"
   height="440"
   viewBox="0 0 440 440"
   id="Layer_1"
   xml:space="preserve"
   inkscape:version="0.91 r13725"
   sodipodi:docname="birds_kingfisher.svg"><metadata
     id="metadata13"><rdf:RDF><cc:Work
         rdf:about=""><dc:format>image/svg+xml</dc:format><dc:type
           rdf:resource="http://purl.org/dc/dcmitype/StillImage" /><dc:title></dc:title></cc:Work></rdf:RDF></metadata><sodipodi:namedview
     pagecolor="#ffffff"
     bordercolor="#666666"
     borderopacity="1"
     objecttolerance="10"
     gridtolerance="10"
     guidetolerance="10"
     inkscape:pageopacity="0"
     inkscape:pageshadow="2"
     inkscape:window-width="659"
     inkscape:window-height="572"
     id="namedview11"
     showgrid="false"
     inkscape:zoom="0.53636364"
     inkscape:cx="-24.410137"
     inkscape:cy="220"
     inkscape:window-x="176"
     inkscape:window-y="61"
     inkscape:window-maximized="0"
     inkscape:current-layer="Layer_1" /><defs
     id="defs19" /><path
     d="m 99.999999,22.000002 c 12.229001,4.208 26.764001,11.460996 32.000001,3 1.889,2.598996 5.002,0.326 7,0 9.536,-1.556 18.25,-2.377 28,-2 8.091,0.313 14.788,1.461 23,4.999996 9.547,4.113 15.268,8.795 23,15 8.36,6.709 11.057,10.262 16,19 2.104,3.72 4.351,6.504 6,10 6.509,13.799 9.206,24.514 14,39.000002 3.047,9.207 6.72,16.878 8,27 -1.974,2.182 -2.144,11.597 -3,20 -1.599,-1.402 -2.556,-3.445 -3,-6 -4.596,9.355 6.838,13.89 11,19 3.045,3.739 4.67,9.259 8,13 6.524,7.331 17.36,10.939 24,18 6.276,6.676 12.196,18.345 16,28 1.452,3.686 4.04,7.991 5,11 1.377,4.314 0.597,9.475 2,14 1.683,5.432 5.671,9.579 7,15 1.702,6.941 0.861,15.016 4,22 16.889,-2.471 34.401,-29.793 51,-31 6.062,-0.439 16.133,1.581 16,11 4.368,-0.701 5.632,1.701 10,1 2.909,3.424 3.184,9.482 8,11 0.132,2.465 0.15,4.818 -1,6 0.796,3.204 5.741,2.26 7,5 0.333,4.802 -2.765,8.573 2,10 0,1 0,2 0,3 -1.526,1.807 -3.604,3.063 -3,7 -8.954,16.039 -35.669,18.694 -50,28 -1.544,1.003 -6.276,2.273 -5,5 -6.909,2.632 -14.377,2.401 -20,2 -0.228,2.639 4.06,5.834 2,7 0.454,2.546 7.016,-1.016 5,4 3.116,-2.615 7.705,-0.301 9,2 3.529,-1.75 8.229,-0.787 12,0 -3.839,7.494 -15.656,7.011 -24,10 -2.398,10.626 2.51,11.601 6,18 -7.674,0.325 -7.332,8.668 -13,11 -4.895,-1.106 -5.93,-6.07 -10,-8 -6.003,0.284 -9.463,3.634 -15,2 -3.604,3.396 -7.598,6.402 -10,11 -4.268,-2.309 -6.146,-0.674 -9,3 -2.689,0.688 -1.934,-2.067 -3,-3 -3.09,1.109 -2.695,5.698 -7,3 -3.525,4.475 -6.806,9.195 -10,14 6.206,1.575 17.836,-2.693 17,8 -5.654,-0.433 -9.614,1.027 -19,1 0.239,1.428 1.646,1.688 2,3 -4.93,-0.263 -9.733,-0.4 -11,3 -8.268,-10.123 -35.948,-1.336 -48,1 -1,0 -2,0 -3,0 -1.111,-3.021 0.253,-1.993 -2,-3 -1.811,-0.809 -1.688,0.087 -4,0 -6.846,-0.258 -14.49,1.582 -20,-1 -7.438,-0.296 -17.407,3.127 -25,3 -2.578,-0.043 -7.8,0.144 -9,-3 -4.275,-1.343 -5.098,5.873 -7,1 -1.623,-3.605 1.221,-8.694 4,-10 5.656,-2.656 9.784,3.776 18,4 2.708,0.074 10.09,-1.37 13,-3 4.91,-2.75 12.329,-16.78 14,-25 3.846,-18.916 -5.048,-26.944 -14,-39 -5.62,-7.568 -11.828,-15.364 -16,-22 -6.843,-10.884 -13.779,-25.116 -20,-37 -2.061,-3.938 -5.443,-8.111 -7,-12 -9.296,-23.234 -9.805,-51.053 -7,-78 1.221,-11.719 4.413,-23.023 6,-34 0.945,-6.544 0.575,-14.135 3,-22 3.322,-10.776 10.104,-16.599 6,-27 -3.114,1.106 -3.574,0.645 -2,-2 -3.441,-12.954 -10.361,-21.384 -16,-31.000001 -3.928,-6.698 -6.271,-13.977 -12,-19 0.033,-4.367 -0.868,-7.798 -2,-11 -12.8,-13.288 -31.596002,-20.129 -48.000001,-30 -15.881,-9.556 -36.342998,-22.573997 -46.999998,-34.9999968 -0.333,0 -0.667,0 -1,0 0,-1.333 0,-2.667 0,-3.99999995 1.333,0 2.667,0 4,0 20.99,4.79099995 55.444997,14.58299975 76.999998,22.00000075 z M 225,392 c -0.253,3.586 3.003,3.664 3,7 -4.712,2.827 -10.926,-0.824 -15,-4 -1.979,13.688 -11.971,19.363 -12,35 4.664,0.349 5.813,-4.932 12,-6 2.297,-0.396 4.621,0.792 7,1 12.538,1.099 28.121,-2.203 40,-2 3.739,-7.261 11.253,-10.747 13,-20 -4.813,0.594 -1.594,-4.389 -2,-7 -7.73,2.504 -16.093,-1.441 -25,-2 -4.207,-0.264 -8.496,1.81 -13,1 -3.076,-0.553 -4.341,-4.315 -8,-3 z"
     fill="param(fill) #000"
     fill-opacity="param(fill-opacity)"
     stroke="param(outline) #FFF"
     stroke-opacity="param(outline-opacity)"
     stroke-width="param(outline-width) 0"
     id="path15"
     inkscape:connector-curvature="0" /></svg>