<?xml version="1.0" encoding="UTF-8" standalone="no"?>
<!-- Created with Inkscape (http://www.inkscape.org/) -->

<svg
   xmlns:dc="http://purl.org/dc/elements/1.1/"
   xmlns:cc="http://creativecommons.org/ns#"
   xmlns:rdf="http://www.w3.org/1999/02/22-rdf-syntax-ns#"
   xmlns:svg="http://www.w3.org/2000/svg"
   xmlns="http://www.w3.org/2000/svg"
   xmlns:sodipodi="http://sodipodi.sourceforge.net/DTD/sodipodi-0.dtd"
   xmlns:inkscape="http://www.inkscape.org/namespaces/inkscape"
   version="1.1"
   width="430"
   height="430"
   viewBox="0 0 430 430"
   id="Capa_2"
   xml:space="preserve"
   inkscape:version="0.91 r13725"
   sodipodi:docname="birds_goose.svg"><metadata
     id="metadata7"><rdf:RDF><cc:Work
         rdf:about=""><dc:format>image/svg+xml</dc:format><dc:type
           rdf:resource="http://purl.org/dc/dcmitype/StillImage" /><dc:title></dc:title></cc:Work></rdf:RDF></metadata><sodipodi:namedview
     pagecolor="#ffffff"
     bordercolor="#666666"
     borderopacity="1"
     objecttolerance="10"
     gridtolerance="10"
     guidetolerance="10"
     inkscape:pageopacity="0"
     inkscape:pageshadow="2"
     inkscape:window-width="659"
     inkscape:window-height="480"
     id="namedview5"
     showgrid="false"
     fit-margin-top="0"
     fit-margin-left="0"
     fit-margin-right="0"
     fit-margin-bottom="0"
     inkscape:zoom="0.46825397"
     inkscape:cx="201.9701"
     inkscape:cy="205.54102"
     inkscape:window-x="0"
     inkscape:window-y="0"
     inkscape:window-maximized="0"
     inkscape:current-layer="Capa_2" /><defs
     id="defs7" /><path
     d="m 53.195251,5.8234859 c -7.342,6.4240001 -13.102,12.1960001 -21.876,16.3840001 -2.603,1.242 -25.9800005,14.232 -22.9990004,15.351 9.2380004,3.464 20.0320004,0.258 29.3750004,2.516 4.445,1.074 9.615,4.432 14.055,5.992 3.836,1.348 9.208,3.796 12.279,6.526 4.853,4.313 1.667,24.406 1.667,31.329 0,5.331 -3.041,11.76 -3.875,17.184004 -1.01,6.567 -2.476,13.06 -3.546,19.626 -3.327,20.42 -10.01,41.366 -9.48,62.21 0.29,11.396 0.485,22.739 1.417,34.098 1.107,13.505 0.118,26.628 6.982,38.757 12.176,21.516 29.144,37.362 50.320999,49.979 10.787,6.426 24.069,12.181 36.457,14.017 8.241,1.222 19.254,-0.43 26.568,3.374 6.877,3.576 9.657,8.034 9.657,15.072 0,11.854 2.237,22.954 0.25,34.679 -1,5.899 -2.062,11.952 -3.578,17.742 -2.032,7.76 -5.944,8.633 -12.742,11.05 -6.07,2.159 -13.307,4.798 -19.68,5.364 -4.637,0.412 -7.886,0.855 -12.594,1.844 -3.519,0.738 -6.572,0.906 -10.156,0.906 0.211,5.992 8.401,4.325 12.483,5.75 -2.545,1.075 -5.238,1.397 -5.733,4.5 6.01,0 12.974,0.585 16.75,6.25 4.004,6.006 13.167,2.873 19.241,1.407 3.558,-0.858 7.495,-3.127 10.759,-4.907 3.581,-1.953 6.733,-2.743 10.5,-4.25 2.136,-0.854 4.807,-2.779 6.898,-3.944 5.109,-2.847 1.284,-6.705 2.435,-11.306 1.295,-5.18 0.449,-10.312 1.25,-16.25 0.664,-4.922 1.877,-11.266 1.877,-16.227 0,-4.157 4.214,-9.209 4.943,-13.979 0.458,-2.999 0.89,-6.003 1.307,-9.008 0.435,-3.128 -1.1,-5.748 -1.236,-8.884 -0.307,-7.067 0.236,-6.718 6.862,-6.303 5.829,0.364 11.656,0.621 17.498,0.225 10.78,-0.73 25.099,-3.106 34.666,-8.574 23.021,-13.155 48.367,-21.708 75.156,-22.261 3.152,-0.065 6.45,-0.47 9.594,-0.239 4.025,0.296 7.756,2.36 11.944,4.259 4.38,1.985 9.44,4.146 14.139,1.64 3.869,-2.063 8.698,1.573 11.834,1.703 3.515,0.146 -1.605,-9.646 -1.648,-9.907 -0.386,-2.315 -7.071,-4.07 -9.36,-5.024 -5.88,-2.45 -11.483,-4.82 -16.908,-8.17 10.27,-4.324 22.254,-1.312 32.5,1.25 3.912,0.978 30.944,4.672 30.944,5.694 0,-4.259 4.555,-3.569 -1.954,-6.481 -3.572,-1.599 -5.773,-4.629 -9.259,-6.25 -3.332,-1.55 -14.585,-7.384 -17.704,-5.657 2.593,-7.897 24.325,3.649 17.723,-9.556 -3.506,-7.011 -15.681,-12.787 -22.25,-16.5 -6.487,-3.667 -13.418,-4.695 -20,-7.758 -6.087,-2.832 -13.877,-3.584 -19.25,-7.492 -3.139,-2.283 -5.411,-3.891 -7.723,-7.074 -0.69,-0.952 -5.43,-5.038 -5.406,-5.879 -0.048,1.737 19.424,5.77 22.212,5.032 8.921,-2.362 -11.154,-9.007 -14.251,-10.277 -12.619,-5.174 -26.267,-6.749 -39.379,-10.77 -11.543,-3.54 -23.229,-8.513 -35.26,-9.888 -11.93,-1.363 -21.514,-6.737 -32.57,-11.769 -4.355,-1.982 -9.724,-2.125 -14.436,-2.125 -6.12,0 -11.328,-4.965 -17.488,-6.131 -14.425,-2.73 -28.033,-4.922 -42.755,-5.19 -8.131,-0.148 -19.109,-1.26 -26.413,2.509 -7.753,4.001 -17.939,0.59 -20.75,-7.844 -3.698,-11.093 -2.031,-23.825 -2.031,-35.292 0,-13.841 1.25,-27.394 1.25,-41.251004 0,-13.29 -1.397,-26.69 -2.205,-39.952 -0.71,-11.669 -5.146,-26.105 -12.470999,-35.376 -11.801,-14.9330001 -29.394,-14.8920001 -44.827,-6.4740001 z"
     id="path3"
     fill="param(fill) #000"
     fill-opacity="param(fill-opacity)"
     stroke="param(outline) #FFF"
     stroke-opacity="param(outline-opacity)"
     stroke-width="param(outline-width) 0"
     inkscape:connector-curvature="0" /></svg>