<?xml version="1.0" encoding="UTF-8" standalone="no"?>
<!-- Created with Inkscape (http://www.inkscape.org/) -->

<svg
   xmlns:dc="http://purl.org/dc/elements/1.1/"
   xmlns:cc="http://creativecommons.org/ns#"
   xmlns:rdf="http://www.w3.org/1999/02/22-rdf-syntax-ns#"
   xmlns:svg="http://www.w3.org/2000/svg"
   xmlns="http://www.w3.org/2000/svg"
   xmlns:sodipodi="http://sodipodi.sourceforge.net/DTD/sodipodi-0.dtd"
   xmlns:inkscape="http://www.inkscape.org/namespaces/inkscape"
   version="1.2"
   width="1020"
   height="1020"
   viewBox="0 0 1020 1020"
   id="Layer_1"
   xml:space="preserve"
   style="overflow:inherit"
   inkscape:version="0.91 r13725"
   sodipodi:docname="birds_grouse.svg"><metadata
     id="metadata7"><rdf:RDF><cc:Work
         rdf:about=""><dc:format>image/svg+xml</dc:format><dc:type
           rdf:resource="http://purl.org/dc/dcmitype/StillImage" /><dc:title></dc:title></cc:Work></rdf:RDF></metadata><sodipodi:namedview
     pagecolor="#ffffff"
     bordercolor="#666666"
     borderopacity="1"
     objecttolerance="10"
     gridtolerance="10"
     guidetolerance="10"
     inkscape:pageopacity="0"
     inkscape:pageshadow="2"
     inkscape:window-width="659"
     inkscape:window-height="480"
     id="namedview5"
     showgrid="false"
     inkscape:zoom="0.28382066"
     inkscape:cx="507.7905"
     inkscape:cy="415.75549"
     inkscape:window-x="0"
     inkscape:window-y="0"
     inkscape:window-maximized="0"
     inkscape:current-layer="Layer_1" /><defs
     id="defs7" /><path
     d="m 1017.7906,881.75559 c -2.649,9.405 -11.399,14.574 -18.00002,20 -4.729,3.887 -4.962,3.98 -10,5.99999 -2.68,1.074 -2.71,3.605 -4,4 -2.915,0.892 -6.979,0.102 -10,1 -3.133,0.932 -5.888,3.468 -8,4 -5.911,1.49 -21.246,2.248 -28,3 -7.743,0.861 -15.788,4.833 -20,5 -5.554,0.221 -12.513,-4.656 -14,1 -0.667,0 -1.333,0 -2,0 -6.312,-2.5 -18.028,-4.005 -27,-3 -38.754,-9.616 -65.353,-39.95399 -92,-64.99999 1.255,-3.137 -3.003,-1 0,-6 -36.849,-21.527 -58.257,-67.045 -93,-94 -7.647,2.029 -7.663,-2.062 -15,-3 -0.956,-1.862 2.995,-3.342 0,-4 -13.692,7.662 -27.343,-10.373 -41,-9 2.448,-0.111 0.212,-3.306 -1,-3 -3.766,2.322 -14.6,-4.371 -24,-2 -1.907,-1.426 -4.343,-2.324 -7,-3 -9.466,2.901 -20.593,1.158 -28,7 -3.573,-0.094 -3.607,-3.726 -7,-4 -0.095,1.571 0.134,3.467 -2,3 -6.488,0.686 -20.437,2.36 -33,3 -1.688,2.511 -2.886,5.508 -3,7 -1.001,-1.332 -1.648,-3.018 -3,-4 -3.075,1.258 -5.87,2.797 -9,4 2.276,1.55 1.888,2.083 1,5 2.48,-0.147 4.853,-0.187 5,2 -2.867,0.729 -5.577,0.826 -8,2 -1.321,5.747 -1.149,11.332 1,16 -2.925,0.83 -3.245,-5.961 -5,-3 1.265,5.736 2.311,11.689 5,16 -1.581,3.414 -5.389,6.517 -8,6 -0.877,3.21 2.593,2.073 3,4 -6.688,0.604 2.095,5.141 -4,7 1.1,3.567 4.254,5.079 5,9 -1.78,0.553 -4.153,0.514 -5,2 4.285,5.295 -1.879,9.492 -3,15 3.105,6.464 14.133,13.745 9,22 -8.559,-0.793 -12.183,-9.309 -20,-3 -3.659,-5.666 -16.547,-4.875 -21,-1 -1.535,-2.132 -4.443,-2.891 -7,-4 1.521,5.748 -13.592,-0.056 -16,-3 -6.251,3.455 -22.883,-2.391 -29,-2 3.18,3.696 0.282,6.316 2,11 3.501,9.548 16.819,18.025 10,25 -7.576,-4.377 -18.412,-3.831 -26,-9 -4.861,8.03 -17.968,3.686 -27,3 -3.292,0.375 -2.017,5.316 -6,5 -2.323,-0.677 -2.677,-3.323 -5,-4 -9.512,5.588 -20.179,2.001 -27,7 -3.815,0.148 -4.815,-2.518 -8,-3 0.055,1.278 1.282,1.385 1,3 -12.196,-4.299 -21.942,3.879 -34,-1 -10.738,8.059 -27.384,-3.446 -37,10 -9.881,-13.014 12.01,-22.357 17,-27 17.823,-0.51 33.71,-2.957 47,-8 -15.554,0.6 -30.04,-3.088 -43,-2 -11.41,-4.604 -19.696,-8.753 -33,-5 -3.929,-9.038 5.12,-16.699 11,-19 18.781,-7.348 53.452,11.3 73,7 -7.234,-7.188 -21.508,-7.726 -29,-12 -0.745,-3.078 2.745,-1.922 2,-5 24.73,-11.229 38.708,14.961 60,10 7.246,-23.42 18.775,-42.558 26,-66 -2.04,-5.96 -0.751,-15.249 -6,-18 -8.197,1.78 -15.898,-1.782 -20,-7 -1.889,0.111 -0.693,3.306 -3,3 -2.007,-2.66 -6.336,-2.997 -8,-6 -14.039,-0.018 -23.946,-9.31 -34,-10 -1.275,-2.503 0.509,-3.131 -1,-4 -14.279,-5.551 -28.216,-14.323 -44,-21 -6.98,-12.066 -21.564,-13.806 -32,-21 -10.399,-7.17 -19.867,-19.017 -30,-28 -10.576,-9.376 -22.043,-17.971 -31,-27 -15.96,-16.088 -26.776,-36.064 -40,-55 0,-1.667 0,-3.333 0,-5 -18.693,-29.572 -26.668,-59.945 -35,-96 -1.445,-6.253 -4.105,-13.732 -5,-21 -7.970996,-64.737 15.662,-130.064 7,-194 -1.146,-8.456 -6.365,-20.395 -11,-21 0.507,6.173 -3.472996,7.861 -3.999996,13 -6.294,-1.706 -4.606,-11.394 -13,-11 -1.481,-7.186 -3.126,-14.208 -5,-21 -1.768,-1.877 -2.92,1.19 -5,-1 -6.015,-6.963 -3.422,-22.328 -13,-26 -2.788,-1.069 -1.962,1.823 -4,0 -3.538,-3.165 -4.406,-9.229 -9,-12 -5.949,-3.59 -20.169,-1.622 -31,-3 -6.53,-0.831 -9.4530003,-1.013 -15.0000003,2 -4.887,-10.438 2.725,-20.628 7.0000003,-28 27.48,-11.438 48.002,-25.699 70,-41 23.445996,-7.089003 49.534996,-10.141003 75.999996,0 42.986,18.549 63.194,56.3 72,106 1.051,5.931 1.233,9.344 2,14 7.475,45.392 25.494,85.617 59,103 6.719,1.948 12.33,5.003 17,9 120.747,33.706 223.298,79.424 296,161 3.341,0.659 4.891,3.109 8,4 24.472,26.861 49.066,53.6 73,81 19.484,29.848 43.847,60.973 79,74 4.991,1.85 12.623,4.158 17,2 2.925,5.408 9.843,6.824 13,12 -0.167,2.833 -1.833,4.167 -2,7 -8.284,3.604 -14.673,3.082 -20,9 31.512,25.155 58.183,55.15 95,75 -0.474,3.141 1.247,4.086 3,5 2.487,0.109 3.096,1.874 5,0 1.09,10.003 11.435,9.736 18,14 4.366,2.836 7.798,8.181 12,11 8.243,5.53 15.272,9.217 22,15 4.839,-0.172 7.226,2.107 9,5 31.661,20.338 70.00102,33.999 83.00002,73 0,0.333 0,0.667 0,1 z m -551.00002,-131 c -0.851,-0.184 -0.943,0.39 -1,1 -5.121,3.518 -8.933,13.398 -17,8 1.267,3.98 3.222,8.68 -1,11 -3.29,-3.239 1.293,-8.451 -5,-9 -0.915,3.085 -1.893,6.107 -4,8 1.089,6.911 10.058,5.942 12,12 -4.369,1.616 -6.889,-3.572 -13,-5 -0.792,3.459 1.111,4.222 2,6 -12.701,3.896 -9.121,13.264 -5,24 10.971,2.199 15.422,7.252 26,4 6.542,-17.455 8.32,-34.344 13,-56 -1.288,-2.379 -6.494,-0.84 -7,-4 z"
     id="path3"
     fill="param(fill) #000"
     fill-opacity="param(fill-opacity)"
     stroke="param(outline) #FFF"
     stroke-opacity="param(outline-opacity)"
     stroke-width="param(outline-width) 0"
     inkscape:connector-curvature="0" /></svg>