<?xml version="1.0" encoding="UTF-8" standalone="no"?>
<!-- Created with Inkscape (http://www.inkscape.org/) -->

<svg
   xmlns:dc="http://purl.org/dc/elements/1.1/"
   xmlns:cc="http://creativecommons.org/ns#"
   xmlns:rdf="http://www.w3.org/1999/02/22-rdf-syntax-ns#"
   xmlns:svg="http://www.w3.org/2000/svg"
   xmlns="http://www.w3.org/2000/svg"
   xmlns:sodipodi="http://sodipodi.sourceforge.net/DTD/sodipodi-0.dtd"
   xmlns:inkscape="http://www.inkscape.org/namespaces/inkscape"
   version="1.2"
   width="175"
   height="175"
   viewBox="24.587 24.334 175 175"
   id="Layer_1"
   xml:space="preserve"
   style="overflow:inherit"
   inkscape:version="0.91 r13725"
   sodipodi:docname="birds_hawk.svg"><metadata
     id="metadata10"><rdf:RDF><cc:Work
         rdf:about=""><dc:format>image/svg+xml</dc:format><dc:type
           rdf:resource="http://purl.org/dc/dcmitype/StillImage" /><dc:title></dc:title></cc:Work></rdf:RDF></metadata><sodipodi:namedview
     pagecolor="#ffffff"
     bordercolor="#666666"
     borderopacity="1"
     objecttolerance="10"
     gridtolerance="10"
     guidetolerance="10"
     inkscape:pageopacity="0"
     inkscape:pageshadow="2"
     inkscape:window-width="1366"
     inkscape:window-height="705"
     id="namedview8"
     showgrid="false"
     inkscape:zoom="1.3562828"
     inkscape:cx="-151.2289"
     inkscape:cy="87.0025"
     inkscape:window-x="-8"
     inkscape:window-y="-8"
     inkscape:window-maximized="1"
     inkscape:current-layer="Layer_1" /><defs
     id="defs13" /><g
     id="g5"
     transform="matrix(0.5064967,-1.087508,1.087508,0.5064967,-50.162638,145.15446)"><path
       inkscape:connector-curvature="0"
       id="path7"
       d="m 49,133.134 c -5.306,-0.213 -7.736,5.846 -13.601,6.4 -2.175,-0.895 -4.9,-3.533 -4.65,-4.533 -1.333,-0.25 -4.917,-6.584 -3.75,-8.334 -1.667,-1.666 -1.95,-3.516 -1.25,-6.582 -0.616,-0.268 -0.748,-1.354 -1.15,-2.151 -0.003,-3.324 -0.32,-6.862 2.317,-8.849 0,-1.199 1,-5.75 2.333,-6 0.5,-2.416 1.167,-4.916 4.15,-6.75 1.14,-3.795 2.984,-4.914 5.517,-6.666 0.884,-1.164 4.023,-3.395 6.083,-3.734 4,5.199 8.721,9.68 12.4,15.199 1.229,0.105 1.8,0.869 2.8,1.201 -0.824,-3.168 -0.949,-4.625 -0.115,-7.168 0.125,-2.082 0.125,-6.584 1.715,-7.633 -0.92,-2.487 0.613,-4.363 2.014,-7.638 0.538,-2.537 1.352,-4.331 2.787,-5.963 0,-1.333 1.529,-4.158 2.566,-5.183 0.5,-2.583 1.834,-5.417 4.418,-6.417 -0.084,-2.083 3.691,-6.29 4.916,-6 1.584,-4.65 3.472,-8.071 6.898,-10 0.712,-2.488 3.02,-6.333 4.398,-5.2 -0.256,-3.244 2.951,-5.966 3.951,-4.966 0.467,-1.05 2.166,-7.333 3.648,-4.634 0.033,-3.034 0.941,-5.192 2.801,-6.4 1.045,0.956 1.352,2.648 1.6,4.4 1.971,-1.098 1.096,-5.04 4,-5.2 1.254,0.214 1.441,1.492 1.602,2.8 0.811,-1.008 1.874,-1.809 2.398,-0.8 1.104,1.116 0.812,3.555 0.802,5.2 1.815,-0.866 2.481,-0.408 3.603,1.6 0.686,3.328 1.008,7.762 1.197,10.8 0.266,1.198 0.854,-0.383 1.602,0 0.908,4.43 -0.188,10.56 -2,15.6 -0.529,1.474 -3.492,8.042 -4.332,9.634 -1.375,4.417 -3.526,8.059 -5.668,13.167 -0.416,0.917 -10.037,19.43 -12.399,29.6 1.051,1.596 0.597,3.191 1.2,4.8 0.703,1.874 3.189,3.519 5.074,5.728 2.084,2.438 3.539,5.416 3.375,6.812 1,1.688 1.252,1.914 1.334,3.354 0.031,0.562 0.197,2.363 -1.428,3.146 -0.484,0.135 0.03,-0.059 -0.062,-0.312 0,-0.719 -0.945,-1.285 -1.346,-1.469 -0.674,-0.05 -1.432,-0.818 -2.25,-0.906 -3.062,0.188 -6.688,-0.213 -9.101,-1.149 -1.19,0.144 -1.731,0.899 -2.8,1.198 -0.98,7.328 -2.323,15.297 -1.6,22.4 0.188,1.854 0.533,4.316 0.5,5.467 -0.604,2.768 -1.154,6.246 -1.301,10.533 0.29,1.092 -0.796,0.805 -0.802,1.6 0.382,3.979 -0.308,8.928 -2.397,11.602 -1.334,0.77 -1.938,0.902 -2.802,0 -1.467,2.477 -6.45,8.936 -8,6 -1.897,1.303 -3.019,4.235 -4.784,5.186 -0.816,0.802 -2.082,1.25 -2.468,-0.26 -1.334,0.606 -1.774,2.106 -3.147,2.676 -1.319,-0.014 -1.529,-1.137 -1.6,-2.399 -1.648,0.086 -1.8,1.667 -3.601,1.601 -1.108,-1.469 -1.317,-4.637 -0.399,-6 -0.668,-2.252 -1.236,-2.385 -0.801,-5.199 -0.587,-1.945 -2.096,-2.973 -1.6,-6 -0.428,-0.373 -1.619,-3.221 -0.801,-4 -0.492,-0.842 -1.106,-1.561 -1.6,-2.399 0.061,-0.911 0.1,-1.685 0.393,-2.394 -0.543,-0.625 -0.775,-1.518 -1.192,-2.008 0.233,-1.856 -0.548,-2.414 0,-3.601 -1.513,-1.829 -0.935,-4.976 -0.685,-6.226 -1.917,-3 -1.521,-6.609 -0.916,-10.625 -0.5,-2.416 -0.33,-5.398 -0.4,-5.949 -0.374,-2.942 1.871,-7.136 2.406,-10.007 z"
       fill="param(fill) #000"
       fill-opacity="param(fill-opacity)"
       stroke="param(outline) #FFF"
       stroke-opacity="param(outline-opacity)"
       stroke-width="param(outline-width) 0" /></g></svg>