<?xml version="1.0" encoding="UTF-8" standalone="no"?>
<!-- Created with Inkscape (http://www.inkscape.org/) -->

<svg
   xmlns:dc="http://purl.org/dc/elements/1.1/"
   xmlns:cc="http://creativecommons.org/ns#"
   xmlns:rdf="http://www.w3.org/1999/02/22-rdf-syntax-ns#"
   xmlns:svg="http://www.w3.org/2000/svg"
   xmlns="http://www.w3.org/2000/svg"
   xmlns:sodipodi="http://sodipodi.sourceforge.net/DTD/sodipodi-0.dtd"
   xmlns:inkscape="http://www.inkscape.org/namespaces/inkscape"
   version="1.1"
   width="90"
   height="90"
   viewBox="0 0 90 90"
   id="Capa_2"
   xml:space="preserve"
   inkscape:version="0.91 r13725"
   sodipodi:docname="birds_tit.svg"><metadata
     id="metadata12"><rdf:RDF><cc:Work
         rdf:about=""><dc:format>image/svg+xml</dc:format><dc:type
           rdf:resource="http://purl.org/dc/dcmitype/StillImage" /><dc:title></dc:title></cc:Work></rdf:RDF></metadata><sodipodi:namedview
     pagecolor="#ffffff"
     bordercolor="#666666"
     borderopacity="1"
     objecttolerance="10"
     gridtolerance="10"
     guidetolerance="10"
     inkscape:pageopacity="0"
     inkscape:pageshadow="2"
     inkscape:window-width="659"
     inkscape:window-height="480"
     id="namedview10"
     showgrid="false"
     fit-margin-top="0"
     fit-margin-left="0"
     fit-margin-right="0"
     fit-margin-bottom="0"
     inkscape:zoom="2.3308642"
     inkscape:cx="-50.955425"
     inkscape:cy="31.179227"
     inkscape:window-x="0"
     inkscape:window-y="0"
     inkscape:window-maximized="0"
     inkscape:current-layer="Capa_2" /><defs
     id="defs17" /><path
     inkscape:connector-curvature="0"
     style="stroke:#000000;stroke-width:0.25;stroke-miterlimit:10"
     id="path11"
     d="m 86.33189,22.735972 c -1.015,-0.237 -2.059,-0.346 -3.054,-0.666 -0.523,-0.169 -0.438,-1.094 -0.484,-1.508 -0.181,-1.654 -2.096,-3.288 -3.328,-4.23 -3.011,-2.307 -6.843,-2.835 -10.495,-2.047 -3.125,0.675 -6.462,2.197 -8.779,4.436 -1.124,1.086 -1.673,2.56 -2.757,3.682 -1.24,1.283 -2.812,2.164 -4.378,2.984 -3.516,1.84 -6.542,3.982 -9.468,6.67 -3.087,2.838 -6.141,5.641 -9.48699,8.18 -1.705,1.294 -3.441002,2.547 -5.187002,3.786 -1.655,1.174 -3.209,2.044 -5.032,2.904 -0.772,0.364 -3.376,2.42 -1.257,2.847 1.538,0.311 3.004,-1.366 4.405,0.005 0.102,0.116 0.204,0.231 0.306,0.348 -2.718,1.682 -5.238,3.287 -7.729,5.308 -3.156,2.559 -6.4,4.967 -9.6619998,7.388 -1.575,1.168 -3.129,2.367 -4.603,3.662 -0.842,0.739 -3.32,2.308 -2.639,3.605 0.732,1.394 3.671,-0.949 4.341,-1.436 5.2909998,-3.845 10.2889998,-8.049 15.5289998,-11.967 1.7,-1.271 3.417,-2.523 5.193,-3.687 0.848,-0.555 2.014,-1.573 3.097,-1.473 0.577,0.053 0.828002,0.872 1.117002,1.279 0.407,0.57 0.895,1.098 1.527,1.419 1.557,0.792 3.82399,0.386 5.50999,0.374 1.505,-0.011 3.034,-0.004 4.518,0.282 1.487,0.287 2.605,1.223 3.646,2.273 2.523,2.548 5.208,4.883 7.903,7.252 1.76,1.547 5.958,4.251 5.238,7.08 -0.278,1.091 -1.053,2.114 -0.853,3.291 0.217,1.273 1.622,1.814005 2.375,0.607 -1.554,0.388 -1.21,-0.855 -0.608,-1.749 0.716,-1.063 2.007,-2.74 3.381,-2.596 -0.827,-0.288 0.201,-0.081 0.412,0.018 0.347,0.163 0.676,0.375 1.004,0.572 0.286,0.172 1.787,0.845 1.833,1.204 0.053,0.417 -0.398,1.037 -0.677,1.291 -0.955,0.87 -2.211,-0.068 -2.933,-0.775 0.068,2.494 3.855,2.494 5.002,0.876 1.852,-2.61 -1.278,-4.443 -3.545,-4.486 -1.115,-0.021 -2.422,-0.528 -3.486,-0.441 -1.064,0.086 -2.791,-2.534 -3.492,-3.323 -2.653,-2.987 -5.62,-5.73 -8.438,-8.561 2.591,1.903 5.576,3.046 8.592,4.085 1.586,0.546 3.171,1.099 4.754,1.654 0.838,0.294 1.677,0.589 2.514,0.886 0.387,0.137 1.872,0.936 2.234,0.766 0.038,-0.018 -0.605,-0.665 -0.655,-0.74 -0.186,-0.278 0.664,0.19 0.659,0.548 -0.06,-0.07 -0.129,-0.097 -0.208,-0.08 -0.034,0.081 0.438,0.699 0.106,0.526 0.661,0.442 1.34,0.876 2.057,1.223 0.48,0.232 0.618,0.097 0.759,0.63 0.152,0.572 0.492,1.159 1.063,1.396 -0.14,0.183 -0.273,0.371 -0.41,0.556 0.074,-0.688 -0.074,-0.117 -0.506,0.042 -0.709,0.26 -0.921,-0.252 -1.339,-0.739 -0.144,3.699 5.398,0.347 5.368,-2.008 -0.012,-0.943 -1.208,-1.482 -1.956,-1.743 -0.415,-0.145 -0.884,-0.218 -1.309,-0.069 -0.646,0.227 -1.786,-0.098 -2.442,-0.293 -1.886,-0.56 -3.723,-1.499 -5.542,-2.245 -2.043,-0.837 -4.087,-1.674 -6.13,-2.511 2.406,-0.074 4.751,-1.195 6.875,-2.229 2.155,-1.05 4.422,-2.05 6.405,-3.405 4.157,-2.84 7.059,-7.242 8.658,-11.967 0.886,-2.619 1.349,-5.362 1.477,-8.12 0.062,-1.318 0.049,-2.639 -0.019,-3.957 -0.049,-0.95 -0.155,-2.038 0.549,-2.794 0.889,-0.955 2.63,-1.69 3.823,-2.208 1.138,-0.492 2.838,-1.374 0.657,-1.882 -1.023,-0.238 3.096,0.722 0,0 z m -25.942,46.382 c -0.514,-0.421 -1.015,-0.85 -1.473,-1.332 0.488,0.447 0.971,0.901 1.473,1.332 -0.006,-0.004 -0.465,-0.399 0,0 z m 11.374,-0.247 c 0.092,0.01 0.185,0.021 0.277,0.031 -0.225,0.217 -0.318,0.207 -0.277,-0.031 z m 1.963,-0.779 c -0.197,0.177 -0.402,0.345 -0.615,0.502 -0.042,-0.072 -0.088,-0.143 -0.136,-0.211 0.268,-0.051 0.518,-0.149 0.751,-0.291 -0.122,0.113 -0.268,0.16 0,0 z m -1.074,0.318 c -0.038,0.021 -0.126,-0.003 0,0 0,0 -0.025,-10e-4 0,0 z m -0.286,0.528 c 0.229,-0.138 0.485,-0.267 0.745,-0.343 -0.167,0.124 -1.071,0.868 -1.312,0.517 0.176,-0.102 0.376,-0.156 0.567,-0.174 z"
     fill="param(fill) #000"
     fill-opacity="param(fill-opacity)"
     stroke="param(outline) #FFF"
     stroke-opacity="param(outline-opacity)"
     stroke-width="param(outline-width) 0" /></svg>