<?xml version="1.0" encoding="UTF-8" standalone="no"?>
<!-- Created with Inkscape (http://www.inkscape.org/) -->

<svg
   xmlns:dc="http://purl.org/dc/elements/1.1/"
   xmlns:cc="http://creativecommons.org/ns#"
   xmlns:rdf="http://www.w3.org/1999/02/22-rdf-syntax-ns#"
   xmlns:svg="http://www.w3.org/2000/svg"
   xmlns="http://www.w3.org/2000/svg"
   xmlns:sodipodi="http://sodipodi.sourceforge.net/DTD/sodipodi-0.dtd"
   xmlns:inkscape="http://www.inkscape.org/namespaces/inkscape"
   version="1.2"
   width="240"
   height="240"
   viewBox="0 0 240 240.00001"
   id="Capa_1"
   xml:space="preserve"
   style="overflow:inherit"
   inkscape:version="0.91 r13725"
   sodipodi:docname="birds_flamingo.svg"><metadata
     id="metadata7"><rdf:RDF><cc:Work
         rdf:about=""><dc:format>image/svg+xml</dc:format><dc:type
           rdf:resource="http://purl.org/dc/dcmitype/StillImage" /><dc:title></dc:title></cc:Work></rdf:RDF></metadata><sodipodi:namedview
     pagecolor="#ffffff"
     bordercolor="#666666"
     borderopacity="1"
     objecttolerance="10"
     gridtolerance="10"
     guidetolerance="10"
     inkscape:pageopacity="0"
     inkscape:pageshadow="2"
     inkscape:window-width="659"
     inkscape:window-height="480"
     id="namedview5"
     showgrid="false"
     inkscape:zoom="0.98919019"
     inkscape:cx="86.6045"
     inkscape:cy="119.2895"
     inkscape:window-x="0"
     inkscape:window-y="0"
     inkscape:window-maximized="0"
     inkscape:current-layer="Capa_1" /><defs
     id="defs7" /><path
     d="m 203.57857,108.03829 c -1.2,-0.664 -1.463,-1.331 -1.463,-1.331 l 0.263,-0.533 0.799,-0.397 c 0,0 0.401,-0.798 0,-1.196 -0.397,-0.402 -1.062,-0.268 -1.329,-0.665 -0.265,-0.399 -1.196,-1.063 -1.196,-1.063 0,0 0.799,-0.27 1.329,-0.666 0.535,-0.4 0.535,-0.4 0.535,-0.4 l 0.794,-1.196 c 0,0 0.136,-0.399 -0.53,-1.065002 -0.664,-0.663005 -0.53,-1.595005 -0.932,-1.729005 -0.397,-0.131 -0.134,0.134 -1.196,-0.131 -1.064,-0.27 -2.261,-0.668 -2.261,-0.668 0,0 -1.598,0.668 -2.26,0.134 -0.667,-0.53 0,0.134 -1.33,-0.929 -1.332,-1.066 -1.2,-1.596 -1.733,-1.994 -0.529,-0.402 -7.312,-8.65 -16.225,-14.236 0,-0.398 0.128,-1.598 0.128,-1.598 0,0 0.671,0.533 0.932,1.067 0.401,0.265 0.141,-1.067 -0.932,-2.929 0,0 0,-1.595 -0.262,-3.191 -0.264,-1.597 -0.935,-2.926 -1.196,-3.855 -0.268,-0.934 -0.669,-2.263 -0.669,-3.193 0,-0.933 -1.33,-3.193 -1.592,-3.725 -0.269,-0.532 -1.469,-1.996 -1.469,-1.996 0,0 2.663,1.597 3.199,3.459 0.792,0.93 0.53,1.329 0.792,0.93 0.27,-0.398 0.27,0 0.27,-0.398 0,-0.398 -1.33,-3.323 -1.731,-3.725 -0.397,-0.398 -1.195,-2.395 -1.593,-3.059 -0.401,-0.666 -1.731,-1.861 -1.731,-1.861 0,0 -0.931,-2.395 -0.931,-2.794 0,-0.399 -3.324,-5.055 -3.725,-5.454 -0.396,-0.398 -2.528,-2.262 -3.189,-2.66 -0.668,-0.399 -2.797,-1.33 -4.389,-1.728 -1.598,-0.4 -4.791,-1.198 -5.986,-1.331 -1.334,-0.399 -3.73,-2.66 -6.521,-2.794 -0.661,-0.398 5.589,0.8 5.589,0.8 0,0 1.196,0.397 1.593,0.397 0.4,0 0.933,-0.266 0.933,-0.266 0,0 2.796,1.198 3.193,1.464 0.401,0.266 1.464,-0.266 2.657,1.064 1.2,1.33 -1.329,-1.729 -3.857,-3.193 0.519,-0.147 1.04,-0.485 1.648,-0.45 -2.775,-1.48 -8.221,-3.479 -12.417,-3.273 -1.864,0.265 -2.662,-1.064 -3.728,-0.932 -0.799,-1.063 -8.645,-4.789 -13.57,0.532 -1.329,0.266 -4.518,-1.064 -13.166,7.45 -6.25,4.124 -11.972,6.651 -13.302,7.581 -1.329,0.93 -11.570997,9.312 -14.361997,21.549 -1.067,14.232 -15.831,25.672 -19.689,7.316 -0.666,-13.434 2.813,-18 4.786,-23.677 1.065,-3.06 14.233,-29.529 -8.511,-51.0789999 -0.664,-1.064 -1.596,-0.929 -2.39,-1.196 -0.799,-0.268 -1.999,-1.996 -3.461,-2.128 -1.464,-0.13300003 -4.792,-0.79900003 -6.255,0 -1.457,0.797 -5.981,3.724 -8.777,8.9109999 -3.06,6.12 -14.498,7.583 -7.58,25.273 6.383,21.415 2.793,5.188 3.858,5.188 1.095,0 0.397,-1.464 0.799,-2.26 0.397,-0.8 1.458,-9.312 1.859,-10.775 0.799,-0.665 4.786,-2.127 5.188,-4.921 0.397,-1.064 4.256,0.133 10.639,-4.523 2.132,-1.462 5.986,-2.394 7.985,1.729 11.171,22.613 -6.255,31.66 -9.314,55.734 2.261,20.352 0.798,17.027 9.978,23.012 4.524,2.260007 13.965,4.521007 21.014,2.793007 0.932,0.531 7.85,5.721 27.138997,1.729 6.918,0.398 8.493,2.131 10.374,3.857 1.598,1.464 0.794,4.122 1.598,6.783 0,1.465 -0.135,9.444 -0.135,9.444 0,0 -2.262,33.255 -3.724,37.245 -1.465,3.991 -2.396,5.455 -3.061,6.121 -0.664,0.661 -1.195,5.053 -0.934,9.177 -1.121,3.125 -12.347,45.233 -14.25,51.408 -0.116,-0.023 -0.24,-0.048 -0.389,-0.079 -1.82,-0.517 -4.676997,2.34 -4.676997,2.34 l -3.642,-1.558 -3.38,1.036 -1.559,1.822 4.679,0.78 0.26,2.079 c 0,0 8.056997,-3.641 9.619997,-3.641 1.558,0 2.688,-1.907 2.688,-1.907 l -0.334,-0.085 c 1.602,-5.926 15.641,-52.329 15.641,-52.329 0,0 4.256,-8.116 4.524,-10.513 0.262,-2.392 0.397,-11.702 0.53,-13.563 0.133,-1.862 3.193,-34.451 3.59,-36.847 0.402,0.799 1.2,0.268 1.2,0.268 l 1.062,0.133 1.994,0.267 c 0,0 19.952,36.18 24.476,45.89 0.267,0.799 0,2.526 0,4.923 0,2.392 0.664,3.457 1.333,4.653 0.663,1.195 1.33,2.526 1.462,4.39 0.132,1.812 2.781,52.286 3.412,57.889 -0.19,-0.04 -0.464,-0.09 -0.882,-0.177 -1.816,-0.521 -4.68,2.339 -4.68,2.339 l -3.643,-1.56 -3.373,1.04 -1.562,1.82 4.679,0.779 0.257,2.078 c 0,0 8.064,-3.637 9.62,-3.637 1.558,0 2.688,-1.911 2.688,-1.911 0.137,-1.068 -3.059,-57.6 -2.924,-59.858 0.397,-2.53 0.797,-8.248 0.932,-9.71 1.062,-3.325 -17.428,-31.659 -26.607,-50.146 0.401,-1.197 -0.262,-3.327 0.269,-3.988 0.53,-0.668 3.06,-1.199 3.06,-1.199 0,0 3.723,-1.597 4.256,-1.73 0.535,-0.131 4.125,-1.197 4.655,-1.596 0.532,-0.4 0.269,-0.531 1.729,-1.197 1.467,-0.664 3.461,-1.062 4.258,-0.664 0.798,0.4 2.927,1.598 5.054,-0.268 1.598,0.135 4.127,-0.131 6.385,-0.932 1.729,0.533 6.52,2.66 8.38,2.529 0.665,0.531 3.461,3.191 5.986,1.996 0.396,0.399 1.597,1.195 1.73,1.861 0.135,0.665 1.196,1.598 1.196,1.598 l 0.401,0.662 0.396,0.667 0.53,-0.401 c 0,0 -0.397,0.933 0.932,0.268 1.33,-0.667 1.33,-0.667 1.33,-0.667 l 0.268,-0.528 c 0,0 -0.096,-0.412 -0.207,-0.881 -0.12,-0.492 -0.26,-1.047 -0.327,-1.249 -0.131,-0.399 -1.063,-1.73 -0.531,-1.198 0.531,0.533 1.334,0.399 1.334,0.399 0,0 0.263,-0.131 0.664,0.134 0.397,0.266 -0.27,0 0.397,0.266 0.665,0.266 2.662,0.533 2.662,0.533 0,0 1.861,1.463 1.994,2.126 0.134,0.668 1.598,0.532 2.791,-0.264 0.666,-0.134 2.53,1.195 2.53,1.195 l 1.464,1.731 -0.135,-1.199 1.464,2.262 c -0.001,-0.004 0.931,-0.538 -2.927,-6.255 z"
     id="path3"
     fill="param(fill) #000"
     fill-opacity="param(fill-opacity)"
     stroke="param(outline) #FFF"
     stroke-opacity="param(outline-opacity)"
     stroke-width="param(outline-width) 0"
     inkscape:connector-curvature="0" /></svg>