<?xml version="1.0" encoding="UTF-8" standalone="no"?>
<!-- Created with Inkscape (http://www.inkscape.org/) -->

<svg
   xmlns:dc="http://purl.org/dc/elements/1.1/"
   xmlns:cc="http://creativecommons.org/ns#"
   xmlns:rdf="http://www.w3.org/1999/02/22-rdf-syntax-ns#"
   xmlns:svg="http://www.w3.org/2000/svg"
   xmlns="http://www.w3.org/2000/svg"
   xmlns:sodipodi="http://sodipodi.sourceforge.net/DTD/sodipodi-0.dtd"
   xmlns:inkscape="http://www.inkscape.org/namespaces/inkscape"
   version="1.1"
   width="2202"
   height="2202"
   viewBox="0 0 2202 2202"
   id="Layer_1"
   xml:space="preserve"
   inkscape:version="0.91 r13725"
   sodipodi:docname="mammals_european_bison.svg"><metadata
     id="metadata153"><rdf:RDF><cc:Work
         rdf:about=""><dc:format>image/svg+xml</dc:format><dc:type
           rdf:resource="http://purl.org/dc/dcmitype/StillImage" /><dc:title></dc:title></cc:Work></rdf:RDF></metadata><sodipodi:namedview
     pagecolor="#ffffff"
     bordercolor="#666666"
     borderopacity="1"
     objecttolerance="10"
     gridtolerance="10"
     guidetolerance="10"
     inkscape:pageopacity="0"
     inkscape:pageshadow="2"
     inkscape:window-width="1366"
     inkscape:window-height="705"
     id="namedview151"
     showgrid="false"
     inkscape:zoom="0.16348774"
     inkscape:cx="-538.26666"
     inkscape:cy="698.50001"
     inkscape:window-x="-8"
     inkscape:window-y="-8"
     inkscape:window-maximized="1"
     inkscape:current-layer="Layer_1" /><defs
     id="defs299" /><path
     d="m 247,402.5 c 0.333,0 0.667,0 1,0 0,0.333 0,0.667 0,1 6.813,29.853 8.991,64.343 30,80 1.978,-1.689 6.241,-1.092 9,-2 0,-0.667 0,-1.333 0,-2 l 0.5,0.5 0.5,-0.5 c 3.832,2.036 8.896,-2.102 14,-2 l 1.5,0.5 -0.5,-1.5 c 4.933,-0.4 10.157,-0.51 13,-3 l 0,1 1,0 c 6.52,-1.48 14.467,-1.533 21,-3 l 0.5,3.5 0.5,-3.5 c 8.077,0.077 15.691,-0.309 22,-2 l 0.5,0.5 0.5,0.5 c 7,0 14,0 21,0 l -0.5,1.5 1.5,-0.5 c 7.73,-1.378 15.571,2.404 21,0 l 1,0 0,-1 c 7.077,3.59 16.906,4.427 26,6 l 1,0 0,-1 c 6.628,3.705 16.079,4.587 23,8 l 0.5,1.5 0.5,-1.5 c 4.735,1.131 12.92,8.809 15,6 0,-0.667 0,-1.333 0,-2 l 1,0.5 1,0.5 c -1.027,4.027 1.557,4.443 3,6 5.482,-1.518 -1.4,-15.4 4,-17 -1.396,4.938 -0.975,11.692 -1,18 11.506,4.67 24.35,12.689 36,4 -0.929,4.404 -7.699,2.968 -10,6 5.438,-0.436 10.432,3.773 15,1 l 0,1 1,0 c 5.806,-0.194 12.944,0.944 16,-2 l 0,1 1,0 c 15.495,-4.505 27.443,-12.557 38,-22 l 0.5,1.5 0.5,-1.5 c 6.078,-3.922 12.953,-7.047 18,-12 l 0,1 1,0 c 9.079,-5.254 20.642,-8.024 30,-13 l 0.5,1.5 0.5,-1.5 c 26.759,-8.908 55.793,-15.541 83,-24 l 0,1 1,0 c 9.589,-2.745 21.58,-3.087 30,-7 l -0.5,1.5 1.5,-0.5 c 8.961,-0.039 18.733,0.733 25,-2 l -0.5,1.5 1.5,-0.5 c 11.646,-1.528 25.392,2.838 33,-1 l 0,1 1,0 c 20.321,0.716 46.392,3.951 64,1 l 0,1 1,0 c 3.459,2.03 10.695,2.803 15,1 l -0.5,1.5 1.5,-0.5 c 2.359,0.764 6.911,1.971 9,0 l 0,1 1,0 c 11.964,0.236 22.977,6.082 34,4 l -0.5,1.5 1.5,-0.5 c 12.771,5.895 27.382,9.951 44,12 l -0.5,1.5 1.5,-0.5 c 8.916,4.751 20.419,6.915 31,10 l -0.5,1.5 1.5,-0.5 c 4.587,0.079 6.443,2.89 12,2 l -0.5,1.5 1.5,0.5 c 10.275,1.471 20.684,7.876 29,8 l 0,1 1,0 c 10.099,5.901 22.13,9.87 35,13 l -0.5,1.5 1.5,-0.5 c 18.693,7.642 41.419,16.579 59,22 l 1,0 0,-1 c 1.759,2.241 5.998,2.002 8,4 l -1,0 0,1 c 9.297,5.037 17.199,11.467 30,13 l -1,0 0,1 c 17.64,7.026 35.165,14.168 58,16 l -0.5,1.5 1.5,-0.5 c 21.247,5.057 51.547,10.702 75,7 l 0,1 1,0 c 19.623,3.098 50.599,3.06 69,1 l -0.5,1.5 1.5,-0.5 c 20.76,1.655 43.458,5.298 63,5 l -0.5,1.5 1.5,-0.5 c 31.64,5.693 61.096,13.57 93,19 l -0.5,1.5 1.5,-0.5 c 12.524,4.824 33.398,6.226 51,7 34.127,1.5 67.953,-6.885 102,-9 46.129,-2.866 73.797,19.347 115,22 4.356,0.28 8.733,-0.413 13,0 24.148,2.337 42.495,16.316 66,18 17.061,1.222 37.292,-3.042 54,-3 17.673,0.045 40.861,6.175 58,4 6.986,-0.887 10.35,-3.794 16,-4 19.827,-0.724 38.6,6.272 56,12 16.537,5.444 33.281,14.651 43,24 29.128,28.019 32.963,75.723 35,122 1.539,34.979 -3.237,63.128 -12,89 -5.67,16.739 -14.088,32.36 -19,49 -2.813,9.528 -0.549,16.284 3,26 l -0.5,1.5 1.5,-0.5 c 1.837,9.83 6.05,17.284 11,24 l 0.5,1.5 0.5,-1.5 c 5.959,16.041 15.768,28.232 25,41 l -0.5,1.5 1.5,-0.5 c 7.695,13.638 17.395,25.272 25,39 l 1,0 0,-1 c 4.593,14.074 9.441,27.892 12,44 0,11 0,22 0,33 -4.114,42.219 -17.141,75.526 -45,94 l -0.5,-1.5 -0.5,1.5 c -7.482,4.184 -14.55,8.783 -20,15 l -0.5,-1.5 -0.5,1.5 c -14.391,10.943 -26.923,23.744 -42,34 l -1.9,-2.5 -3.1,0.5 c -0.816,-18.819 8.197,-33.133 11,-45 l 0,-1 -1,0 c 7.626,-8.707 13.62,-19.047 19,-30 l 0,-1 -1,0 c 11.705,-20.295 13.301,-50.699 17,-79 l 0.5,-1.5 -1.5,0.5 c 11.392,-58.012 -15.99,-93.798 -37,-126 l 0.5,-1.5 -1.5,0.5 c -4.288,-11.711 -7.229,-24.771 -8,-40 l 0.5,-1.5 -1.5,0.5 c 4.311,-17.182 7.442,-39.659 13,-60 6.875,-25.164 11.585,-52.128 10,-87 -1.242,-27.323 -2.793,-54.74 -15,-71 -9.538,-12.704 -25.406,-16.377 -44,-23 16.32,29.927 47.321,50.433 42,98 -1.93,17.252 -10.686,33.905 -16,49 -5.665,16.092 -11.693,32.514 -13,52 -1.073,16.01 -0.155,30.123 -1,46 -2.256,42.407 -9.163,80.512 -21,113 -14.134,38.793 -36.99,69.446 -32,123 1.469,15.762 7.531,27.246 14,37 7.727,11.65 22.896,22.491 23,43 0.087,16.988 -6.799,34.56 -12,51 -14.576,46.08 -27.768,101.183 -31,158 -0.651,11.458 -0.811,29.335 2,39 l -1,0 0,1 c -0.121,12.792 5.235,28.761 7,43 l -1,0 0,1 c 0.54,6.207 -2.027,9.306 -2,15 l -1.5,-0.5 0.5,1.5 c -0.012,7.172 -4.622,14.462 -3,20 l -1,0 0,1 c -1.538,2.876 -3.173,9.587 -1,13 l -1,0 0,1 c -2.021,4.313 -4.21,8.457 -5,14 l -1.5,-0.5 0.5,1.5 c -9.345,23.911 -2.699,71.075 -37,65 0.112,-9.445 -0.01,-18.66 -2,-26 -5.736,14.254 -14.846,25.314 -18,41 -2.549,12.675 2.048,24.857 -2,37 -5.807,17.419 -33.65,25.361 -51,32 -28.158,10.774 -48.135,27.101 -88,20 5.665,-15.335 17.344,-24.656 25,-38 -16.713,0.047 -33.003,-0.331 -48,-2 11.761,-22.752 31.73,-36.722 53,-50 6.859,-4.282 15.724,-7.263 22,-12 11.464,-8.653 16.683,-24.12 25,-36 -4.564,-0.197 -6.681,7.273 -10,5 10.113,-3.226 13.509,-18.484 15,-27 l 0,-1 -1,0 c 7.189,-7.145 9.459,-19.208 14,-29 l 0.5,-1.5 -1.5,0.5 c 3.934,-5.732 6.723,-12.611 9,-20 1.005,-2.558 -6.363,7.97 -9,5 9.713,-6.229 14.625,-13.053 16,-28 2.221,-24.146 3.038,-57.66 3,-84 -0.055,-38.166 -12.34,-74.792 -8,-108 -2.069,30.177 -29.939,46.466 -44,71 -13.497,23.551 -26.94,54.43 -29,86 -0.751,11.518 1.739,21.04 6,26 -1.313,-0.354 -1.572,-1.761 -3,-2 0.027,8.306 7.816,8.85 10,15 -1.75,-0.333 -5.696,-6.586 -6,-2 1.487,2.846 1.82,6.847 4,9 l -1,0 0,1 c 1.088,10.531 0.688,20.011 -4,27 l -1.5,-0.5 0.5,1.5 c -2.725,2.275 -5.572,4.428 -8,7 3.123,2.852 3.123,16.148 0,19 0.793,-6.441 1.944,-14.002 -1,-19 -10.585,14.182 -14.849,45.016 -39,39 -0.717,-9.86 11.455,-14.729 5,-24 -19.857,23.715 -22.797,76.077 -56,86 -10.664,3.187 -25.118,-3.446 -38,-6 -28.318,-5.613 -73.277,-4.809 -82,-29 10.052,-0.615 19.418,-1.915 28,-4 -6.043,-3.624 -13.792,-5.541 -18,-11 14.857,-10.955 34.728,-8.217 50,-16 15.673,-7.986 18.473,-28.758 29,-42 l 0,-1 -1,0 c 2.768,-3.232 5.448,-6.552 8,-10 -1.06,-4.327 -8.213,6.815 -11,4 17.905,-8.761 23.936,-29.397 34,-46 l 0,-1 -1,0 c 12.677,-15.026 19.809,-56.692 26,-80 10.379,-39.071 17.325,-67.643 15,-112 -2.826,-53.931 -15.943,-90.3 -41,-123 -11.395,-14.87 -27.369,-28.146 -36,-46 -8.961,-18.537 -12.394,-39.97 -17,-64 -31.219,27.027 -62.37,53.706 -105,74 -40.336,19.202 -84.281,36.754 -130,50 l 0.5,-1.5 -1.5,0.5 c -9.32,3.346 -18.172,7.162 -25,13 l -1.5,0.5 1.5,0.5 c -1.922,2.412 -4.696,3.971 -7,6 l 0,-1 -1,0 c -9.039,8.294 -18.117,16.55 -22,30 l -1.5,-0.5 0.5,1.5 c -3.55,3.45 -3.906,10.094 -8,13 l -1,-2 -1,2 c -5.209,-1.791 -3.685,-10.315 -6,-15 l 0.5,-1.5 -1.5,0.5 c 1.295,-8.048 1.356,-22.63 2,-28 l 0,-1 -1,0 c 5.072,-10.595 9.375,-21.958 16,-31 l 1.5,-0.5 -1.5,-0.5 c 4.093,-4.252 11.135,-10.85 11,-16 -4.054,1.613 -8.759,2.574 -13,4 l 0.5,-1.5 -1.5,0.5 c -34.413,9.587 -65.605,22.395 -100,32 l 0.5,-1.5 -1.5,0.5 c -27.34,8.66 -63.858,8.142 -93,15 l 0,-1 -1,0 c -16.598,-0.261 -39.988,1.343 -54,7 l 0,-1 -1,0 c -20.568,-1.232 -41.231,6.101 -57,13 l 0.5,-1.5 -1.5,0.5 c -8.949,3.718 -19.469,5.864 -28,10 1.758,0.575 5.875,-1.209 6,1 -18.142,0.858 -33.459,4.541 -50,7 l -1.5,-0.5 0.5,1.5 c -5.727,-1.688 -12.948,1.88 -20,2 0.593,3.74 3.496,5.17 5,8 l -1.5,0.5 1.5,0.5 c 6.161,8.173 10.083,18.584 15,28 l -0.5,0.5 0.5,0.5 c -2.25,6.27 2.257,14.396 1,23 l 0.5,0.5 0.5,0.5 c -2.494,11.334 -5.287,27.159 -3,40 l -1.5,-0.5 0.5,1.5 c -2.878,12.588 -3.994,31.826 -2,46 l -1.5,-0.5 0.5,1.5 c 1.967,13.699 -0.455,31.788 5,42 l -1.5,-0.5 0.5,1.5 c 1.65,11.683 5.311,21.355 11,29 l -1,0 0,1 c 6.205,15.129 11.04,31.627 17,47 l -1,0 0,1 c -7.509,11.33 4.264,18.507 1,30 -0.137,-7.197 -1.656,-13.011 -6,-16 0.205,4.205 -3.8,4.2 -4,8 l -1.5,-0.5 0.5,1.5 c -2.76,12.435 1.441,26.554 0,41 -4.47,8.691 -17.854,9.465 -25,3 1.565,6.99 -6.44,11.313 -8,18 -2.189,9.383 2.18,19.457 -1,30 -13.274,8.393 -24.741,18.593 -33,32 -23.083,-3.055 -55.497,5.479 -83,2 -7.734,-0.979 -15.741,-5.211 -24,-9 -4.133,-1.896 -20.846,-8.232 -21,-12 -0.131,-3.205 15.407,-12.471 19,-15 8.218,-5.784 13.844,-9.021 20,-14 -5.815,-3.185 -11.794,-6.206 -17,-10 11.974,-9.693 30.808,-12.525 48,-17 12.585,-19.236 25.036,-46.079 22,-77 -1.962,-19.981 -9.762,-42.326 -9,-63 l 0.5,-1.5 -1.5,0.5 c 1.798,-22.643 -0.994,-47.071 -8,-64 -0.809,7.825 3.062,16.25 0,23 -0.596,-24.737 -4.266,-46.4 -13,-63 l 0.5,-1.5 -1.5,0.5 c -0.792,-10.542 -5.17,-17.496 -9,-25 0.086,1.419 0.165,2.832 -1,3 -9.431,-23.235 -13.774,-51.559 -23,-75 -0.64,13.663 -2.172,25.579 1,37 l -1,0 0,1 c -1.278,10.286 -2.97,29.631 2,37 l -1,0 0,1 c -1.789,3.821 -1.489,14.131 0,18 l -1,0 0,1 c 0.622,7.711 -1.638,18.305 2,23 l -1,0 0,1 c -3.862,12.805 -0.483,32.85 -6,44 l -1.5,-0.5 0.5,1.5 c -0.333,0 -0.667,0 -1,0 -2.659,9.342 -8.948,15.052 -11,25 l -1.5,-0.5 0.5,1.5 c -5.434,4.471 -9.981,16.174 -14,27 -3.263,8.789 -10.281,20.207 -11,29 -1.389,16.985 5.222,35.893 7,53 l -1,0 0,1 c -3.062,3.485 -2.563,15.144 -1,20 l -1,0 0,1 c 0.366,5.07 -3.206,10.281 -1,14 l -1,0 0,1 c -1.553,3.781 -2.546,8.121 -3,13 l -1.5,-0.5 0.5,1.5 c -1.427,4.572 -3.313,8.687 -3,15 l -1.5,-0.5 0.5,1.5 c -4.64,13.619 7.114,17.798 5,28 -1.573,-4.76 -2.129,-10.537 -6,-13 -3.408,11.828 2.577,17.342 4,27 -2.306,-1.694 -1.324,-6.677 -4,-8 0.768,21.769 -7.87,34.13 -22,41 -9.902,-5.432 -2.027,-28.64 -16,-30 0.302,9.7 -4.757,18.019 -5,28 -0.472,19.371 8.654,49.67 -12,54 -6.734,1.412 -13.992,0.054 -21,1 -18.979,2.563 -38.025,10.565 -59,11 -7.333,0 -14.667,0 -22,0 -11.467,-2.533 -25.04,-2.96 -34,-8 4.698,-6.969 10.219,-13.114 14,-21 -9.188,-0.146 -19.249,0.582 -27,-1 13.419,-13.705 23.145,-35.012 44,-41 9.715,-2.789 21.808,-1.533 25,-9 -0.136,1.646 -6.864,1.646 -7,0 25.847,-2.153 27.25,-28.75 36,-48 l 0,-1 -1,0 c 3.455,-4.879 5.27,-11.397 8,-17 l 0,-1 -1,0 c 2.434,-3.232 3.667,-7.667 4,-13 -2.547,-1.494 -8.11,7.838 -10,7 20.938,-15.285 10.389,-60.124 13,-96 0.782,-10.745 5.577,-21.08 7,-32 1.23,-9.441 0.504,-21.159 0,-32 -0.948,-20.379 -0.607,-44.171 -2,-58 l 0,-1 -1,0 c 2.239,-7.428 0.402,-18.931 1,-28 l 0,-1 -1,0 c 2.539,-6.472 5.417,-17.902 4,-25 l 0,-1 -1,0 c 3.688,-8.979 5.387,-19.946 6,-32 -4.327,-0.01 -6.345,-2.321 -11,-2 l 0.5,-1.5 -1.5,0.5 c -5.426,-1.24 -9.909,-3.425 -15,-5 l -0.5,-1.5 -0.5,1.5 c -4.351,-2.982 -10.19,-4.477 -15,-7 l -1,0 0,1 c -4.973,-5.035 -15.52,-9.803 -21,-11 l -1,0 0,1 c -5.257,-8.41 -16.286,-11.047 -24,-17 l -1,0 0,1 c -1.26,-2.073 -2.59,-4.077 -5,-5 0,1.333 0,2.667 0,4 l -1,-0.5 -1,-0.5 c 0,-1.333 0,-2.667 0,-4 -3.429,-2.57 -6.561,-5.439 -11,-7 l 0.5,-1.5 -1.5,0.5 c -4.639,-4.028 -9.749,-7.585 -15,-11 l -0.5,-1.5 -0.5,1.5 c -9.085,-8.914 -19.145,-16.855 -29,-25 l -0.5,-1.5 -0.5,1.5 c -12.713,-13.62 -27.244,-25.423 -39,-40 l 0.5,-1.5 -1.5,0.5 c -1.32,-3.014 -2.496,-6.171 -6,-7 l 0.5,-1.5 -1.5,0.5 c -2.289,-4.045 -4.547,-8.119 -9,-10 l 0.5,-1.5 -1.5,0.5 c -2.259,-3.498 -6.715,-12.898 -10,-9 l 0,-1 -1,0 c -0.814,-9.519 -9.171,-11.496 -13,-18 l -1,0 0,1 c -8.919,-14.414 -21.336,-25.33 -32,-38 l -1,0 0,1 c -3.488,-8.845 -9.666,-15.001 -15,-22 l 0.5,-1.5 -1.5,0.5 c -0.445,-2.555 -1.402,-4.598 -3,-6 l 0.5,-1.5 -1.5,0.5 c -0.766,-2.901 -1.582,-5.752 -4,-7 l 0.5,-1.5 -1.5,0.5 c -3.685,-10.982 -9.018,-20.316 -14,-30 0.163,1.163 -0.221,1.779 -1,2 l -0.5,-1.5 -0.5,1.5 c -4.204,1.796 -6.657,5.343 -11,7 -0.873,6.794 0.733,16.066 -3,20 1.663,-5.003 0.625,-12.709 2,-18 -3.542,0.458 -5.775,2.225 -10,2 0,1.333 0,2.667 0,4 l -1,0 0,1 c -1.357,-0.31 -0.83,-2.504 -1,-4 -3.708,-0.708 -4.292,1.708 -8,1 0.184,0.851 -0.39,0.943 -1,1 l -0.5,-1.5 -0.5,1.5 c -5.25,-0.584 -7.571,1.762 -13,1 l -1.5,-0.5 0.5,1.5 c -4.9,-0.234 -7.571,1.762 -13,1 l -1.5,-0.5 0.5,1.5 c -6,0 -12,0 -18,0 0,0.667 0,1.333 0,2 l -1,0 0,1 c -1.172,-0.162 -0.843,-1.823 -1,-3 -7.526,-1.474 -16.382,-1.618 -25,-2 l -1,0 0,1 c -1.856,-0.556 -7.166,-2.728 -8,-1 l -1,-0.5 -1,0.5 c -7.263,-2.404 -16.776,-2.557 -25,-4 l -0.5,-3.5 -0.5,3.5 c -6.055,-0.297 -13.853,-4.122 -19,-2 l -1,0 0,1 c -2.975,-5.025 -10.656,-5.344 -16,-8 l 0.5,-1.5 -1.5,0.5 c -9.39,-1.943 -17.177,-5.489 -21,-13 0,1 0,2 0,3 l -1,-0.5 -1,-0.5 c -0.224,-10.776 -7.868,-14.132 -12,-21 l -1,0 0,1 c -6.077,-12.257 -13.675,-22.991 -19,-36 l 0.5,-1.5 -1.5,0.5 c -1.015,-6.652 -0.832,-14.501 -4,-19 l 0.5,-1.5 -1.5,0.5 c 0.966,-7.693 -5.463,-15.584 -10,-21 l -1,0 0,1 c -2.127,-8.195 -15.99,-14.903 -25,-16 -14.266,-1.737 -24.341,7.57 -35,9 -15.288,2.051 -22.463,-15.049 -35,-18 -8.636,-2.032 -12.176,2.394 -20,-4 -3.215,-4.287 1.213,-13.811 -1,-17 -21.043,2.041 -28.839,-17.825 -38,-31 0,-3.667 0,-7.333 0,-11 1.201,-6.212 7.966,-17.605 9,-25 0.734,-5.251 -1.139,-11.257 0,-17 3.864,-19.494 25.715,-29.333 29,-48 -2.233,-2.49 -2.438,5.505 -6,5 3.368,-6.301 12.476,-16.398 9,-23 10.828,-14.839 19.668,-31.665 28,-49 L 70.5,709 69,708.5 c 7.668,-7.332 13.67,-16.33 21,-24 l 0,-1 -1,0 c 7.668,-5.665 11.57,-15.096 17,-23 l 0,-1 -1,0 c 8.589,-6.745 12.72,-17.947 20,-26 l 1.5,-0.5 -1.5,-0.5 c 3.71,-2.956 5.97,-7.364 9,-11 l 0,-1 -1,0 c 5.377,-1.956 6.642,-8.025 9,-13 -5.501,1.182 -11.863,6.781 -16,6 4.907,-3.759 12.342,-4.991 17,-9 1.463,-7.819 4.72,-17.082 2,-26 l 1.5,0.5 -0.5,-1.5 c -0.096,-13.687 -6.66,-30.685 2,-39 l 0.5,1.5 0.5,-1.5 c 5.025,-4.309 11.833,-6.833 15,-13 l 0,1 1,0 c 6.178,-2.155 10.51,-6.157 17,-8 l 0.5,1.5 0.5,-1.5 c 3.005,-2.274 8.58,-0.437 12,0 l -0.5,1.5 1.5,-0.5 c 1.382,2.951 4.618,4.049 6,7 9.058,-6.608 17.974,-13.359 26,-21 -6.827,-40.558 0.017,-81.899 19,-103 z"
     id="path7"
     fill="param(fill) #000"
     fill-opacity="param(fill-opacity)"
     stroke="param(outline) #FFF"
     stroke-opacity="param(outline-opacity)"
     stroke-width="param(outline-width) 0"
     inkscape:connector-curvature="0" /></svg>