<?xml version="1.0" encoding="UTF-8" standalone="no"?>
<!-- Created with Inkscape (http://www.inkscape.org/) -->

<svg
   xmlns:dc="http://purl.org/dc/elements/1.1/"
   xmlns:cc="http://creativecommons.org/ns#"
   xmlns:rdf="http://www.w3.org/1999/02/22-rdf-syntax-ns#"
   xmlns:svg="http://www.w3.org/2000/svg"
   xmlns="http://www.w3.org/2000/svg"
   xmlns:sodipodi="http://sodipodi.sourceforge.net/DTD/sodipodi-0.dtd"
   xmlns:inkscape="http://www.inkscape.org/namespaces/inkscape"
   version="1.2"
   width="250"
   height="250"
   viewBox="0 0 250 250"
   id="Layer_1"
   xml:space="preserve"
   style="overflow:inherit"
   inkscape:version="0.91 r13725"
   sodipodi:docname="mammals_moose.svg"><metadata
     id="metadata7"><rdf:RDF><cc:Work
         rdf:about=""><dc:format>image/svg+xml</dc:format><dc:type
           rdf:resource="http://purl.org/dc/dcmitype/StillImage" /><dc:title></dc:title></cc:Work></rdf:RDF></metadata><sodipodi:namedview
     pagecolor="#ffffff"
     bordercolor="#666666"
     borderopacity="1"
     objecttolerance="10"
     gridtolerance="10"
     guidetolerance="10"
     inkscape:pageopacity="0"
     inkscape:pageshadow="2"
     inkscape:window-width="659"
     inkscape:window-height="480"
     id="namedview5"
     showgrid="false"
     inkscape:zoom="1.0396476"
     inkscape:cx="124"
     inkscape:cy="113.5"
     inkscape:window-x="0"
     inkscape:window-y="0"
     inkscape:window-maximized="0"
     inkscape:current-layer="Layer_1" /><defs
     id="defs7" /><path
     d="m 65,11.5 c -0.667,0 -1.333,0 -2,0 -4.905,3.225 1.628,12.722 -3,15 -3.377,-6.29 -6.77,-12.563 -15,-14 -2.512,11.494 -0.654,18.306 4,28 -5.841,1.609 -10.122,-6.375 -17,-7 -1.987,3.013 -6.533,3.467 -5,10 -0.694,1.973 -5.58,-0.246 -6,2 -1.53,6.834 5.936,8.98 3,14 -8.62,2.103 -11.203,-9.586 -17,-4 3.837,10.496 17.569,11.097 21,22 -13.351,-0.649 -16.552,-11.449 -27,-15 0,1 0,2 0,3 0.334,0 0.666,0 1,0 7.229,13.771 17.916,24.084 40,23 -6.461,11.3 -36.886,29.111 -20,51 6.305,0.305 11.842,-0.158 17,-1 2.077,-2.923 2.055,-7.945 7,-8 12.178,5.156 4.754,29.912 22,30 5.118,-6.882 8.492,-15.508 11,-25 8.706,-0.263 12.167,7.501 17,14 5.816,7.822 15.867,12.486 12,27 -0.668,2.506 -3.052,5.677 -4,9 -2.156,7.556 -2.041,16.26 -4,21 -5.096,12.329 -18.213,19.239 -21,28 4.047,3.321 8.826,4.016 13,3 5.611,-1.365 6.463,-9.508 13,-6 1.553,-21.114 13.464,-31.87 19,-49 3.842,20.912 4.438,41.481 -10,51 11.586,3.914 20.227,-2.149 25,-6 -0.289,-19.219 -0.604,-42.745 2,-62 17.148,4.393 39.416,-2.05 53,5 4.746,0.413 4.891,-3.775 9,-4 13.062,33.118 -14.078,50.706 -31,66 0.734,2.932 3.033,4.3 5,6 4,0 8,0 12,0 0.76,-7.934 3.828,-4.831 9,-3 8.034,-17.299 15.623,-35.043 31,-45 7.174,19.787 -8.974,31.915 -16,44 7.068,4.925 20.658,4.02 21,-6 1.402,2.473 3.445,1.765 6,1 1.334,-17.332 3.076,-34.258 9,-47 0,-0.667 0,-1.333 0,-2 -11.629,-9.622 -23.182,-34.222 -2,-42 6.494,-25.263 -12.572,-40.225 -32,-43 -15.34,-2.191 -28.611,1.993 -40,1 -20.33,-1.773 -28.192,-12.131 -44,-19 -4.342,-1.886 -11.461,-2.409 -20,-2 -6.826,4.841 -17.304,6.029 -28,7 1.403,-6.1 4.978,-14.79 2,-22 -6.499,-1.267 -9.812,10.538 -12,7 2.613,-8.588 10.547,-21.161 12,-33 0.768,-6.253 1.933,-17.228 -4,-21 -4.751,0.916 -5.842,5.491 -11,6 -1.268,-3.066 -3.405,-5.262 -5,-8 z"
     id="path3"
     fill="param(fill) #000"
     fill-opacity="param(fill-opacity)"
     stroke="param(outline) #FFF"
     stroke-opacity="param(outline-opacity)"
     stroke-width="param(outline-width) 0"
     inkscape:connector-curvature="0" /></svg>