<?xml version="1.0" encoding="UTF-8" standalone="no"?>
<!-- Created with Inkscape (http://www.inkscape.org/) -->

<svg
   xmlns:dc="http://purl.org/dc/elements/1.1/"
   xmlns:cc="http://creativecommons.org/ns#"
   xmlns:rdf="http://www.w3.org/1999/02/22-rdf-syntax-ns#"
   xmlns:svg="http://www.w3.org/2000/svg"
   xmlns="http://www.w3.org/2000/svg"
   xmlns:sodipodi="http://sodipodi.sourceforge.net/DTD/sodipodi-0.dtd"
   xmlns:inkscape="http://www.inkscape.org/namespaces/inkscape"
   version="1.1"
   width="350"
   height="350"
   viewBox="0 0 350 350.00001"
   id="Layer_1"
   xml:space="preserve"
   inkscape:version="0.91 r13725"
   sodipodi:docname="mammals_deer.svg"><metadata
     id="metadata13"><rdf:RDF><cc:Work
         rdf:about=""><dc:format>image/svg+xml</dc:format><dc:type
           rdf:resource="http://purl.org/dc/dcmitype/StillImage" /><dc:title></dc:title></cc:Work></rdf:RDF></metadata><sodipodi:namedview
     pagecolor="#ffffff"
     bordercolor="#666666"
     borderopacity="1"
     objecttolerance="10"
     gridtolerance="10"
     guidetolerance="10"
     inkscape:pageopacity="0"
     inkscape:pageshadow="2"
     inkscape:window-width="1366"
     inkscape:window-height="705"
     id="namedview11"
     showgrid="false"
     inkscape:zoom="0.68050554"
     inkscape:cx="-247.18486"
     inkscape:cy="173.4005"
     inkscape:window-x="-8"
     inkscape:window-y="-8"
     inkscape:window-maximized="1"
     inkscape:current-layer="Layer_1" /><defs
     id="defs19" /><path
     d="m 142.36,1.5999951 c 0.24,0 0.48,0 0.72,0 0.385,4.0229999 -1.275,7.6589999 -0.24,11.9999999 0.295,1.238 1.254,2.197 1.92,3.6 0.704,1.483 0.749,3.105 2.16,3.36 1.91,0.345 4.9,-2.442 6.72,-3.6 1.824,-1.16 4.922,-2.691 5.76,-4.32 0.945,-1.837 0.662,-4.775 1.44,-6.72 1.88,1.648 1.643,6.137 0.96,7.92 -0.737,1.922 -3.155,3.976 -5.04,5.52 -1.987,1.627 -4.614,2.797 -6,4.56 -1.86,2.366 -2.936,6.275 -4.08,9.6 -1.153,3.35 -2.492,6.735 -4.08,9.6 -2.539,4.58 -6.434,9.492 -10.08,14.16 -2.002,2.564 -3.533,4.763 -4.56,7.68 -1.015,2.883 -1.793,6.159 -3.36,8.64 -2.325,3.682 -6.952,7.174 -10.8,9.36 -2.136,1.213 -4.369,2.39 -6.72,3.36 -5.012,2.068 -10.332999,3.009 -12.719999,8.16 1.541,-0.261 1.203,1.357 2.4,1.44 1.754,-0.778 1.826,-2.96 2.88,-4.32 1.648999,-2.13 3.651999,-3.944 7.439999,-3.84 0.784,2.274 1.267,4.088 1.2,6.24 -0.053,1.688 -0.899,3.254 -0.72,5.04 0.176,1.750995 1.616,4.031995 2.4,6.239995 2.209,6.22201 4.295,13.56201 7.68,18.24001 3.592,4.964 8.421,8.644 13.68,12.24 2.844,1.944 4.148,3.923 8.16,4.32 3.019,0.298 6.146,-0.299 9.12,-0.24 2.82,0.056 5.588,0.205 8.4,0.72 4.859,0.889 9.571,3.012 14.64,3.6 10.888,1.263 21.965,2.88 33.84,2.88 11.828,0 23.675,-0.976 35.28,-1.44 5.876,-0.235 11.961,-0.397 17.76,-0.72 6.47,-0.361 13.105,-1.826 18.96,-0.72 4.174,0.789 8.209,2.583 12.24,4.08 7.795,2.894 15.1,5.642 22.08,10.08 5.797,3.686 9.633,7.159 9.84,15.6 0,2.64 0,5.28 0,7.92 -1.093,3.547 -2.695,6.585 -6,7.92 -3.845,9.877 -8.282,17.256 -12,27.12 -1.205,3.199 -2.608,6.348 -2.88,10.08 -0.98,13.469 4.299,21.086 8.88,29.76 2.521,4.772 5.363,9.966 6,16.801 0.515,5.526 -0.444,10.972 -0.96,16.319 -0.984,10.217 -2.228,21.64 -1.439,32.641 0.183,2.557 0.604,5.273 0.72,7.92 0.105,2.389 0.571,5.323 -1.44,7.2 -1.353,0.659 -2.526,-0.211 -3.84,0.239 -3.671,1.26 -2.554,7.309 -6.24,9.12 -2.892,1.422 -5.251,0.088 -9.119,1.44 -1.28,0 -2.561,0 -3.841,0 0.871,-3.734 4.179,-5.763 6.24,-9.36 1.276,-2.228 2.024,-4.369 3.12,-7.2 2.569,-6.636 4.183,-18.825 3.12,-28.8 -1.358,-12.755 -2.432,-24.617 -10.8,-29.76 -0.989,11.21 -6.724,19.524 -11.04,28.32 -2.109,4.297 -4.234,8.785 -6.24,13.439 -1.979,4.593 -4.274,9.247 -5.04,14.4 -0.426,2.862 0.44,5.21 -1.68,6.96 -1.769,0.638 -2.925,-0.385 -4.32,0 -3.143,0.865 -3.786,7.592 -6.96,8.64 -1.556,0.514 -4.077,0.149 -6.24,0.24 -2.171,0.092 -4.541,0.06 -6.72,-0.24 0.708,-2.615 2.773,-3.735 4.32,-5.279 3.021,-3.019 5.293,-7.481 7.68,-12.001 4.356,-8.248 9.276,-16.771 12,-26.88 1.437,-5.331 3.214,-10.829 3.6,-15.84 0.62,-8.05 -2.455,-12.204 -5.04,-17.76 -4.665,-10.028 -7.34,-22.129 -11.52,-33.12 -4.483,1.638 -9.323,3.576 -14.641,5.04 -1.736,0.479 -3.668,1.209 -5.279,1.2 -2.157,-0.013 -4.251,-1.693 -6.48,-1.92 -3.146,-0.32 -7.077,0.604 -10.8,0.96 -10.34,0.988 -21.73,1.667 -33.12,1.92 -1.608,5.43 -1.983,10.694 -3.6,16.319 -0.683,2.373 -1.902,4.599 -2.641,7.2 -0.684,2.413 -1.554,5.188 -1.92,7.92 -0.643,4.805 -0.394,9.724 -0.96,14.641 -0.56,4.861 -0.502,9.714 -0.72,14.88 -0.232,5.511 -1.73,10.126 -2.4,15.84 -0.278,2.371 -0.386,5.844 -0.48,8.64 -0.105,3.142 0.073,6.842 -0.72,8.4 -0.752,1.479 -2.76,1.298 -3.84,2.64 -0.811,1.008 -0.875,3.072 -1.68,3.601 -1.153,0.756 -3.355,0.479 -5.28,0.479 -1.906,0 -4.106,0.373 -5.04,-0.72 -0.146,-1.997 1.455,-3.457 2.4,-5.04 2.433,-4.072 4.639,-10.214 5.04,-16.56 0.283,-4.484 0.266,-9.481 0.24,-14.4 -0.024,-4.565 0.1,-9.474 -0.48,-13.92 -0.377,-2.898 -1.283,-5.875 -1.92,-8.88 -1.799,-8.493 -3.125,-18.368 -6,-25.681 -4.359,10.553 -3.889,22.197 -6.48,33.601 -1.316,5.793 -2.573,11.217 -3.12,17.04 -0.865,9.203 0.754,21.635 -2.64,28.8 -2.027,0.87 -3.694,0.337 -5.28,0.96 -1.116,0.438 -2.607,1.847 -3.6,2.88 -1.63,1.697 -2.086,3.986 -3.84,4.561 -1.281,0.419 -3.511,-0.109 -6,0 -2.407,0.105 -4.549,0.699 -5.04,-0.96 -0.633,-2.136 3.553,-4.689 4.32,-5.521 7.374,-7.99 11.085,-23.036 10.08,-38.64 -0.395,-6.129 -1.902,-11.783 -1.44,-18 0.246,-3.306 0.654,-6.737 0.48,-10.561 -0.174,-3.826 0.233,-7.631 0.24,-11.279 0.006,-3.327 -0.148,-7.745 -0.96,-10.32 -0.964,-3.059 -5.456,-5.731 -7.68,-8.4 -3.141,-3.769 -5.154,-10.217 -8.4,-14.64 -1.345,-1.833 -2.424,-4.456 -3.6,-6.96 -0.832,-1.771 -1.581,-3.619 -2.4,-5.04 -0.884,-1.533 -2.932,-3.48 -4.56,-5.521 -2.423,-3.035 -4.444999,-6.667 -7.439999,-8.16 -1.568,-0.781 -3.203,-0.849 -4.56,-1.68 -7.466,-4.569 -11.438,-13.642 -14.88,-22.08 -0.941,-2.306 -1.979,-4.417 -2.64,-6.72 -1.385,-4.83 -2.091,-9.93 -3.12,-15.12 -0.488,-2.46 -0.559,-5.445 -1.44,-7.68 -1.483,-3.762 -9.11,-8.019 -12.72,-11.04 -2.847,-2.382 -4.911,-3.987 -8.88,-5.76 -1.606,-0.718 -3.444,-1.603 -4.8,-1.92 -2.166,-0.507 -4.801,-0.519 -6.480001,-0.96 -1.711,-0.45 -5.764,-1.982 -6.48,-3.6 -0.703,-1.588 -0.002,-3.311 -0.24,-5.04 -0.25,-1.814 -1.196,-3.022 -1.68,-4.8 0,-0.72 0,-1.44 0,-2.16 1.833,-3.631 6.302,-3.478 10.560001,-4.80001 2.467,-0.766 4.765,-2.168 7.2,-2.88 4.475,-1.309 9.577,-1.193 14.4,-2.4 6.454,-1.616 12.613,-5.530995 18.24,-6.479995 3.006,-0.507 4.927,-0.155 6.48,-1.68 1.441,-1.416 3.028,-2.967 4.08,-4.32 -5.205,-1.894 -10.721,-4.945 -14.4,-9.36 -1.888,-2.266 -3.979,-5.211 -5.04,-7.92 -1.295,-3.307 -2.036,-8.542 -0.48,-12 1.283,1.708 0.69,5.209 1.68,7.68 1.526,3.809 6.865,8.818 10.32,11.52 2.94,2.299 4.418,3.243 7.44,5.04 1.388,0.826 2.292,1.647 3.36,1.68 2.448,0.076 6.604,-2.806 7.2,-4.56 1.568999,-4.616 -2.454,-11.126 0,-16.08 1.253999,2.27 0.998999,5.276 1.679999,7.92 0.671,2.604 1.655,5.099 3.12,6.72 3.909,-0.019 6.105,-2.27 8.88,-4.08 2.441,-1.592 5.773,-3.587 6.72,-6.24 0.81,-2.271 0.689,-5.804 0.479,-8.16 -0.666,-7.494 -6.943,-12.513 -6.96,-19.68 2.299,1.797 3.15,4.545 5.04,7.44 1.007,1.542 3.726,6.622 6,6.48 1.106,-0.069 1.898,-1.491 2.88,-2.64 5.077,-5.947 10.896,-12.396 12.96,-21.36 0.655,-2.845 0.715,-8.133 0.48,-11.04 -0.387,-4.775 -1.947,-9.115 -0.96,-13.44 0.419,-1.83 2.082,-4.7999999 2.641,-5.7579999 z"
     id="path9"
     fill="param(fill) #000"
     fill-opacity="param(fill-opacity)"
     stroke="param(outline) #FFF"
     stroke-opacity="param(outline-opacity)"
     stroke-width="param(outline-width) 0"
     inkscape:connector-curvature="0" /></svg>