<?xml version="1.0" encoding="UTF-8" standalone="no"?>
<!-- Created with Inkscape (http://www.inkscape.org/) -->

<svg
   xmlns:dc="http://purl.org/dc/elements/1.1/"
   xmlns:cc="http://creativecommons.org/ns#"
   xmlns:rdf="http://www.w3.org/1999/02/22-rdf-syntax-ns#"
   xmlns:svg="http://www.w3.org/2000/svg"
   xmlns="http://www.w3.org/2000/svg"
   xmlns:sodipodi="http://sodipodi.sourceforge.net/DTD/sodipodi-0.dtd"
   xmlns:inkscape="http://www.inkscape.org/namespaces/inkscape"
   version="1.1"
   width="1024"
   height="1024"
   viewBox="0 0 1024 1024"
   id="Layer_1"
   xml:space="preserve"
   inkscape:version="0.91 r13725"
   sodipodi:docname="mammals_bear.svg"><metadata
     id="metadata267"><rdf:RDF><cc:Work
         rdf:about=""><dc:format>image/svg+xml</dc:format><dc:type
           rdf:resource="http://purl.org/dc/dcmitype/StillImage" /><dc:title></dc:title></cc:Work></rdf:RDF></metadata><sodipodi:namedview
     pagecolor="#ffffff"
     bordercolor="#666666"
     borderopacity="1"
     objecttolerance="10"
     gridtolerance="10"
     guidetolerance="10"
     inkscape:pageopacity="0"
     inkscape:pageshadow="2"
     inkscape:window-width="1366"
     inkscape:window-height="705"
     id="namedview265"
     showgrid="false"
     inkscape:zoom="0.66572637"
     inkscape:cx="36.0268"
     inkscape:cy="549.53958"
     inkscape:window-x="-8"
     inkscape:window-y="-8"
     inkscape:window-maximized="1"
     inkscape:current-layer="Layer_1" /><defs
     id="defs527" /><path
     inkscape:connector-curvature="0"
     id="path9"
     d="m 44.499991,247.4 c 0,0.1 0.1,0.1 0.5,0.1 0.4,0 0.6,0 1,0 0,3 0,6 0,9 0,0.4 0,0.6 0,1 0.4,0 0.6,0 1,0 0,0.4 0,0.6 0,1 l 0.5,0 c -0.1,2.8 0.4,4.8 1.5,6 0,0.4 0,0.6 0,1 l 0.5,0 c -0.5,3.1 0.4,4.8 2.5,5 0,1 -0.2,2 -0.5,2.9 0,0.1 -0.1,0.1 -0.5,0.1 -3.1,3.9 -6.4,7.6 -9.8,11.2 -0.101,0.2 -0.2,0.4 -0.2,0.8 0,3.4 -1,5.6 -3.1,6.8 -0.3,0.2 -0.5,0.2 -0.9,0.2 -4.6,7 -8.1,13.4 -10.5,19 l 0.5,0 c 0.4,1.6 -1,3.2 -4.1,4.8 -0.3,0.2 -0.6,0.2 -0.9,0.2 -1.4,5.7 -3.5,12.3 -6.5,19.9 0,0.1 -0.2,0.1 -0.5,0.1 -0.1,3 -0.1,6 0,9 0,0.4 0,0.6 0,1 0.3,0 0.6,0 1,0 0,0.6 -0.2,1.2 -0.4,1.8 -0.1,0.2 -0.3,0.2 -0.6,0.2 0,0.4 0,0.6 -0.1,1 -0.2,2 0.8,2.6 3.1,2 0,0.6 -0.2,1.2 -0.4,1.8 -0.1,0.2 -0.3,0.2 -0.6,0.2 0,0.4 -0.1,0.6 -0.3,0.7 -0.101,0.2 -0.4,0.3 -0.7,0.3 0,3.4 -0.9,5.9 -2.8,7.3 -0.101,0.1 -0.2,0.3 -0.2,0.7 0.3,0 0.6,0 1,0 0.6,0 1.3,0 2,0 0.7,2.7 0.1,4.2 -2,4.5 0,0 0,0.1 0,0.5 -1.7,2 -3.4,3.9 -5.3000005,5.7 -0.1,0.2 -0.4,0.3 -0.7,0.3 -1,0.6 -1.9,1.4 -2.8,2.2 -0.1,0.2 -0.2,0.4 -0.2,0.8 -1.5,1.9 -3,3.8 -4.4,5.7 -0.1,0.2 -0.3,0.3 -0.6,0.3 0,0.6 0,1.4 0,2 0,0.4 0,0.6 0,1 0.3,0 0.6,0 1,0 0.3,0 0.6,0 1,0 0,2 0,4 0,6 0,0.4 0,0.6 0,1 0.3,0 0.6,0 1,0 0.3,0 0.6,0 1,0 0,2.6 0,5.4 0,8 0,0.4 0,0.6 0,1 0.6,2.4 1.5,4.5 2.8,6.5 3.4000005,5.6 5.5000005,11.1 6.2000005,16.5 5.7,0.6 10.4,2.2 14.1,4.9 10.9,8 22.9,13.3 35.9,16.1 0.4,0 0.6,0 1,0 4.6,0 9.4,0 14,0 0,0.4 0,0.6 0,1 0,0.4 0,0.5 0.1,0.6 7.101,2.1 14.4,3.9 21.9,5.4 0.399999,0 0.499999,0.1 0.499999,0.2 2.3,5.4 5.1,6.9 8.5,4.8 1,1.6 2.1,3.3 3.4,5.1 0.399,0.6 1.1,1.2 1.899,1.8 6.9,5.1 13.8,7.1 20.7,6.1 0.4,0 0.6,0.1 0.9,0.2 4,2.6 7.699,5.5 11.1,8.8 1.2,-3.2 3.9,-3.6 8.1,-1.3 1.801,1 5.101,2.1 9.9,3.3 2.1001,0.6 2.8001,2.1 2.0001,4.7 0,0.2 0,0.399 0,0.5 -1.9001,7.8 -0.9001,9 3,3.8 l 0,-0.5 c 1.7,1.2 2.7,3.4 3,6.5 0,0.4 0,0.6 0,1 0,0.4 0,0.6 0,1 0.9,7.9 2.9,9.6 6,5 -0.5,3.9 -1,7.6 -1.5,11 l 0.5,0 c 0.4,0 0.6,0 1,0 0,3 0,6 0,9 0,0.4 0,0.6 0,1 0,0.4 0,0.6 0,1 0.3,2.4 1.3,4.1 3,5 0,1.4 0,2.6 0,4 0,0.4 0,0.6 0,1 -1,1.6 -1.2,3.9 -0.5,6.9 0,0 0.1,0.1 0.5,0.1 3.5,-3.9 5.5,-1.3 6.1,7.9 0.101,1.5 0.5,2.899 1.301,4 0.6,1.199 1,1.699 1,1.5 1.8,-5.101 3.699,-6 5.6,-2.4 0,1.4 -0.1,2.6 -0.5,3.9 0,0 -0.1,0.1 -0.5,0.1 0,3 0,6 0,9 0,0.4 0,0.6 0,1 0.4,0 0.5,0.1 0.6,0.2 1.4,2.399 2.9,2 4.4,-1.2 0,-0.4 0,-0.6 0.2,-0.6 0.5,-0.301 1.2,-0.4 1.8,-0.4 0,2.6 0,5.4 0,8 0,0.4 0,0.6 0,1 0.4,0.4 0.5,0.7 0.6,1.1 0.101,1 0.4,1.101 0.5,0.4 2.101,-8.1 3.4,-7.6 3.801,1.5 0.399,7.6 2.1,12.4 5.1,14 0,-0.4 0,-0.6 -0.1,-1 -0.9,-3.9 -0.2,-6.2 2.1,-7 0,0.4 0,0.6 0,1 0,0.4 0,0.6 0,1 -1,7.6 0,13.3 3,17 0,0.4 0,0.6 0,1 0.4,0 0.6,0 1,0 0,3 0,6 0,9 0,0.3 0,0.7 0,1 3.1,-3.1 5.1,-2.7 6,1.4 l 1.3,1.3 c 2.9,2.7 5.4,5.899 7.7,9.3 l 0,-0.5 c 3.7,0.2 5,2.7 4,7.5 1.7,0.7 3,2 3.6,4.1 1.9,6.601 4.4,12.601 7.4,17.9 0,1 0.2,1.7 0.7,2.1 0.8,0.601 1.3,1.101 1.399,1.301 1.301,6 3.301,9.3 5.9,9.6 0,-0.3 0,-0.7 -0.1,-0.9 -0.9,-3.701 0.1,-5.401 3.1,-5.101 0,2.7 -0.1,5.3 -0.5,7.9 0,0.1 -0.1,0.1 -0.5,0.1 0,0.3 -0.1,0.6 -0.3,0.7 -0.101,0.2 -0.3,0.3 -0.7,0.3 0,0.3 0,0.7 0,1 -0.4,2.8 0.3,3.5 2,2 2.1,-3.1 3.4,-2.3 3.6,2.1 0.4,5.2 1.801,7.801 4.4,7.9 0,-0.3 0,-0.6 0.2,-0.6 0.5,-0.2 1.2,-0.4 1.8,-0.4 0,2.3 0,4.7 0,7 0,0.3 0,0.7 0,1 2.2,3.8 3.8,8.2 4.9,13.1 1.3,6.2 3,8.9 5.1,7.9 l 0,-0.5 c 4.8,8.2 8.8,17.4 12,27.5 0,0.3 0,0.7 0,1 0.4,0 0.6,0 1,0 0,2.3 0,4.7 0,7 0,0.3 0,0.7 0,1 0.4,0 0.5,0 0.5,0.2 0.9,2.6 1.7,5.2 2.5,7.8 l 0.5,0 c -0.1,2.8 0.4,4.8 1.5,6 0,0.3 0,0.7 0,1 0,0.3 0,0.7 -0.1,1 -0.4,2.2 0,3.5 1.1,4 0.4,0 0.6,0 1,0 0,5.3 -0.1,10.7 -0.5,16 0,0 -0.1,0 -0.5,0 -1.1,1.8 -1.5,4.5 -1,8 0,0.3 0,0.7 0,1 -1.6,3.3 -3.3,6.7 -4.8,10.1 -0.2,0.301 -0.2,0.5 -0.2,0.9 -4.9,1.9 -9.3,1.6 -13.1,-0.8 -0.301,-0.2 -0.5,-0.2 -0.9,-0.2 -9.9,2.1 -19.6,4.4 -29,6.9 -0.4,0.1 -0.6,0.1 -1,0.1 -4.5,2.9 -9.1,5.5 -14.1,7.8 -0.301,0.2 -0.5,0.2 -0.9,0.2 -1.5,5.9 -4.8,10 -9.8,12.4 -0.2,0.1 -0.2,0.199 -0.2,0.6 -1.7,5.6 -2.9,11.6 -3.5,18 l 0.5,0 c 0.4,0 0.6,0.1 0.9,0.2 0.399,0.2 0.699,0.399 1.1,0.8 0,0.4 0,0.6 0,1 0.4,0 0.6,-0.1 1,-0.1 4.7,-1.2 8,-0.5 10,2.1 0.4,0 0.6,0.1 0.8,0.2 1.3,1 3.4,1.2 6.2,0.8 0,0.3 0,0.6 0,1 0.4,0.3 0.5,0.7 0.7,1.1 0.2,0.601 0.399,1 0.8,1.2 2.7,1.7 7.5,2.7 14.5,2.7 0.4,0 0.6,0 1,0 10.1,1.2 21.1,1.5 33,1 l 0,-0.5 c 2,1 4.4,1.8 7,2.5 0,1 0,2 0,3 0,0.3 0,0.7 0,1 0.4,0 0.6,0 1,0 0.4,0 0.6,0 1,0 0,-0.3 0,-0.5 0.1,-0.5 5.9,-1.1 11.9,-1.9 17.9,-2.5 0,-0.4 0,-0.5 0,-0.5 1.8,-0.1 3.1,-0.7 4,-1.5 0,-0.3 0,-0.5 0,-0.5 5.7,-0.3 11.4,-0.5 17,-0.5 0,-0.3 0,-0.5 0.2,-0.6 0.5,-0.2 1.2,-0.4 1.8,-0.4 0.4,0 0.6,0 1,0 2.4,0 4.6,0 7,0 0,-0.3 0.1,-0.6 0.2,-0.8 1.399,-1.3 3.7,-1.7 6.8,-1.2 0,-0.3 0,-0.6 0.2,-0.8 1.5,-2.8 3.5,-5.101 5.8,-7.2 0,-0.4 0,-0.6 0.1,-0.9 2.101,-5.199 3.801,-11 4.9,-17.1 0.4,0 0.5,-0.1 0.6,-0.3 1.7,-2.4 3.101,-5 4.4,-7.7 0,-0.4 0.1,-0.6 0.2,-0.8 1.399,-1.9 2.3,-4.3 2.8,-7.2 0,-0.4 0.1,-0.5 0.2,-0.7 1,-0.8 1.3,-2.2 0.8,-4.3 0,-0.4 0,-0.6 0.2,-0.9 1.5,-3.6 3.2,-3.699 4.8,-0.1 0,-0.4 0,-0.6 0,-1 0,-3.4 0,-6.7 0,-10 0,-0.3 0.1,-0.6 0.2,-0.8 0.5,-0.5 1.2,-0.9 1.8,-1.2 0,-0.3 0,-0.7 -0.1,-1 -0.5,-2.3 0.1,-3.3 2.1,-3 0,0.7 0,1.3 0,2 0,0.3 0,0.7 0,1 0.4,0 0.5,0 0.5,0.2 0.6,1.5 2.1,2.1 4.5,1.8 0,-0.3 0,-0.7 -0.1,-1 -0.9,-5.3 -0.2,-9 2.1,-11 0,0.7 0,1.3 0,2 0,0.3 0,0.7 0,1 0.4,0 0.6,0 0.9,-0.2 1.699,-0.8 2.8,-2.5 3.1,-4.8 0.4,0 0.6,0 1,0 2,0.3 2.6,-0.7 2,-3 -0.4,0 -0.6,-0.1 -0.8,-0.3 -0.101,-0.101 -0.2,-0.4 -0.2,-0.7 -1.1,-0.2 -1.3,-1.1 -0.5,-2.8 1.4,-2.7 2,-5.2 1.6,-7.2 l -0.1,-1.5 c 2.1,0.8 3.1,-0.3 3,-3.5 -2,-2 -1.4,-2.7 1.8,-2.1 l 0.2,0.1 c 3.4,-2.3 5.3999,-7.6 5.9999,-16 0,-0.3 0,-0.7 0.1,-1 0.601,-2 1.301,-4 1.9,-6 0,-0.3 0,-0.7 0,-1 0,-0.3 0,-0.7 0,-1 -1.1,0.1 -1.5,-0.6 -1.1,-2.1 0.1,-0.2 0.1,-0.601 0.1,-0.9 -0.4,0 -0.5,0 -0.5,-0.1 -0.2,-1.801 0,-3.5 0.5,-4.9 -1.1,0.1 -1.6,-0.6 -1.5,-2 l -0.4999,0 -0.5,0 c 1.4999,-2.8 2.9999,-5.6 4.4999,-8 0,-0.3 0,-0.7 0,-1 0,-2.6 0.7,-4.6 2,-6 -1.3,-0.1 -2.2,-0.4 -2.8,-1.2 -0.101,-0.2 -0.2,-0.5 -0.2,-0.8 l -0.5,0 c 1.1,-1.3 2,-2.9 2.5,-5 -0.4,-0.3 -0.5,-0.7 -0.5,-1.1 -0.1,-1.101 0.1,-1.301 0.6,-0.9 2.801,2.2 4,1.2 3.9,-3 -0.4,0 -0.6,-0.1 -0.8,-0.3 -0.101,-0.101 -0.2,-0.4 -0.2,-0.7 -1.4,-1.9 -2,-4.7 -2,-8 0,-0.3 0,-0.7 0,-1 0,-0.3 0.1,-0.6 0.2,-0.8 1,-1 1.3,-2.8 0.8,-5.2 -0.4,0 -0.5,-0.1 -0.7,-0.3 -2.899,-3.3 -2.1,-4.9 2.5,-4.7 -0.3,-0.1 -0.399,-0.1 -0.6,-0.3 -0.101,-0.101 -0.2,-0.4 -0.2,-0.7 l -0.5,0 c 0.2,-2.1 1,-3.8 2.5,-5 -0.6,-1 -1.3,-2.1 -1.8,-3.1 -0.2,-0.2 -0.2,-0.601 -0.2,-0.9 -0.4,0 -0.5,-0.1 -0.6,-0.3 -2.2,-3 -1.7,-4.5 1.6,-4.7 0,0.3 0,0.7 0,1 0.4,0 0.5,0.1 0.7,0.2 1,1.3 1.399,0.5 1.3,-2.2 -1.8,-0.6 -2.6,-1.8 -2.5,-3.9 0,-0.1 0.1,-0.1 0.5,-0.1 0,-0.3 -0.1,-0.6 -0.3,-0.8 -1.7,-2.101 -1,-3.2 2.3,-3.2 0,-0.3 0,-0.7 0,-1 0,-0.3 0,-0.7 0,-1 -1.4,-1 -2.3,-2.3 -2.9,-4.1 -0.1,-0.2 -0.1,-0.601 -0.1,-0.9 -3.7,-1.8 -4.5,-3.6 -2.3,-5.3 0.2,-0.101 0.3,-0.4 0.3,-0.7 0,-0.3 0,-0.7 0.2,-0.9 0.2,-0.399 0.399,-0.8 0.8,-1.1 -1.1,0.1 -1.5,-0.6 -1.1,-2.1 0.1,-0.2 0.1,-0.601 0.1,-0.9 0,-0.299 0,-0.7 0,-1 0,-0.9 0.3,-2.3 0.7,-4.2 0.2,-0.2 0.3,-0.5 0.3,-0.8 -0.1,0 -0.3,0 -0.4,-0.1 -0.1,0 -0.199,-0.101 -0.399,-0.2 -0.101,-0.101 -0.2,-0.4 -0.2,-0.7 -5.1,-3.4 -5.8,-5.4 -2,-5.9 0.4,-0.1 0.6,-0.1 1,-0.1 0,-0.3 0,-0.7 0,-1 0,-1 0,-2 0,-3 -0.4,0 -0.5,-0.1 -0.6,-0.3 -1.9,-2.7 -1.4,-4.3 1.6,-4.7 0,0.3 0,0.7 0,1 0.4,0 0.6,0.1 1,0.1 1.8,0.4 2.8,0.101 3,-1.1 -1.1,-0.6 -1.5,-1.8 -1.1,-4 0.1,-0.3 0.1,-0.7 0.1,-1 -0.4,0 -0.6,-0.1 -0.8,-0.3 -0.101,-0.101 -0.2,-0.3 -0.2,-0.7 -0.4,0 -0.5,-0.1 -0.5,-0.1 -1,-5.101 -0.1,-7 2.5,-5.9 0,0.6 0,1.4 0,2 0,0.4 0,0.6 0,1 0.4,0 0.6,0.1 0.8,0.2 1.7,1.399 3.4,2.6 5.2,3.8 0.4,0 0.6,0.1 0.7,0.2 1.1,1.1 1.5,0 1.3,-3.2 -0.4,0 -0.6,-0.1 -0.8,-0.3 -0.101,-0.101 -0.2,-0.3 -0.2,-0.7 -0.4,0 -0.5,0 -0.5,-0.1 -0.4,-3.301 0.1,-6 1.5,-7.9 -0.4,0 -0.6,-0.1 -0.8,-0.3 -0.101,-0.101 -0.2,-0.3 -0.2,-0.7 0,-0.4 0,-0.6 0.2,-0.6 2.3,-1.2 3.8,-3 4.8,-5.4 0,-0.4 0.1,-0.6 0.2,-0.8 0.899,-0.8 1.8,-1.601 2.8,-2.2 0,-0.4 0,-0.6 0.1,-1 0.801,-4.1 2.4,-3.1 4.9,3 0,0.4 0,0.6 0,1 0.4,0.4 0.5,0.7 0.6,1.1 l 0.4,1.4 c -0.1,-3.8 1.2,-6.6 4,-8.5 0,0.6 0,1.4 0,2 0,0.4 0,0.6 0,1 0.4,0 0.5,0 0.5,0.1 0.4,5.301 1.2,5 2.5,-1.1 l 0.5,0 c -0.1,2.1 0.4,3.4 1.5,4 l 0.5,0 c -0.5,-4.3 0.2,-6.9 2.5,-8 0,0.4 0,0.6 0,1 0.4,0 0.5,0.1 0.6,0.2 0.601,1.2 1.4,2.2 2.4,2.8 0.4,0 0.6,0 1,0 0,3 0,6 0,9 0,0.4 0,0.6 0,1 0.4,0 0.6,0 1,0 0,-0.4 0,-0.6 -0.1,-1 -0.7,-3.6 0.1,-6 2.1,-7 0,-0.4 0,-0.6 0,-1 0,-0.4 0,-0.6 0,-1 -0.4,0 -0.5,-0.1 -0.6,-0.2 -1.9,-3.2 -1.4,-4.2 1.6,-2.8 0,0.4 0,0.6 0,1 1.1,0.2 1.6,1.2 1.5,3.1 -0.8,9 -0.3,10.601 1.5,4.9 0,-0.4 0,-0.6 0.2,-0.6 0.5,-0.301 1.2,-0.4 1.8,-0.4 0,-0.4 0,-0.6 0.1,-1 0.4,-1.6 1.4,-2.6 2.9,-3 0,1.4 0,2.6 0,4 0,0.4 0,0.6 0,1 0,0.4 0,0.5 0.1,0.6 1.301,0.301 2.2,0.801 2.9,1.4 0,0.4 0,0.6 0,1 0.4,0 0.5,0.1 0.5,0.1 1,2.5 1.5,1.801 1.5,-2.1 -0.4,0 -0.6,-0.1 -0.8,-0.3 -0.101,-0.101 -0.2,-0.3 -0.2,-0.7 -0.4,0 -0.5,-0.1 -0.6,-0.3 -2.2,-3 -1.7,-4.601 1.6,-4.7 l 0,-0.5 c 4.2,2.8 5.6,2.3 4,-1.5 -0.6,-0.6 -1.3,-1.4 -1.9,-2.1 -2.6,-3.301 -2.6,-5.5 -0.1,-6.9 l 0.3,0.1 c 4.601,1.5 7.4,4.5 8.7,8.9 0.2,0 0.4,0 0.5,-0.1 l 0,0 c 1.2,-3.801 2.7,-3.7 4.5,0.1 0,0.4 0,0.6 0,1 0,0.4 0,0.6 -0.1,0.9 -0.4,1.5 0,2.199 1.1,2.1 0.4,0.4 0.5,0.7 0.7,1.1 l 0.2,0.5 0.1,0.4 c 0,-0.3 0,-0.4 0,-0.6 0.1,-3.2 1.5,-5.301 4,-6.4 0,0.6 0,1.4 0,2 0,0.4 0,0.6 0,1 0,0.4 0.1,0.6 0.2,0.7 0.2,0.2 0.399,0.3 0.8,0.3 0.401,0 0.5,0.1 0.7,0.2 2.399,3.2 4.2,5.5 5.3,6.8 0,-0.4 0.1,-0.6 0.2,-0.8 0.2,-0.101 0.399,-0.2 0.8,-0.2 0,-0.4 0,-0.6 -0.1,-1 -0.9,-4.6 -0.2,-7.6 2.1,-9 0,3.6 0,7.4 0,11 0,0.4 0,0.6 0,1 0.4,0 0.6,-0.1 1,-0.1 1.1,-0.5 1.5,-1.801 1,-3.9 l 0,-0.5 c 1.7,0.9 2.7,2.8 3,5.5 0,-0.4 0,-0.6 -0.1,-1 -0.5,-2.6 0.5,-3.6 3.1,-3 0,2 0,4 0,6 0,0.4 0,0.6 0,1 0.4,0 0.6,0.1 0.6,0.2 0.5,1 1.601,1.2 3.4,0.8 0,0.4 0,0.6 0,1 l 0.5,0 c -0.4,3.6 0.9,4.6 3.5,3 0,0.4 0,0.6 0,1 0,0.4 0.1,0.6 0.2,0.6 0.5,0.301 1.2,0.4 1.8,0.4 0,1.4 0,2.7 0,4 0,0.3 0,0.7 0,1 l 0.5,0 c -0.1,-1.8 0.4,-2.8 1.5,-3 0.4,0 0.6,0.1 0.7,0.2 1,1.1 2.1,2 3.3,2.8 0.4,0 0.5,0 0.5,0.1 0.2,3.101 1.1,3.301 2.5,0.9 0,-0.3 0.1,-0.7 0.2,-0.9 2.399,-4.699 5,-4 7.8,1.9 0,0.3 0,0.7 0,1 0.4,0 0.5,0.1 0.6,0.1 0.5,2.101 1.301,1.601 2.4,-1.1 0.4,0 0.6,-0.1 0.6,-0.2 1.601,-2.899 3.5,-1.5 5.4,4.2 0.4,0 0.6,0 1,0 0,2.3 0,4.7 0,7 0,0.3 0,0.7 0,1 0.4,0 0.6,0 1,0 0,4.3 0,8.7 0,13 0,0.3 0,0.7 0,1 0.4,0 0.6,0 1,0 0,0.3 0,0.7 0,1 0.4,0 0.6,0 1,0 0,4.7 -0.1,9.3 -0.5,13.9 0,0.1 -0.1,0.1 -0.5,0.1 -1.1,0.8 -1.3,2.5 -0.6,4.8 0.1,0.101 0.199,0.2 0.6,0.2 0.401,0 0.6,0 1,0 0,18.3 0,36.7 0,55 0,0.3 0,0.7 0,1 0.4,0 0.6,0.1 0.6,0.2 0.801,1.7 1.5,3.3 2.4,4.8 0,0.3 0,0.7 0,1 0.4,0 0.6,0 1,0 0,4.3 0,8.7 0,13 0,0.3 0,0.7 0,1 l 0.5,0 c -0.1,5.3 1.4,9 4.5,11 0,0.3 0.1,0.7 0.1,1 1,5.3 1.9,10.7 2.9,16 0.4,0 0.6,0.1 0.6,0.2 3.301,4.8 6.101,10 8.4,15.8 0.4,0 0.5,0 0.6,0.2 0.601,1.8 2.101,2.8 4.4,2.8 0,0.3 0.1,0.7 0.1,1 1,4.2 3,7.6 5.9,10 0,0.3 0.1,0.7 0.1,1 4.801,15.7 11.801,29.5 20.9,41 l 0,0.5 c 3.3,0.1 5.6,0.9 7,2.5 0,0.4 0,0.6 0,1 0.4,0 0.6,0 1,0 3.6,0 7.4,0 11,0 0,-0.4 0.1,-0.6 0.2,-0.6 2,-1.5 4.899,-1.9 8.8,-1.4 0,-0.4 0.1,-0.6 0.2,-0.8 0.199,-0.101 0.399,-0.2 0.8,-0.2 0,-0.4 0.1,-0.6 0.2,-0.6 2.1,-1.4 4,-1.5 5.8,-0.4 0,0.4 0,0.6 0,1 0.399,0 0.5,-0.1 0.6,-0.1 0.5,-1.4 1.601,-2 3.4,-1.9 0.399,0 0.6,0 1,0 4,0 8,0 12,0 0.399,0 0.6,-0.1 0.8,-0.3 2.9,-2.3 5.9,-4.601 9.2,-6.7 -0.4,0 -0.601,0 -1,0 l -0.5,0 c 0.1,-1.5 0.899,-2.5 2.5,-3 -2.3,-0.8 -3.8,-2.1 -4.5,-4 l 0.5,0 c 1,0 1.6,-0.1 1.6,-0.4 0.5,-1.6 0.8,-2.1 1,-1.8 1.101,1.9 2.8,3.2 5.2,3.8 3.6,1.101 6.1,3.5 7.2,7.4 0.399,0 0.6,0 0.899,0.1 3.8,1.3 7.2,2.9 10.1,4.9 0,0.6 0,1.4 0,2 0,0.4 0,0.6 0,1 0.399,0 0.6,0 1,0 2,0 4,0 6,0 0,0.4 0,0.6 0,1 0,0.4 0,0.6 0,1 0.399,0 0.6,0.1 0.899,0.2 12.7,6.899 26.5,12.7 41.101,17.8 0,0.3 0,0.7 0,1 0.399,0 0.6,0 1,0 2.6,0 5.399,0 8,0 0,0.3 0,0.7 0,1 0,0.3 0.1,0.5 0.1,0.5 1.3,0.3 2.5,0.5 3.90004,0.5 0,0.4 0,0.6 0,1 0,0.4 0,0.6 0,1 0.399,0 0.6,0 0.899,-0.2 3,-1.3 6.7,-1.8 11.101,-1.8 0,-0.3 0.1,-0.5 0.1,-0.5 6.601,-1.3 11.9,-3.8 15.9,-7.5 0,-0.4 0.1,-0.5 0.1,-0.5 2.601,-0.6 4.601,-1.8 5.9,-3.5 0.3,0 0.6,-0.1 0.7,-0.3 6,-5.3 12,-10.601 18.3,-15.7 0,-0.4 0,-0.6 0.1,-1 0.2,-2 0.601,-4 0.9,-6 0.3,0 0.6,-0.1 0.7,-0.3 2.199,-2.7 4,-6 5.3,-9.7 0,-0.4 0,-0.6 0,-1 0.2,-5.5 1.2,-10.1 3,-14 0,0.4 0,0.6 0,1 l 0.5,0 c -0.2,2.8 0.3,4.8 1.5,6 0,-0.4 -0.101,-0.6 -0.101,-1 -1,-4 0,-6 3.101,-6 0,-0.3 0,-0.7 -0.101,-1 -0.399,-3.8 -0.1,-6.8 1.101,-9 0.3,0 0.7,0 1,0 0.3,0 0.5,0 0.5,0 0.3,4.3 1.2,4.3 2.5,0 0,-0.3 0.1,-0.6 0.2,-0.8 0.199,-0.101 0.5,-0.2 0.8,-0.2 0,-0.3 0,-0.7 0,-1 0,-3.3 0,-6.7 0,-10 l 0,-0.5 c 2.899,0 3.899,-1.8 3,-5.5 -0.3,0 -0.601,0 -0.601,-0.2 -0.699,-1.3 -0.5,-1.8 0.601,-1.8 0,-0.3 0,-0.7 0,-1 -0.101,-4 1.2,-6.8 4,-8 0,-0.3 0,-0.7 0,-1 0,-1.7 0,-3.3 0,-5 0,-0.3 0.1,-0.6 0.2,-0.6 0.5,-0.2 0.8,-0.5 0.899,-0.601 0.8,-4.6 2.101,-8.6 3.9,-11.8 0,0.3 0,0.7 0,1 0.3,0 0.6,0.1 0.7,0.2 0.199,0.5 1.399,-1.3 3.3,-5.2 0,-0.3 0.1,-0.7 0.2,-1 0.899,-2.6 2.5,-4.6 4.8,-6 0,-0.3 0,-0.7 -0.101,-1 -0.898,-5.899 -0.198,-10.299 2.102,-12.999 0,1.3 0,2.7 0,4 0,0.3 0,0.7 0,1 l 0,0.5 c 3.2,-6.5 5.6,-13.3 7,-20.5 0,-0.3 0.1,-0.6 0.2,-0.7 2.1,-1.3 3.699,-3.1 4.8,-5.3 0,-0.3 0.1,-0.6 0.2,-0.8 3.399,-4 5.6,-9 6.8,-15.2 -0.3,0 -0.601,-0.1 -0.601,-0.2 -1.5,-3.399 -0.899,-6.6 1.601,-9.8 0,-0.3 0.1,-0.6 0.2,-0.8 0.199,-0.101 0.5,-0.2 0.8,-0.2 0,-0.3 -0.101,-0.6 -0.3,-0.8 -2.7,-2.9 -2,-4.3 2.3,-4.2 0,2.7 0,5.3 0,8 0,0.3 0,0.7 0,1 0.3,0 0.6,0.1 0.7,0.2 1.699,2 2.5,5 2.3,8.8 0.3,0 0.6,0.1 0.7,0.2 3.8,6.6 6.6,12.5 8.3,17.8 l 0.5,0 c -0.2,2.8 0.3,4.8 1.5,6 0,0.3 0,0.7 0,1 0,0.3 0.1,0.7 0.1,1 0.8,3.8 1.7,7.4 2.9,11 l 0.5,0 c -0.2,3.5 0.3,6.2 1.5,8 0,0.3 0,0.7 0,1 0,0.3 0,0.7 -0.101,1 -0.399,2.8 -0.1,4.8 1.101,6 l 0.5,0 c -0.4,4.8 0.3,8.2 2.5,10 0,0.3 0,0.7 0,1 0,0.3 0.1,0.7 0.1,1 1.101,6.2 3.4,11.2 6.9,15 -0.101,3.7 -2.101,5.3 -6,5 -0.3,0 -0.7,0 -1,0 -0.8,2.2 -3.101,2.7 -6.8,1.5 -0.101,0 -0.2,-0.2 -0.2,-0.5 -3.4,-1.6 -6.8,-1.7 -10.101,-0.2 -0.199,0.2 -0.599,0.2 -0.899,0.2 -5.7,1 -9.3,4.2 -10.9,9.7 -0.1,0.2 -0.399,0.5 -0.899,0.7 -0.801,0.399 -1.5,0.899 -2.2,1.6 -0.5,2.2 -1,4.5 -1.5,6.9 0,0.1 -0.2,0.1 -0.5,0.1 0,0.3 -0.101,0.6 -0.3,0.7 -0.101,0.2 -0.4,0.3 -0.7,0.3 0,4.3 0,8.7 0,13 0,0.4 0,0.6 0,1 0.3,0 0.6,0 0.6,0.2 2.5,4.3 5.601,7.899 9.4,10.8 0.3,0 0.7,0 1,0.1 4,0.601 8,1.301 12,1.9 0,0.4 0,0.6 0,1 0.3,0 0.7,0 1,0 2,0 4,0 6,0 0,0.4 0,0.6 0,1 0,0.4 0,0.6 0,1 0.3,0 0.7,0 0.899,0.2 4.601,2.3 9.9,3.899 16.101,4.8 0,0.4 0,0.6 0,1 0.3,0 0.6,0.1 0.8,0.2 1.4,1 3.4,1.3 6.2,0.8 0,-0.4 0,-0.5 0.2,-0.6 1.699,-1.101 3.6,-1.9 5.8,-2.4 0,-0.4 0,-0.5 0,-0.5 2.7,-0.4 5.3,-0.5 8,-0.5 0,-0.4 0.1,-0.5 0.2,-0.7 1.5,-1.3 3.8,-1.7 6.8,-1.3 0,0.4 0,0.6 0,1 0.3,0 0.7,0 1,0 0,-0.4 0,-0.5 0.2,-0.6 2.5,-1.4 5.699,-1.801 9.8,-1.4 0,-0.4 0,-0.5 0.2,-0.6 1.8,-1.101 3.6,-1.9 5.8,-2.4 l 0,-0.5 c 3,0 5.3,-0.5 7,-1.5 0.3,0 0.7,0 0.899,-0.2 5.2,-3 11,-5.6 17.101,-7.8 0,-0.4 0,-0.6 0.2,-0.9 1.8,-3.8 3.8,-7.5 5.8,-11.1 0,-0.3 0,-0.7 -0.101,-1 -0.8,-3.5 0,-5.5 2.101,-6 0,-0.3 0,-0.7 0.1,-1 0.9,-2.8 1.4,-5.8 1.9,-9 0,-0.3 0.1,-0.6 0.2,-0.8 1.5,-1.9 3.1,-3.5 4.8,-5.2 0,-0.3 0.1,-0.7 0.1,-1 1.9,-6.1 3.8,-12.1 5.9,-18 0,-0.3 0.1,-0.6 0.2,-0.8 2.69897,-3.7 3.59997,-9 2.79997,-16.2 0,-0.3 0,-0.7 0,-1 -2.10097,0.1 -2.79997,-1.3 -2.10097,-4.1 0,-0.2 0.101,-0.601 0.101,-0.9 -2.3,-1.8 -2.9,-5.1 -2.101,-10 0,-0.3 0.101,-0.7 0.101,-1 -0.4,0 -0.601,0 -1,0 -0.601,-2.7 -1.3,-5.3 -1.9,-8 0,-0.3 -0.1,-0.7 -0.1,-1 0,-0.3 0,-0.7 0,-1 0,-2 0,-4 0,-6 -2.101,-1.6 -2.8,-4.6 -2.101,-9 0.101,-0.3 0.101,-0.7 0.101,-1 -2.101,-0.5 -2.9,-2.5 -2.101,-6 0.101,-0.3 0.101,-0.7 0.101,-1 -2.3,-3.8 -4.2,-7.8 -5.9,-12.1 -0.1,-0.2 -0.1,-0.601 -0.1,-0.9 l -0.5,0 c 1.1,-1.3 2,-2.9 2.5,-5 -2.601,0.6 -3.5,-0.3 -2.5,-2.8 0,-0.101 0.1,-0.2 0.5,-0.2 0,-0.3 0.1,-0.6 0.2,-0.8 0.199,-0.101 0.399,-0.2 0.8,-0.2 0,-0.3 0,-0.7 0,-1 0,-0.3 0,-0.7 0,-1 -1.4,-1 -2.3,-2.3 -2.9,-4.1 -0.1,-0.2 -0.1,-0.601 -0.1,-0.9 0,-0.299 0,-0.7 0,-1 0,-0.7 0,-1.3 0,-2 -1.3,-0.1 -2.2,-0.4 -2.8,-1.2 -0.101,-0.2 -0.2,-0.5 -0.2,-0.8 -1.101,-2.8 -2.4,-5.6 -3.8,-8.1 -0.2,-0.2 -0.2,-0.601 -0.2,-0.9 0,-0.299 0,-0.7 0,-1 -0.3,-5.1 1.7,-7.8 6,-8 0,0.3 0,0.7 0,1 0.399,0 0.5,0.1 0.5,0.2 1,2.5 1.5,1.7 1.5,-2.2 -0.4,-0.3 -0.601,-0.7 -0.8,-1.1 -0.2,-0.2 -0.2,-0.601 -0.2,-0.9 0,-0.299 0,-0.5 0.1,-0.6 2.101,-0.5 3.4,-1.601 3.9,-3.4 l -0.5,0 c 0.5,-2.6 2.6,-4.6 6.5,-6 -0.4,-0.3 -0.7,-0.6 -1.101,-0.8 -0.3,-0.101 -0.5,-0.2 -0.899,-0.2 -3.4,-0.8 -4,-2.8 -2.2,-6.1 0.2,-0.2 0.2,-0.601 0.2,-0.9 -1.101,0.1 -1.5,-0.6 -1.101,-2.1 0.1,-0.2 0.1,-0.6 0.1,-0.9 l 0,-0.5 c 3.899,0.2 5.899,-1.3 6,-4.5 -0.601,0 -1.3,-0.1 -1.8,-0.4 -0.2,0 -0.2,-0.199 -0.2,-0.6 -0.4,0 -0.5,0 -0.5,-0.1 -0.2,-3.2 1.3,-3.801 4.5,-1.9 0,0.4 0,0.6 0,1 0.399,0 0.6,0 1,0.1 4.89897,0.5 7.59997,-1.899 7.99997,-7.1 -0.4,0 -0.601,-0.1 -0.8,-0.3 -0.101,-0.101 -0.2,-0.3 -0.2,-0.7 -1.8,-1.6 -2.9,-3.6 -3.49997,-6 l 0.49997,0 c 0,-0.4 0,-0.6 0,-1 0,-0.6 0,-1.4 0,-2 -0.39997,0 -0.60097,-0.1 -0.79997,-0.3 -0.101,-0.101 -0.2,-0.3 -0.2,-0.7 -0.4,0 -0.601,-0.1 -1,-0.1 -5.101,-0.801 -4.9,-1.5 1,-1.9 0,-0.4 -0.101,-0.6 -0.101,-0.9 -0.3,-1.5 0,-2.199 1.10097,-2.1 l 0,-0.5 c 1.399,0.1 2.1,-0.4 2,-1.5 -3.10097,0.1 -3.89997,-0.9 -2.29997,-3.1 0.199,-0.301 0.29997,-0.5 0.29997,-0.9 l -0.49997,0 c 0.399,-0.9 0.59997,-2.1 0.49997,-4 -0.39997,0 -0.60097,-0.1 -0.79997,-0.3 -0.101,-0.101 -0.2,-0.3 -0.2,-0.7 -5.101,-0.9 -6.101,-2.4 -3,-4.5 l 0,0.5 c 0.399,0 0.6,-0.1 0.899,-0.1 2.2,-0.5 3.19997,-2.2 3.10097,-4.9 -3.10097,0.4 -4.29997,-0.9 -3.60097,-3.9 0.101,0 0.2,-0.1 0.601,-0.1 0,-0.4 0.1,-0.6 0.2,-0.6 2.5,-1.301 5.49997,-2 8.79997,-2.4 0,-0.4 -0.101,-0.6 -0.2,-0.9 -1.2,-2.1 -1.2,-4.5 0.2,-7.1 -1.7,-0.3 -2.2,-1.6 -1.601,-3.9 0.101,0 0.2,-0.1 0.601,-0.1 0,-0.4 0.1,-0.6 0.2,-0.7 1,-0.7 1.199,-2.2 0.8,-4.3 -0.4,0 -0.601,-0.1 -0.8,-0.3 -0.101,-0.101 -0.2,-0.3 -0.2,-0.7 -0.4,0 -0.5,0 -0.5,-0.1 -0.4,-3.301 0.399,-5.7 2.5,-6.9 -0.4,0 -0.601,-0.1 -0.601,-0.2 -1,-1.7 0,-3.399 2.601,-4.8 -0.8,-2.1 -2.101,-3.9 -3.8,-5.3 -0.101,-0.101 -0.2,-0.3 -0.2,-0.7 -0.4,0 -0.5,-0.1 -0.5,-0.1 -0.4,-2 0.1,-3.301 1.5,-3.9 -0.4,0 -0.601,-0.1 -0.8,-0.3 -0.101,-0.101 -0.2,-0.3 -0.2,-0.7 0,-0.4 0.1,-0.6 0.2,-0.9 0.199,-0.399 0.399,-0.699 0.8,-1.1 0,-0.4 0.1,-0.6 0.1,-1 0.3,-1.4 0.5,-2.6 0.9,-4 -0.4,0 -0.601,-0.1 -0.601,-0.2 -2.8,-5 -1.899,-7.899 2.601,-8.8 -1.101,-0.2 -1.601,-1.2 -1.5,-3 l -0.5,0 c -0.4,0 -0.5,-0.1 -0.601,-0.1 -0.699,-2.4 -0.5,-4 0.601,-4.9 0,-0.4 0,-0.6 0,-1 0,-0.4 0,-0.6 0,-1 -0.4,0 -0.5,-0.1 -0.601,-0.1 -1,-3.101 -0.199,-4.301 2.601,-3.9 0,-0.4 0,-0.6 0,-1 -1.8,-0.6 -2.601,-1.9 -2.5,-3.9 0,-0.1 0.1,-0.1 0.5,-0.1 0,-0.4 0.1,-0.6 0.1,-0.9 0.8,-1.899 1.7,-3.6 2.9,-5.1 0,-0.4 0.1,-0.6 0.2,-0.8 0.899,-0.8 1.8,-1.601 2.8,-2.2 0,-0.4 0,-0.6 -0.101,-1 -0.3,-4.4 0.7,-7.4 3.101,-9 0,-0.4 0.1,-0.6 0.2,-0.7 1,-0.7 1.3,-2.2 0.8,-4.3 0,-0.4 0,-0.6 0.2,-0.9 0.5,-2.1 1.1,-4.1 1.8,-6.1 0,-0.4 0.1,-0.6 0.2,-0.8 0.199,-0.1 0.5,-0.2 0.8,-0.2 0,-0.4 0,-0.6 -0.101,-0.9 -1.399,-5.5 0.101,-8.2 4.101,-8.1 0,-0.4 0,-0.6 0,-1 0,-5.4 0,-10.6 0,-16 -0.3,0 -0.601,-0.1 -0.8,-0.3 -2.101,-1.8 -1.801,-3 0.8,-3.7 0,-0.4 0,-0.6 0,-1 0,-1.4 0,-2.6 0,-4 -1.7,-0.9 -2.7,-2.6 -3,-5 0,-0.4 0,-0.6 0,-1 -0.601,-2 -1.3,-4 -1.8,-6.1 -0.2,-0.3 -0.2,-0.5 -0.2,-0.9 0,-0.4 0.1,-0.6 0.2,-0.8 1.699,-1.6 2.6,-4.1 2.8,-7.2 -0.4,0 -0.601,-0.1 -0.8,-0.3 -0.101,-0.1 -0.2,-0.3 -0.2,-0.7 -0.601,-2.7 -1.9,-4.8 -3.8,-6.3 -0.101,-0.1 -0.2,-0.3 -0.2,-0.7 0,-0.4 0,-0.6 0,-1 0,-1.6 0,-3.4 0,-5 -2.4,-1.2 -3.7,-3.6 -3.5,-7 l 0.5,0 c 0,-0.4 0.1,-0.6 0.2,-0.7 1,-0.7 1.199,-2.2 0.8,-4.3 -3.9,-3.4 -5.9,-7.1 -6,-11 0,-0.4 0,-0.6 0,-1 -1.601,-1.8 -2.9,-3.8 -3.8,-6.1 -0.101,-0.3 -0.2,-0.5 -0.2,-0.9 -2.3,-4.1 -5.10097,-7.5 -8.79997,-10.3 -0.101,-0.2 -0.2,-0.3 -0.2,-0.7 -0.4,-6.6 -3.8,-12.1 -10,-16.5 -2,-1.3 -4,-2.9 -5.9,-4.5 -3.2,-2.9 -5.899,-6.2 -8.1,-10 -0.7,-3 -2.3,-5.1 -4.8,-6.4 -0.2,-0.1 -0.2,-0.2 -0.2,-0.6 -2.4,-2.6 -5.4,-4.8 -8.8,-6.4 -0.2,-0.1 -0.2,-0.2 -0.2,-0.6 -0.3,0 -0.7,0 -1,-0.1 -2,-0.5 -1.7,-1.9 1,-3.9 -1.3,-0.4 -2.3,-1 -2.8,-2.1 -0.2,-0.3 -0.2,-0.5 -0.2,-0.9 -2.8,-1.1 -5.101,-2.9 -6.8,-5.2 -0.101,-0.2 -0.2,-0.4 -0.2,-0.8 0,-0.4 0,-0.6 0,-1 -4.5,-0.1 -4.9,-1.3 -1.2,-3.4 0.2,-0.1 0.2,-0.2 0.2,-0.6 -2.8,-0.5 -5.3,-1.4 -7.8,-2.4 -0.2,-0.1 -0.2,-0.2 -0.2,-0.6 -1.5,-2.5 -3.8,-4.4 -6.8,-5.5 -0.2,0 -0.2,-0.1 -0.2,-0.5 0,-0.4 0,-0.6 0,-1 -5.3,-3.1 -10,-6.7 -14.2,-10.9 -2.1,-2.1 -2,-4.1 0.2,-6.1 -2.2,-0.5 -4.101,-1.3 -5.8,-2.4 -0.2,-0.1 -0.2,-0.2 -0.2,-0.6 -8.5,-0.1 -14.101,-3.2 -16.8,-9.1 -0.101,-0.3 -0.2,-0.5 -0.2,-0.9 -3,0 -6,-0.1 -8.9,-0.5 -0.1,0 -0.1,-0.1 -0.1,-0.5 0,-0.4 0,-0.6 0,-1 -4.101,-1 -7.2,-2.9 -9.3,-5.8 -2,-2.9 -4.601,-5.3 -7.7,-7.2 -3.8,-0.1 -6.7,-1 -8.8,-2.5 -0.101,0 -0.101,0 -0.101,0 l -0.1,-0.1 c -0.2,-0.2 -0.3,-0.3 -0.5,-0.4 l 0.5,0 c 0.3,0 0.7,0 1,0 1.899,0.3 2.6,-0.8 2,-3 -1,0 -1.9,-0.1 -2.8,-0.5 -0.101,0 -0.2,-0.1 -0.2,-0.5 -2.3,-1 -5.3,-1.5 -9,-1.5 l 0,-0.5 c -2.8,-0.1 -4.7,-1.1 -5.5,-3 l 0.5,0 c 0.3,0 0.6,0 0.6,-0.2 0.2,-0.6 0.4,-1.2 0.4,-1.8 -0.7,0 -1.3,0 -2,0 -0.3,0 -0.7,0 -1,0 -1.8,-1.5 -3.8,-2.9 -5.8,-4.4 -0.101,-0.1 -0.2,-0.2 -0.2,-0.6 -3.8,0.5 -6.8,0 -8.8,-1.4 -0.101,-0.1 -0.2,-0.2 -0.2,-0.6 -0.3,0 -0.7,0 -1,0 -5.8,1.2 -6.8,0.1 -3.3,-3.3 0.199,-0.1 0.3,-0.3 0.3,-0.7 -0.3,0 -0.601,-0.1 -0.8,-0.3 -0.101,-0.1 -0.2,-0.3 -0.2,-0.7 -5.2,-0.3 -9.2,-0.5 -12,-0.5 l 0,-0.5 c -1,-2 -3,-3 -6,-3 -0.3,0 -0.7,0 -1,0 -1.3,-2 -3.7,-3.1 -6.9,-3.5 -0.1,0 -0.1,-0.1 -0.1,-0.5 -2.7,-2 -6.3,-3 -11,-3 -0.3,0 -0.7,0 -1,0 -0.3,0 -0.5,0 -0.601,-0.1 -0.199,-1.3 -0.1,-2.2 0.601,-2.9 -2,0 -3.9,-0.1 -5.9,-0.5 0,0 -0.1,-0.1 -0.1,-0.5 -3.3,-0.6 -6.601,-1.5 -9.8,-2.5 -0.101,0 -0.2,-0.1 -0.2,-0.5 -2,0 -3.9,-0.1 -5.9,-0.5 0,0 -0.1,-0.1 -0.1,-0.5 -6.101,0.5 -11.4,0 -15.90004,-1.5 0,0 -0.1,-0.1 -0.1,-0.5 -4.3,-3.5 -9.3,-4.5 -15.101,-3.1 -0.298,0.1 -0.499,0.1 -0.898,0.1 -1.9,-1.8 -5.3,-2.1 -10,-1.1 -0.4,0.1 -0.601,0.1 -1,0.1 -7.3,0 -12.4,-0.5 -15.2,-1.3 -5.6,-1.6 -10.2,-2.5 -13.8,-2.7 -2.101,-0.5 -4.101,-1.3 -5.8,-2.4 -0.1,-0.1 -0.2,-0.2 -0.2,-0.6 -0.4,0 -0.601,0 -1,0 -0.4,0 -0.601,0 -1,0 0,0.4 0,0.6 0,1 -1.9,1.1 -4.5,1.4 -7.9,0.5 0,0 -0.1,-0.1 -0.1,-0.5 0,-0.4 0,-0.6 0,-1 -0.4,0 -0.601,0 -1,0 -0.4,0 -0.601,0 -1,0 -4.9,4.1 -7.5,4.5 -7.9,1 -0.1,-0.4 -0.1,-0.6 -0.1,-1 -0.601,0 -1.4,0 -2,0 -0.4,0 -0.601,0 -1,0 -2.3,4.1 -3.9,4.5 -4.9,1 0,-0.4 -0.1,-0.6 -0.1,-1 -0.4,0 -0.601,0 -1,0 -0.4,0 -0.601,0 -1,0 -1.2,2.6 -3.101,2.9 -5.8,0.7 -0.1,-0.2 -0.2,-0.3 -0.2,-0.7 -2.4,0 -4.601,0 -7,0 -0.4,0 -0.601,0 -1,0 -0.5,2.1 -2.5,2.9 -6,2.1 -0.4,-0.1 -0.601,-0.1 -1,-0.1 -0.2,2.1 -1.8,2.6 -4.9,1.5 0,0 -0.1,-0.1 -0.1,-0.5 -4.9,-1.1 -10.6,-1.5 -17,-1 -0.4,0 -0.6,0 -1,0 -0.9,1.7 -2.6,2.7 -5,3 -0.4,0 -0.6,0 -1,0 -2,0.6 -4,1.3 -6.1,1.9 -0.3,0.1 -0.5,0.1 -0.9,0.1 -7.1,-0.4 -12.4,0.9 -16.2,3.7 -0.2,0.2 -0.399,0.3 -0.8,0.3 -1.6,1.7 -3.9,2.7 -7,3 -0.4,0 -0.6,0 -1,0 -1.6,0.6 -3.4,1.3 -5.1,1.9 -0.3,0.1 -0.5,0.1 -0.9,0.1 -2,3.1 -3.9,3.1 -5.5,0 l 0.5,0 c 0.4,0 0.6,0 0.6,-0.2 0.301,-0.6 0.4,-1.2 0.4,-1.8 -4.9,1.8 -9.3,4 -13.1,6.7 -0.301,0.2 -0.5,0.3 -0.9,0.3 -4.4,-0.4 -8.8,0.9 -13.1,3.7 -0.301,0.2 -0.5,0.3 -0.9,0.3 -0.8,2.2 -3.1,2.7 -6.9,1.5 0,0 -0.1,-0.1 -0.1,-0.5 0,-0.4 0,-0.6 0,-1 -5.4,0.5 -11.4,2.3 -17.8,5.4 -0.2,0.1 -0.2,0.2 -0.2,0.6 -3.9,0.8 -7.2,2 -10.1,3.8 -0.3,0.2 -0.5,0.2 -0.9,0.2 -1.1,0 -1.6,0.6 -1.5,2 l -0.5,0 c -5,1 -5.6,0.1 -1.8,-2.8 0.2,-0.1 0.399,-0.2 0.8,-0.2 0,-0.4 0,-0.6 0,-1 -0.9,-0.8 -2.2,-1.1 -4,-1 -0.4,0 -0.6,0 -1,0 -1.6,1.7 -3.4,3.3 -5.2,4.7 -0.2,0.2 -0.399,0.3 -0.8,0.3 -2,0 -4,0 -6,0 -0.4,0 -0.6,0 -1,0 -1.9,2.5 -4.9,3.8 -9,4 -0.4,0 -0.6,0 -1,0 -1,2.7 -2.6,3.3 -4.8,1.7 -0.101,-0.2 -0.2,-0.3 -0.2,-0.7 -3.5,-1.3 -6.5,-0.7 -9.3,1.7 -0.101,0.2 -0.3,0.3 -0.7,0.3 -4.3,4.7 -8.1,6.2 -11.8,4.6 -0.2,-0.1 -0.2,-0.2 -0.2,-0.6 6,-3.4 5.6,-3.8 -1,-1.1 -0.4,0.1 -0.6,0.1 -1,0.1 -2.9,1.1 -5.5,2.4 -8.1,3.8 -0.3,0.2 -0.5,0.2 -0.9,0.2 -1.9,-0.1 -3.5,-0.3 -5,-0.5 l 0,0.5 c -3.5,1.1 -7.9,1.5 -13,1 -0.4,0 -0.6,0 -1,0 -1.6,1.6 -2.3,0.6 -2,-3 0,-0.4 0,-0.6 0,-1 -3.9999,0 -7.9999,-0.1 -11.9999,-0.5 0,0 0,-0.1 0,-0.5 -5.9,-4.4 -11.2,-5.4 -16.1,-3.2 -0.3,0.2 -0.5,0.2 -0.9,0.2 -2.4,0.6 -3.5,-0.4 -3.5,-3 l 0.5,0 c 0,-0.4 0,-0.6 0,-1 0,-0.4 0,-0.6 0,-1 -2.3,0.7 -4.4,1.6 -6.1,2.7 -0.301,0.2 -0.5,0.3 -0.9,0.3 -1.8,0.5 -2.8,0.1 -3,-1 0,-0.4 0,-0.6 0,-1 -2,1 -3.2,1 -3.8,-0.1 -0.2,-0.3 -0.2,-0.5 -0.2,-0.9 -2.6,1.6 -4.9,1.9 -6.8,0.6 -0.101,-0.1 -0.2,-0.2 -0.2,-0.6 -1.9,0.1 -3.1,-0.3 -3.8,-1.2 -0.101,-0.2 -0.2,-0.4 -0.2,-0.8 -5.4,1.6 -11.4,2.6 -18,3 -0.4,0 -0.6,0 -1,0 -1.6,1 -3.7,1.1 -6,0.1 -0.4,-0.1 -0.6,-0.1 -1,-0.1 -0.6,0.6 -1.4,1.2 -2.1,1.7 -0.301,0.2 -0.5,0.3 -0.9,0.3 -2.4,-0.9 -4.8,-0.3 -7.2,1.7 -0.2,0.2 -0.399,0.3 -0.8,0.3 -2.5,-2.1 -4.6,-2.6 -6.3,-1.4 -2.4,2 -5.3,3.3 -8.7,3.8 -2.6,0.5 -5.6,1 -9,1.6 -1.6,1.7 -3.4,3.3 -5.2,4.7 -0.2,0.2 -0.399,0.3 -0.8,0.3 -1,0 -2,0 -3,0 -0.4,0 -0.6,0 -1,0 -2.3,-0.6 -4.3,-0.7 -6,-0.1 -0.4,0.1 -0.6,0.1 -1,0.1 -1.1,0 -1.6,0.6 -1.5,2 l -0.5,0 c -0.6,3.5 -2,4.5 -4.1,3.2 -0.3,-0.2 -0.5,-0.2 -0.9,-0.2 0,0.4 -0.1,0.6 -0.3,0.7 -0.101,0.2 -0.3,0.3 -0.7,0.3 -2.5,-0.1 -4.8,0.7 -7,2.5 l 0,-0.5 c -3.5,-0.5 -7.2,0.5 -11.1,2.8 -0.3,0.2 -0.5,0.2 -0.9,0.2 -1.4,1.1 -3,1.5 -5,1.1 -0.4,-0.1 -0.6,-0.1 -1,-0.1 -3.5,1.6 -7.5,2.6 -11.9,3 -0.1,0 -0.199,0 -0.399,0.1 -1.601,0.4 -2.8,1.1 -3.7,1.9 -5.3,0.7 -10.3,1.5 -15,2.5 l 0,-0.5 c -1.3,-0.6 -3,-0.4 -5.1,0.8 -0.301,0.2 -0.501,0.2 -0.901,0.2 -1.6,1.7 -3.4,2.1 -5.1,1.2 -0.3,-0.2 -0.5,-0.2 -0.9,-0.2 -0.4,0 -0.6,0 -1,0 -0.4,0 -0.6,0 -1,0 -2.8,-0.5 -5.4,-1.4 -7.8,-2.4 -0.2,-0.1 -0.2,-0.2 -0.2,-0.6 -5.6,0 -11.3,-0.1 -17,-0.5 0,0 0,-0.1 0,-0.5 -1.4,-1 -3.3,-1.1 -5.9001,-0.5 -0.1,0 -0.1,0.1 -0.1,0.5 -2.9,1.1 -6.5,1.5 -11,1 -0.4,0 -0.6,0 -1,0 -2.5,1.7 -5.9,2.7 -10,3 -0.4,0 -0.6,0 -1,0 -11,0.6 -22,1.3 -33,2 -0.4,0 -0.6,0 -1,0 -0.4,0 -0.6,0 -1,0 -0.4,0 -0.6,0 -1,0 -3.9,0.9 -7.9,1.5 -12,2 -0.4,0 -0.6,0 -1,0 -1.8,2.2 -4.1,3.9 -7,4.9 -0.4,0.1 -0.6,0.1 -1,0.1 -2.5,-0.1 -4,0.8 -4.5,2.9 0,0.1 -0.1,0.1 -0.5,0.1 -2.4,1.6 -4.6,1.5 -6.8,-0.3 -0.1,-0.2 -0.2,-0.3 -0.2,-0.7 -4.1,-2.9 -8.2,-5.8 -12.2,-8.8 -0.2,-0.1 -0.4,-0.2 -0.8,-0.2 -3.7,-1.6 -7.4,-1.6 -11,-0.1 -0.4,0.1 -0.6,0.1 -1,0.1 -5.4,1.6 -6.9,6.2 -4.5,13.9 z M 723.99999,596.5 c 0,2.4 0,4.6 0,7 0,0.4 0,0.6 0,1 0,0.4 0,0.6 0.1,1 0.601,5.7 2,10.7 3.9,15 -0.4,1.3 -0.5,2.7 -0.5,4 l 0.5,0 0.5,0 c -0.101,2.8 0.399,4.8 1.5,6 0,0.3 0,0.7 0,1 0,0.3 0,0.7 -0.101,1 0,1.8 0.7,2.8 2.101,3 0.399,0 0.6,0 1,0 0,6 0,12 0,18 0,0.3 0,0.7 0,1 0.399,0 0.6,0 1,0 0,3 -0.101,6 -0.5,8.9 0,0.1 -0.101,0.1 -0.5,0.1 -1.101,1.5 -1.4,3.8 -0.601,6.9 0.101,0 0.2,0.1 0.601,0.1 0.399,0 0.6,0 1,0 0,11.7 -0.101,23.3 -0.5,35 l -0.5,0 c 0,16.7 -0.101,33.3 -0.5,50 l -0.5,0 c -0.4,0.3 -0.601,0.7 -0.8,1.1 -0.101,0.2 -0.2,0.601 -0.2,0.9 0,3.3 -0.101,6.7 -0.5,10 0,0 -0.101,0 -0.5,0 -0.3,3 -1.2,5.5 -2.8,7.2 -0.101,0.2 -0.2,0.5 -0.2,0.8 0,5 -0.101,10 -0.5,15 0,0 -0.101,0 -0.5,0 -0.601,2.3 -2,4 -4.101,4.8 -0.3,0.2 -0.5,0.2 -0.899,0.2 -1.9,1.2 -4.4,1.3 -7.9,0.5 0,0 -0.1,-0.2 -0.1,-0.5 -3.4,-0.9 -6.4,-2.3 -8.8,-4.3 -0.101,-0.2 -0.2,-0.4 -0.2,-0.7 -4.3,-0.1 -7.9,-0.7 -11.101,-1.8 -0.3,-0.2 -0.5,-0.2 -0.899,-0.2 -2.4,-1.5 -4.8,-1.6 -7.101,-0.2 -0.3,0.2 -0.5,0.2 -0.899,0.2 -10.601,0.3 -17.601,4 -21,11 l -0.5,-0.6 c -0.9,-1.101 -1.7,-2.2 -2.5,-3.4 -1.101,-2.2 -1.5,-5.2 -1.101,-9 0.101,-0.3 0.101,-0.7 0.101,-1 0,-0.3 -0.101,-0.7 -0.101,-1 -3,-8.7 -2.5,-16 1.101,-22 -2.3,-1.1 -3.9,-2.8 -4.8,-5.1 -0.101,-0.2 -0.2,-0.601 -0.2,-0.9 -0.4,0 -0.5,-0.1 -0.601,-0.2 -1.1,-3.7 -0.6,-6 1.601,-6.8 0,0.3 0,0.7 0,1 2.6,3.7 4.399,3.4 5.1,-1 0.3,-1.4 1.8,-3.1 4.9,-5 -4.3,-2.3 -4.601,-3.8 -1,-4.5 l 0,0.5 c 0.399,0 0.6,-0.1 1,-0.1 1.6,-0.4 2.6,-1.4 3,-2.9 0.399,0 0.6,0.1 0.7,0.2 2.199,2.2 3.699,2.1 4.3,-0.2 -1.101,-0.2 -1.8,-0.8 -1.9,-2 -0.1,-0.3 -0.1,-0.7 -0.1,-1 0,-0.3 0.1,-0.6 0.2,-0.8 2.3,-2.2 4.5,-3 6.8,-2.2 l 0,-0.5 c 3.399,0.4 4.7,-1.1 4,-4.5 -2.101,-0.3 -2.9,-1.9 -2.101,-5 0,-0.3 0.101,-0.7 0.101,-1 0,-0.3 0.1,-0.6 0.2,-0.8 0.5,-0.5 1.199,-0.9 1.8,-1.2 l 0,-0.5 c 2.2,0.3 3.2,-0.6 3,-2.5 -2.101,-0.8 -3.4,-2.5 -3.9,-5 0,-0.3 -0.1,-0.7 -0.1,-1 l -0.5,0 c 0.899,-2 3.1,-2 6.5,0 0,0.3 0,0.7 0,1 0.399,0 0.6,-0.1 0.899,-0.2 1,-0.6 1.7,-1.5 2.101,-2.8 -1.101,-0.6 -1.5,-1.8 -1.101,-4 0,-0.3 0.101,-0.7 0.101,-1 l 0,-0.5 c 1.8,0.2 2.8,-0.3 3,-1.5 -2.3,-4.8 -3.9,-9.3 -4.9,-13.8 -0.5,-1.8 -1.5,-3.101 -3.1,-4.2 -0.4,0 -0.5,-0.1 -0.5,-0.1 -0.4,-2 0.7,-2.7 3.5,-1.9 0,-0.3 0.1,-0.6 0.2,-0.8 0.899,-1.5 1.8,-2.9 2.8,-4.2 -1.4,-0.6 -2.4,-1.6 -2.9,-3.1 0,-0.2 -0.1,-0.601 -0.1,-0.9 0,-0.299 0.1,-0.6 0.2,-0.7 1,-0.7 1.199,-2.1 0.8,-4.3 l -1,-1 c 4.899,-0.8 5.5,-3.2 2,-7 -1.101,-1.9 -1,-3.2 0.1,-3.7 l 0.9,-0.3 c -2.101,-6.2 -1.5,-10.2 2,-12 l 0.5,0 c -1.8,-6.8 1.1,-10.4 8.5,-11 2.1,-0.8 2.6,-1.8 1.2,-3.2 -3.5,-3.399 -3.9,-5.3 -1.2,-5.8 4.1,-2.2 5.3,-5.1 3.6,-8.8 l -0.1,-0.2 c -3.101,-4.5 -2,-7.5 3.5,-9 -1.9,0.3 -2.5,-0.6 -1.601,-2.8 0.101,-0.101 0.2,-0.2 0.601,-0.2 0,-0.4 0.1,-0.5 0.1,-0.6 1,-0.301 1.9,-0.4 2.9,-0.4 0.1,-2.5 0.899,-4.4 2.2,-5.8 4.899,-4.8 8.1,-4.601 9.8,0.8 0,0.4 0,0.6 0,1 0.399,0 0.6,0 1,0 z"
     fill="param(fill) #000"
     fill-opacity="param(fill-opacity)"
     stroke="param(outline) #FFF"
     stroke-opacity="param(outline-opacity)"
     stroke-width="param(outline-width) 0" /></svg>