<?xml version="1.0" encoding="UTF-8" standalone="no"?>
<!-- Created with Inkscape (http://www.inkscape.org/) -->

<svg
   xmlns:dc="http://purl.org/dc/elements/1.1/"
   xmlns:cc="http://creativecommons.org/ns#"
   xmlns:rdf="http://www.w3.org/1999/02/22-rdf-syntax-ns#"
   xmlns:svg="http://www.w3.org/2000/svg"
   xmlns="http://www.w3.org/2000/svg"
   xmlns:sodipodi="http://sodipodi.sourceforge.net/DTD/sodipodi-0.dtd"
   xmlns:inkscape="http://www.inkscape.org/namespaces/inkscape"
   version="1.1"
   width="300"
   height="300"
   viewBox="0 0 299.99999 299.99999"
   id="Layer_1"
   xml:space="preserve"
   inkscape:version="0.91 r13725"
   sodipodi:docname="mammals_roe_deer.svg"><metadata
     id="metadata13"><rdf:RDF><cc:Work
         rdf:about=""><dc:format>image/svg+xml</dc:format><dc:type
           rdf:resource="http://purl.org/dc/dcmitype/StillImage" /><dc:title></dc:title></cc:Work></rdf:RDF></metadata><sodipodi:namedview
     pagecolor="#ffffff"
     bordercolor="#666666"
     borderopacity="1"
     objecttolerance="10"
     gridtolerance="10"
     guidetolerance="10"
     inkscape:pageopacity="0"
     inkscape:pageshadow="2"
     inkscape:window-width="659"
     inkscape:window-height="480"
     id="namedview11"
     showgrid="false"
     inkscape:zoom="0.82425256"
     inkscape:cx="2.6702997"
     inkscape:cy="145.02684"
     inkscape:window-x="0"
     inkscape:window-y="0"
     inkscape:window-maximized="0"
     inkscape:current-layer="Layer_1" /><defs
     id="defs19" /><path
     d="m 99.120499,6.839997 c 0.16,0 0.32,0 0.48,0 1.084001,2.759 -2.378,3.819 -2.4,5.76 -0.024,2.161 2.896001,1.832 2.4,4.32 -0.141,1.169 -1.328,-0.092 -1.68,-0.24 -1.738,-0.706 -5.345,-1.142 -7.92,-0.96 -13.162,0.928 -18.33,13.35 -23.04,23.04 0.225,0.106 1.596,3.485 2.4,3.6 0.25,0.036 2.121,-1.636 2.88,-2.16 4.916,-3.394 9.667,-7.138 14.64,-10.08 2.134,-1.263 3.927,-3.232 6.48,-3.36 0.263,3.25 -0.729,6.43 -1.44,9.36 -0.71,2.927 -1.412,6.146 -2.88,8.4 -3.302,5.07 -9.58,5.112 -14.64,8.4 2.254,8.907 4.259,18.703 7.68,27.6 3.22,8.375 5.996,17.126996 13.44,21.599993 1.754,1.054 4.226,1.76 6.480001,2.64 2.347,0.916 4.606,1.955 7.2,1.92 2.386,-0.033 4.771,-1.058 7.2,-1.68 3.368,-0.862 6.77,-1.876 11.28,-1.44 6.44,0.623 12.984,3.22 19.68,4.56 7.014,1.404 14.671,1.73 22.08,2.16 7.793,0.452 15.675,0.718 23.521,0.24 7.591,-0.463 15.249,-0.682 22.8,-1.44 8.216,-0.825 15.443,-1.886 22.32,-0.96 6.525,0.878 12.082,3.625 17.76,6.48 5.162,2.596 10.974,5.425 16.32,7.92 2.584,1.20601 5.144,2.61801 7.439,4.56001 2.089,1.767 4.981,3.797 4.08,7.44 -3.27,-0.491 -3.144,-4.376 -6.72,-4.56 0.008,1.345 1.838,1.365 2.16,2.88 0.449,2.116 -1.915,8.303 -2.641,10.56 -1.207,3.755 -1.997,7.403 -2.64,10.32 -0.844,3.832 -1.5,7.723 -1.92,11.28 -0.244,2.067 -0.252,3.978 -0.72,5.76 -0.8,3.045 -2.33,5.801 -1.921,10.561 0.436,5.059 3.079,9.537 5.28,13.439 2.349,4.164 4.733,8.395 7.44,11.28 3.359,3.583 8.772,6.021 9.6,11.76 0.37,2.569 -0.358,5.316 -0.24,7.921 0.363,7.993 0.54,14.915 1.92,22.319 1.694,9.088 3.593,17.471 5.521,26.641 0,1.439 0,2.88 0,4.319 -0.491,0.765 -1.573,-0.451 -1.92,0.24 -1.216,3.585 -0.521,9.079 -4.8,9.601 -1.098,2.342 -3.411,3.469 -6,4.319 -0.88,0 -1.761,0 -2.641,0 -0.176,-0.224 -0.437,-0.363 -0.72,-0.479 -0.347,-1.722 1.003,-2.875 1.68,-4.08 1.941,-3.457 4.563,-7.355 5.04,-12.24 0.46,-4.713 -0.269,-9.796 -0.72,-14.64 -1.077,-11.567 -2.68,-22.806 -7.2,-30.96 -0.888,-1.602 -2.063,-2.736 -3.12,-4.32 -0.847,-1.268 -1.357,-2.634 -2.159,-3.84 -3.83,-5.76 -9.359,-10.175 -13.681,-15.36 -4.505,-5.406 -9.173,-10.469 -15.12,-13.68 -0.413,4.592 1.142,8.65 2.4,12.72 0.589,1.903 1.188,3.872 1.92,5.76 0.976,2.52 2.188,4.278 1.92,7.44 -0.165,1.94 -1.545,4.729 -2.64,7.2 -3.031,6.837 -5.613,13.291 -8.16,20.64 -1.498,4.323 -3.626,9.353 -5.04,14.16 -1.506,5.119 -1.928,11.268 -4.32,14.88 -0.492,0.744 -1.254,1.354 -1.92,2.16 -0.469,1.126 -1.418,0.72 -2.16,1.439 -1.33,1.292 -1.552,3.684 -3.12,5.04 -1.35,1.168 -3.759,1.95 -6,2.16 -2.247,0.212 -4.969,0.375 -7.2,-0.24 1.363,-3.444 5.693,-4.431 8.16,-7.439 3.058,-3.729 6.354,-10.438 8.16,-15.84 0.994,-2.971 1.88,-6.099 2.88,-9.12 0.997,-3.012 2.493,-5.848 3.36,-8.641 0.662,-2.13 1.042,-4.836 1.68,-7.439 0.961,-3.917 1.877,-7.646 1.44,-12.72 -0.354,-4.12 -1.883,-8.384 -2.88,-12.48 -2.965,-12.171 -6.66,-23.784 -12,-33.6 -5.573,0.862 -10.896,3.578 -17.04,5.04 -10.865,2.584 -24.072,0.529 -35.28,0 -5.03,-0.238 -10.235,0.026 -15.12,0 -6.226,-0.034 -11.327,1.958 -16.56,3.119 2.094,8.954 3.735,19.607 5.76,29.28 0.656,3.133 1.542,6.431 1.92,9.601 0.535,4.485 0.5,8.687 1.2,12.96 1.355,8.275 2.53,15.349 5.52,22.8 1.396,3.475 4.493,12.655 -1.2,12 -1.729,1.391 -1.127,5.113 -1.92,7.44 -1.568,1.228 -3.953,1.717 -6.24,2.399 -2.042,0.609 -4.558,1.857 -6.72,0.72 0.028,-4.352 4.761,-5.163 6.48,-8.399 3.476,-6.543 0.9,-18.281 -0.48,-25.92 -2.112,-11.688 -8.579,-20.937 -10.56,-32.641 -1.025,-6.059 -2.237,-11.866 -4.56,-17.04 -2.507,9.199 -4.188,17.544 -6.24,26.88 -0.606,2.758 -1.704,5.173 -2.88,7.921 -2.384,5.567 -3.577,11.398 -4.8,17.279 -0.68,3.271 -0.969,6.456 -1.2,9.84 -0.44,6.451 0.107,13 -2.16,18 -0.937,1.171 -0.918,-0.829 -2.4,-0.479 -2.837,1.365 -2.602,5.502 -5.28,7.68 -1.279,1.041 -3.834,1.765 -6.000001,2.16 -2.098,0.384 -5.083,1.114 -6.72,-0.479 0.107,-2.578 2.418,-3.499 3.84,-4.801 1.404,-1.285 3.867,-3.302 5.040001,-5.04 3.303,-4.894 4.907,-12.617 6.72,-19.92 0.922,-3.716 1.812,-7.393 2.16,-11.279 1.096,-12.232 0.982,-25.078 2.64,-37.2 1.145,-8.369 2.281,-16.608 0.72,-24.24 -2.944,-0.624 -6.825,-0.328 -9.6,-1.68 -2.333,-1.137 -6.031001,-5.641 -7.440001,-8.16 -2.124,-3.798 -2.731,-8.559 -4.32,-12.24 -1.163,-2.694 -3.617,-5.206 -5.52,-7.92 -1.865,-2.661 -3.692,-5.491 -5.52,-7.92 -3.743,-4.972 -8.192,-9.77 -11.76,-15.12 -3.411,-5.115 -6.045,-11.69001 -8.16,-18.72001 -1.058,-3.518 -1.812,-7.115 -2.88,-10.56 -1.05,-3.387 -2.779,-6.661997 -3.6,-9.839997 -0.83,-3.214996 -0.468,-7.792996 -2.16,-9.599996 -2.289,-2.444 -13.308,-2.545 -17.76,-3.12 -3.01,-0.388 -5.969,-1.113 -8.88,-1.68 -3.098,-0.604 -6.426,-1.461 -8.88,-1.44 -1.353,0.012 -2.666,0.661 -4.08,0.72 -3.6350007,0.153 -7.3340007,-1.015 -7.6800007,-4.32 -2.319,-1.355 -3.113,-3.715 -3.118,-7.922 0,-0.8 0,-1.6 0,-2.4 2.066,-3.823 6.87,-4.291 11.2800007,-5.52 4.909,-1.368 9.632,-4.08 14.4,-5.52 2.789,-0.842 5.703,-0.726 8.4,-1.68 2.698,-0.955 4.612,-3.464 7.2,-4.56 2.162,-0.916 4.44,-1.316 6.48,-2.16 0.972,-0.403 1.931,-1.05 2.88,-1.44 0.948,-0.39 2.429,-0.167 2.88,-1.44 -0.795,-5.636 -2.835,-16.124 -0.72,-21.84 0.366,-0.99 0.714,-2.656 1.92,-2.88 2.353,4.527 3.379,10.381 6.72,13.92 3.846,-5.167 7.748,-10.99 9.36,-18.48 0.488,-2.266 0.619,-5.207 2.64,-6.72 1.769,2.022 -0.895,6.742 0.72,9.36 3.504,-0.113 6.284,-2.455 10.08,-3.36 2.532,-0.604 5.552,-0.114 7.92,-0.96 2.554,-0.913 3.615,-4.182 5.76,-5.28 z"
     id="path9"
     fill="param(fill) #000"
     fill-opacity="param(fill-opacity)"
     stroke="param(outline) #FFF"
     stroke-opacity="param(outline-opacity)"
     stroke-width="param(outline-width) 0"
     inkscape:connector-curvature="0" /></svg>