<?xml version="1.0" encoding="UTF-8" standalone="no"?>
<!-- Created with Inkscape (http://www.inkscape.org/) -->

<svg
   xmlns:dc="http://purl.org/dc/elements/1.1/"
   xmlns:cc="http://creativecommons.org/ns#"
   xmlns:rdf="http://www.w3.org/1999/02/22-rdf-syntax-ns#"
   xmlns:svg="http://www.w3.org/2000/svg"
   xmlns="http://www.w3.org/2000/svg"
   xmlns:sodipodi="http://sodipodi.sourceforge.net/DTD/sodipodi-0.dtd"
   xmlns:inkscape="http://www.inkscape.org/namespaces/inkscape"
   version="1.2"
   width="190"
   height="190"
   viewBox="0 0 190 190"
   id="svg2"
   xml:space="preserve"
   inkscape:version="0.91 r13725"
   sodipodi:docname="mammals_marmot.svg"
   inkscape:export-filename="C:\Users\QGIS\Documents\GitHub\phylopic\collections\phylopic\svg\mammals_marmot.png"
   inkscape:export-xdpi="90"
   inkscape:export-ydpi="90"><metadata
     id="metadata10"><rdf:RDF><cc:Work
         rdf:about=""><dc:format>image/svg+xml</dc:format><dc:type
           rdf:resource="http://purl.org/dc/dcmitype/StillImage" /><dc:title /></cc:Work></rdf:RDF></metadata><sodipodi:namedview
     pagecolor="#ffffff"
     bordercolor="#666666"
     borderopacity="1"
     objecttolerance="10"
     gridtolerance="10"
     guidetolerance="10"
     inkscape:pageopacity="0"
     inkscape:pageshadow="2"
     inkscape:window-width="969"
     inkscape:window-height="624"
     id="namedview8"
     showgrid="false"
     fit-margin-top="0"
     fit-margin-left="0"
     fit-margin-right="0"
     fit-margin-bottom="0"
     inkscape:zoom="1.18"
     inkscape:cx="-215.02927"
     inkscape:cy="101.02922"
     inkscape:window-x="0"
     inkscape:window-y="0"
     inkscape:window-maximized="0"
     inkscape:current-layer="svg2" /><defs
     id="defs12" /><g
     id="g3337"
     transform="translate(2.1268367,16.156591)"><path
       d="m 185.05469,138.08582 c 0.733,1 0.884,1.434 0.45,1.301 l -0.75,-0.4 c 0.066,0.1 0.1,0.2 0.1,0.3 0.4,0.934 0.584,1.584 0.55,1.95 -0.033,0.4 -0.267,0.517 -0.699,0.35 0.6,1.4 0.433,2.017 -0.5,1.851 -0.067,0 -0.15,-0.017 -0.25,-0.05 -0.101,1.533 -0.551,2.116 -1.351,1.75 0.134,0.733 0.101,1.283 -0.1,1.649 -0.267,0.566 -0.967,0.667 -2.101,0.3 0,0.4 -0.116,0.884 -0.35,1.45 -0.167,0.566 -0.884,0.601 -2.15,0.101 0.167,1.399 -0.416,1.683 -1.75,0.85 0.7,1.5 -0.55,1.833 -3.75,1 0.867,0.566 1.184,0.934 0.95,1.1 l -0.05,0 c -0.2,0.101 -0.717,0.067 -1.55,-0.1 -0.867,-0.134 -2.084,-0.417 -3.65,-0.85 -0.3,-0.034 -0.583,-0.067 -0.85,-0.101 0.833,0.434 1.25,0.7 1.25,0.8 0,0.067 -0.217,0.051 -0.65,-0.05 -0.967,-0.2 -2.967,-0.816 -6,-1.85 l 0.15,0.1 c 0.733,0.7 0.05,0.533 -2.05,-0.5 0.699,1.033 -1.217,0.634 -5.75,-1.2 0.333,0.634 -0.917,0.384 -3.75,-0.75 -0.367,0.434 -1.601,0.15 -3.7,-0.85 -0.434,-0.233 -0.917,-0.483 -1.45,-0.75 -0.566,-0.267 -1.233,-0.55 -2,-0.85 -0.033,0.399 -1.634,0.083 -4.8,-0.95 l 0.649,0.5 c -0.1,0.1 -1.116,-0.2 -3.05,-0.9 0.834,0.334 0.867,0.45 0.101,0.351 -0.233,-0.034 -0.517,-0.067 -0.851,-0.101 -2.533,-0.467 -8.467,-1.816 -17.8,-4.05 -0.2,-0.066 -0.4,-0.116 -0.6,-0.15 l -1.048,1.649 c -0.033,-0.033 -0.066,-0.05 -0.1,-0.05 l -0.05,0.05 0.35,0.55 c 0.334,0.667 -0.05,1.017 -1.15,1.05 -0.467,0 -1.033,-0.05 -1.7,-0.149 l -0.45,0.6 c -0.3,0.267 -0.4,0.95 -0.3,2.05 -0.833,-0.133 -1.717,0.084 -2.65,0.65 0.133,0.5 -0.017,0.95 -0.45,1.35 -0.2,0.167 -0.45,0.317 -0.75,0.45 -0.8,0.367 -1.417,0.367 -1.85,0 -0.067,-0.066 -0.133,-0.149 -0.2,-0.25 l -0.05,-0.05 -0.05,-0.1 c -0.034,0.166 -0.083,0.333 -0.15,0.5 -0.466,1.033 -1.267,1.25 -2.4,0.649 -0.1,-0.066 -0.217,-0.133 -0.35,-0.2 -0.033,-0.033 -0.066,-0.05 -0.1,-0.05 l 0.05,0.101 0.6,0.949 c -0.067,0.301 -0.633,0.384 -1.7,0.25 -0.066,-0.033 -0.15,-0.05 -0.25,-0.05 -0.367,-0.066 -0.8,-0.149 -1.3,-0.25 l 0.4,0.601 c -0.767,-0.101 -1.883,-0.267 -3.35,-0.5 -0.3,-0.034 -0.6,-0.084 -0.9,-0.15 0.2,0.066 0.4,0.134 0.6,0.2 3.233,1.1 3.183,1.316 -0.15,0.649 -0.467,-0.1 -1,-0.199 -1.6,-0.3 -0.6,-0.133 -1.267,-0.283 -2,-0.45 0.767,0.2 1.283,0.367 1.55,0.5 0.633,0.267 0.167,0.367 -1.4,0.301 -0.067,0 -0.133,0 -0.2,0 -1.833,-0.101 -5.017,-0.4 -9.55,-0.9 -0.7,-0.033 -1.4,-0.083 -2.1,-0.15 -0.433,0.101 -0.9,0.2 -1.4,0.301 -3.533,0.733 -5.6,1.449 -6.2,2.149 -1.1,1.367 -2.95,2.634 -5.55,3.8 -0.867,0.367 -1.717,0.684 -2.55,0.95 -1.5,0.601 -3.133,0.983 -4.9,1.15 -0.466,0.333 -1.15,0.5 -2.05,0.5 -0.833,0 -1.35,-0.134 -1.55,-0.4 -0.067,-0.1 -0.117,-0.233 -0.15,-0.399 -0.1,-0.034 -0.183,-0.084 -0.25,-0.15 -0.133,0.1 -0.267,0.217 -0.4,0.35 -0.267,0.101 -0.75,0.15 -1.45,0.15 -0.767,0 -1.35,-0.366 -1.75,-1.1 -0.1,-0.167 -0.184,-0.334 -0.25,-0.5 -2.034,0.199 -3.034,-0.767 -3,-2.9 0.033,-2.9 1.433,-5.45 4.2,-7.65 -0.733,-0.166 -1.45,-0.35 -2.15,-0.55 -1.7,0.5 -3.167,1.467 -4.4,2.9 -1.267,1.5 -2.033,2.366 -2.3,2.6 -0.966,0.8 -2.083,1.2 -3.35,1.2 -0.4,0 -0.767,-0.134 -1.1,-0.4 l -0.05,-0.05 c -0.267,-0.3 -0.566,-0.467 -0.9,-0.5 l -0.3,0.3 c -0.6,0.534 -1.167,0.801 -1.7,0.801 -0.767,0 -1.333,-0.167 -1.7,-0.5 -0.367,-0.367 -0.567,-0.551 -0.6,-0.551 -0.2,0 -0.55,0.217 -1.05,0.65 -0.5,0.4 -1.133,0.6 -1.9,0.6 -1.7,0 -2.8,-0.533 -3.3,-1.6 -0.033,-0.066 -0.067,-0.134 -0.1,-0.2 -0.333,-0.066 -0.617,-0.133 -0.85,-0.2 -0.2,0 -0.433,0 -0.7,0 -1.133,0 -1.7,-0.75 -1.7,-2.25 0,-0.3 0.05,-0.533 0.15,-0.699 0.233,-0.367 0.45,-0.75 0.65,-1.15 0.067,-0.167 0.1,-0.5 0.1,-1 -0.033,-0.467 0.017,-0.783 0.15,-0.95 0.067,-0.1 0.233,-0.416 0.5,-0.95 0.1,-0.199 0.217,-0.383 0.35,-0.55 1.8,-3.2 5.983,-5.434 12.55,-6.7 -0.6,-1.633 -0.9,-3.433 -0.9,-5.399 0.034,-1.167 -0.367,-2.017 -1.2,-2.55 0.933,-1.267 0.833,-1.867 -0.3,-1.801 l 0,-1.703 c 1.267,-0.801 1.233,-1.367 -0.1,-1.7 0.066,-0.066 0.133,-0.134 0.2,-0.2 1.333,-1.3 1.467,-2.2 0.4,-2.7 1.233,-0.967 1.083,-1.8 -0.45,-2.5 1.733,-0.934 1.816,-2.033 0.25,-3.3 0.566,-0.333 0.95,-0.8 1.15,-1.4 0.167,-0.633 -0.367,-1.166 -1.6,-1.6 2.3,-1.233 2.6,-2.167 0.9,-2.8 1.934,-1.4 2.034,-2.601 0.3,-3.601 1.867,-1.133 1.783,-2.466 -0.25,-4 2.267,-0.966 2.217,-2.199 -0.15,-3.699 2.533,-1.367 3.117,-2.667 1.75,-3.9 1.4,-0.4 2.1,-0.783 2.1,-1.15 0.034,-1.633 -0.667,-2.783 -2.1,-3.449 0.533,-0.767 0.966,-1.434 1.3,-2 0.4,-0.834 0.583,-1.483 0.55,-1.95 -0.233,-0.066 -0.75,-0.084 -1.55,-0.05 -0.8,0 -1.7,-0.367 -2.7,-1.101 -0.267,-0.066 -0.617,-0.166 -1.05,-0.3 l 0,0.95 c -0.467,0.033 -1.217,-0.05 -2.25,-0.25 -0.933,-1.066 -1.617,-1.65 -2.05,-1.75 l 0.1,1.2 c -0.066,0.033 -0.183,0.017 -0.35,-0.051 -0.534,-0.267 -1.284,-0.85 -2.25,-1.75 0.267,0.834 0.233,1.284 -0.1,1.351 -0.367,0.066 -1.184,-0.45 -2.45,-1.55 -0.533,-0.834 -1.017,-1.367 -1.45,-1.601 0.667,2.5 -0.45,1.667 -3.35,-2.5 0.667,1.733 0.517,1.95 -0.45,0.65 -0.4,-0.6 -1.017,-1.534 -1.85,-2.8 1.167,2.6 1.3,3.133 0.4,1.6 -0.233,-0.433 -0.467,-0.817 -0.7,-1.15 -0.2,-0.367 -0.4,-0.7 -0.6,-1 -0.267,-0.467 -0.483,-0.833 -0.65,-1.1 0.233,0.8 0.133,0.917 -0.3,0.35 -0.434,-0.6 -1.267,-2 -2.5,-4.2 -0.034,-0.033 -0.067,-0.083 -0.1,-0.15 -1.233,-1.833 -2.45,-3.167 -3.65,-4 -1.434,-1 -4.2,-2.233 -8.3,-3.7 -2.433,-0.867 -3.633,-2.267 -3.6,-4.2 -0.9,-2.867 -1.35,-4.367 -1.35,-4.5 -0.034,-1 0.117,-1.934 0.45,-2.8 0.633,-1.667 1.917,-2.5 3.85,-2.5 0.233,0 1.633,-0.3 4.2,-0.9 2.533,-0.6 4.483,-0.9 5.85,-0.9 0.667,0 1.317,0.183 1.95,0.55 0.3,0.167 0.967,0.65 2,1.45 0.967,-1.267 1.9,-2.7 2.8,-4.3 0.867,-1.5 1.3,-2.383 1.3,-2.65 0,-0.1 -0.017,-0.2 -0.05,-0.3 -2.233,-0.267 -4.683,-1.3 -7.35,-3.1 -0.6,-0.433 -1.233,-0.9 -1.9,-1.4 -0.233,-0.167 -0.466,-0.35 -0.7,-0.55 -0.367,-0.3 -0.733,-0.6 -1.1,-0.9 -0.667,-0.6 -1.283,-1.2 -1.85,-1.8 -0.633,-0.733 -1.2,-1.467 -1.7,-2.2 -0.367,-0.566 -0.7,-1.133 -1,-1.7 -0.567,-1.167 -0.967,-2.333 -1.2,-3.5 -0.6,-0.2 -0.9,-0.833 -0.9,-1.9 0.033,-0.967 0.483,-1.833 1.35,-2.6 0.9,-1.533 2.8,-3.333 5.7,-5.4 3.967,-2.833 8.6,-5.383 13.9,-7.65 0.934,-0.4 1.833,-0.767 2.7,-1.1 0.6,-0.833 2.333,-1.95 5.2,-3.35 0.933,-0.434 2.466,-0.817 4.6,-1.15 l 5.6,-0.85 1.5,0 0.6,-0.1 0.45,0 c 2,-0.267 3.767,-0.333 5.3,-0.2 1,0.1 1.95,0.233 2.85,0.4 2.133,-0.967 3.95,-1.184 5.45,-0.65 0.167,0.067 0.333,0.133 0.5,0.2 1,0.5 1.717,1.333 2.15,2.5 0.133,0.3 0.25,0.617 0.35,0.95 0.467,0.267 0.934,0.55 1.4,0.85 0.066,0.067 0.15,0.133 0.25,0.2 0.033,0 0.05,0.017 0.05,0.05 1.933,0.9 3.083,1.534 3.45,1.9 0.4,0.333 0.1,0.417 -0.9,0.25 1.434,0.5 2.3,0.867 2.6,1.1 0.367,0.233 0,0.3 -1.1,0.2 1.9,0.833 3.05,1.417 3.45,1.75 0.433,0.333 0.083,0.383 -1.05,0.15 1.1,0.5 1.85,0.867 2.25,1.1 0.267,0.133 0.383,0.217 0.35,0.25 0,0.1 -0.367,0.067 -1.1,-0.1 1.167,0.567 2.017,1.017 2.55,1.35 1.267,0.7 0.95,0.783 -0.95,0.25 1.3,0.6 2.1,1.017 2.4,1.25 0.367,0.333 -0.017,0.383 -1.15,0.15 1.3,0.733 2.167,1.267 2.6,1.6 0.8,0.567 0.35,0.567 -1.35,0 1.3,0.667 2.05,1.117 2.25,1.35 l -1.3,0 c 2.1,1.1 3.25,1.816 3.45,2.15 0.2,0.3 -0.367,0.317 -1.7,0.05 -0.067,0 -0.15,-0.017 -0.25,-0.05 0.167,0.1 0.333,0.2 0.5,0.3 1.567,0.934 2.6,1.617 3.1,2.05 0.566,0.5 0.35,0.65 -0.65,0.45 -0.367,-0.1 -0.833,-0.25 -1.4,-0.45 0.967,0.5 1.733,0.95 2.3,1.35 0.333,0.2 0.6,0.383 0.8,0.55 0.133,0.1 0.2,0.183 0.2,0.25 l -2,0 c 0.033,0.033 0.066,0.083 0.1,0.15 0.833,0.167 1.667,0.367 2.5,0.6 2.133,0.633 4.2,1.517 6.2,2.65 3.1,1.767 5.217,3.567 6.35,5.4 0.333,0.4 0.667,0.784 1,1.15 4.767,2.533 9.483,5.233 14.15,8.1 0.233,0.133 0.467,0.267 0.7,0.4 0.267,0.167 1.15,0.65 2.65,1.45 0.733,0.333 1.583,0.767 2.55,1.3 1.334,0.667 2.184,1.133 2.55,1.4 0.434,0.333 0.051,0.316 -1.149,-0.05 3.166,1.767 5.399,3.05 6.7,3.85 2.166,1.333 1.666,1.267 -1.5,-0.2 2.033,1.6 3.666,3.017 4.899,4.25 0.033,0 0.05,0.017 0.05,0.05 1.301,1.2 0.7,1.067 -1.8,-0.4 2.2,2.467 3.684,4.217 4.45,5.25 1.2,1.6 0.583,1.367 -1.85,-0.7 2.066,2.367 3.433,4.033 4.1,5 0.967,1.4 0.283,1.184 -2.05,-0.65 1.967,2.4 3.066,3.933 3.3,4.6 0.233,0.6 -0.35,0.367 -1.75,-0.7 1.6,1.9 2.733,3.333 3.4,4.3 0.066,0.066 0.1,0.133 0.1,0.2 0.8,1.167 0.75,1.434 -0.15,0.8 -0.466,-0.367 -1.166,-0.983 -2.1,-1.85 0.833,0.933 1.533,1.733 2.1,2.4 0.367,0.367 0.667,0.7 0.9,1 l -2.2,-0.8 c 0.167,0.2 0.617,0.816 1.351,1.85 0.399,0.534 0.85,1.184 1.35,1.95 0.033,0 0.05,0.017 0.05,0.05 0.601,0.8 0.9,1.283 0.9,1.45 0.033,0.267 -0.733,-0.333 -2.3,-1.8 -0.101,-0.133 -0.233,-0.267 -0.4,-0.4 0.134,0.2 0.267,0.4 0.4,0.6 1.199,1.633 1.983,2.784 2.35,3.45 0.566,1.134 -0.1,0.851 -2,-0.85 2.667,3.434 2.917,4.583 0.75,3.45 0.533,1.434 0.917,3.684 1.15,6.75 0.199,2.166 0.116,3.116 -0.25,2.85 l -0.551,-0.85 c 0.101,1.434 0.15,2.566 0.15,3.399 -0.033,0.9 -0.116,1.434 -0.25,1.601 l -0.6,-1.05 c 0.033,0.399 0.05,0.8 0.05,1.199 0.2,2.5 0.2,4.051 0,4.65 -0.101,0.5 -0.316,0.283 -0.65,-0.65 -0.1,-0.366 -0.233,-0.816 -0.399,-1.35 0.033,2.733 -0.017,4.8 -0.15,6.2 l 0,0.05 c -0.2,1.333 -0.616,0.634 -1.25,-2.1 0.167,3.166 0.116,4.949 -0.15,5.35 l -1.149,-2.1 c -0.101,3.133 -0.25,5.166 -0.45,6.1 -0.267,1.333 -0.65,0.45 -1.15,-2.65 0,3.301 -0.166,5.233 -0.5,5.801 -0.267,0.566 -0.699,-0.417 -1.3,-2.95 -0.434,2.333 -0.833,4.3 -1.2,5.899 -0.033,0.067 -0.05,0.134 -0.05,0.2 -0.1,0.367 -0.2,0.617 -0.3,0.75 -0.233,0.367 -0.517,0.066 -0.85,-0.899 -0.034,-0.101 -0.067,-0.184 -0.101,-0.25 -0.1,-0.367 -0.2,-0.767 -0.3,-1.2 0,0.533 0,1.017 0,1.45 0,0.166 0,0.316 0,0.449 -0.1,3 -0.4,3.884 -0.9,2.65 -0.033,-0.1 -0.083,-0.217 -0.149,-0.35 -0.101,-0.367 -0.217,-0.851 -0.351,-1.45 -0.199,3.033 -1.466,5.649 -3.8,7.85 0.334,-0.2 0.667,-0.383 1,-0.55 l -0.649,1.05 c 3.166,-1.133 5.916,-1.8 8.25,-2 2.933,-0.3 4.1,-0.184 3.5,0.351 0.1,-0.034 0.199,-0.051 0.3,-0.051 1.934,-0.333 3.383,-0.566 4.35,-0.699 2.066,-0.301 1.867,-0.15 -0.6,0.449 1.066,-0.133 1.983,-0.25 2.75,-0.35 0.967,-0.1 1.717,-0.167 2.25,-0.2 1.6,-0.133 1.416,0 -0.55,0.4 3.267,-0.167 5.583,-0.267 6.949,-0.3 l -0.6,0.35 c 2.366,0.033 4.316,0.066 5.85,0.1 2.467,0.101 3.95,0.184 4.45,0.25 0.101,-0.033 0.167,-0.033 0.2,0 0.167,0.134 -0.167,0.25 -1,0.351 4.566,0.5 8.5,1.2 11.8,2.1 1.634,0.434 3.101,0.9 4.4,1.4 4.033,1.566 6.366,3.017 7,4.35 1.032,1.201 1.799,2.135 2.299,2.801 z"
       id="path5"
       fill="param(fill) #000"
       fill-opacity="param(fill-opacity)"
       stroke="param(outline) #FFF"
       stroke-opacity="param(outline-opacity)"
       stroke-width="param(outline-width) 0"
       inkscape:connector-curvature="0" /><g
       transform="translate(-159.19531,-123.01418)"
       id="Layer_3"><path
         inkscape:connector-curvature="0"
         fill="param(fill) #000"
         fill-opacity="param(fill-opacity)"
         stroke="param(outline) #FFF"
         stroke-opacity="param(outline-opacity)"
         stroke-width="param(outline-width) 0"
         id="path8"
         d="m 162.3,160.35 c 1.767,-3.5 4.4,-6.117 7.9,-7.85 m 2.1,1.6 c -3.167,1.7 -5.867,4.283 -8.1,7.75 m 8.75,-5.5 c -2.567,1.066 -4.367,3.117 -5.4,6.15 m 4,-0.15 c 0.467,-2.167 1.383,-3.75 2.75,-4.75 m -8.85,-9.1 c -2.1,-0.067 -3.767,0.683 -5,2.25 m -0.65,3.6 c 1.967,-2.733 4.767,-4.483 8.4,-5.25 m 0,1.9 c -3.5,1.467 -6.217,3.633 -8.15,6.5" /></g></g></svg>