<?xml version="1.0" encoding="UTF-8" standalone="no"?>
<!-- Created with Inkscape (http://www.inkscape.org/) -->

<svg
   xmlns:dc="http://purl.org/dc/elements/1.1/"
   xmlns:cc="http://creativecommons.org/ns#"
   xmlns:rdf="http://www.w3.org/1999/02/22-rdf-syntax-ns#"
   xmlns:svg="http://www.w3.org/2000/svg"
   xmlns="http://www.w3.org/2000/svg"
   xmlns:sodipodi="http://sodipodi.sourceforge.net/DTD/sodipodi-0.dtd"
   xmlns:inkscape="http://www.inkscape.org/namespaces/inkscape"
   version="1.1"
   width="640"
   height="640"
   viewBox="0 0 640 640"
   id="Layer_1"
   xml:space="preserve"
   inkscape:version="0.91 r13725"
   sodipodi:docname="mammals_wolf.svg"><metadata
     id="metadata11"><rdf:RDF><cc:Work
         rdf:about=""><dc:format>image/svg+xml</dc:format><dc:type
           rdf:resource="http://purl.org/dc/dcmitype/StillImage" /><dc:title></dc:title></cc:Work></rdf:RDF></metadata><sodipodi:namedview
     pagecolor="#ffffff"
     bordercolor="#666666"
     borderopacity="1"
     objecttolerance="10"
     gridtolerance="10"
     guidetolerance="10"
     inkscape:pageopacity="0"
     inkscape:pageshadow="2"
     inkscape:window-width="659"
     inkscape:window-height="480"
     id="namedview9"
     showgrid="false"
     fit-margin-top="0"
     fit-margin-left="0"
     fit-margin-right="0"
     fit-margin-bottom="0"
     inkscape:zoom="0.38562092"
     inkscape:cx="544.5251"
     inkscape:cy="283.53549"
     inkscape:window-x="0"
     inkscape:window-y="0"
     inkscape:window-maximized="0"
     inkscape:current-layer="Layer_1" /><defs
     id="defs14" /><g
     id="XMLID_1_"
     transform="translate(-79.338078,10.867518)"><g
       id="g6"><path
         inkscape:connector-curvature="0"
         id="path8"
         d="m 607.772,539.979 c 1.82,11.793 -2.42,24.263 -2.595,35.882 l 0.601,3.892 c 1.724,-0.29 3.582,-0.387 5.713,-0.213 0.483,-11.463 9.837,-26.936 13.322,-38.321 0.465,-0.252 0.794,-0.349 1.046,-0.349 l 0,-2.439 c 6.932,-17.757 -9.74,-30.305 -14.194,-41.304 -4.977,11.618 2.092,30.537 -2.575,42.62 l -1.318,0.232 z M 99.137,193.769 c -2.75,-15.956 5.887,-31.583 4.221,-47.907 -1.394,-14.271 0.271,-32.299 -5.131,-45.699 -6.022,-14.988 -22.462,-18.125 -13.09,-36.579 0.91,-1.239 2.711,-2.188 3.95,-3.931 4.55,1.801 9.43,4.473 12.664,7.784 2.208,-10.379 -9.198,-37.295 0.213,-49.03 23.76,-1.181 51.683,18.551 58.15,42.175 14.601,3.118 27.536,6.642 38.477,17.041 10.321,9.895 18.473,19.035 29.666,27.381 9.934,7.475 45.273,17.079 49.146,26.838 8.985,22.462 -31.641,26.452 -20.758,42.543 4.628,6.777 17.021,14.213 24.205,19.403 8.733,6.312 16.692,12.858 26.122,15.472 10.883,2.962 22.617,2.575 33.597,5.248 6.197,1.433 21.979,9.721 24.748,6.583 26.161,-7.997 57.221,-0.31 83.691,1.065 13.438,0.697 26.664,-1.123 39.096,-2.304 8.443,-0.794 25.89,-2.866 33.965,1.143 19.151,-5.538 62.353,-1.239 75.694,10.457 8.269,7.165 13.729,17.002 23.236,25.212 9.702,8.404 17.912,19.054 25.503,29.395 13.807,18.841 23.354,42.523 34.526,62.662 9.313,16.614 24.611,33.48 28.872,52.883 7.242,32.978 13.264,82.104 -10.244,110.434 0.077,3.176 -0.232,6.487 -0.426,9.449 -9.973,-4.918 -17.505,-18.569 -23.005,-28.213 -3.214,-5.674 -7.92,-12.219 -10.05,-18.377 -2.421,-6.854 -0.077,-13.477 -1.491,-20.39 -2.865,-13.71 -14.639,-20.178 -21.146,-32.552 -4.667,-9.023 -9.081,-25.579 -19.828,-28.987 l 0.019,-0.078 c -1.297,-0.426 -2.595,-0.891 -3.737,-1.472 -17.35,21.049 -3.176,59.119 11.058,78.58 6.797,9.179 17.33,15.336 24.282,24.495 7.978,10.67 5.422,27.148 5.422,40.084 l -1.607,0 c 0.813,9.275 -6.622,23.431 -9.023,30.673 -3.718,11.211 -9.353,21.688 -15.452,32.338 -14.64,-2.789 -28.931,2.246 -43.492,1.297 -0.058,-0.136 -0.136,-0.252 -0.193,-0.387 -17.37,3.272 -56.389,1.704 -46.881,-13.923 3.118,-5.073 14.756,-2.982 18.551,-6.081 5.325,-4.376 3.932,-5.654 5.132,-12.954 1.181,-7.688 6.196,-22.346 5.402,-29.55 l 0.987,-0.136 c 0.988,-32.764 -22.404,-43.646 -46.066,-62.274 -14.659,-11.561 -23.586,-25.019 -36.153,-38.67 -4.88,-5.268 -9.682,-8.83 -12.044,-16.479 -1.781,-5.945 0.31,-13.594 -2.479,-16.828 l -0.601,-1.452 c -29.802,12.394 -56.35,20.797 -90.198,20.797 -20.158,0 -40.335,-0.697 -60.494,-1.045 -10.282,-0.155 -37.353,-5.829 -46.338,-1.55 -6.642,3.176 -4.822,10.282 -6.584,16.809 -3.543,13.129 -7.358,26.122 -10.05,40.063 -2.672,13.942 -3.253,27.885 -7.436,41.595 -3.04,10.127 -13.613,33.384 -10.689,42.252 l 0.097,0 c -0.02,13.381 -3.583,32.184 -15.627,33.597 -6.235,0.736 -15.162,-3.466 -21.901,-3.873 -7.726,-0.483 -15.53,0.349 -23.217,0 -7.126,-0.367 -18.899,0.64 -21.727,-8.036 -3.776,-11.656 6.855,-9.585 12.664,-13.903 11.386,-8.52 14.697,-23.295 23.256,-33.597 l 1.549,0.562 c 4.88,-12.121 6.158,-42.039 3.602,-56.059 -1.569,-8.424 -6.332,-15.704 -7.804,-24.477 -1.491,-9.488 -1.162,-19.499 -4.144,-28.465 -5.945,-18.047 -20.875,-26.761 -28.136,-43.859 -6.661,-15.879 -2.42,-38.167 -10.302,-51.663 l 0.155,-0.427 C 119.295,315.53 133.276,260.188 119.914,234.995 113.118,222.234 101.557,207.653 99.137,193.769 Z"
         fill="param(fill) #000"
         fill-opacity="param(fill-opacity)"
         stroke="param(outline) #FFF"
         stroke-opacity="param(outline-opacity)"
         stroke-width="param(outline-width) 0" /></g><g
       id="g10" /></g></svg>