<?xml version="1.0" encoding="UTF-8" standalone="no"?>
<!-- Created with Inkscape (http://www.inkscape.org/) -->

<svg
   xmlns:dc="http://purl.org/dc/elements/1.1/"
   xmlns:cc="http://creativecommons.org/ns#"
   xmlns:rdf="http://www.w3.org/1999/02/22-rdf-syntax-ns#"
   xmlns:svg="http://www.w3.org/2000/svg"
   xmlns="http://www.w3.org/2000/svg"
   xmlns:sodipodi="http://sodipodi.sourceforge.net/DTD/sodipodi-0.dtd"
   xmlns:inkscape="http://www.inkscape.org/namespaces/inkscape"
   version="1.1"
   width="1024"
   height="1024"
   viewBox="0 0 1024 1024"
   id="Layer_1"
   xml:space="preserve"
   inkscape:version="0.91 r13725"
   sodipodi:docname="mammals_cat.svg"><metadata
     id="metadata55"><rdf:RDF><cc:Work
         rdf:about=""><dc:format>image/svg+xml</dc:format><dc:type
           rdf:resource="http://purl.org/dc/dcmitype/StillImage" /><dc:title></dc:title></cc:Work></rdf:RDF></metadata><sodipodi:namedview
     pagecolor="#ffffff"
     bordercolor="#666666"
     borderopacity="1"
     objecttolerance="10"
     gridtolerance="10"
     guidetolerance="10"
     inkscape:pageopacity="0"
     inkscape:pageshadow="2"
     inkscape:window-width="1366"
     inkscape:window-height="705"
     id="namedview53"
     showgrid="false"
     showguides="true"
     inkscape:guide-bbox="true"
     inkscape:zoom="0.33286319"
     inkscape:cx="-293.1356"
     inkscape:cy="354.5"
     inkscape:window-x="-8"
     inkscape:window-y="-8"
     inkscape:window-maximized="1"
     inkscape:current-layer="Layer_1"><sodipodi:guide
       position="264.37288,162.22881"
       orientation="1,0"
       id="guide3431" /></sodipodi:namedview><defs
     id="defs103" /><path
     d="m 1.000505,169.5 c 1,6.4 2.3,12.4 4,18 0,3.4 -0.601,6.1 -1.801,8.1 -0.199,0.3 -0.199,0.5 -0.199,0.9 0.3,0 0.6,0 1,0 0,2.4 0,4.6 0,7 0,0.4 0,0.6 0,1 0,0.4 0,0.6 -0.101,1 -0.1,1.8 0.601,2.8 2.101,3 0,0.4 0,0.6 0,1 0,0.4 0,0.6 0,1 0.3,0 0.6,0 1,0 0,3.4 0,6.6 0,10 0,0.4 0,0.6 0,1 0,0.4 0,0.6 0.1,1 2.7,7.9 5.3,15.9 7.9,24 0,0.4 -0.101,0.6 -0.2,0.9 -12.2,26.5 -11.2,52.1 3.2,77.1 0,0.4 0,0.6 0,1 0,0.4 0,0.6 0,1 0.3,0 0.6,0 1,0 -0.101,3 -0.2,6 -0.5,9 0,0 -0.2,0 -0.5,0 0,1.6 0.199,3.2 0.8,4.7 4.399,11.9 11.2,21.7 20.2,29.3 0.399,0 0.5,0.1 0.5,0.1 3.1,11.1 5.3,23.1 6.5,35.9 -0.4,4.6 -0.601,9.4 -1,14 0,0.4 0,0.6 0,1 0.399,0 0.6,0 1,0 0,3 0,6 0,9 0,0.4 0,0.6 0,1 1.5,4.1 2.5,8.8 2.899,14 1.101,14.2 3.5,27.2 7.101,39 0,1 0,2 0,3 0,0.4 0,0.6 0,1 0.399,0 0.6,0 1,0 0,3.4 0,6.6 0,10 0,0.4 0,0.6 0,1 0,0.4 0,0.6 0.1,0.9 2.6,11.399 5.9,22 9.9,32.1 0,1.4 0,2.6 0,4 0,0.4 0,0.6 0,1 0.399,0 0.6,0 1,0 0,3 0,6 0,9 0,0.4 0,0.6 0,1 0,0.4 0,0.5 0.1,0.6 4.3,1.5 6.3,5.301 5.9,11.4 0.399,0 0.5,0.1 0.6,0.2 3.8,6.399 8.2,12 13.4,16.8 0,0.4 0,0.6 0,1 0,2.4 0.399,4.4 1,6 0.399,0 0.5,0.1 0.6,0.2 1.4,2.399 3.1,4.399 5.4,5.8 0,0.4 0,0.6 0.1,1 2.1,12.4 8.400005,20.7 18.900005,25 0,0.3 0,0.7 0,1 1,7.1 2.59999,13.3 5,19 0.399,0 0.59999,0 1,0 1,0 2,0 3,0 0,6.3 0,12.7 0,19 0,0.3 0,0.7 0,1 0,0.3 0,0.7 0.1,1 1,4.8 2.70001,9.2 4.9,13 0,1.7 0,3.3 0,5 0,0.3 0,0.7 0,1 0.399,0 0.6,0 1,0 0,3 0,6 0,9 0,0.3 0,0.7 0,1 0,0.3 0,0.7 0,1 0.30001,7.1 1.30001,13.3 3,19 0,1.3 0,2.7 0,4 0,0.3 0,0.7 0,1 0.399,0 0.6,0 1,0 0,6.3 -0.101,12.7 -0.5,18.9 0,0.1 -0.101,0.1 -0.5,0.1 -0.4,7 -2.601,12.1 -6.79999,15.3 -0.101,0.101 -0.2,0.4 -0.2,0.7 -5,-0.6 -9.301,-0.6 -13,-0.1 -0.40001,0.1 -0.601,0.1 -1,0.1 -8.301,3.7 -16.301005,7.7 -24.101005,11.8 -0.3,0.101 -0.5,0.2 -0.899,0.2 -5.101,10.5 -4.801,20.5 0.899,30 0.9,1.5 2.2,2.5 4.101,3 0.399,0 0.6,0 1,0 2.399,0 4.699,0 7,0 0,0.3 0,0.7 0,1 0.399,0 0.6,0 1.000005,0.2 6,1.8 13,2.8 21,2.8 0,0.3 0,0.5 0.1,0.5 6.3,2 11.9,4.5 16.9,7.5 2.6,-0.3 5.1,-0.1 7.5,0.7 6.1,1.899 13.5,1.5 22.1,-1 17.9,-5.5 33.8,-13.4 47.4,-23.7 0,-0.3 0,-0.7 0.1,-1 1.2,-2.8 2.101,-5.8 2.9,-9 0,-0.3 0,-0.7 0,-1 -0.5,-4.5 -0.101,-8.2 1,-11 0,-0.3 0.1,-0.6 0.2,-0.8 3.8,-3.8 6.8,-8.5 8.8,-14.2 0,-0.3 0,-0.7 0,-1 -0.5,-3.2 -0.101,-5.5 1,-7 0,-2.3 0.5,-3.3 1.5,-3.1 10,2.8 18.1,7.8 24.5,15.1 0.399,0 0.5,0.1 0.7,0.2 1.8,2.1 1.6,3.7 -0.7,4.8 -0.4,0 -0.601,0 -1,0.1 -7.5,1.7 -12.9,5.7 -16,11.9 l -0.5,0 c 0.6,7.7 2.1,14.7 4.5,21 0.399,0 0.5,0.1 0.6,0.2 3.7,5.1 9.101,8.399 16.4,9.8 0.399,0 0.5,0 0.5,0.2 5,12.5 15.8,19.2 32.5,19.8 0.399,0 0.6,0 1,0 2.6,0 5.399,0 8,0 0.399,0 0.6,0 1,-0.1 5,-1.601 10.399,-2.9 16,-3.9 0,-0.4 0,-0.5 0,-0.5 4.399,-0.4 8.6,-0.5 13,-0.5 0,0.4 0,0.6 0,1 0.399,0 0.6,0 1,0 3.399,0 6.399,0.3 9,1 l 0,-0.5 c 7.399,-0.4 14.6,-0.5 22,-0.5 0,0.4 0,0.6 0,1 0.399,0 0.6,0 1,0.2 3.399,1.399 7.5,1.7 12,0.8 0,-0.4 0,-0.5 0,-0.5 3,-0.4 6,-0.5 9,-0.5 0,0.4 0,0.6 0,1 0.399,0 0.5,0.1 0.7,0.2 1.699,2 3.8,3.7 6.3,4.8 0.399,0 0.6,0 1,0 17.2,-1.9 34.5,-2.3 52,-1 0,-0.4 0,-0.5 0,-0.5 5.39898,-0.4 10.59998,-0.5 15.99998,-0.5 0,0.4 0,0.6 0,1 0.399,0 0.6,0 1,0 5.7,-0.4 10.7,0 15,1 0,-0.4 0,-0.5 0,-0.5 3.399,-0.4 6.6,-0.5 10,-0.5 0,0.4 0,0.6 0,1 0.399,0 0.6,0 1,0 22.399,0.6 42.39901,5.4 60,14 0.399,0 0.6,0 1,0 2.6,0 5.399,0 8,0 0,0.4 0.1,0.5 0.199,0.6 7.9,5.301 17.2,9 27.801,11.4 0.399,0 0.6,0 1,0 3,0 6,0 9,0 0,0.4 0,0.6 0,1 0.399,0 0.6,0.1 0.899,0.2 6.3,4.6 12.7,9.1 19.101,13.8 0.399,0 0.6,0 1,-0.1 7.399,-0.7 13.399,0 17.999,2.1 0.4,0 0.601,0 1,0 2.601,0 5.4,0 8,0 0.4,0 0.601,0 1,0.1 6.301,1.301 14.301,2.601 24,3.9 0,-0.3 0,-0.5 0.101,-0.5 4.6,-0.3 9.3,-0.5 13.899,-0.5 0,0.3 0,0.7 0,1 0.4,0 0.601,0 1,0 3.101,0.4 5.4,0 7,-1 0,-0.3 0,-0.5 0.101,-0.5 3.3,-0.3 6.5,-0.5 9.899,-0.5 0,0.3 0,0.7 0,1 0.4,0 0.601,0.1 0.7,0.2 2.20001,2.2 5.4,3.399 9.3,3.8 0,0.3 0,0.7 0,1 0.4,0 0.601,0 1,0 0.601,0 1.4,0 2,0 0,-0.3 0,-0.5 0.101,-0.5 3.899,-0.3 7.899,-0.5 11.899,-0.5 0.4,0 0.601,0 1,0 3,0 6,0 9,0 0,-0.4 0.101,-0.5 0.101,-0.5 4.5,-0.9 9,-1.4 13.899,-1.5 0,-0.4 0,-0.5 0.101,-0.5 2.6,-0.4 5.3,-0.5 7.899,-0.5 0.4,0 0.601,0 0.9,-0.2 4.7,-2.899 10.4,-4.899 17.1,-5.8 0,-0.4 0,-0.5 0.101,-0.5 2.899,-0.4 5.899,-0.5 8.899,-0.5 0,0.3 0,0.6 0,1 0.301,0 0.7,0 1,0.1 3.7,0.4 7.7,0.4 12,-0.1 0,-0.4 0,-0.5 0.101,-0.5 2.6,-0.4 5.2,-0.5 7.899,-0.5 0.301,0 0.7,0 1,-0.1 6.7,-0.601 12.301,-2.301 17,-4.9 0.301,0 0.7,0.1 1,0.1 20.2,4 36.601,2 49,-6.1 0.301,0 0.7,0.1 0.9,0.1 4.5,1.2 9.2,2.101 14.1,2.9 0.301,0 0.7,0 1,0 2.7,0 5.301,0 8,0 1,-1.6 2,-3.2 3,-4.6 0.7,-0.9 0.9,-1.301 1,-1.4 5.101,-4.9 14.4,-7.3 28,-7 0,-0.4 0,-0.5 0,-0.5 5,-0.6 8,-3.1 9,-7.5 0.301,0 0.7,0 1,0 9,-0.4 16.301,-2.4 22,-6 0,-0.4 0,-0.5 0,-0.5 3,-0.4 6,-0.5 9,-0.5 0.4,0 0.601,0 0.9,-0.2 8.1,-5.1 15.8,-10.7 23.1,-16.8 0.4,0 0.601,0 1,0 3.4,0.4 6.101,0 8,-1 0,-0.3 0.101,-0.5 0.2,-0.7 4.5,-3.2 8.4,-7 11.8,-11.3 0,-0.3 0.101,-0.7 0.2,-1 3,-10.3 5.5,-22.7 7.8,-37 -6.3,-5.6 -7.3,-12 -3.199,-19.1 0.199,-0.2 0.199,-0.601 0.199,-0.9 0,-0.299 0,-0.7 0,-1 0,-2.7 0,-5.3 0,-8 0,-0.3 0,-0.7 0,-1 0,-0.3 0,-0.7 0,-1 -3,-1.7 -3.899,-5.2 -2.8,-10.4 0,-0.3 -0.2,-1 -0.899,-2.3 -3.9,-8.2 -8.601,-15.7 -14.101,-22.5 -6.5,-8 -13.8,-11 -22.2,-8.8 -3,0 -6,-0.2 -9,-0.5 0,0 0,-0.2 0,-0.5 -1.5,-0.6 -2.5,-1.5 -3.399,-2.8 -0.101,-0.101 -0.2,-0.2 -0.601,-0.2 -3.6,0 -7.3,0 -11,0 -0.3,0 -0.699,0 -1,0 -2.3,4.7 -7.699,6.3 -16,5.1 -0.3,-0.1 -0.699,-0.1 -1,-0.1 -4,5.3 -10,8.7 -18,9.9 -0.3,0.1 -0.699,0.1 -1,0.1 -17.8,20.2 -39.3,36.8 -64.6,49.9 -8.3,4.3 -18.5,7 -30.4,8.1 -2.3,0 -4.699,0 -7,0 -0.3,0 -0.699,0 -1,0 -7.399,-0.5 -12.8,1.2 -16.3,4.7 -0.1,0.2 -0.399,0.3 -0.7,0.3 -7.5,-1.7 -14.199,-2.6 -20,-3 -0.3,0 -0.699,0 -1,0 -3.199,1.2 -7.199,1.5 -12,1 -0.399,0 -0.6,0 -1,0 -12.399,5.2 -26.199,6.3 -41.3,3.7 -4.5,-0.8 -8.69899,-0.8 -12.79999,0.1 -0.60001,0.101 -1.3,0.2 -1.899,0.2 -4.101,1.2 -9.101,1.5 -15,1 -0.4,0 -0.601,0 -1,0 -4.101,0.7 -7.601,1.7 -10.80101,3.4 -0.1,0 -0.19899,0.3 -0.19899,0.6 -6.4,-1.7 -12.80101,-2 -19,-1.1 -0.4,0.1 -0.601,0.1 -1,0.1 -1.9,1.2 -4.601,1.5 -8,1 -0.4,0 -0.601,0 -1,0 -0.4,0 -0.601,0 -1,0 -0.4,0 -0.601,0 -1,0 -3.9,1.2 -8.5,1.5 -14,1 -0.4,0 -0.601,0 -1,0 -3,0 -6,0 -9,0 -0.4,0 -0.601,0 -1,0 -4.101,-2.6 -9.101,-4.2 -15,-5 -0.4,0 -0.601,0 -1,0 -0.8,-1.6 -2.101,-2.7 -3.8,-3.4 -0.101,-0.1 -0.2,-0.3 -0.2,-0.6 -5.70001,-0.7 -10.601,-2.1 -14.8,-4.4 -0.101,-0.1 -0.2,-0.3 -0.2,-0.6 -1.30101,-3.7 -0.80101,-7.3 1.399,-10.8 0,-0.101 0.2,-0.2 0.601,-0.2 -0.601,-4.1 -0.9,-8.4 -1,-13 0,-0.3 0,-0.7 0,-1 -6.4,-14.3 -11.30101,-30.6 -14.601,-48.7 -3.199,-16.6 -7,-33.1 -11.399,-49.3 -1.101,-1.8 -1.5,-4.5 -1.101,-8 0.101,-0.3 0.101,-0.7 0.101,-1 0,-0.3 0,-0.7 0,-1 -8.3,-20.1 -18.20001,-38.4 -29.8,-55.1 -0.101,-0.301 -0.2,-0.5 -0.2,-0.9 -1.3,-7.5 -4.5,-14.6 -9.8,-21.4 -5,-6.199 -9.301,-13.199 -13.2,-20.6 -2.601,-1.4 -4.9,-3.1 -6.8,-5.2 -0.101,-0.2 -0.2,-0.399 -0.2,-0.8 -1.101,-7.2 -3.8,-12.9 -8,-16.9 -1.8,-1.699 -2.8,-4 -3,-7.1 -1.101,-1.5 -1.5,-3.9 -1,-7 0,-0.4 0,-0.6 0,-1 -6.8,-8.2 -15.101,-14.8 -25.101,-19.8 -0.3,-0.1 -0.5,-0.2 -0.899,-0.2 -11,-14.8 -25.49998,-25.9 -43.79998,-33.4 -0.2,-0.1 -0.2,-0.2 -0.2,-0.6 -9.101,-2.9 -18.5,-5.5 -28,-7.9 -0.4,0 -0.601,-0.1 -1,-0.1 -0.8,-1.6 -2,-2.6 -3.8,-3.4 -0.2,0 -0.2,-0.2 -0.2,-0.6 -7,-0.9 -12.601,-3.4 -16.8,-7.3 -0.101,-0.1 -0.2,-0.3 -0.2,-0.7 -11.101,1.1 -19.2,-0.8 -24.3,-5.8 -0.101,-0.1 -0.301,-0.2 -0.7,-0.2 -3.8,-0.1 -7.101,0.1 -10,0.5 l 0,-0.5 c -2.601,-1.4 -5.4,-2.6 -8.101,-3.8 -0.3,-0.1 -0.5,-0.2 -0.899,-0.2 -1.4,-2.3 -3,-4.4 -4.8,-6.3 -0.101,-0.1 -0.2,-0.3 -0.2,-0.7 -13.3,-8.8 -24.8,-19.1 -34.8,-31.2 -0.101,-0.2 -0.2,-0.4 -0.2,-0.8 -7.601,-0.4 -13.601,-2.3 -18,-5.6 -5.2,-4.1 -10.601,-7.9 -16.101,-11.7 -8.899,-5.8 -18.899,-10.7 -29.899,-14.7 -8.5,1.9 -14.101,0.9 -16.9,-2.9 -0.7,-1.1 -1.1,-2.5 -1.1,-4.1 0,-1.4 0,-2.6 0,-4 0,-0.4 0,-0.6 0,-1 0,-5 0,-10 0,-15 0,-0.4 0,-0.6 -0.101,-1 -1.199,-3.8 -2.199,-7.8 -2.899,-12 -0.5,-1.4 -0.601,-2.3 -0.5,-2.6 5.7,-13.6 8.5,-29.8 8.5,-48.4 0,-0.4 0,-0.6 0,-1 -0.5,-3.1 -0.101,-5.5 1,-7 0,-0.4 0,-0.6 0,-1 0,-3.4 0,-6.6 0,-10 -2.601,-3.7 -4.9,-7.8 -6.8,-12.1 -0.2,-0.3 -0.2,-0.5 -0.2,-0.9 -4.5,-2.5 -9,-5 -13.101,-7.8 -0.3,-0.1 -0.5,-0.2 -0.899,-0.2 -17.4,2 -31.8,6.4 -43.3,13.3 l -1,-1 c -0.7,-0.7 -1.601,-1.1 -2.7,-1.3 -6.601,0 -13.4,-0.1 -20,-0.5 l 0,-0.5 c -12,-2.4 -24.601,-4 -38.000005,-5 -0.4,0 -0.601,0 -1,0 -2,-1.6 -4.7,-2.8 -7.9,-3.5 -0.1,0 -0.1,-0.1 -0.1,-0.5 -6.301,-0.3 -11.301,0.7 -15.101,2.8 -0.3,0.2 -0.5,0.2 -0.899,0.2 -17,-5.4 -30.5,-14.1 -40.801,-26.2 -0.1,-0.2 -0.199,-0.4 -0.199,-0.8 -4.101,-1.6 -7.7,-3.7 -10.801,-6.3 -0.1,-0.2 -0.199,-0.3 -0.199,-0.7 -1.9,-0.8 -4.2,-1.3 -7,-1.5 0,0 0,-0.1 0,-0.5 -0.4,0 -0.7,0 -1,0 -0.601,3.1 -0.9,6.5 -1,10 0,0.4 0,0.6 0,1 0,0.4 0,0.6 0,1 z"
     id="path11"
     inkscape:connector-curvature="0"
     fill="param(fill) #000"
     fill-opacity="param(fill-opacity)"
     stroke="param(outline) #FFF"
     stroke-opacity="param(outline-opacity)"
     stroke-width="param(outline-width) 0" /></svg>