<?xml version="1.0" encoding="UTF-8" standalone="no"?>
<!-- Created with Inkscape (http://www.inkscape.org/) -->

<svg
   xmlns:dc="http://purl.org/dc/elements/1.1/"
   xmlns:cc="http://creativecommons.org/ns#"
   xmlns:rdf="http://www.w3.org/1999/02/22-rdf-syntax-ns#"
   xmlns:svg="http://www.w3.org/2000/svg"
   xmlns="http://www.w3.org/2000/svg"
   xmlns:sodipodi="http://sodipodi.sourceforge.net/DTD/sodipodi-0.dtd"
   xmlns:inkscape="http://www.inkscape.org/namespaces/inkscape"
   version="1.2"
   width="490"
   height="490"
   viewBox="0 0 489.99999 489.99999"
   id="Layer_1"
   xml:space="preserve"
   style="overflow:inherit"
   inkscape:version="0.91 r13725"
   sodipodi:docname="mammals_dormouse.svg"
   inkscape:export-filename="C:\Users\QGIS\Documents\GitHub\phylopic\collections\phylopic\svg\mammals_dormouse.png"
   inkscape:export-xdpi="90"
   inkscape:export-ydpi="90"><metadata
     id="metadata7"><rdf:RDF><cc:Work
         rdf:about=""><dc:format>image/svg+xml</dc:format><dc:type
           rdf:resource="http://purl.org/dc/dcmitype/StillImage" /><dc:title /></cc:Work></rdf:RDF></metadata><sodipodi:namedview
     pagecolor="#ffffff"
     bordercolor="#666666"
     borderopacity="1"
     objecttolerance="10"
     gridtolerance="10"
     guidetolerance="10"
     inkscape:pageopacity="0"
     inkscape:pageshadow="2"
     inkscape:window-width="888"
     inkscape:window-height="480"
     id="namedview5"
     showgrid="false"
     inkscape:zoom="0.56145425"
     inkscape:cx="244.0005"
     inkscape:cy="210.1685"
     inkscape:window-x="0"
     inkscape:window-y="0"
     inkscape:window-maximized="0"
     inkscape:current-layer="Layer_1" /><defs
     id="defs7" /><path
     d="m 489.00074,369.16874 c -0.333,0 -0.667,0 -1,0 -3.756,24.716 -12.635,43.934 -30,58 -20.512,16.615 -34.273,27.952 -67,28 -16.856,0.024 -30.775,-8.135 -48,-9 -20.449,-13.552 -50.25,-17.75 -63,-39 -13.857,-3.98 -25.249,0.935 -40,-3 -3.701,-0.701 -2.494,3.506 -4,5 -8.033,-5.303 -19.844,-5.376 -33,-5 -18.911,0.541 -32.53,-7.165 -42,5 -2.474,-0.859 0.294,-6.961 -2,-8 -5.316,-1.934 -8.081,3.853 -10,2 -4.395,-7.453 1.155,-11.626 4,-17 -1.208,-6.458 -12.426,-2.907 -18,-5 -3.395,5.804 -11.943,0.293 -14,7 -5.266,-5.067 -16.636,-4.03 -18,-13 2.412,-6.588 7.358,-10.642 13,-14 4.052,1.947 9.873,2.127 16,2 -6.125,-32.487 -10.099,-61.791 0,-92 -8.264,-6.214 -17.241,-9.161 -27,-15 -11.135003,-6.662 -17.673003,-18.018 -35.000003,-17 -9.668,-6.429 -25.653,-2.929 -37,-9 -0.973,-3.973 5.589,-0.411 5,-4 0.239,-6.521 -6.312,-7.146 -3,-14 -5.988,-3.844 -21.07,-9.332 -25,-1 -3.0000004,0 -6.0000004,0 -9.0000004,0 0.021,-11.583 -0.57499995,-33.695 9.0000004,-35 7.518,-1.024 8.317,9.999 19,8 3.677,6.99 10.192,11.141 18,14 3.352,-0.314 1.008,-6.325 4,-7 4.333,0.333 3.795,5.538 6,8 8.081,0.613 17.653,3.847 26,1 5.23,-7.77 9.186,-16.814 10,-29 -5.303,-5.896 -21.242,-7.219 -26,0 -10.298,-0.702 -14.069,-7.931 -23,-10 -4.257,-15.41 -15.608,-23.725 -33,-26 7.545,-2.19699 15.475,3.847 23,5 -0.086,-1.419 -0.165,-2.832 1,-3 -5.949,-7.38499 -18.753,-7.91399 -30.0000004,-9.99999 11.0700004,-1.729 24.0020004,3.326 32.0000004,7.99999 -7.996,-10.67099 -16.565,-20.76799 -33.0000004,-22.99999 2.73,-2.013 9.5380004,0.424 12.0000004,2 2.438,-1.232 -3.138,-2.768 -4,-4 10.192,2.48 17.113,16.883 28,22 3.902,-6.294 -5.15,-11.424 -9,-16 -4.713,-5.602 -8.21,-12.171 -13,-16 3.04,-1.337003 5.563,6.41 9,8 6.028,0.028 10.295,-1.705 17,-1 -2.852,-6.229 -1.599,-13.299003 0,-20.000003 -2.604,-5.73 -7.733,-8.934 -12,-13 4.645,-0.625 9.162,7.49 13,11 3.131,-2.869 5.41,-6.59 5,-13 6.902,-1.432 7.812,-8.854998 12,-12.999998 12.147,-4.916 25.284,-41.947 37,-14 9.840003,7.068 21.875003,2.461 33.000003,5 3.232,0.738 4.661,3.476 8,5 4.347,1.984 10.515,1.428 14,3 11.396,5.14 15.263,18.179998 25,23.999998 7.493,12.173 14.939,24.395003 21,38.000003 19.267,5.733 33.381,16.61899 49,25.99999 -0.792,3.458 1.112,4.222 2,6 59.547,17.577 94.457,70.717 93,144 -0.306,15.371 -6.69,30.027 -10,44 -4.35,18.364 -9.184,35.007 -17,50 -1.904,0.429 -2.513,2.154 -5,2 -3.729,20.104 14.47,21.791 37,26 19.496,3.643 66.724,12.99 72,-11 4.5,-0.834 2.628,4.705 8,3 3.461,-6.206 2.746,-16.588 11,-18 -2.341,-21.015 -2.19,-38.26 -5,-55 -3.715,-22.137 -22.136,-41.575 -29,-63 -2.406,-7.51 -2.6,-15.87 -3,-24 23.596,9.405 39.216,26.784 58,41 1.429,4.904 5.498,7.168 6,13 14.081,11.919 12.031,39.969 22,56 0,3 0,6 0,9 z M 45.000737,126.16875 c 1.798,-4.178 1.669,-14.06 -1,-17 -5.017,0.65 -12.644,-1.311 -16,1 6.295,4.706 8.33,13.671 17,16 z"
     id="path3"
     fill="param(fill) #000"
     fill-opacity="param(fill-opacity)"
     stroke="param(outline) #FFF"
     stroke-opacity="param(outline-opacity)"
     stroke-width="param(outline-width) 0"
     inkscape:connector-curvature="0" /></svg>