<?xml version="1.0" encoding="UTF-8" standalone="no"?>
<!-- Created with Inkscape (http://www.inkscape.org/) -->

<svg
   xmlns:dc="http://purl.org/dc/elements/1.1/"
   xmlns:cc="http://creativecommons.org/ns#"
   xmlns:rdf="http://www.w3.org/1999/02/22-rdf-syntax-ns#"
   xmlns:svg="http://www.w3.org/2000/svg"
   xmlns="http://www.w3.org/2000/svg"
   xmlns:sodipodi="http://sodipodi.sourceforge.net/DTD/sodipodi-0.dtd"
   xmlns:inkscape="http://www.inkscape.org/namespaces/inkscape"
   version="1.1"
   width="915"
   height="915"
   viewBox="0 0 915 915"
   id="Layer_1"
   xml:space="preserve"
   inkscape:version="0.91 r13725"
   sodipodi:docname="mammals_fox.svg"><metadata
     id="metadata7"><rdf:RDF><cc:Work
         rdf:about=""><dc:format>image/svg+xml</dc:format><dc:type
           rdf:resource="http://purl.org/dc/dcmitype/StillImage" /><dc:title></dc:title></cc:Work></rdf:RDF></metadata><sodipodi:namedview
     pagecolor="#ffffff"
     bordercolor="#666666"
     borderopacity="1"
     objecttolerance="10"
     gridtolerance="10"
     guidetolerance="10"
     inkscape:pageopacity="0"
     inkscape:pageshadow="2"
     inkscape:window-width="659"
     inkscape:window-height="480"
     id="namedview5"
     showgrid="false"
     fit-margin-top="0"
     fit-margin-left="0"
     fit-margin-right="0"
     fit-margin-bottom="0"
     inkscape:zoom="0.236"
     inkscape:cx="460.02753"
     inkscape:cy="175.9422"
     inkscape:window-x="160"
     inkscape:window-y="56"
     inkscape:window-maximized="0"
     inkscape:current-layer="Layer_1" /><defs
     id="defs7" /><path
     d="m 11.472764,601.02422 c -47.804,-35.023 59.918,-199.661 230.604996,-233.357 93.738,-18.504 98.984,-53.118 165.012,-55.37 66.031,-2.259 131.001,12.217 179.864,5.637 48.861,-6.574 127.303,9.399 198.97,-0.243 34.454,-64.34 69.413,-75.682 63.833,-18.542 14.536,-15.221 46.049,-2.88 46.049,-2.88 l -39.469,51.745 c 0,0 22.618,20.172 18.728,40.594 -3.886,20.426 16.786,50.806 39.844,74.239 -3.886,20.422 -32.326,30.886 -60.58,18.106 -28.256,-12.784 -96.035,-23.563 -101.175,36.829 30.882,32.331 46.437,91.125 141.33,113.647 5.89,19.106 -4.995,19.141 -42.643,21.355 -17.81,1.048 -57.271,-20.832 -90.093,-42.951 -32.829,-22.114 -59.712,-87.997 -190.394,-87.479 -15.248,19.987 -18.29,55.726 -2.362,85.384 4.689,8.73 20.952,9.428 20.96,28.196 -54.481,6.373 -62.275,-10.191 -77.528,-119.337 -65.998,-9.428 -73.331,33.523 -126.322,34.004 -32.87,0.299 -36.653,53.281 -15.347,58.976 26.435,7.065 26.018,19.112 13.864,27.493 -16.761,4.189 -36.665,-1.048 -36.665,-1.048 0,0 -60.76,-50.808 -26.818,-99.367 0.628,-19.987 -59.399,3.941 -60.58,17.842 -2.57,30.194 8.829,74.192 -25.742,73.145 -8.442,-0.256 3.591,-19.613 -2.095,-55.521 -4.421,-27.927 -14.531,-45.242 -6.742,-53.001 7.79,-7.76 36.074,-9.854 57.513,-40.918 -155.529,10.111 -167.052,199.723 -272.016996,122.822 z"
     id="path3"
     inkscape:connector-curvature="0"
     fill="param(fill) #000"
     fill-opacity="param(fill-opacity)"
     stroke="param(outline) #FFF"
     stroke-opacity="param(outline-opacity)"
     stroke-width="param(outline-width) 0" /></svg>