<?xml version="1.0" encoding="UTF-8" standalone="no"?>
<!-- Created with Inkscape (http://www.inkscape.org/) -->

<svg
   xmlns:dc="http://purl.org/dc/elements/1.1/"
   xmlns:cc="http://creativecommons.org/ns#"
   xmlns:rdf="http://www.w3.org/1999/02/22-rdf-syntax-ns#"
   xmlns:svg="http://www.w3.org/2000/svg"
   xmlns="http://www.w3.org/2000/svg"
   xmlns:sodipodi="http://sodipodi.sourceforge.net/DTD/sodipodi-0.dtd"
   xmlns:inkscape="http://www.inkscape.org/namespaces/inkscape"
   version="1.2"
   width="215"
   height="215"
   viewBox="0 0 215 215"
   id="Layer_2"
   xml:space="preserve"
   inkscape:version="0.91 r13725"
   sodipodi:docname="mammals_shrew.svg"><metadata
     id="metadata8"><rdf:RDF><cc:Work
         rdf:about=""><dc:format>image/svg+xml</dc:format><dc:type
           rdf:resource="http://purl.org/dc/dcmitype/StillImage" /><dc:title></dc:title></cc:Work></rdf:RDF></metadata><sodipodi:namedview
     pagecolor="#ffffff"
     bordercolor="#666666"
     borderopacity="1"
     objecttolerance="10"
     gridtolerance="10"
     guidetolerance="10"
     inkscape:pageopacity="0"
     inkscape:pageshadow="2"
     inkscape:window-width="1366"
     inkscape:window-height="705"
     id="namedview6"
     showgrid="false"
     fit-margin-top="0"
     fit-margin-left="0"
     fit-margin-right="0"
     fit-margin-bottom="0"
     inkscape:zoom="3.337544"
     inkscape:cx="55.0815"
     inkscape:cy="57.675317"
     inkscape:window-x="-8"
     inkscape:window-y="-8"
     inkscape:window-maximized="1"
     inkscape:current-layer="Layer_2" /><defs
     id="defs9" /><path
     d="m 40.172998,70.741904 c 0.042,-0.023 0.083,-0.048 0.125,-0.075 l 0,-0.075 c -0.042,0.052 -0.083,0.102 -0.125,0.15 z m -1.625,0.85 c 1.081,-0.814 1.698,-1.298 1.85,-1.45 0.062,0 0.188,0.075 0.375,0.225 0.342,-0.226 0.7,-0.459 1.075,-0.7 0.553,-0.355 1.137,-0.73 1.75,-1.125 0.359,-0.234 0.709,-0.459 1.05,-0.675 0.228,-0.155 0.453,-0.305 0.675,-0.45 0.073,-0.106 0.165,-0.215 0.275,-0.325 0.266,-0.266 0.575,-0.425 0.925,-0.475 2.122,-1.421 3.597,-2.462 4.425,-3.125 0.623,-0.524 1.398,-1.107 2.325,-1.75 1.83,-1.504 3.421,-2.587 4.775,-3.25 0.966,-0.499 2.049,-0.999 3.25,-1.5 2.073,-1.017 3.797,-1.642 5.175,-1.875 3.821,-1.25 6.795999,-1.875 8.924999,-1.875 0.433,0 0.566,0.033 0.4,0.1 l 0.15,-0.05 c 0.067,0.034 0.1,0.184 0.1,0.45 0,0.2 -0.45,0.567 -1.35,1.1 0.6,-0.167 1.75,-0.567 3.45,-1.2 0.167,0 0.733,-0.133 1.7,-0.4 0.913,-0.065 1.446,0.36 1.6,1.275 0.105,0.022 0.214,0.047 0.325,0.075 1.35,0.018 2.641,0.134 3.875,0.35 1.566,0.267 2.65,0.667 3.25,1.2 1.267,0.2 2.133,0.583 2.6,1.15 0.4,0.467 0.933,0.7 1.6,0.7 0.367,0 1.534,-0.133 3.5,-0.4 2.333,-0.3 4.650003,-0.45 6.950003,-0.45 0.267,0 1.6,-0.467 4,-1.4 0.2,0 0.3,0.083 0.3,0.25 0,0.167 0.1,0.25 0.3,0.25 1.233,0 2.8,-0.383 4.7,-1.15 1.9,-0.8 3.334,-1.2 4.3,-1.2 0.434,0 0.65,0.317 0.65,0.95 1.434,-0.467 2.267,-0.533 2.5,-0.2 0.533,0 1.05,-0.05 1.55,-0.15 0.5,-0.1 1.233,-0.15 2.2,-0.15 0.767,0 1.934,-0.283 3.5,-0.85 1.866,-0.7 3.116,-1.117 3.75,-1.25 l 0.25,0.4 c -0.233,0.333 -0.684,0.7 -1.35,1.1 -0.534,0.367 -0.884,0.567 -1.051,0.6 0.267,0.033 0.934,-0.083 2,-0.35 0.267,0 0.45,0.05 0.551,0.15 0.033,0.067 0.066,0.184 0.1,0.35 -0.3,0.2 -0.717,0.4 -1.25,0.6 -0.5,0.167 -0.8,0.267 -0.9,0.3 0.2,0.067 1.284,0.017 3.25,-0.15 3,0 4.967,0.133 5.9,0.4 0.767,0.233 1.184,0.717 1.25,1.45 0.233,0.033 1.25,0.05 3.05,0.05 0.832,0.061 1.523,0.177 2.075,0.35 0.776,-0.049 1.651,-0.083 2.625,-0.1 -0.446,0.341 -0.921,0.6 -1.425,0.775 0.064,0.072 0.123,0.147 0.175,0.225 0.72,0 1.319,0.025 1.8,0.075 0.285,-0.101 0.602,-0.226 0.95,-0.375 l 0.85,0.15 c -0.129,0.104 -0.487,0.229 -1.074,0.375 0.127,0.036 0.235,0.077 0.324,0.125 0.08,0.048 0.146,0.123 0.2,0.225 0.435,-0.007 0.9,-0.016 1.4,-0.025 0.899,-0.034 1.7,-0.017 2.399,0.05 l -0.1,0.1 -2.15,0.15 c 1.934,0.1 2.934,0.183 3,0.25 l -0.1,0.1 c -0.668,0.036 -1.343,0.094 -2.025,0.175 0.017,0.059 0.025,0.133 0.025,0.225 0,0.023 0,0.048 0,0.075 1.683,0.065 2.549,0.124 2.6,0.175 l -0.1,0.1 c -1.013,0.058 -2.63,0.233 -4.85,0.525 0.275,0.064 0.583,0.123 0.925,0.175 2.131,0.081 3.223,0.148 3.274,0.2 l -0.1,0.1 c -0.226,0.014 -0.451,0.03 -0.675,0.05 0.276,0.024 0.56,0.049 0.85,0.075 0.343,-0.083 0.618,-0.125 0.825,-0.125 0.634,0 1,0.05 1.1,0.15 -0.165,0.042 -0.323,0.083 -0.475,0.125 0.735,0.111 1.277,0.261 1.625,0.45 0.314,-0.076 0.647,-0.184 1,-0.325 l 1.1,0.25 c -0.592,0.031 -1.183,0.148 -1.774,0.35 0.16,0.23 0.136,0.497 -0.075,0.8 0.1,0.033 0.866,0.233 2.3,0.6 0.334,0.079 0.567,0.204 0.7,0.375 l 2.1,-0.125 c -0.346,-0.121 -0.837,-0.221 -1.475,-0.3 1.406,0.09 2.165,0.19 2.275,0.3 l 0,0.35 c -0.352,0.125 -1.269,0.234 -2.75,0.325 -0.01,0.032 -0.018,0.065 -0.025,0.1 0.969,0.015 1.511,0.057 1.625,0.125 l 0.1,0.1 c -0.199,0.2 -1.066,0.367 -2.6,0.5 2.5,0.067 3.783,0.15 3.85,0.25 -0.066,0.1 -0.816,0.183 -2.25,0.25 l 0.7,0.05 c 0.5,0.067 0.767,0.133 0.8,0.2 -0.065,0.109 -0.674,0.218 -1.824,0.325 0.287,0.191 0.587,0.367 0.899,0.525 0.595,0.055 0.902,0.105 0.925,0.15 -0.019,0.028 -0.127,0.062 -0.324,0.1 0.251,0.093 0.51,0.176 0.774,0.25 1.667,0.467 2.867,0.983 3.601,1.55 -0.157,0.224 -0.308,0.407 -0.45,0.55 0.583,0.391 1.233,0.857 1.95,1.4 0.403,0.061 0.804,0.111 1.199,0.15 -0.028,0.028 -0.328,0.062 -0.899,0.1 0.847,0.659 1.78,1.426 2.8,2.3 0,0.209 -0.042,0.367 -0.125,0.475 0.318,0.202 0.677,0.427 1.075,0.675 1.399,0.8 2.416,1.284 3.05,1.45 l 0.15,0.25 c -0.7,-0.067 -1.184,0.083 -1.45,0.45 -0.175,0.232 -0.466,0.391 -0.875,0.475 0.541,0.175 1.049,0.4 1.524,0.675 1.2,0.7 1.801,1.467 1.801,2.3 0,0.19 -0.034,0.357 -0.101,0.5 1.345,1.513 2.837,3.346 4.476,5.5 0.947,0.542 1.964,1.234 3.05,2.075 0.054,0.042 0.112,0.084 0.175,0.125 l 0,0.025 c 0.407,0.319 0.824,0.661 1.25,1.025 l 0,0.35 -0.4,0 c -0.521,0 -1.146,-0.208 -1.875,-0.625 0.427,0.575 0.826,1.125 1.2,1.65 0.103,0.054 0.211,0.112 0.325,0.175 0.566,0.333 1.15,0.633 1.75,0.9 l 0.3,0.1 c 0.233,0.1 0.384,0.2 0.45,0.3 l -0.15,0.15 -1.524,0 c 2.184,3.125 3.274,4.958 3.274,5.5 0,0.333 -0.149,0.55 -0.449,0.65 -0.334,0.1 -1,0.083 -2,-0.05 0.133,0.467 0.199,0.967 0.199,1.499996 l -0.024,0.05 c 0.156,0.148 0.314,0.299 0.475,0.45 1.4,1.333 5.884,6.25 13.45,14.75 0.641,0.6 1.257,1.183 1.85,1.75 7.5,5.333 11.267,12.267 11.301,20.8 0,4.167 -1.617,7.617 -4.851,10.351 -6.033,5.066 -12.95,8.1 -20.75,9.1 -7.566,1.134 -15.184,1.233 -22.85,0.3 -7.9,-1 -15.717,-2.366 -23.45,-4.1 -7.634,-1.634 -15.3,-1.467 -23,0.5 -12.127,1.866 -19.660003,3.883 -22.600003,6.05 -2.94,2.167 -5.307,2.934 -7.1,2.3 l 0.3,-0.649 c 3.3,-5.034 8.367,-8.534 15.200003,-10.5 5.034,-1.367 10.017,-2.551 14.95,-3.551 10.066,-2.333 20.116,-2.3 30.15,0.101 6.533,1.5 13.149,2.149 19.85,1.95 8.668,0.669 16.552,-0.14 23.65,-2.426 7.095,-2.291 10.97,-5.332 11.625,-9.125 0.654,-3.792 -0.42,-7.283 -3.226,-10.475 -2.802,-3.186 -6.068,-6.244 -9.8,-9.175 -0.667,-0.5 -1.316,-0.983 -1.95,-1.45 -3.555,-2.72 -6.055,-4.67 -7.5,-5.85 -0.808,-0.648 -1.491,-1.232 -2.05,-1.75 -0.054,0 -0.104,0 -0.15,0 -0.199,0 -0.399,-0.083 -0.6,-0.25 -0.2,-0.167 -0.4,-0.25 -0.6,-0.25 l -0.025,0.025 c -0.009,0.057 -0.017,0.116 -0.025,0.175 -0.1,0.467 -0.3,0.816 -0.6,1.05 -0.833,-0.7 -1.333,-1.083 -1.5,-1.15 l 0.4,0.9 c 0,0.1 -0.051,0.167 -0.15,0.2 -0.134,0 -0.25,-0.033 -0.35,-0.1 l 0.1,0.5 -0.15,0.15 c -0.404,-0.311 -0.813,-0.702 -1.225,-1.175 -0.101,0.017 -0.226,0.025 -0.375,0.025 -0.168,0 -0.31,-0.017 -0.425,-0.05 0.267,0.298 0.625,0.681 1.075,1.149 0,0.101 -0.051,0.2 -0.15,0.301 -0.457,-0.241 -0.957,-0.657 -1.5,-1.25 l 0,0.1 c 0.066,0.167 -0.1,0.25 -0.5,0.25 -0.588,-0.155 -1.029,-0.238 -1.325,-0.25 0.354,0.458 0.962,1.208 1.825,2.25 l -0.15,0.15 c -0.3,-0.034 -0.649,-0.284 -1.05,-0.75 -0.399,-0.534 -0.7,-0.917 -0.899,-1.15 0.199,0.533 0.649,1.283 1.35,2.25 0,0.1 -0.167,0.184 -0.5,0.25 -1.402,-1.711 -2.569,-3.044 -3.5,-4 0.033,0.233 0.233,0.6 0.6,1.1 0.334,0.5 0.5,0.867 0.5,1.1 0.574,0.702 0.874,1.186 0.9,1.45 0,0.133 -0.083,0.25 -0.25,0.35 -0.239,-0.199 -0.539,-0.508 -0.9,-0.925 -0.157,0.22 -0.391,0.37 -0.699,0.45 0.181,0.305 0.38,0.63 0.6,0.975 -0.4,0.167 -0.634,0.35 -0.7,0.55 -0.033,0.134 -0.3,0.2 -0.8,0.2 -0.3,0 -0.866,-0.366 -1.7,-1.1 -0.407,-0.392 -0.732,-0.7 -0.975,-0.926 -0.146,-0.03 -0.288,-0.072 -0.425,-0.125 0,0.029 0,0.062 0,0.101 0.264,0.588 0.847,1.488 1.75,2.7 0,0.118 -0.108,0.202 -0.325,0.25 0.751,0.811 1.793,1.678 3.125,2.6 3.033,2.1 4.55,3.517 4.55,4.25 0,1.733 -1.033,3.267 -3.1,4.6 -2.395,1.557 -4.345,2.907 -5.851,4.051 -0.317,0.486 -0.751,1.02 -1.3,1.6 -1.162,1.236 -2.471,2.012 -3.925,2.325 -0.473,0.264 -0.981,0.522 -1.525,0.774 -1.833,0.834 -2.883,1.384 -3.149,1.65 -0.834,1.2 -1.584,2.2 -2.25,3 -1.2,1.5 -2.25,2.25 -3.15,2.25 -0.634,0 -1.517,-0.283 -2.65,-0.85 -1.033,-0.5 -1.683,-0.934 -1.949,-1.301 -0.437,1.293 -0.778,2.335 -1.025,3.125 -0.459,-0.062 -0.717,-0.354 -0.775,-0.875 0.034,-0.666 0.051,-1.083 0.051,-1.25 l -0.051,-0.1 c -0.633,2.033 -1,3.333 -1.1,3.9 l -0.5,0.199 c -0.333,-0.1 -0.533,-0.3 -0.6,-0.6 -0.034,-0.1 -0.051,-0.384 -0.051,-0.85 0,-0.7 0.233,-1.801 0.7,-3.301 0.467,-1.433 0.95,-2.633 1.45,-3.6 l 0,-0.248 c -2.134,1.033 -3.616,1.684 -4.45,1.95 -2.3,0.733 -4.983,1.133 -8.05,1.2 l 0,2.35 -0.1,0.15 c -0.034,0.066 -0.167,0.1 -0.4,0.1 -0.434,0 -0.733,-0.233 -0.9,-0.7 -0.066,-0.5 -0.133,-0.816 -0.199,-0.95 l -0.051,-0.1 c -0.033,0.066 -0.066,0.583 -0.1,1.55 0,0.7 -0.333,1.05 -1,1.05 -0.434,0 -0.733,-0.517 -0.9,-1.55 -0.066,-1.066 -0.1,-1.616 -0.1,-1.649 0,-0.2 0.217,-0.767 0.65,-1.7 0.433,-0.9 0.716,-1.434 0.85,-1.601 l 0,-0.1 c -0.6,0.434 -1.35,1.167 -2.25,2.2 -0.967,1.133 -1.634,1.85 -2,2.149 -0.434,-0.433 -0.65,-0.85 -0.65,-1.25 0,-1.899 1.101,-3.533 3.301,-4.899 0.098,-0.062 0.198,-0.119 0.3,-0.175 -0.134,-0.113 -0.2,-0.271 -0.2,-0.476 0,-0.7 1.25,-1.35 3.75,-1.95 1.5,-0.333 4.25,-0.85 8.25,-1.55 8,-1.6 12,-3.816 12,-6.649 0,-1.083 -0.491,-2.383 -1.475,-3.9 l -0.025,0 c -0.467,0 -0.884,-0.517 -1.25,-1.55 -0.035,-0.114 -0.068,-0.223 -0.1,-0.325 -0.251,-0.312 -0.518,-0.628 -0.801,-0.95 -0.066,0.615 -0.1,1.24 -0.1,1.875 0,0.033 -0.017,0.417 -0.05,1.15 -0.167,0.7 -0.566,1.05 -1.2,1.05 -0.434,0 -0.866,-0.15 -1.3,-0.45 -0.434,-0.333 -0.7,-0.717 -0.8,-1.149 l -0.052,-0.151 c -0.166,0.634 -0.25,1.467 -0.25,2.5 0,0.9 -0.25,1.35 -0.75,1.35 -0.433,0 -0.767,-0.267 -1,-0.8 -0.233,-0.6 -0.433,-0.983 -0.6,-1.149 -0.134,0.633 -0.6,0.783 -1.4,0.449 -0.199,0.301 -0.649,0.884 -1.35,1.75 -0.267,-0.233 -0.55,-0.566 -0.85,-1 -0.167,-0.3 -0.351,-0.449 -0.551,-0.449 -0.8,0 -1.267,0.25 -1.399,0.75 -0.101,0.233 -0.134,0.566 -0.101,1 l -0.35,0.1 c -0.267,-0.267 -0.45,-0.5 -0.55,-0.7 -0.101,-0.267 -0.2,-0.5 -0.3,-0.7 l -0.049,0 c 0,0.101 -0.033,0.483 -0.1,1.15 l -0.5,0.25 c -0.4,-0.134 -0.616,-0.5 -0.65,-1.1 0.034,-0.667 0.034,-1.084 0,-1.25 l -0.1,0 c -0.1,0.399 -0.233,1.066 -0.4,2 l -0.35,0.1 c -0.264,-0.148 -0.455,-0.356 -0.575,-0.625 -0.314,0.7 -0.673,1.191 -1.075,1.475 -0.066,-0.233 -0.017,-0.683 0.15,-1.35 -0.167,0.1 -0.333,0.333 -0.5,0.7 -0.167,0.467 -0.283,0.733 -0.35,0.8 l -0.301,0.1 c -0.033,-0.033 -0.066,-0.05 -0.1,-0.05 0,-0.033 0,-0.166 0,-0.399 0,-0.075 0.009,-0.159 0.025,-0.25 l -0.025,0 c -0.146,0 -0.279,-0.009 -0.4,-0.025 -0.09,0.41 -0.124,0.735 -0.1,0.975 l -0.25,0.301 c -0.033,-0.167 -0.15,-0.301 -0.35,-0.4 -0.267,-0.134 -0.434,-0.267 -0.5,-0.4 -0.667,0.667 -1.184,1.017 -1.551,1.051 -0.015,-0.103 -0.022,-0.211 -0.024,-0.325 -0.026,0.029 -0.052,0.055 -0.075,0.075 -0.553,-0.246 -0.854,-0.663 -0.9,-1.25 -0.066,-0.101 -0.1,-0.4 -0.1,-0.9 -0.066,0.066 -0.2,0.316 -0.4,0.75 -0.233,0.434 -0.383,0.8 -0.449,1.1 l -0.301,0.051 c -0.033,-0.034 -0.066,-0.051 -0.1,-0.051 l 0,-0.404 c 0,-0.294 0.125,-0.986 0.375,-2.075 -0.022,-0.014 -0.047,-0.03 -0.075,-0.05 -0.082,0.261 -0.182,0.586 -0.3,0.975 -0.267,0.834 -0.684,1.483 -1.25,1.95 l -0.75,-0.1 0,-0.9 c -0.634,0.4 -1.017,0.616 -1.15,0.65 -0.015,-0.213 -0.023,-0.455 -0.024,-0.726 -0.092,0.05 -0.2,0.075 -0.325,0.075 -0.288,0 -0.513,-0.059 -0.675,-0.175 l -0.075,0.076 c -0.021,-0.056 -0.038,-0.113 -0.05,-0.176 -0.099,-0.1 -0.166,-0.225 -0.2,-0.375 -0.091,-0.361 -0.165,-0.653 -0.225,-0.875 l -0.275,2.025 c -0.066,0.1 -0.15,0.184 -0.25,0.25 -0.267,-0.267 -0.417,-0.616 -0.45,-1.05 0.033,-0.4 0.017,-0.684 -0.05,-0.851 -0.1,-0.166 -0.35,-0.25 -0.75,-0.25 -0.267,0 -0.35,0.067 -0.25,0.2 0.1,0.2 0.134,0.316 0.1,0.351 -0.166,0 -0.333,-0.084 -0.5,-0.25 -0.199,-0.167 -0.399,-0.25 -0.6,-0.25 -0.066,0 -0.417,-0.417 -1.05,-1.25 -0.264,-0.369 -0.497,-0.719 -0.7,-1.051 -0.018,-0.024 -0.034,-0.049 -0.05,-0.074 -0.32,-0.427 -0.554,-0.785 -0.7,-1.075 l 0,0.149 -0.25,0.301 c -0.053,-0.029 -0.103,-0.062 -0.15,-0.101 -0.213,0.4 -0.463,0.601 -0.75,0.601 -0.122,0 -0.238,-0.025 -0.35,-0.075 l 0,1.675 -0.15,0.15 c -0.399,-0.301 -0.767,-0.733 -1.1,-1.301 l -0.025,0 c -0.019,0.264 -0.044,0.488 -0.074,0.676 0.078,0.278 0.194,0.603 0.35,0.975 l -0.15,0.15 c -0.225,-0.07 -0.425,-0.188 -0.6,-0.351 -0.243,0.211 -0.585,0.369 -1.025,0.476 l -0.074,0.324 c -0.034,0.101 -0.134,0.184 -0.3,0.25 -0.134,-0.166 -0.259,-0.324 -0.375,-0.475 -0.226,0.017 -0.468,0.025 -0.725,0.025 0.045,0.143 0.095,0.293 0.15,0.449 -0.033,0.101 -0.133,0.184 -0.3,0.25 -0.236,-0.298 -0.445,-0.557 -0.625,-0.774 0.183,0.53 0.275,1.089 0.275,1.675 0,0.333 -0.35,1.517 -1.05,3.55 -0.733,2.2 -1.383,3.767 -1.95,4.7 -6.033003,4.566 -10.450003,6.85 -13.250003,6.85 -2.7,0 -4.333,-0.183 -4.9,-0.55 -0.167,-0.533 -0.317,-0.934 -0.45,-1.2 -0.133,0.567 -0.233,1.733 -0.3,3.5 -0.067,0.2 -0.317,0.301 -0.75,0.301 -0.9,0 -1.35,-0.617 -1.35,-1.851 0.167,-1.366 0.25,-2.166 0.25,-2.399 l 0,-0.149 c -0.933,0.533 -1.383,1.116 -1.35,1.75 0.033,0.366 0.15,0.95 0.35,1.75 0,0.4 -0.033,0.616 -0.1,0.65 l -0.15,0.199 c -0.1,0.101 -0.267,0.15 -0.5,0.15 -0.067,0 -0.683,-0.816 -1.85,-2.45 -1.167,-1.7 -1.75,-2.7 -1.75,-3 0,-0.233 0.067,-0.7 0.2,-1.399 0.133,-0.9 0.3,-1.483 0.5,-1.75 -0.567,0.199 -1.417,0.933 -2.55,2.199 -0.909,1.025 -1.584,2.617 -2.025,4.775 -0.609,-0.558 -0.951,-1.232 -1.025,-2.025 -0.033,-0.166 0.017,-1.116 0.15,-2.85 l 0,-0.15 c -1.015,1.614 -1.772999,2.905 -2.274999,3.875 -0.35,-0.271 -0.525,-0.829 -0.525,-1.675 0,-1.366 0.233,-2.366 0.7,-3 1.199999,-1.166 2.482999,-2.467 3.849999,-3.899 l 0,-0.15 c 0,-0.167 -0.2,-0.25 -0.6,-0.25 -0.772,0 -1.989,0.483 -3.649999,1.45 0.079,-0.625 0.779,-1.425 2.099999,-2.4 1.6,-1.166 3.15,-1.733 4.65,-1.7 5.434,0.101 8.85,-0.183 10.25,-0.85 0.567,-0.267 0.85,-0.934 0.85,-2 0,-2.934 -0.833,-6.616 -2.5,-11.05 -0.138,-0.321 -0.272,-0.63 -0.4,-0.925 -0.112,-0.017 -0.229,-0.025 -0.35,-0.025 -2.067,-2.134 -3.183,-3.8 -3.35,-5 -0.133,0.233 -0.267,0.45 -0.4,0.65 -0.267,0.333 -0.517,0.5 -0.75,0.5 -0.367,0 -0.583,-0.133 -0.65,-0.4 -0.033,-0.3 -0.067,-0.5 -0.1,-0.6 -0.167,0.3 -0.333,0.5 -0.5,0.6 -0.2,0.1 -0.5,0.15 -0.9,0.15 -0.867,0 -1.3,-0.367 -1.3,-1.1 0.105,-0.657 0.172,-1.099 0.2,-1.325 -0.063,-0.016 -0.122,-0.032 -0.175,-0.05 -0.454,0.65 -0.946,0.975 -1.475,0.975 -0.3,0 -0.7,-0.333 -1.2,-1 -0.5,-0.667 -0.883,-1 -1.15,-1 -0.367,0 -0.583,-0.2 -0.65,-0.6 -0.033,-0.433 -0.067,-0.7 -0.1,-0.8 -0.1,0.067 -0.283,0.283 -0.55,0.65 -0.233,0.333 -0.467,0.5 -0.699999,0.5 -0.067,0 -1.483,-1.583 -4.25,-4.75 -0.2,0 -0.517,-0.199996 -0.95,-0.599996 -0.466,-0.4 -0.7,-0.75 -0.7,-1.05 -0.067,0.233 -0.15,0.45 -0.25,0.65 l -0.35,0.1 c -0.433,-0.133 -0.8,-0.433 -1.1,-0.9 -0.114,-0.155 -0.197,-0.305 -0.25,-0.45 l -0.05,0 -0.75,-0.925 c -0.034,-0.001 -0.067,-0.001 -0.1,0 -0.003,0.701 -0.037,1.209 -0.1,1.525 l -0.15,0.15 c -0.3,-0.233 -0.75,-0.816 -1.35,-1.75 -0.138,-0.219 -0.271,-0.419 -0.4,-0.6 -0.205,-0.193 -0.388,-0.426 -0.55,-0.7 -0.057,-0.071 -0.115,-0.137 -0.175,-0.2 l -0.025,0 0,1.1 c 0.067,0.167 -0.1,0.25 -0.5,0.25 -0.2,0 -0.617,-0.333 -1.25,-1 -0.138,-0.16 -0.263,-0.302 -0.375,-0.425 -0.111,-0.05 -0.236,-0.075 -0.375,-0.075 -0.249,0 -0.507,-0.108 -0.775,-0.325 -0.1,0.05 -0.225,0.075 -0.375,0.075 -0.062,0 -0.429,-0.258 -1.1,-0.775 l 0,0.025 c -0.067,0.1 -0.15,0.183 -0.25,0.25 -0.846,-0.548 -1.538,-0.965 -2.075,-1.25 -0.125,-0.018 -0.225,-0.068 -0.3,-0.15 -0.302,-0.152 -0.543,-0.252 -0.725,-0.3 -0.093,0.033 -0.16,0.1 -0.2,0.2 -0.1,0.167 -0.25,0.25 -0.45,0.25 -0.438,0 -0.955,-0.267 -1.55,-0.8 -0.493,-0.378 -1.01,-0.729 -1.55,-1.05 l -0.05,0.25 c 0,0.067 -0.017,0.1 -0.05,0.1 l -0.45,0 c -0.26,-0.154 -0.51,-0.304 -0.75,-0.45 0.217,0.276 0.35,0.476 0.4,0.6 0,0.133 -0.083,0.25 -0.25,0.35 -0.433,-0.2 -0.883,-0.483 -1.35,-0.85 -0.441,-0.343 -0.75,-0.576 -0.925,-0.7 0.017,0.049 0.025,0.1 0.025,0.15 0,0.233 -0.417,0.733 -1.25,1.5 -0.467,0 -0.833,-0.15 -1.1,-0.45 -0.13,-0.144 -0.255,-0.261 -0.375,-0.35 0.581,0.646 0.956,1.096 1.125,1.35 l -0.15,0.2 c -0.039,0 -0.081,0 -0.125,0 -0.409,-0.028 -0.75,-0.195 -1.025,-0.5 -0.333,-0.333 -0.6,-0.5 -0.8,-0.5 -0.207,0 -0.39,-0.067 -0.55,-0.2 -0.077,0.031 -0.144,0.056 -0.2,0.075 l 0.05,0.075 0.25,0.35 c -0.029,0.088 -0.18,0.113 -0.45,0.075 -0.028,-0.009 -0.061,-0.017 -0.1,-0.025 -0.3,-0.034 -0.533,-0.1 -0.7,-0.2 l 0.05,0.35 -0.15,0.25 c -0.233,-0.133 -0.65,-0.483 -1.25,-1.05 -0.127,-0.12 -0.244,-0.228 -0.35,-0.325 -0.128,-0.049 -0.262,-0.099 -0.4,-0.15 -0.243,-0.082 -0.493,-0.173 -0.75,-0.275 -0.216,-0.082 -0.425,-0.166 -0.625,-0.25 0.043,0.115 0.218,0.381 0.525,0.8 -0.033,0.1 -0.133,0.183 -0.3,0.25 -0.492,-0.398 -0.9,-0.89 -1.225,-1.475 -0.215,-0.088 -0.423,-0.18 -0.625,-0.275 -0.359,-0.179 -0.701,-0.362 -1.025,-0.55 -0.21,0.141 -0.335,0.24 -0.375,0.3 l -0.1,0.4 c -0.205,-0.021 -0.414,-0.096 -0.625,-0.225 -0.122,-0.088 -0.247,-0.197 -0.375,-0.325 -0.131,-0.131 -0.24,-0.256 -0.325,-0.375 l -1.9,-0.025 -1.95,-0.025 -1.075,-0.025 c -0.316,-0.079 -0.575,-0.137 -0.775,-0.175 l -0.225,-1.325 0.225,1.325 c -0.229,-0.05 -0.388,-0.075 -0.475,-0.075 -0.036,0 -0.403,0.1 -1.1,0.3 l 0.6,-5.3 -0.6,5.3 c -0.592,0.184 -1.434,0.442 -2.525,0.775 -1.15,0.357 -2.575,0.798 -4.275,1.325 -5.167,1.567 -8.1669993,2.35 -8.9999993,2.35 -0.867,0 -1.9,-0.183 -3.1,-0.55 -1.4,-0.467 -2.1,-0.95 -2.1,-1.45 l 0,-0.05 c -0.426,0.133 -0.726,0.2 -0.9,0.2 -0.633,0 -1.067,-0.2 -1.3,-0.6 -0.133,-0.2 -0.2,-0.417 -0.2,-0.65 0,-1.467 5.067,-4.35 15.1999993,-8.65 3.164,-1.341 5.922,-2.507 8.275,-3.5 l 1.525,1.275 0.025,0.25 0.225,1.725 -0.225,-1.725 -0.025,-0.25 -1.527,-1.275 c 0.438,-0.192 0.863,-0.375 1.275,-0.55 l 0.25,1.825 -0.25,-1.825 c 0.875,-0.375 1.684,-0.726 2.425,-1.05 1.08,-0.464 2.021,-0.872 2.825,-1.225 0.199,-0.086 0.391,-0.169 0.575,-0.25 1.726,-0.75 2.692,-1.184 2.9,-1.3 0.008,-0.021 0.017,-0.046 0.025,-0.075 0.033,-0.077 0.066,-0.16 0.1,-0.25 0.069,-0.177 0.135,-0.343 0.2,-0.5 0.159,-0.375 0.309,-0.691 0.45,-0.95 0.062,0.249 0.096,0.641 0.1,1.175 0.172,-0.107 0.355,-0.224 0.55,-0.35 0.341,-0.229 0.716,-0.479 1.125,-0.75 0.253,-0.162 0.52,-0.337 0.8,-0.525 0.017,-0.048 0.025,-0.098 0.025,-0.15 l 0,-0.025 c 0.054,-0.041 0.104,-0.083 0.15,-0.125 z m -6.5,16.925 -0.75,-1.275 0.75,1.275 z m 3,1.575 -0.475,-0.7 0.475,0.7 z m 125.200002,-23.95 c 0.014,0.012 0.03,0.021 0.05,0.025 0.031,-0.004 0.064,-0.013 0.1,-0.025 l -0.15,0 z m 10.3,8.325 c 0.097,0.077 0.214,0.16 0.35,0.25 l 0.15,0.025 -0.5,-0.275 z m 2.325,1.275 c 0.062,0 0.121,0 0.175,0 l -0.3,-0.15 c 0.047,0.053 0.088,0.104 0.125,0.15 z m -0.7,1.1 c 0.065,0.047 0.133,0.098 0.2,0.15 l 0.524,0 c -0.148,-0.03 -0.382,-0.088 -0.699,-0.175 l -0.025,0.025 z m 2.375,27.749996 c 0,0.04 0.083,0.332 0.25,0.875 l 0,-0.6 c -0.088,-0.112 -0.171,-0.204 -0.25,-0.275 z m 1.9,4.4 c -0.434,-1.633 -0.817,-2.583 -1.15,-2.85 0.267,1.1 0.634,2.05 1.1,2.85 l 0.05,0 z m -0.4,0.6 c -0.064,-0.235 -0.223,-0.594 -0.475,-1.075 0.018,0.251 0.018,0.484 0,0.7 0.148,0.135 0.306,0.26 0.475,0.375 z m -7.65,3.3 0.051,0 c -0.021,-0.041 -0.112,-0.166 -0.275,-0.375 -0.034,-0.012 -0.067,-0.02 -0.1,-0.025 0.082,0.111 0.191,0.244 0.324,0.4 z M 22.422998,90.066904 l 1.625,-5.575 -1.625,5.575 z m 12.625,-14 0,-1.2 0,1.2 z m 1,-0.325 0.275,-1.775 -0.275,1.775 z m -0.5,2.5 -0.1,-2.35 0.1,2.35 z m -0.5,1.25 0,-2.725 0,2.725 z m -3.5,0 0,-3.825 0,3.825 z m -3,1 0.175,-3.6 -0.175,3.6 z m 3.25,-2.5 0.325,-2.575 -0.325,2.575 z m 7.7,12.725 -3.125,-1.975 0.55,0.875 -0.55,-0.875 3.125,1.975 z m -4.7,-2.975 1.575,1 -1.575,-1 z m -2,-1 0.95,1.4 -0.95,-1.4 z m -5.5,-0.25 1.075,2.775 -1.075,-2.775 z m 3.025,2.8 -1.275,-2.05 1.275,2.05 z m 32.575,8.2 0.15,0 c 0.075,-0.193 0.142,-0.376 0.2,-0.55 -0.18,-0.018 -0.347,-0.042 -0.5,-0.075 0.039,0.28 0.09,0.488 0.15,0.625 z m -24.525,-25.2 -1.55,5.9 2.925,-4.975 2.1,-3.55 -2.1,3.55 -2.925,4.975 1.55,-5.9 z m 1.375,0.925 4.9,-5.35 -4.9,5.35 z m -1.2,15.275 0.875,1.425 -0.875,-1.425 z m 1.75,0.5 0.75,0.9 -0.75,-0.9 z m -2.625,1.75 0.375,0.575 -0.375,-0.575 z m -1.125,-15.25 1.025,-3.075 -1.025,3.075 z m 110.500002,-17.85 c -0.402,0.06 -0.785,0.119 -1.15,0.175 0.071,0.039 0.138,0.081 0.2,0.125 0.293,-0.088 0.493,-0.154 0.601,-0.2 l 0.349,-0.1 z m -67.350003,48.849996 0,0.4 c 0.063,-0.094 0.129,-0.211 0.2,-0.35 -0.064,-0.018 -0.131,-0.035 -0.2,-0.05 z m 31.650003,11.925 c 0.043,0.327 0.076,0.686 0.101,1.075 l 0.1,0 c -0.085,-0.31 -0.126,-0.609 -0.125,-0.9 -0.021,-0.061 -0.037,-0.119 -0.05,-0.175 l -0.026,0 z m 2.95,0.6 0,-1.601 c -0.027,0.2 -0.061,0.408 -0.1,0.625 0,0.391 0.024,0.699 0.074,0.925 0.009,0.019 0.017,0.036 0.026,0.051 z m -38.675003,21.825 -0.075,0.05 c -0.015,-0.009 -0.031,-0.018 -0.05,-0.025 0.063,-0.1 0.105,-0.108 0.125,-0.025 z"
     id="path3"
     fill="param(fill) #000"
     fill-opacity="param(fill-opacity)"
     stroke="param(outline) #FFF"
     stroke-opacity="param(outline-opacity)"
     stroke-width="param(outline-width) 0"
     inkscape:connector-curvature="0" /></svg>